<svg xmlns="http://www.w3.org/2000/svg" width="820" height="820" viewBox="0 0 820 820">
<rect width="820" height="820" fill="white"/>
<line x1="410.00" y1="278.80" x2="410.00" y2="148.77" stroke="hsl(237.6, 81.2%, 68.1%)" stroke-width="5.4" stroke-linecap="round"/>
<line x1="415.72" y1="278.92" x2="421.31" y2="150.93" stroke="hsl(230.3, 84.1%, 66.4%)" stroke-width="5.4" stroke-linecap="round"/>
<line x1="421.43" y1="279.30" x2="432.43" y2="153.58" stroke="hsl(223.0, 91.5%, 62.9%)" stroke-width="5.4" stroke-linecap="round"/>
<line x1="427.13" y1="279.92" x2="443.60" y2="154.80" stroke="hsl(223.0, 91.5%, 62.9%)" stroke-width="5.4" stroke-linecap="round"/>
<line x1="432.78" y1="280.79" x2="454.70" y2="156.51" stroke="hsl(223.0, 91.5%, 62.9%)" stroke-width="5.4" stroke-linecap="round"/>
<line x1="438.40" y1="281.91" x2="465.71" y2="158.70" stroke="hsl(223.0, 91.5%, 62.9%)" stroke-width="5.4" stroke-linecap="round"/>
<line x1="443.96" y1="283.27" x2="476.62" y2="161.37" stroke="hsl(223.0, 91.5%, 62.9%)" stroke-width="5.4" stroke-linecap="round"/>
<line x1="449.45" y1="284.87" x2="487.06" y2="165.61" stroke="hsl(223.0, 91.5%, 62.9%)" stroke-width="5.4" stroke-linecap="round"/>
<line x1="454.87" y1="286.71" x2="497.25" y2="170.28" stroke="hsl(223.0, 91.5%, 62.9%)" stroke-width="5.4" stroke-linecap="round"/>
<line x1="460.21" y1="288.79" x2="507.18" y2="175.38" stroke="hsl(223.0, 91.5%, 62.9%)" stroke-width="5.4" stroke-linecap="round"/>
<line x1="465.45" y1="291.09" x2="516.84" y2="180.88" stroke="hsl(223.0, 91.5%, 62.9%)" stroke-width="5.4" stroke-linecap="round"/>
<line x1="470.58" y1="293.62" x2="527.26" y2="184.74" stroke="hsl(223.0, 91.5%, 62.9%)" stroke-width="5.4" stroke-linecap="round"/>
<line x1="475.60" y1="296.38" x2="537.55" y2="189.07" stroke="hsl(223.0, 91.5%, 62.9%)" stroke-width="5.4" stroke-linecap="round"/>
<line x1="480.49" y1="299.35" x2="547.68" y2="193.88" stroke="hsl(223.0, 91.5%, 62.9%)" stroke-width="5.4" stroke-linecap="round"/>
<line x1="485.25" y1="302.53" x2="557.64" y2="199.15" stroke="hsl(223.0, 91.5%, 62.9%)" stroke-width="5.4" stroke-linecap="round"/>
<line x1="489.87" y1="305.91" x2="568.33" y2="203.66" stroke="hsl(214.2, 77.8%, 64.3%)" stroke-width="5.4" stroke-linecap="round"/>
<line x1="494.33" y1="309.49" x2="578.90" y2="208.71" stroke="hsl(205.5, 69.8%, 63.5%)" stroke-width="5.4" stroke-linecap="round"/>
<line x1="498.64" y1="313.27" x2="589.33" y2="214.29" stroke="hsl(196.7, 66.4%, 60.6%)" stroke-width="5.4" stroke-linecap="round"/>
<line x1="502.77" y1="317.23" x2="599.59" y2="220.41" stroke="hsl(187.9, 66.5%, 55.5%)" stroke-width="5.4" stroke-linecap="round"/>
<line x1="506.73" y1="321.36" x2="610.22" y2="226.53" stroke="hsl(187.9, 66.5%, 55.5%)" stroke-width="5.4" stroke-linecap="round"/>
<line x1="510.51" y1="325.67" x2="620.68" y2="233.22" stroke="hsl(187.9, 66.5%, 55.5%)" stroke-width="5.4" stroke-linecap="round"/>
<line x1="514.09" y1="330.13" x2="630.92" y2="240.48" stroke="hsl(187.9, 66.5%, 55.5%)" stroke-width="5.4" stroke-linecap="round"/>
<line x1="517.47" y1="334.75" x2="640.93" y2="248.30" stroke="hsl(187.9, 66.5%, 55.5%)" stroke-width="5.4" stroke-linecap="round"/>
<line x1="520.65" y1="339.51" x2="649.70" y2="257.30" stroke="hsl(187.9, 66.5%, 55.5%)" stroke-width="5.4" stroke-linecap="round"/>
<line x1="523.62" y1="344.40" x2="658.12" y2="266.75" stroke="hsl(187.9, 66.5%, 55.5%)" stroke-width="5.4" stroke-linecap="round"/>
<line x1="526.38" y1="349.42" x2="666.17" y2="276.65" stroke="hsl(187.9, 66.5%, 55.5%)" stroke-width="5.4" stroke-linecap="round"/>
<line x1="528.91" y1="354.55" x2="673.83" y2="286.98" stroke="hsl(187.9, 66.5%, 55.5%)" stroke-width="5.4" stroke-linecap="round"/>
<line x1="531.21" y1="359.79" x2="673.28" y2="300.95" stroke="hsl(187.9, 66.5%, 55.5%)" stroke-width="5.4" stroke-linecap="round"/>
<line x1="533.29" y1="365.13" x2="672.03" y2="314.63" stroke="hsl(187.9, 66.5%, 55.5%)" stroke-width="5.4" stroke-linecap="round"/>
<line x1="535.13" y1="370.55" x2="670.10" y2="327.99" stroke="hsl(187.9, 66.5%, 55.5%)" stroke-width="5.4" stroke-linecap="round"/>
<line x1="536.73" y1="376.04" x2="667.51" y2="341.00" stroke="hsl(187.9, 66.5%, 55.5%)" stroke-width="5.4" stroke-linecap="round"/>
<line x1="538.09" y1="381.60" x2="673.26" y2="351.64" stroke="hsl(171.6, 50.0%, 59.9%)" stroke-width="5.4" stroke-linecap="round"/>
<line x1="539.21" y1="387.22" x2="678.58" y2="362.64" stroke="hsl(155.2, 41.4%, 60.4%)" stroke-width="5.4" stroke-linecap="round"/>
<line x1="540.08" y1="392.87" x2="683.42" y2="374.00" stroke="hsl(138.8, 38.6%, 56.8%)" stroke-width="5.4" stroke-linecap="round"/>
<line x1="540.70" y1="398.57" x2="687.78" y2="385.70" stroke="hsl(122.4, 39.4%, 49.2%)" stroke-width="5.4" stroke-linecap="round"/>
<line x1="541.08" y1="404.28" x2="690.11" y2="397.77" stroke="hsl(122.4, 39.4%, 49.2%)" stroke-width="5.4" stroke-linecap="round"/>
<line x1="541.20" y1="410.00" x2="691.91" y2="410.00" stroke="hsl(122.4, 39.4%, 49.2%)" stroke-width="5.4" stroke-linecap="round"/>
<line x1="541.08" y1="415.72" x2="693.17" y2="422.36" stroke="hsl(122.4, 39.4%, 49.2%)" stroke-width="5.4" stroke-linecap="round"/>
<line x1="540.70" y1="421.43" x2="693.89" y2="434.84" stroke="hsl(122.4, 39.4%, 49.2%)" stroke-width="5.4" stroke-linecap="round"/>
<line x1="540.08" y1="427.13" x2="694.05" y2="447.40" stroke="hsl(122.4, 39.4%, 49.2%)" stroke-width="5.4" stroke-linecap="round"/>
<line x1="539.21" y1="432.78" x2="693.66" y2="460.02" stroke="hsl(122.4, 39.4%, 49.2%)" stroke-width="5.4" stroke-linecap="round"/>
<line x1="538.09" y1="438.40" x2="692.70" y2="472.67" stroke="hsl(122.4, 39.4%, 49.2%)" stroke-width="5.4" stroke-linecap="round"/>
<line x1="536.73" y1="443.96" x2="691.18" y2="485.34" stroke="hsl(122.4, 39.4%, 49.2%)" stroke-width="5.4" stroke-linecap="round"/>
<line x1="535.13" y1="449.45" x2="687.26" y2="497.42" stroke="hsl(122.4, 39.4%, 49.2%)" stroke-width="5.4" stroke-linecap="round"/>
<line x1="533.29" y1="454.87" x2="682.82" y2="509.30" stroke="hsl(122.4, 39.4%, 49.2%)" stroke-width="5.4" stroke-linecap="round"/>
<line x1="531.21" y1="460.21" x2="677.88" y2="520.96" stroke="hsl(122.4, 39.4%, 49.2%)" stroke-width="5.4" stroke-linecap="round"/>
<line x1="528.91" y1="465.45" x2="672.44" y2="532.38" stroke="hsl(122.4, 39.4%, 49.2%)" stroke-width="5.4" stroke-linecap="round"/>
<line x1="526.38" y1="470.58" x2="650.55" y2="535.22" stroke="hsl(110.7, 42.5%, 53.4%)" stroke-width="5.4" stroke-linecap="round"/>
<line x1="523.62" y1="475.60" x2="628.94" y2="536.40" stroke="hsl(99.0, 48.0%, 54.6%)" stroke-width="5.4" stroke-linecap="round"/>
<line x1="520.65" y1="480.49" x2="607.71" y2="535.96" stroke="hsl(87.3, 57.8%, 53.1%)" stroke-width="5.4" stroke-linecap="round"/>
<line x1="517.47" y1="485.25" x2="586.97" y2="533.92" stroke="hsl(75.7, 74.2%, 48.6%)" stroke-width="5.4" stroke-linecap="round"/>
<line x1="514.09" y1="489.87" x2="592.34" y2="549.91" stroke="hsl(75.7, 74.2%, 48.6%)" stroke-width="5.4" stroke-linecap="round"/>
<line x1="510.51" y1="494.33" x2="596.62" y2="566.59" stroke="hsl(75.7, 74.2%, 48.6%)" stroke-width="5.4" stroke-linecap="round"/>
<line x1="506.73" y1="498.64" x2="599.78" y2="583.90" stroke="hsl(75.7, 74.2%, 48.6%)" stroke-width="5.4" stroke-linecap="round"/>
<line x1="502.77" y1="502.77" x2="601.76" y2="601.76" stroke="hsl(75.7, 74.2%, 48.6%)" stroke-width="5.4" stroke-linecap="round"/>
<line x1="498.64" y1="506.73" x2="585.71" y2="601.75" stroke="hsl(75.7, 74.2%, 48.6%)" stroke-width="5.4" stroke-linecap="round"/>
<line x1="494.33" y1="510.51" x2="570.04" y2="600.73" stroke="hsl(75.7, 74.2%, 48.6%)" stroke-width="5.4" stroke-linecap="round"/>
<line x1="489.87" y1="514.09" x2="554.81" y2="598.72" stroke="hsl(75.7, 74.2%, 48.6%)" stroke-width="5.4" stroke-linecap="round"/>
<line x1="485.25" y1="517.47" x2="540.07" y2="595.76" stroke="hsl(75.7, 74.2%, 48.6%)" stroke-width="5.4" stroke-linecap="round"/>
<line x1="480.49" y1="520.65" x2="532.25" y2="601.90" stroke="hsl(75.7, 74.2%, 48.6%)" stroke-width="5.4" stroke-linecap="round"/>
<line x1="475.60" y1="523.62" x2="524.15" y2="607.71" stroke="hsl(75.7, 74.2%, 48.6%)" stroke-width="5.4" stroke-linecap="round"/>
<line x1="470.58" y1="526.38" x2="515.77" y2="613.18" stroke="hsl(75.7, 74.2%, 48.6%)" stroke-width="5.4" stroke-linecap="round"/>
<line x1="465.45" y1="528.91" x2="507.13" y2="618.30" stroke="hsl(75.7, 74.2%, 48.6%)" stroke-width="5.4" stroke-linecap="round"/>
<line x1="460.21" y1="531.21" x2="500.30" y2="628.00" stroke="hsl(69.0, 72.9%, 54.2%)" stroke-width="5.4" stroke-linecap="round"/>
<line x1="454.87" y1="533.29" x2="492.80" y2="637.48" stroke="hsl(62.3, 74.8%, 58.1%)" stroke-width="5.4" stroke-linecap="round"/>
<line x1="449.45" y1="535.13" x2="484.64" y2="646.72" stroke="hsl(55.6, 80.3%, 60.3%)" stroke-width="5.4" stroke-linecap="round"/>
<line x1="443.96" y1="536.73" x2="475.83" y2="655.67" stroke="hsl(48.9, 89.9%, 61.0%)" stroke-width="5.4" stroke-linecap="round"/>
<line x1="438.40" y1="538.09" x2="460.16" y2="636.25" stroke="hsl(48.9, 89.9%, 61.0%)" stroke-width="5.4" stroke-linecap="round"/>
<line x1="432.78" y1="539.21" x2="446.32" y2="615.97" stroke="hsl(48.9, 89.9%, 61.0%)" stroke-width="5.4" stroke-linecap="round"/>
<line x1="427.13" y1="540.08" x2="434.35" y2="594.96" stroke="hsl(48.9, 89.9%, 61.0%)" stroke-width="5.4" stroke-linecap="round"/>
<line x1="421.43" y1="540.70" x2="424.29" y2="573.34" stroke="hsl(48.9, 89.9%, 61.0%)" stroke-width="5.4" stroke-linecap="round"/>
<line x1="415.72" y1="541.08" x2="417.19" y2="574.57" stroke="hsl(48.9, 89.9%, 61.0%)" stroke-width="5.4" stroke-linecap="round"/>
<line x1="410.00" y1="541.20" x2="410.00" y2="575.50" stroke="hsl(48.9, 89.9%, 61.0%)" stroke-width="5.4" stroke-linecap="round"/>
<line x1="404.28" y1="541.08" x2="402.75" y2="576.10" stroke="hsl(48.9, 89.9%, 61.0%)" stroke-width="5.4" stroke-linecap="round"/>
<line x1="398.57" y1="540.70" x2="395.44" y2="576.39" stroke="hsl(48.9, 89.9%, 61.0%)" stroke-width="5.4" stroke-linecap="round"/>
<line x1="392.87" y1="540.08" x2="388.35" y2="574.46" stroke="hsl(48.9, 89.9%, 61.0%)" stroke-width="5.4" stroke-linecap="round"/>
<line x1="387.22" y1="539.21" x2="381.39" y2="572.23" stroke="hsl(48.9, 89.9%, 61.0%)" stroke-width="5.4" stroke-linecap="round"/>
<line x1="381.60" y1="538.09" x2="374.59" y2="569.70" stroke="hsl(48.9, 89.9%, 61.0%)" stroke-width="5.4" stroke-linecap="round"/>
<line x1="376.04" y1="536.73" x2="367.96" y2="566.90" stroke="hsl(48.9, 89.9%, 61.0%)" stroke-width="5.4" stroke-linecap="round"/>
<line x1="370.55" y1="535.13" x2="356.09" y2="580.99" stroke="hsl(44.2, 85.7%, 62.7%)" stroke-width="5.4" stroke-linecap="round"/>
<line x1="365.13" y1="533.29" x2="342.92" y2="594.30" stroke="hsl(39.4, 84.2%, 63.3%)" stroke-width="5.4" stroke-linecap="round"/>
<line x1="359.79" y1="531.21" x2="328.50" y2="606.77" stroke="hsl(34.6, 85.7%, 62.7%)" stroke-width="5.4" stroke-linecap="round"/>
<line x1="354.55" y1="528.91" x2="312.87" y2="618.30" stroke="hsl(29.8, 89.9%, 61.0%)" stroke-width="5.4" stroke-linecap="round"/>
<line x1="349.42" y1="526.38" x2="312.54" y2="597.22" stroke="hsl(29.8, 89.9%, 61.0%)" stroke-width="5.4" stroke-linecap="round"/>
<line x1="344.40" y1="523.62" x2="313.85" y2="576.54" stroke="hsl(29.8, 89.9%, 61.0%)" stroke-width="5.4" stroke-linecap="round"/>
<line x1="339.51" y1="520.65" x2="316.76" y2="556.36" stroke="hsl(29.8, 89.9%, 61.0%)" stroke-width="5.4" stroke-linecap="round"/>
<line x1="334.75" y1="517.47" x2="321.22" y2="536.78" stroke="hsl(29.8, 89.9%, 61.0%)" stroke-width="5.4" stroke-linecap="round"/>
<line x1="330.13" y1="514.09" x2="298.53" y2="555.27" stroke="hsl(29.8, 89.9%, 61.0%)" stroke-width="5.4" stroke-linecap="round"/>
<line x1="325.67" y1="510.51" x2="274.08" y2="571.98" stroke="hsl(29.8, 89.9%, 61.0%)" stroke-width="5.4" stroke-linecap="round"/>
<line x1="321.36" y1="506.73" x2="248.00" y2="586.79" stroke="hsl(29.8, 89.9%, 61.0%)" stroke-width="5.4" stroke-linecap="round"/>
<line x1="317.23" y1="502.77" x2="220.41" y2="599.59" stroke="hsl(29.8, 89.9%, 61.0%)" stroke-width="5.4" stroke-linecap="round"/>
<line x1="313.27" y1="498.64" x2="221.35" y2="582.86" stroke="hsl(29.8, 89.9%, 61.0%)" stroke-width="5.4" stroke-linecap="round"/>
<line x1="309.49" y1="494.33" x2="223.38" y2="566.59" stroke="hsl(29.8, 89.9%, 61.0%)" stroke-width="5.4" stroke-linecap="round"/>
<line x1="305.91" y1="489.87" x2="226.45" y2="550.84" stroke="hsl(29.8, 89.9%, 61.0%)" stroke-width="5.4" stroke-linecap="round"/>
<line x1="302.53" y1="485.25" x2="230.52" y2="535.68" stroke="hsl(29.8, 89.9%, 61.0%)" stroke-width="5.4" stroke-linecap="round"/>
<line x1="299.35" y1="480.49" x2="226.82" y2="526.70" stroke="hsl(22.7, 81.9%, 64.0%)" stroke-width="5.4" stroke-linecap="round"/>
<line x1="296.38" y1="475.60" x2="223.56" y2="517.64" stroke="hsl(15.5, 78.3%, 65.3%)" stroke-width="5.4" stroke-linecap="round"/>
<line x1="293.62" y1="470.58" x2="220.74" y2="508.52" stroke="hsl(8.3, 78.8%, 64.8%)" stroke-width="5.4" stroke-linecap="round"/>
<line x1="291.09" y1="465.45" x2="218.36" y2="499.36" stroke="hsl(1.1, 83.2%, 62.5%)" stroke-width="5.4" stroke-linecap="round"/>
<line x1="288.79" y1="460.21" x2="221.72" y2="487.99" stroke="hsl(1.1, 83.2%, 62.5%)" stroke-width="5.4" stroke-linecap="round"/>
<line x1="286.71" y1="454.87" x2="225.70" y2="477.08" stroke="hsl(1.1, 83.2%, 62.5%)" stroke-width="5.4" stroke-linecap="round"/>
<line x1="284.87" y1="449.45" x2="230.25" y2="466.68" stroke="hsl(1.1, 83.2%, 62.5%)" stroke-width="5.4" stroke-linecap="round"/>
<line x1="283.27" y1="443.96" x2="235.35" y2="456.80" stroke="hsl(1.1, 83.2%, 62.5%)" stroke-width="5.4" stroke-linecap="round"/>
<line x1="281.91" y1="438.40" x2="233.10" y2="449.22" stroke="hsl(1.1, 83.2%, 62.5%)" stroke-width="5.4" stroke-linecap="round"/>
<line x1="280.79" y1="432.78" x2="231.18" y2="441.53" stroke="hsl(1.1, 83.2%, 62.5%)" stroke-width="5.4" stroke-linecap="round"/>
<line x1="279.92" y1="427.13" x2="229.59" y2="433.75" stroke="hsl(1.1, 83.2%, 62.5%)" stroke-width="5.4" stroke-linecap="round"/>
<line x1="279.30" y1="421.43" x2="228.35" y2="425.89" stroke="hsl(1.1, 83.2%, 62.5%)" stroke-width="5.4" stroke-linecap="round"/>
<line x1="278.92" y1="415.72" x2="219.41" y2="418.32" stroke="hsl(1.1, 83.2%, 62.5%)" stroke-width="5.4" stroke-linecap="round"/>
<line x1="278.80" y1="410.00" x2="210.80" y2="410.00" stroke="hsl(1.1, 83.2%, 62.5%)" stroke-width="5.4" stroke-linecap="round"/>
<line x1="278.92" y1="404.28" x2="202.58" y2="400.94" stroke="hsl(1.1, 83.2%, 62.5%)" stroke-width="5.4" stroke-linecap="round"/>
<line x1="279.30" y1="398.57" x2="194.78" y2="391.17" stroke="hsl(1.1, 83.2%, 62.5%)" stroke-width="5.4" stroke-linecap="round"/>
<line x1="279.92" y1="392.87" x2="199.98" y2="382.35" stroke="hsl(353.1, 73.2%, 65.2%)" stroke-width="5.4" stroke-linecap="round"/>
<line x1="280.79" y1="387.22" x2="205.53" y2="373.95" stroke="hsl(345.1, 67.7%, 66.0%)" stroke-width="5.4" stroke-linecap="round"/>
<line x1="281.91" y1="381.60" x2="211.41" y2="365.97" stroke="hsl(337.1, 66.3%, 64.7%)" stroke-width="5.4" stroke-linecap="round"/>
<line x1="283.27" y1="376.04" x2="217.59" y2="358.44" stroke="hsl(329.1, 68.4%, 61.6%)" stroke-width="5.4" stroke-linecap="round"/>
<line x1="284.87" y1="370.55" x2="216.74" y2="349.06" stroke="hsl(329.1, 68.4%, 61.6%)" stroke-width="5.4" stroke-linecap="round"/>
<line x1="286.71" y1="365.13" x2="216.34" y2="339.51" stroke="hsl(329.1, 68.4%, 61.6%)" stroke-width="5.4" stroke-linecap="round"/>
<line x1="288.79" y1="359.79" x2="216.42" y2="329.81" stroke="hsl(329.1, 68.4%, 61.6%)" stroke-width="5.4" stroke-linecap="round"/>
<line x1="291.09" y1="354.55" x2="216.97" y2="319.99" stroke="hsl(329.1, 68.4%, 61.6%)" stroke-width="5.4" stroke-linecap="round"/>
<line x1="293.62" y1="349.42" x2="211.91" y2="306.88" stroke="hsl(329.1, 68.4%, 61.6%)" stroke-width="5.4" stroke-linecap="round"/>
<line x1="296.38" y1="344.40" x2="207.64" y2="293.17" stroke="hsl(329.1, 68.4%, 61.6%)" stroke-width="5.4" stroke-linecap="round"/>
<line x1="299.35" y1="339.51" x2="204.21" y2="278.90" stroke="hsl(329.1, 68.4%, 61.6%)" stroke-width="5.4" stroke-linecap="round"/>
<line x1="302.53" y1="334.75" x2="201.66" y2="264.12" stroke="hsl(329.1, 68.4%, 61.6%)" stroke-width="5.4" stroke-linecap="round"/>
<line x1="305.91" y1="330.13" x2="214.90" y2="260.30" stroke="hsl(329.1, 68.4%, 61.6%)" stroke-width="5.4" stroke-linecap="round"/>
<line x1="309.49" y1="325.67" x2="228.07" y2="257.34" stroke="hsl(329.1, 68.4%, 61.6%)" stroke-width="5.4" stroke-linecap="round"/>
<line x1="313.27" y1="321.36" x2="241.12" y2="255.25" stroke="hsl(329.1, 68.4%, 61.6%)" stroke-width="5.4" stroke-linecap="round"/>
<line x1="317.23" y1="317.23" x2="253.98" y2="253.98" stroke="hsl(329.1, 68.4%, 61.6%)" stroke-width="5.4" stroke-linecap="round"/>
<line x1="321.36" y1="313.27" x2="254.21" y2="239.99" stroke="hsl(309.9, 59.3%, 69.7%)" stroke-width="5.4" stroke-linecap="round"/>
<line x1="325.67" y1="309.49" x2="255.38" y2="225.73" stroke="hsl(290.6, 58.3%, 73.2%)" stroke-width="5.4" stroke-linecap="round"/>
<line x1="330.13" y1="305.91" x2="257.50" y2="211.26" stroke="hsl(271.4, 67.4%, 72.0%)" stroke-width="5.4" stroke-linecap="round"/>
<line x1="334.75" y1="302.53" x2="260.60" y2="196.64" stroke="hsl(252.2, 88.4%, 66.1%)" stroke-width="5.4" stroke-linecap="round"/>
<line x1="339.51" y1="299.35" x2="274.37" y2="197.11" stroke="hsl(252.2, 88.4%, 66.1%)" stroke-width="5.4" stroke-linecap="round"/>
<line x1="344.40" y1="296.38" x2="287.81" y2="198.36" stroke="hsl(252.2, 88.4%, 66.1%)" stroke-width="5.4" stroke-linecap="round"/>
<line x1="349.42" y1="293.62" x2="300.87" y2="200.36" stroke="hsl(252.2, 88.4%, 66.1%)" stroke-width="5.4" stroke-linecap="round"/>
<line x1="354.55" y1="291.09" x2="313.52" y2="203.09" stroke="hsl(252.2, 88.4%, 66.1%)" stroke-width="5.4" stroke-linecap="round"/>
<line x1="359.79" y1="288.79" x2="322.63" y2="199.08" stroke="hsl(252.2, 88.4%, 66.1%)" stroke-width="5.4" stroke-linecap="round"/>
<line x1="365.13" y1="286.71" x2="331.92" y2="195.47" stroke="hsl(252.2, 88.4%, 66.1%)" stroke-width="5.4" stroke-linecap="round"/>
<line x1="370.55" y1="284.87" x2="341.35" y2="192.27" stroke="hsl(252.2, 88.4%, 66.1%)" stroke-width="5.4" stroke-linecap="round"/>
<line x1="376.04" y1="283.27" x2="350.91" y2="189.48" stroke="hsl(252.2, 88.4%, 66.1%)" stroke-width="5.4" stroke-linecap="round"/>
<line x1="381.60" y1="281.91" x2="358.60" y2="178.14" stroke="hsl(252.2, 88.4%, 66.1%)" stroke-width="5.4" stroke-linecap="round"/>
<line x1="387.22" y1="280.79" x2="367.16" y2="167.07" stroke="hsl(252.2, 88.4%, 66.1%)" stroke-width="5.4" stroke-linecap="round"/>
<line x1="392.87" y1="279.92" x2="376.60" y2="156.32" stroke="hsl(252.2, 88.4%, 66.1%)" stroke-width="5.4" stroke-linecap="round"/>
<line x1="398.57" y1="279.30" x2="386.90" y2="145.95" stroke="hsl(252.2, 88.4%, 66.1%)" stroke-width="5.4" stroke-linecap="round"/>
<line x1="404.28" y1="278.92" x2="398.52" y2="147.10" stroke="hsl(244.9, 82.7%, 68.0%)" stroke-width="5.4" stroke-linecap="round"/>
<text x="525.0" y="94.1" text-anchor="middle" dominant-baseline="middle" font-family="sans-serif" font-size="15.5" fill="#777">数理・情報</text>
<text x="701.2" y="241.9" text-anchor="middle" dominant-baseline="middle" font-family="sans-serif" font-size="15.5" fill="#777">物理・化学</text>
<text x="741.1" y="468.4" text-anchor="middle" dominant-baseline="middle" font-family="sans-serif" font-size="15.5" fill="#777">機械・材料</text>
<text x="626.1" y="667.5" text-anchor="middle" dominant-baseline="middle" font-family="sans-serif" font-size="15.5" fill="#777">建設・環境</text>
<text x="410.0" y="746.2" text-anchor="middle" dominant-baseline="middle" font-family="sans-serif" font-size="15.5" fill="#777">生命・医療</text>
<text x="193.9" y="667.5" text-anchor="middle" dominant-baseline="middle" font-family="sans-serif" font-size="15.5" fill="#777">健康・こころ</text>
<text x="78.9" y="468.4" text-anchor="middle" dominant-baseline="middle" font-family="sans-serif" font-size="15.5" fill="#777">教育・人文</text>
<text x="118.8" y="241.9" text-anchor="middle" dominant-baseline="middle" font-family="sans-serif" font-size="15.5" fill="#777">法・政治・社会</text>
<text x="295.0" y="94.1" text-anchor="middle" dominant-baseline="middle" font-family="sans-serif" font-size="15.5" fill="#777">経済・経営</text>
<text x="410" y="806" text-anchor="middle" font-family="sans-serif" font-size="19" fill="#444">9カテゴリ (36学部) / 144本 / mixed 22軸計測 / hsl</text>
</svg>