<svg xmlns="http://www.w3.org/2000/svg" width="820" height="820" viewBox="0 0 820 820">
<rect width="820" height="820" fill="white"/>
<line x1="410.00" y1="278.80" x2="410.00" y2="162.88" stroke="hsl(343.8, 86.1%, 45.6%)" stroke-width="5" stroke-linecap="round"/>
<line x1="415.28" y1="278.91" x2="420.17" y2="157.58" stroke="hsl(344.0, 88.3%, 44.0%)" stroke-width="5" stroke-linecap="round"/>
<line x1="420.56" y1="279.23" x2="430.77" y2="152.72" stroke="hsl(344.1, 90.6%, 42.5%)" stroke-width="5" stroke-linecap="round"/>
<line x1="425.81" y1="279.76" x2="441.78" y2="148.31" stroke="hsl(344.2, 92.9%, 40.9%)" stroke-width="5" stroke-linecap="round"/>
<line x1="431.05" y1="280.50" x2="453.17" y2="144.37" stroke="hsl(344.4, 95.2%, 39.3%)" stroke-width="5" stroke-linecap="round"/>
<line x1="436.24" y1="281.45" x2="464.93" y2="140.94" stroke="hsl(344.5, 97.6%, 37.7%)" stroke-width="5" stroke-linecap="round"/>
<line x1="441.40" y1="282.61" x2="477.03" y2="138.03" stroke="hsl(344.7, 100.0%, 36.1%)" stroke-width="5" stroke-linecap="round"/>
<line x1="446.50" y1="283.98" x2="486.81" y2="144.83" stroke="hsl(348.0, 95.9%, 39.2%)" stroke-width="5" stroke-linecap="round"/>
<line x1="451.55" y1="285.55" x2="496.15" y2="151.96" stroke="hsl(351.4, 92.5%, 42.0%)" stroke-width="5" stroke-linecap="round"/>
<line x1="456.52" y1="287.33" x2="505.04" y2="159.40" stroke="hsl(354.8, 89.9%, 44.5%)" stroke-width="5" stroke-linecap="round"/>
<line x1="461.43" y1="289.30" x2="513.47" y2="167.14" stroke="hsl(358.2, 88.0%, 46.8%)" stroke-width="5" stroke-linecap="round"/>
<line x1="466.24" y1="291.47" x2="521.44" y2="175.15" stroke="hsl(1.5, 86.9%, 48.8%)" stroke-width="5" stroke-linecap="round"/>
<line x1="470.97" y1="293.83" x2="528.93" y2="183.39" stroke="hsl(4.9, 86.5%, 50.5%)" stroke-width="5" stroke-linecap="round"/>
<line x1="475.60" y1="296.38" x2="535.94" y2="191.86" stroke="hsl(8.3, 86.9%, 52.0%)" stroke-width="5" stroke-linecap="round"/>
<line x1="480.12" y1="299.11" x2="542.47" y2="200.51" stroke="hsl(11.7, 88.0%, 53.2%)" stroke-width="5" stroke-linecap="round"/>
<line x1="484.53" y1="302.02" x2="548.51" y2="209.34" stroke="hsl(15.0, 89.9%, 54.1%)" stroke-width="5" stroke-linecap="round"/>
<line x1="488.82" y1="305.11" x2="554.05" y2="218.30" stroke="hsl(18.4, 92.5%, 54.7%)" stroke-width="5" stroke-linecap="round"/>
<line x1="492.98" y1="308.37" x2="559.11" y2="227.38" stroke="hsl(21.8, 95.9%, 55.0%)" stroke-width="5" stroke-linecap="round"/>
<line x1="497.00" y1="311.80" x2="563.67" y2="236.55" stroke="hsl(25.2, 100.0%, 55.1%)" stroke-width="5" stroke-linecap="round"/>
<line x1="500.89" y1="315.38" x2="570.53" y2="242.87" stroke="hsl(25.2, 100.0%, 55.1%)" stroke-width="5" stroke-linecap="round"/>
<line x1="504.62" y1="319.11" x2="577.13" y2="249.47" stroke="hsl(25.2, 100.0%, 55.1%)" stroke-width="5" stroke-linecap="round"/>
<line x1="508.20" y1="323.00" x2="583.45" y2="256.33" stroke="hsl(25.2, 100.0%, 55.1%)" stroke-width="5" stroke-linecap="round"/>
<line x1="511.63" y1="327.02" x2="589.50" y2="263.44" stroke="hsl(25.2, 100.0%, 55.1%)" stroke-width="5" stroke-linecap="round"/>
<line x1="514.89" y1="331.18" x2="595.26" y2="270.79" stroke="hsl(25.2, 100.0%, 55.1%)" stroke-width="5" stroke-linecap="round"/>
<line x1="517.98" y1="335.47" x2="600.71" y2="278.36" stroke="hsl(25.2, 100.0%, 55.1%)" stroke-width="5" stroke-linecap="round"/>
<line x1="520.89" y1="339.88" x2="605.86" y2="286.15" stroke="hsl(25.2, 100.0%, 55.1%)" stroke-width="5" stroke-linecap="round"/>
<line x1="523.62" y1="344.40" x2="610.69" y2="294.13" stroke="hsl(25.2, 100.0%, 55.1%)" stroke-width="5" stroke-linecap="round"/>
<line x1="526.17" y1="349.03" x2="615.19" y2="302.31" stroke="hsl(25.2, 100.0%, 55.1%)" stroke-width="5" stroke-linecap="round"/>
<line x1="528.53" y1="353.76" x2="619.36" y2="310.66" stroke="hsl(25.2, 100.0%, 55.1%)" stroke-width="5" stroke-linecap="round"/>
<line x1="530.70" y1="358.57" x2="623.19" y2="319.17" stroke="hsl(25.2, 100.0%, 55.1%)" stroke-width="5" stroke-linecap="round"/>
<line x1="532.67" y1="363.48" x2="626.67" y2="327.83" stroke="hsl(25.2, 100.0%, 55.1%)" stroke-width="5" stroke-linecap="round"/>
<line x1="534.45" y1="368.45" x2="626.16" y2="337.84" stroke="hsl(27.2, 97.5%, 55.6%)" stroke-width="5" stroke-linecap="round"/>
<line x1="536.02" y1="373.50" x2="625.19" y2="347.67" stroke="hsl(29.3, 95.4%, 55.9%)" stroke-width="5" stroke-linecap="round"/>
<line x1="537.39" y1="378.60" x2="623.79" y2="357.31" stroke="hsl(31.3, 93.8%, 56.1%)" stroke-width="5" stroke-linecap="round"/>
<line x1="538.55" y1="383.76" x2="621.97" y2="366.73" stroke="hsl(33.4, 92.7%, 56.1%)" stroke-width="5" stroke-linecap="round"/>
<line x1="539.50" y1="388.95" x2="619.74" y2="375.91" stroke="hsl(35.5, 92.0%, 55.9%)" stroke-width="5" stroke-linecap="round"/>
<line x1="540.24" y1="394.19" x2="617.12" y2="384.85" stroke="hsl(37.5, 91.8%, 55.6%)" stroke-width="5" stroke-linecap="round"/>
<line x1="540.77" y1="399.44" x2="614.13" y2="393.52" stroke="hsl(39.6, 92.0%, 55.1%)" stroke-width="5" stroke-linecap="round"/>
<line x1="541.09" y1="404.72" x2="610.79" y2="401.91" stroke="hsl(41.6, 92.7%, 54.4%)" stroke-width="5" stroke-linecap="round"/>
<line x1="541.20" y1="410.00" x2="607.10" y2="410.00" stroke="hsl(43.7, 93.8%, 53.5%)" stroke-width="5" stroke-linecap="round"/>
<line x1="541.09" y1="415.28" x2="603.10" y2="417.78" stroke="hsl(45.8, 95.4%, 52.5%)" stroke-width="5" stroke-linecap="round"/>
<line x1="540.77" y1="420.56" x2="598.79" y2="425.24" stroke="hsl(47.8, 97.5%, 51.3%)" stroke-width="5" stroke-linecap="round"/>
<line x1="540.24" y1="425.81" x2="594.21" y2="432.37" stroke="hsl(49.9, 100.0%, 50.0%)" stroke-width="5" stroke-linecap="round"/>
<line x1="539.50" y1="431.05" x2="594.96" y2="440.06" stroke="hsl(49.9, 100.0%, 50.0%)" stroke-width="5" stroke-linecap="round"/>
<line x1="538.55" y1="436.24" x2="595.40" y2="447.85" stroke="hsl(49.9, 100.0%, 50.0%)" stroke-width="5" stroke-linecap="round"/>
<line x1="537.39" y1="441.40" x2="595.50" y2="455.72" stroke="hsl(49.9, 100.0%, 50.0%)" stroke-width="5" stroke-linecap="round"/>
<line x1="536.02" y1="446.50" x2="595.27" y2="463.66" stroke="hsl(49.9, 100.0%, 50.0%)" stroke-width="5" stroke-linecap="round"/>
<line x1="534.45" y1="451.55" x2="594.70" y2="471.66" stroke="hsl(49.9, 100.0%, 50.0%)" stroke-width="5" stroke-linecap="round"/>
<line x1="532.67" y1="456.52" x2="593.78" y2="479.70" stroke="hsl(49.9, 100.0%, 50.0%)" stroke-width="5" stroke-linecap="round"/>
<line x1="530.70" y1="461.43" x2="592.51" y2="487.76" stroke="hsl(49.9, 100.0%, 50.0%)" stroke-width="5" stroke-linecap="round"/>
<line x1="528.53" y1="466.24" x2="590.89" y2="495.83" stroke="hsl(49.9, 100.0%, 50.0%)" stroke-width="5" stroke-linecap="round"/>
<line x1="526.17" y1="470.97" x2="588.91" y2="503.90" stroke="hsl(49.9, 100.0%, 50.0%)" stroke-width="5" stroke-linecap="round"/>
<line x1="523.62" y1="475.60" x2="586.57" y2="511.94" stroke="hsl(49.9, 100.0%, 50.0%)" stroke-width="5" stroke-linecap="round"/>
<line x1="520.89" y1="480.12" x2="583.87" y2="519.95" stroke="hsl(49.9, 100.0%, 50.0%)" stroke-width="5" stroke-linecap="round"/>
<line x1="517.98" y1="484.53" x2="580.81" y2="527.90" stroke="hsl(49.9, 100.0%, 50.0%)" stroke-width="5" stroke-linecap="round"/>
<line x1="514.89" y1="488.82" x2="580.17" y2="537.87" stroke="hsl(51.6, 95.8%, 51.3%)" stroke-width="5" stroke-linecap="round"/>
<line x1="511.63" y1="492.98" x2="579.00" y2="547.98" stroke="hsl(53.4, 92.1%, 52.5%)" stroke-width="5" stroke-linecap="round"/>
<line x1="508.20" y1="497.00" x2="577.28" y2="558.20" stroke="hsl(55.1, 88.8%, 53.5%)" stroke-width="5" stroke-linecap="round"/>
<line x1="504.62" y1="500.89" x2="575.01" y2="568.50" stroke="hsl(56.9, 85.9%, 54.4%)" stroke-width="5" stroke-linecap="round"/>
<line x1="500.89" y1="504.62" x2="572.18" y2="578.84" stroke="hsl(58.6, 83.4%, 55.2%)" stroke-width="5" stroke-linecap="round"/>
<line x1="497.00" y1="508.20" x2="568.77" y2="589.21" stroke="hsl(60.4, 81.3%, 55.8%)" stroke-width="5" stroke-linecap="round"/>
<line x1="492.98" y1="511.63" x2="564.79" y2="599.58" stroke="hsl(62.1, 79.5%, 56.3%)" stroke-width="5" stroke-linecap="round"/>
<line x1="488.82" y1="514.89" x2="560.22" y2="609.91" stroke="hsl(63.9, 78.0%, 56.6%)" stroke-width="5" stroke-linecap="round"/>
<line x1="484.53" y1="517.98" x2="555.07" y2="620.17" stroke="hsl(65.6, 76.8%, 56.8%)" stroke-width="5" stroke-linecap="round"/>
<line x1="480.12" y1="520.89" x2="549.33" y2="630.33" stroke="hsl(67.3, 75.9%, 56.8%)" stroke-width="5" stroke-linecap="round"/>
<line x1="475.60" y1="523.62" x2="543.00" y2="640.36" stroke="hsl(69.1, 75.2%, 56.7%)" stroke-width="5" stroke-linecap="round"/>
<line x1="470.97" y1="526.17" x2="536.08" y2="650.23" stroke="hsl(70.8, 74.8%, 56.5%)" stroke-width="5" stroke-linecap="round"/>
<line x1="466.24" y1="528.53" x2="524.50" y2="651.31" stroke="hsl(70.8, 74.8%, 56.5%)" stroke-width="5" stroke-linecap="round"/>
<line x1="461.43" y1="530.70" x2="513.04" y2="651.85" stroke="hsl(70.8, 74.8%, 56.5%)" stroke-width="5" stroke-linecap="round"/>
<line x1="456.52" y1="532.67" x2="501.72" y2="651.86" stroke="hsl(70.8, 74.8%, 56.5%)" stroke-width="5" stroke-linecap="round"/>
<line x1="451.55" y1="534.45" x2="490.58" y2="651.36" stroke="hsl(70.8, 74.8%, 56.5%)" stroke-width="5" stroke-linecap="round"/>
<line x1="446.50" y1="536.02" x2="479.62" y2="650.36" stroke="hsl(70.8, 74.8%, 56.5%)" stroke-width="5" stroke-linecap="round"/>
<line x1="441.40" y1="537.39" x2="468.88" y2="648.88" stroke="hsl(70.8, 74.8%, 56.5%)" stroke-width="5" stroke-linecap="round"/>
<line x1="436.24" y1="538.55" x2="458.37" y2="646.92" stroke="hsl(70.8, 74.8%, 56.5%)" stroke-width="5" stroke-linecap="round"/>
<line x1="431.05" y1="539.50" x2="448.11" y2="644.52" stroke="hsl(70.8, 74.8%, 56.5%)" stroke-width="5" stroke-linecap="round"/>
<line x1="425.81" y1="540.24" x2="438.13" y2="641.68" stroke="hsl(70.8, 74.8%, 56.5%)" stroke-width="5" stroke-linecap="round"/>
<line x1="420.56" y1="540.77" x2="428.44" y2="638.42" stroke="hsl(70.8, 74.8%, 56.5%)" stroke-width="5" stroke-linecap="round"/>
<line x1="415.28" y1="541.09" x2="419.06" y2="634.77" stroke="hsl(70.8, 74.8%, 56.5%)" stroke-width="5" stroke-linecap="round"/>
<line x1="410.00" y1="541.20" x2="410.00" y2="630.74" stroke="hsl(70.8, 74.8%, 56.5%)" stroke-width="5" stroke-linecap="round"/>
<line x1="404.72" y1="541.09" x2="401.33" y2="625.07" stroke="hsl(69.1, 74.1%, 59.2%)" stroke-width="5" stroke-linecap="round"/>
<line x1="399.44" y1="540.77" x2="393.12" y2="619.06" stroke="hsl(67.3, 73.8%, 61.7%)" stroke-width="5" stroke-linecap="round"/>
<line x1="394.19" y1="540.24" x2="385.38" y2="612.76" stroke="hsl(65.5, 73.6%, 64.1%)" stroke-width="5" stroke-linecap="round"/>
<line x1="388.95" y1="539.50" x2="378.12" y2="606.18" stroke="hsl(63.8, 73.8%, 66.4%)" stroke-width="5" stroke-linecap="round"/>
<line x1="383.76" y1="538.55" x2="371.34" y2="599.35" stroke="hsl(62.0, 74.3%, 68.5%)" stroke-width="5" stroke-linecap="round"/>
<line x1="378.60" y1="537.39" x2="365.07" y2="592.30" stroke="hsl(60.2, 75.1%, 70.4%)" stroke-width="5" stroke-linecap="round"/>
<line x1="373.50" y1="536.02" x2="359.29" y2="585.06" stroke="hsl(58.4, 76.1%, 72.3%)" stroke-width="5" stroke-linecap="round"/>
<line x1="368.45" y1="534.45" x2="354.02" y2="577.67" stroke="hsl(56.7, 77.6%, 73.9%)" stroke-width="5" stroke-linecap="round"/>
<line x1="363.48" y1="532.67" x2="349.27" y2="570.14" stroke="hsl(54.9, 79.3%, 75.5%)" stroke-width="5" stroke-linecap="round"/>
<line x1="358.57" y1="530.70" x2="345.02" y2="562.50" stroke="hsl(53.1, 81.4%, 76.9%)" stroke-width="5" stroke-linecap="round"/>
<line x1="353.76" y1="528.53" x2="341.29" y2="554.80" stroke="hsl(51.3, 83.9%, 78.1%)" stroke-width="5" stroke-linecap="round"/>
<line x1="349.03" y1="526.17" x2="338.07" y2="547.05" stroke="hsl(49.6, 86.8%, 79.2%)" stroke-width="5" stroke-linecap="round"/>
<line x1="344.40" y1="523.62" x2="330.23" y2="548.16" stroke="hsl(49.6, 86.8%, 79.2%)" stroke-width="5" stroke-linecap="round"/>
<line x1="339.88" y1="520.89" x2="322.19" y2="548.87" stroke="hsl(49.6, 86.8%, 79.2%)" stroke-width="5" stroke-linecap="round"/>
<line x1="335.47" y1="517.98" x2="313.96" y2="549.14" stroke="hsl(49.6, 86.8%, 79.2%)" stroke-width="5" stroke-linecap="round"/>
<line x1="331.18" y1="514.89" x2="305.57" y2="548.97" stroke="hsl(49.6, 86.8%, 79.2%)" stroke-width="5" stroke-linecap="round"/>
<line x1="327.02" y1="511.63" x2="297.05" y2="548.34" stroke="hsl(49.6, 86.8%, 79.2%)" stroke-width="5" stroke-linecap="round"/>
<line x1="323.00" y1="508.20" x2="288.41" y2="547.25" stroke="hsl(49.6, 86.8%, 79.2%)" stroke-width="5" stroke-linecap="round"/>
<line x1="319.11" y1="504.62" x2="279.68" y2="545.67" stroke="hsl(49.6, 86.8%, 79.2%)" stroke-width="5" stroke-linecap="round"/>
<line x1="315.38" y1="500.89" x2="270.89" y2="543.62" stroke="hsl(49.6, 86.8%, 79.2%)" stroke-width="5" stroke-linecap="round"/>
<line x1="311.80" y1="497.00" x2="262.06" y2="541.07" stroke="hsl(49.6, 86.8%, 79.2%)" stroke-width="5" stroke-linecap="round"/>
<line x1="308.37" y1="492.98" x2="253.21" y2="538.02" stroke="hsl(49.6, 86.8%, 79.2%)" stroke-width="5" stroke-linecap="round"/>
<line x1="305.11" y1="488.82" x2="244.37" y2="534.46" stroke="hsl(49.6, 86.8%, 79.2%)" stroke-width="5" stroke-linecap="round"/>
<line x1="302.02" y1="484.53" x2="235.57" y2="530.40" stroke="hsl(49.6, 86.8%, 79.2%)" stroke-width="5" stroke-linecap="round"/>
<line x1="299.11" y1="480.12" x2="234.58" y2="520.93" stroke="hsl(49.0, 83.6%, 80.1%)" stroke-width="5" stroke-linecap="round"/>
<line x1="296.38" y1="475.60" x2="234.07" y2="511.57" stroke="hsl(48.5, 80.5%, 80.9%)" stroke-width="5" stroke-linecap="round"/>
<line x1="293.83" y1="470.97" x2="234.01" y2="502.36" stroke="hsl(48.0, 77.5%, 81.7%)" stroke-width="5" stroke-linecap="round"/>
<line x1="291.47" y1="466.24" x2="234.41" y2="493.32" stroke="hsl(47.5, 74.6%, 82.5%)" stroke-width="5" stroke-linecap="round"/>
<line x1="289.30" y1="461.43" x2="235.24" y2="484.46" stroke="hsl(47.0, 71.9%, 83.2%)" stroke-width="5" stroke-linecap="round"/>
<line x1="287.33" y1="456.52" x2="236.50" y2="475.80" stroke="hsl(46.4, 69.2%, 83.9%)" stroke-width="5" stroke-linecap="round"/>
<line x1="285.55" y1="451.55" x2="238.16" y2="467.37" stroke="hsl(45.9, 66.6%, 84.5%)" stroke-width="5" stroke-linecap="round"/>
<line x1="283.98" y1="446.50" x2="240.22" y2="459.18" stroke="hsl(45.4, 64.1%, 85.1%)" stroke-width="5" stroke-linecap="round"/>
<line x1="282.61" y1="441.40" x2="242.64" y2="451.25" stroke="hsl(44.9, 61.6%, 85.7%)" stroke-width="5" stroke-linecap="round"/>
<line x1="281.45" y1="436.24" x2="245.43" y2="443.60" stroke="hsl(44.4, 59.2%, 86.2%)" stroke-width="5" stroke-linecap="round"/>
<line x1="280.50" y1="431.05" x2="248.55" y2="436.24" stroke="hsl(43.9, 56.9%, 86.6%)" stroke-width="5" stroke-linecap="round"/>
<line x1="279.76" y1="425.81" x2="251.99" y2="429.19" stroke="hsl(43.3, 54.5%, 87.1%)" stroke-width="5" stroke-linecap="round"/>
<line x1="279.23" y1="420.56" x2="240.39" y2="423.69" stroke="hsl(40.4, 56.3%, 87.4%)" stroke-width="5" stroke-linecap="round"/>
<line x1="278.91" y1="415.28" x2="228.99" y2="417.29" stroke="hsl(37.5, 58.1%, 87.6%)" stroke-width="5" stroke-linecap="round"/>
<line x1="278.80" y1="410.00" x2="217.85" y2="410.00" stroke="hsl(34.6, 60.1%, 87.5%)" stroke-width="5" stroke-linecap="round"/>
<line x1="278.91" y1="404.72" x2="207.02" y2="401.82" stroke="hsl(31.7, 62.5%, 87.2%)" stroke-width="5" stroke-linecap="round"/>
<line x1="279.23" y1="399.44" x2="196.55" y2="392.77" stroke="hsl(28.8, 65.2%, 86.6%)" stroke-width="5" stroke-linecap="round"/>
<line x1="279.76" y1="394.19" x2="186.51" y2="382.86" stroke="hsl(25.8, 68.3%, 85.8%)" stroke-width="5" stroke-linecap="round"/>
<line x1="280.50" y1="388.95" x2="176.93" y2="372.12" stroke="hsl(22.9, 71.9%, 84.8%)" stroke-width="5" stroke-linecap="round"/>
<line x1="281.45" y1="383.76" x2="167.87" y2="360.57" stroke="hsl(20.0, 76.1%, 83.5%)" stroke-width="5" stroke-linecap="round"/>
<line x1="282.61" y1="378.60" x2="159.38" y2="348.23" stroke="hsl(17.1, 80.9%, 82.0%)" stroke-width="5" stroke-linecap="round"/>
<line x1="283.98" y1="373.50" x2="151.51" y2="335.13" stroke="hsl(14.2, 86.4%, 80.3%)" stroke-width="5" stroke-linecap="round"/>
<line x1="285.55" y1="368.45" x2="144.31" y2="321.30" stroke="hsl(11.3, 92.8%, 78.3%)" stroke-width="5" stroke-linecap="round"/>
<line x1="287.33" y1="363.48" x2="137.82" y2="306.77" stroke="hsl(8.4, 100.0%, 76.1%)" stroke-width="5" stroke-linecap="round"/>
<line x1="289.30" y1="358.57" x2="148.60" y2="298.63" stroke="hsl(6.2, 95.2%, 75.2%)" stroke-width="5" stroke-linecap="round"/>
<line x1="291.47" y1="353.76" x2="159.59" y2="291.18" stroke="hsl(4.1, 91.0%, 74.2%)" stroke-width="5" stroke-linecap="round"/>
<line x1="293.83" y1="349.03" x2="170.74" y2="284.43" stroke="hsl(2.0, 87.4%, 73.1%)" stroke-width="5" stroke-linecap="round"/>
<line x1="296.38" y1="344.40" x2="182.02" y2="278.38" stroke="hsl(359.9, 84.2%, 71.7%)" stroke-width="5" stroke-linecap="round"/>
<line x1="299.11" y1="339.88" x2="193.39" y2="273.02" stroke="hsl(357.8, 81.5%, 70.2%)" stroke-width="5" stroke-linecap="round"/>
<line x1="302.02" y1="335.47" x2="204.81" y2="268.37" stroke="hsl(355.7, 79.2%, 68.5%)" stroke-width="5" stroke-linecap="round"/>
<line x1="305.11" y1="331.18" x2="216.25" y2="264.40" stroke="hsl(353.5, 77.4%, 66.6%)" stroke-width="5" stroke-linecap="round"/>
<line x1="308.37" y1="327.02" x2="227.66" y2="261.12" stroke="hsl(351.4, 75.9%, 64.6%)" stroke-width="5" stroke-linecap="round"/>
<line x1="311.80" y1="323.00" x2="239.01" y2="258.52" stroke="hsl(349.3, 74.8%, 62.4%)" stroke-width="5" stroke-linecap="round"/>
<line x1="315.38" y1="319.11" x2="250.27" y2="256.58" stroke="hsl(347.2, 74.0%, 60.0%)" stroke-width="5" stroke-linecap="round"/>
<line x1="319.11" y1="315.38" x2="261.40" y2="255.30" stroke="hsl(345.1, 73.4%, 57.4%)" stroke-width="5" stroke-linecap="round"/>
<line x1="323.00" y1="311.80" x2="272.37" y2="254.65" stroke="hsl(343.0, 73.2%, 54.7%)" stroke-width="5" stroke-linecap="round"/>
<line x1="327.02" y1="308.37" x2="278.39" y2="248.81" stroke="hsl(343.0, 73.2%, 54.7%)" stroke-width="5" stroke-linecap="round"/>
<line x1="331.18" y1="305.11" x2="284.66" y2="243.20" stroke="hsl(343.0, 73.2%, 54.7%)" stroke-width="5" stroke-linecap="round"/>
<line x1="335.47" y1="302.02" x2="291.16" y2="237.84" stroke="hsl(343.0, 73.2%, 54.7%)" stroke-width="5" stroke-linecap="round"/>
<line x1="339.88" y1="299.11" x2="297.90" y2="232.73" stroke="hsl(343.0, 73.2%, 54.7%)" stroke-width="5" stroke-linecap="round"/>
<line x1="344.40" y1="296.38" x2="304.85" y2="227.88" stroke="hsl(343.0, 73.2%, 54.7%)" stroke-width="5" stroke-linecap="round"/>
<line x1="349.03" y1="293.83" x2="312.02" y2="223.31" stroke="hsl(343.0, 73.2%, 54.7%)" stroke-width="5" stroke-linecap="round"/>
<line x1="353.76" y1="291.47" x2="319.38" y2="219.02" stroke="hsl(343.0, 73.2%, 54.7%)" stroke-width="5" stroke-linecap="round"/>
<line x1="358.57" y1="289.30" x2="326.93" y2="215.02" stroke="hsl(343.0, 73.2%, 54.7%)" stroke-width="5" stroke-linecap="round"/>
<line x1="363.48" y1="287.33" x2="334.65" y2="211.32" stroke="hsl(343.0, 73.2%, 54.7%)" stroke-width="5" stroke-linecap="round"/>
<line x1="368.45" y1="285.55" x2="342.54" y2="207.92" stroke="hsl(343.0, 73.2%, 54.7%)" stroke-width="5" stroke-linecap="round"/>
<line x1="373.50" y1="283.98" x2="350.57" y2="204.84" stroke="hsl(343.0, 73.2%, 54.7%)" stroke-width="5" stroke-linecap="round"/>
<line x1="378.60" y1="282.61" x2="358.75" y2="202.08" stroke="hsl(343.0, 73.2%, 54.7%)" stroke-width="5" stroke-linecap="round"/>
<line x1="383.76" y1="281.45" x2="366.07" y2="194.80" stroke="hsl(343.1, 75.3%, 53.2%)" stroke-width="5" stroke-linecap="round"/>
<line x1="388.95" y1="280.50" x2="373.89" y2="187.78" stroke="hsl(343.2, 77.4%, 51.7%)" stroke-width="5" stroke-linecap="round"/>
<line x1="394.19" y1="279.76" x2="382.20" y2="181.05" stroke="hsl(343.4, 79.5%, 50.2%)" stroke-width="5" stroke-linecap="round"/>
<line x1="399.44" y1="279.23" x2="391.00" y2="174.64" stroke="hsl(343.5, 81.7%, 48.7%)" stroke-width="5" stroke-linecap="round"/>
<line x1="404.72" y1="278.91" x2="400.27" y2="168.57" stroke="hsl(343.7, 83.9%, 47.1%)" stroke-width="5" stroke-linecap="round"/>
<text x="490.5" y="83.6" text-anchor="middle" dominant-baseline="middle" font-family="sans-serif" font-size="15.5" fill="#777">経済</text>
<text x="686.7" y="219.0" text-anchor="middle" dominant-baseline="middle" font-family="sans-serif" font-size="15.5" fill="#777">経営・商</text>
<text x="724.4" y="529.2" text-anchor="middle" dominant-baseline="middle" font-family="sans-serif" font-size="15.5" fill="#777">法・政治</text>
<text x="490.5" y="736.4" text-anchor="middle" dominant-baseline="middle" font-family="sans-serif" font-size="15.5" fill="#777">社会・国際</text>
<text x="187.1" y="661.6" text-anchor="middle" dominant-baseline="middle" font-family="sans-serif" font-size="15.5" fill="#777">文学・外国語</text>
<text x="76.3" y="450.5" text-anchor="middle" dominant-baseline="middle" font-family="sans-serif" font-size="15.5" fill="#777">哲学</text>
<text x="95.6" y="290.8" text-anchor="middle" dominant-baseline="middle" font-family="sans-serif" font-size="15.5" fill="#777">心理</text>
<text x="253.8" y="112.3" text-anchor="middle" dominant-baseline="middle" font-family="sans-serif" font-size="15.5" fill="#777">教育・スポーツ</text>
<text x="410" y="806" text-anchor="middle" font-family="sans-serif" font-size="19" fill="#444">8カテゴリ (13学部) / 156本 / hum 15軸計測 / hsl</text>
</svg>