<svg xmlns="http://www.w3.org/2000/svg" width="820" height="820" viewBox="0 0 820 820">
<rect width="820" height="820" fill="white"/>
<line x1="410.00" y1="278.80" x2="410.00" y2="248.54" stroke="hsl(343.8, 86.1%, 45.6%)" stroke-width="3.6" stroke-linecap="round"/>
<line x1="415.28" y1="278.91" x2="416.55" y2="247.56" stroke="hsl(344.0, 88.3%, 44.0%)" stroke-width="3.6" stroke-linecap="round"/>
<line x1="420.56" y1="279.23" x2="423.17" y2="246.85" stroke="hsl(344.1, 90.6%, 42.5%)" stroke-width="3.6" stroke-linecap="round"/>
<line x1="425.81" y1="279.76" x2="429.86" y2="246.40" stroke="hsl(344.2, 92.9%, 40.9%)" stroke-width="3.6" stroke-linecap="round"/>
<line x1="431.05" y1="280.50" x2="436.61" y2="246.24" stroke="hsl(344.4, 95.2%, 39.3%)" stroke-width="3.6" stroke-linecap="round"/>
<line x1="436.24" y1="281.45" x2="443.41" y2="246.35" stroke="hsl(344.5, 97.6%, 37.7%)" stroke-width="3.6" stroke-linecap="round"/>
<line x1="441.40" y1="282.61" x2="450.24" y2="246.75" stroke="hsl(344.7, 100.0%, 36.1%)" stroke-width="3.6" stroke-linecap="round"/>
<line x1="446.50" y1="283.98" x2="457.09" y2="247.43" stroke="hsl(348.0, 95.9%, 39.2%)" stroke-width="3.6" stroke-linecap="round"/>
<line x1="451.55" y1="285.55" x2="463.95" y2="248.40" stroke="hsl(351.4, 92.5%, 42.0%)" stroke-width="3.6" stroke-linecap="round"/>
<line x1="456.52" y1="287.33" x2="470.81" y2="249.66" stroke="hsl(354.8, 89.9%, 44.5%)" stroke-width="3.6" stroke-linecap="round"/>
<line x1="461.43" y1="289.30" x2="477.65" y2="251.22" stroke="hsl(358.2, 88.0%, 46.8%)" stroke-width="3.6" stroke-linecap="round"/>
<line x1="466.24" y1="291.47" x2="484.47" y2="253.06" stroke="hsl(1.5, 86.9%, 48.8%)" stroke-width="3.6" stroke-linecap="round"/>
<line x1="470.97" y1="293.83" x2="491.24" y2="255.20" stroke="hsl(4.9, 86.5%, 50.5%)" stroke-width="3.6" stroke-linecap="round"/>
<line x1="475.60" y1="296.38" x2="497.97" y2="257.63" stroke="hsl(8.3, 86.9%, 52.0%)" stroke-width="3.6" stroke-linecap="round"/>
<line x1="480.12" y1="299.11" x2="504.63" y2="260.36" stroke="hsl(11.7, 88.0%, 53.2%)" stroke-width="3.6" stroke-linecap="round"/>
<line x1="484.53" y1="302.02" x2="511.21" y2="263.37" stroke="hsl(15.0, 89.9%, 54.1%)" stroke-width="3.6" stroke-linecap="round"/>
<line x1="488.82" y1="305.11" x2="517.70" y2="266.68" stroke="hsl(18.4, 92.5%, 54.7%)" stroke-width="3.6" stroke-linecap="round"/>
<line x1="492.98" y1="308.37" x2="524.09" y2="270.27" stroke="hsl(21.8, 95.9%, 55.0%)" stroke-width="3.6" stroke-linecap="round"/>
<line x1="497.00" y1="311.80" x2="530.36" y2="274.14" stroke="hsl(25.2, 100.0%, 55.1%)" stroke-width="3.6" stroke-linecap="round"/>
<line x1="500.89" y1="315.38" x2="535.73" y2="279.10" stroke="hsl(25.2, 100.0%, 55.1%)" stroke-width="3.6" stroke-linecap="round"/>
<line x1="504.62" y1="319.11" x2="540.90" y2="284.27" stroke="hsl(25.2, 100.0%, 55.1%)" stroke-width="3.6" stroke-linecap="round"/>
<line x1="508.20" y1="323.00" x2="545.86" y2="289.64" stroke="hsl(25.2, 100.0%, 55.1%)" stroke-width="3.6" stroke-linecap="round"/>
<line x1="511.63" y1="327.02" x2="550.59" y2="295.21" stroke="hsl(25.2, 100.0%, 55.1%)" stroke-width="3.6" stroke-linecap="round"/>
<line x1="514.89" y1="331.18" x2="555.10" y2="300.96" stroke="hsl(25.2, 100.0%, 55.1%)" stroke-width="3.6" stroke-linecap="round"/>
<line x1="517.98" y1="335.47" x2="559.38" y2="306.89" stroke="hsl(25.2, 100.0%, 55.1%)" stroke-width="3.6" stroke-linecap="round"/>
<line x1="520.89" y1="339.88" x2="563.41" y2="312.99" stroke="hsl(25.2, 100.0%, 55.1%)" stroke-width="3.6" stroke-linecap="round"/>
<line x1="523.62" y1="344.40" x2="567.19" y2="319.25" stroke="hsl(25.2, 100.0%, 55.1%)" stroke-width="3.6" stroke-linecap="round"/>
<line x1="526.17" y1="349.03" x2="570.72" y2="325.65" stroke="hsl(25.2, 100.0%, 55.1%)" stroke-width="3.6" stroke-linecap="round"/>
<line x1="528.53" y1="353.76" x2="573.98" y2="332.19" stroke="hsl(25.2, 100.0%, 55.1%)" stroke-width="3.6" stroke-linecap="round"/>
<line x1="530.70" y1="358.57" x2="576.98" y2="338.86" stroke="hsl(25.2, 100.0%, 55.1%)" stroke-width="3.6" stroke-linecap="round"/>
<line x1="532.67" y1="363.48" x2="579.71" y2="345.64" stroke="hsl(25.2, 100.0%, 55.1%)" stroke-width="3.6" stroke-linecap="round"/>
<line x1="534.45" y1="368.45" x2="584.49" y2="351.75" stroke="hsl(27.2, 97.5%, 55.6%)" stroke-width="3.6" stroke-linecap="round"/>
<line x1="536.02" y1="373.50" x2="589.05" y2="358.14" stroke="hsl(29.3, 95.4%, 55.9%)" stroke-width="3.6" stroke-linecap="round"/>
<line x1="537.39" y1="378.60" x2="593.37" y2="364.80" stroke="hsl(31.3, 93.8%, 56.1%)" stroke-width="3.6" stroke-linecap="round"/>
<line x1="538.55" y1="383.76" x2="597.44" y2="371.73" stroke="hsl(33.4, 92.7%, 56.1%)" stroke-width="3.6" stroke-linecap="round"/>
<line x1="539.50" y1="388.95" x2="601.25" y2="378.92" stroke="hsl(35.5, 92.0%, 55.9%)" stroke-width="3.6" stroke-linecap="round"/>
<line x1="540.24" y1="394.19" x2="604.78" y2="386.35" stroke="hsl(37.5, 91.8%, 55.6%)" stroke-width="3.6" stroke-linecap="round"/>
<line x1="540.77" y1="399.44" x2="608.01" y2="394.01" stroke="hsl(39.6, 92.0%, 55.1%)" stroke-width="3.6" stroke-linecap="round"/>
<line x1="541.09" y1="404.72" x2="610.94" y2="401.90" stroke="hsl(41.6, 92.7%, 54.4%)" stroke-width="3.6" stroke-linecap="round"/>
<line x1="541.20" y1="410.00" x2="613.56" y2="410.00" stroke="hsl(43.7, 93.8%, 53.5%)" stroke-width="3.6" stroke-linecap="round"/>
<line x1="541.09" y1="415.28" x2="615.84" y2="418.30" stroke="hsl(45.8, 95.4%, 52.5%)" stroke-width="3.6" stroke-linecap="round"/>
<line x1="540.77" y1="420.56" x2="617.78" y2="426.77" stroke="hsl(47.8, 97.5%, 51.3%)" stroke-width="3.6" stroke-linecap="round"/>
<line x1="540.24" y1="425.81" x2="619.37" y2="435.42" stroke="hsl(49.9, 100.0%, 50.0%)" stroke-width="3.6" stroke-linecap="round"/>
<line x1="539.50" y1="431.05" x2="618.62" y2="443.90" stroke="hsl(49.9, 100.0%, 50.0%)" stroke-width="3.6" stroke-linecap="round"/>
<line x1="538.55" y1="436.24" x2="617.52" y2="452.37" stroke="hsl(49.9, 100.0%, 50.0%)" stroke-width="3.6" stroke-linecap="round"/>
<line x1="537.39" y1="441.40" x2="616.08" y2="460.79" stroke="hsl(49.9, 100.0%, 50.0%)" stroke-width="3.6" stroke-linecap="round"/>
<line x1="536.02" y1="446.50" x2="614.29" y2="469.17" stroke="hsl(49.9, 100.0%, 50.0%)" stroke-width="3.6" stroke-linecap="round"/>
<line x1="534.45" y1="451.55" x2="612.17" y2="477.49" stroke="hsl(49.9, 100.0%, 50.0%)" stroke-width="3.6" stroke-linecap="round"/>
<line x1="532.67" y1="456.52" x2="609.70" y2="485.74" stroke="hsl(49.9, 100.0%, 50.0%)" stroke-width="3.6" stroke-linecap="round"/>
<line x1="530.70" y1="461.43" x2="606.90" y2="493.89" stroke="hsl(49.9, 100.0%, 50.0%)" stroke-width="3.6" stroke-linecap="round"/>
<line x1="528.53" y1="466.24" x2="603.77" y2="501.94" stroke="hsl(49.9, 100.0%, 50.0%)" stroke-width="3.6" stroke-linecap="round"/>
<line x1="526.17" y1="470.97" x2="600.30" y2="509.88" stroke="hsl(49.9, 100.0%, 50.0%)" stroke-width="3.6" stroke-linecap="round"/>
<line x1="523.62" y1="475.60" x2="596.51" y2="517.68" stroke="hsl(49.9, 100.0%, 50.0%)" stroke-width="3.6" stroke-linecap="round"/>
<line x1="520.89" y1="480.12" x2="592.40" y2="525.34" stroke="hsl(49.9, 100.0%, 50.0%)" stroke-width="3.6" stroke-linecap="round"/>
<line x1="517.98" y1="484.53" x2="587.97" y2="532.85" stroke="hsl(49.9, 100.0%, 50.0%)" stroke-width="3.6" stroke-linecap="round"/>
<line x1="514.89" y1="488.82" x2="585.20" y2="541.65" stroke="hsl(51.6, 95.8%, 51.3%)" stroke-width="3.6" stroke-linecap="round"/>
<line x1="511.63" y1="492.98" x2="582.00" y2="550.43" stroke="hsl(53.4, 92.1%, 52.5%)" stroke-width="3.6" stroke-linecap="round"/>
<line x1="508.20" y1="497.00" x2="578.37" y2="559.16" stroke="hsl(55.1, 88.8%, 53.5%)" stroke-width="3.6" stroke-linecap="round"/>
<line x1="504.62" y1="500.89" x2="574.32" y2="567.83" stroke="hsl(56.9, 85.9%, 54.4%)" stroke-width="3.6" stroke-linecap="round"/>
<line x1="500.89" y1="504.62" x2="569.83" y2="576.41" stroke="hsl(58.6, 83.4%, 55.2%)" stroke-width="3.6" stroke-linecap="round"/>
<line x1="497.00" y1="508.20" x2="564.93" y2="584.87" stroke="hsl(60.4, 81.3%, 55.8%)" stroke-width="3.6" stroke-linecap="round"/>
<line x1="492.98" y1="511.63" x2="559.59" y2="593.21" stroke="hsl(62.1, 79.5%, 56.3%)" stroke-width="3.6" stroke-linecap="round"/>
<line x1="488.82" y1="514.89" x2="553.83" y2="601.40" stroke="hsl(63.9, 78.0%, 56.6%)" stroke-width="3.6" stroke-linecap="round"/>
<line x1="484.53" y1="517.98" x2="547.65" y2="609.42" stroke="hsl(65.6, 76.8%, 56.8%)" stroke-width="3.6" stroke-linecap="round"/>
<line x1="480.12" y1="520.89" x2="541.06" y2="617.25" stroke="hsl(67.3, 75.9%, 56.8%)" stroke-width="3.6" stroke-linecap="round"/>
<line x1="475.60" y1="523.62" x2="534.05" y2="624.87" stroke="hsl(69.1, 75.2%, 56.7%)" stroke-width="3.6" stroke-linecap="round"/>
<line x1="470.97" y1="526.17" x2="526.65" y2="632.25" stroke="hsl(70.8, 74.8%, 56.5%)" stroke-width="3.6" stroke-linecap="round"/>
<line x1="466.24" y1="528.53" x2="518.46" y2="638.58" stroke="hsl(70.8, 74.8%, 56.5%)" stroke-width="3.6" stroke-linecap="round"/>
<line x1="461.43" y1="530.70" x2="509.96" y2="644.61" stroke="hsl(70.8, 74.8%, 56.5%)" stroke-width="3.6" stroke-linecap="round"/>
<line x1="456.52" y1="532.67" x2="501.14" y2="650.32" stroke="hsl(70.8, 74.8%, 56.5%)" stroke-width="3.6" stroke-linecap="round"/>
<line x1="451.55" y1="534.45" x2="492.02" y2="655.69" stroke="hsl(70.8, 74.8%, 56.5%)" stroke-width="3.6" stroke-linecap="round"/>
<line x1="446.50" y1="536.02" x2="482.62" y2="660.72" stroke="hsl(70.8, 74.8%, 56.5%)" stroke-width="3.6" stroke-linecap="round"/>
<line x1="441.40" y1="537.39" x2="472.95" y2="665.39" stroke="hsl(70.8, 74.8%, 56.5%)" stroke-width="3.6" stroke-linecap="round"/>
<line x1="436.24" y1="538.55" x2="463.01" y2="669.68" stroke="hsl(70.8, 74.8%, 56.5%)" stroke-width="3.6" stroke-linecap="round"/>
<line x1="431.05" y1="539.50" x2="452.84" y2="673.58" stroke="hsl(70.8, 74.8%, 56.5%)" stroke-width="3.6" stroke-linecap="round"/>
<line x1="425.81" y1="540.24" x2="442.43" y2="677.09" stroke="hsl(70.8, 74.8%, 56.5%)" stroke-width="3.6" stroke-linecap="round"/>
<line x1="420.56" y1="540.77" x2="431.81" y2="680.17" stroke="hsl(70.8, 74.8%, 56.5%)" stroke-width="3.6" stroke-linecap="round"/>
<line x1="415.28" y1="541.09" x2="420.99" y2="682.84" stroke="hsl(70.8, 74.8%, 56.5%)" stroke-width="3.6" stroke-linecap="round"/>
<line x1="410.00" y1="541.20" x2="410.00" y2="685.06" stroke="hsl(70.8, 74.8%, 56.5%)" stroke-width="3.6" stroke-linecap="round"/>
<line x1="404.72" y1="541.09" x2="398.87" y2="686.17" stroke="hsl(69.1, 74.1%, 59.2%)" stroke-width="3.6" stroke-linecap="round"/>
<line x1="399.44" y1="540.77" x2="387.65" y2="686.83" stroke="hsl(67.3, 73.8%, 61.7%)" stroke-width="3.6" stroke-linecap="round"/>
<line x1="394.19" y1="540.24" x2="376.36" y2="687.04" stroke="hsl(65.5, 73.6%, 64.1%)" stroke-width="3.6" stroke-linecap="round"/>
<line x1="388.95" y1="539.50" x2="365.02" y2="686.78" stroke="hsl(63.8, 73.8%, 66.4%)" stroke-width="3.6" stroke-linecap="round"/>
<line x1="383.76" y1="538.55" x2="353.64" y2="686.05" stroke="hsl(62.0, 74.3%, 68.5%)" stroke-width="3.6" stroke-linecap="round"/>
<line x1="378.60" y1="537.39" x2="342.25" y2="684.86" stroke="hsl(60.2, 75.1%, 70.4%)" stroke-width="3.6" stroke-linecap="round"/>
<line x1="373.50" y1="536.02" x2="330.87" y2="683.19" stroke="hsl(58.4, 76.1%, 72.3%)" stroke-width="3.6" stroke-linecap="round"/>
<line x1="368.45" y1="534.45" x2="319.51" y2="681.05" stroke="hsl(56.7, 77.6%, 73.9%)" stroke-width="3.6" stroke-linecap="round"/>
<line x1="363.48" y1="532.67" x2="308.20" y2="678.43" stroke="hsl(54.9, 79.3%, 75.5%)" stroke-width="3.6" stroke-linecap="round"/>
<line x1="358.57" y1="530.70" x2="296.95" y2="675.35" stroke="hsl(53.1, 81.4%, 76.9%)" stroke-width="3.6" stroke-linecap="round"/>
<line x1="353.76" y1="528.53" x2="285.78" y2="671.79" stroke="hsl(51.3, 83.9%, 78.1%)" stroke-width="3.6" stroke-linecap="round"/>
<line x1="349.03" y1="526.17" x2="274.72" y2="667.76" stroke="hsl(49.6, 86.8%, 79.2%)" stroke-width="3.6" stroke-linecap="round"/>
<line x1="344.40" y1="523.62" x2="265.01" y2="661.14" stroke="hsl(49.6, 86.8%, 79.2%)" stroke-width="3.6" stroke-linecap="round"/>
<line x1="339.88" y1="520.89" x2="255.61" y2="654.15" stroke="hsl(49.6, 86.8%, 79.2%)" stroke-width="3.6" stroke-linecap="round"/>
<line x1="335.47" y1="517.98" x2="246.53" y2="646.82" stroke="hsl(49.6, 86.8%, 79.2%)" stroke-width="3.6" stroke-linecap="round"/>
<line x1="331.18" y1="514.89" x2="237.80" y2="639.16" stroke="hsl(49.6, 86.8%, 79.2%)" stroke-width="3.6" stroke-linecap="round"/>
<line x1="327.02" y1="511.63" x2="229.42" y2="631.17" stroke="hsl(49.6, 86.8%, 79.2%)" stroke-width="3.6" stroke-linecap="round"/>
<line x1="323.00" y1="508.20" x2="221.40" y2="622.89" stroke="hsl(49.6, 86.8%, 79.2%)" stroke-width="3.6" stroke-linecap="round"/>
<line x1="319.11" y1="504.62" x2="213.75" y2="614.32" stroke="hsl(49.6, 86.8%, 79.2%)" stroke-width="3.6" stroke-linecap="round"/>
<line x1="315.38" y1="500.89" x2="206.48" y2="605.48" stroke="hsl(49.6, 86.8%, 79.2%)" stroke-width="3.6" stroke-linecap="round"/>
<line x1="311.80" y1="497.00" x2="199.61" y2="596.39" stroke="hsl(49.6, 86.8%, 79.2%)" stroke-width="3.6" stroke-linecap="round"/>
<line x1="308.37" y1="492.98" x2="193.14" y2="587.06" stroke="hsl(49.6, 86.8%, 79.2%)" stroke-width="3.6" stroke-linecap="round"/>
<line x1="305.11" y1="488.82" x2="187.08" y2="577.52" stroke="hsl(49.6, 86.8%, 79.2%)" stroke-width="3.6" stroke-linecap="round"/>
<line x1="302.02" y1="484.53" x2="181.43" y2="567.77" stroke="hsl(49.6, 86.8%, 79.2%)" stroke-width="3.6" stroke-linecap="round"/>
<line x1="299.11" y1="480.12" x2="174.51" y2="558.92" stroke="hsl(49.0, 83.6%, 80.1%)" stroke-width="3.6" stroke-linecap="round"/>
<line x1="296.38" y1="475.60" x2="167.93" y2="549.76" stroke="hsl(48.5, 80.5%, 80.9%)" stroke-width="3.6" stroke-linecap="round"/>
<line x1="293.83" y1="470.97" x2="161.71" y2="540.31" stroke="hsl(48.0, 77.5%, 81.7%)" stroke-width="3.6" stroke-linecap="round"/>
<line x1="291.47" y1="466.24" x2="155.86" y2="530.59" stroke="hsl(47.5, 74.6%, 82.5%)" stroke-width="3.6" stroke-linecap="round"/>
<line x1="289.30" y1="461.43" x2="150.39" y2="520.61" stroke="hsl(47.0, 71.9%, 83.2%)" stroke-width="3.6" stroke-linecap="round"/>
<line x1="287.33" y1="456.52" x2="145.31" y2="510.38" stroke="hsl(46.4, 69.2%, 83.9%)" stroke-width="3.6" stroke-linecap="round"/>
<line x1="285.55" y1="451.55" x2="140.64" y2="499.92" stroke="hsl(45.9, 66.6%, 84.5%)" stroke-width="3.6" stroke-linecap="round"/>
<line x1="283.98" y1="446.50" x2="136.38" y2="489.25" stroke="hsl(45.4, 64.1%, 85.1%)" stroke-width="3.6" stroke-linecap="round"/>
<line x1="282.61" y1="441.40" x2="132.55" y2="478.39" stroke="hsl(44.9, 61.6%, 85.7%)" stroke-width="3.6" stroke-linecap="round"/>
<line x1="281.45" y1="436.24" x2="129.15" y2="467.34" stroke="hsl(44.4, 59.2%, 86.2%)" stroke-width="3.6" stroke-linecap="round"/>
<line x1="280.50" y1="431.05" x2="126.19" y2="456.12" stroke="hsl(43.9, 56.9%, 86.6%)" stroke-width="3.6" stroke-linecap="round"/>
<line x1="279.76" y1="425.81" x2="123.68" y2="444.77" stroke="hsl(43.3, 54.5%, 87.1%)" stroke-width="3.6" stroke-linecap="round"/>
<line x1="279.23" y1="420.56" x2="126.73" y2="432.87" stroke="hsl(40.4, 56.3%, 87.4%)" stroke-width="3.6" stroke-linecap="round"/>
<line x1="278.91" y1="415.28" x2="130.26" y2="421.27" stroke="hsl(37.5, 58.1%, 87.6%)" stroke-width="3.6" stroke-linecap="round"/>
<line x1="278.80" y1="410.00" x2="134.27" y2="410.00" stroke="hsl(34.6, 60.1%, 87.5%)" stroke-width="3.6" stroke-linecap="round"/>
<line x1="278.91" y1="404.72" x2="138.72" y2="399.07" stroke="hsl(31.7, 62.5%, 87.2%)" stroke-width="3.6" stroke-linecap="round"/>
<line x1="279.23" y1="399.44" x2="143.60" y2="388.49" stroke="hsl(28.8, 65.2%, 86.6%)" stroke-width="3.6" stroke-linecap="round"/>
<line x1="279.76" y1="394.19" x2="148.88" y2="378.29" stroke="hsl(25.8, 68.3%, 85.8%)" stroke-width="3.6" stroke-linecap="round"/>
<line x1="280.50" y1="388.95" x2="154.55" y2="368.49" stroke="hsl(22.9, 71.9%, 84.8%)" stroke-width="3.6" stroke-linecap="round"/>
<line x1="281.45" y1="383.76" x2="160.58" y2="359.08" stroke="hsl(20.0, 76.1%, 83.5%)" stroke-width="3.6" stroke-linecap="round"/>
<line x1="282.61" y1="378.60" x2="166.94" y2="350.09" stroke="hsl(17.1, 80.9%, 82.0%)" stroke-width="3.6" stroke-linecap="round"/>
<line x1="283.98" y1="373.50" x2="173.61" y2="341.53" stroke="hsl(14.2, 86.4%, 80.3%)" stroke-width="3.6" stroke-linecap="round"/>
<line x1="285.55" y1="368.45" x2="180.58" y2="333.41" stroke="hsl(11.3, 92.8%, 78.3%)" stroke-width="3.6" stroke-linecap="round"/>
<line x1="287.33" y1="363.48" x2="187.80" y2="325.73" stroke="hsl(8.4, 100.0%, 76.1%)" stroke-width="3.6" stroke-linecap="round"/>
<line x1="289.30" y1="358.57" x2="194.45" y2="318.16" stroke="hsl(6.2, 95.2%, 75.2%)" stroke-width="3.6" stroke-linecap="round"/>
<line x1="291.47" y1="353.76" x2="201.34" y2="310.99" stroke="hsl(4.1, 91.0%, 74.2%)" stroke-width="3.6" stroke-linecap="round"/>
<line x1="293.83" y1="349.03" x2="208.46" y2="304.22" stroke="hsl(2.0, 87.4%, 73.1%)" stroke-width="3.6" stroke-linecap="round"/>
<line x1="296.38" y1="344.40" x2="215.77" y2="297.86" stroke="hsl(359.9, 84.2%, 71.7%)" stroke-width="3.6" stroke-linecap="round"/>
<line x1="299.11" y1="339.88" x2="223.27" y2="291.92" stroke="hsl(357.8, 81.5%, 70.2%)" stroke-width="3.6" stroke-linecap="round"/>
<line x1="302.02" y1="335.47" x2="230.93" y2="286.39" stroke="hsl(355.7, 79.2%, 68.5%)" stroke-width="3.6" stroke-linecap="round"/>
<line x1="305.11" y1="331.18" x2="238.72" y2="281.29" stroke="hsl(353.5, 77.4%, 66.6%)" stroke-width="3.6" stroke-linecap="round"/>
<line x1="308.37" y1="327.02" x2="246.63" y2="276.61" stroke="hsl(351.4, 75.9%, 64.6%)" stroke-width="3.6" stroke-linecap="round"/>
<line x1="311.80" y1="323.00" x2="254.63" y2="272.36" stroke="hsl(349.3, 74.8%, 62.4%)" stroke-width="3.6" stroke-linecap="round"/>
<line x1="315.38" y1="319.11" x2="262.71" y2="268.53" stroke="hsl(347.2, 74.0%, 60.0%)" stroke-width="3.6" stroke-linecap="round"/>
<line x1="319.11" y1="315.38" x2="270.84" y2="265.12" stroke="hsl(345.1, 73.4%, 57.4%)" stroke-width="3.6" stroke-linecap="round"/>
<line x1="323.00" y1="311.80" x2="279.00" y2="262.14" stroke="hsl(343.0, 73.2%, 54.7%)" stroke-width="3.6" stroke-linecap="round"/>
<line x1="327.02" y1="308.37" x2="287.32" y2="259.74" stroke="hsl(343.0, 73.2%, 54.7%)" stroke-width="3.6" stroke-linecap="round"/>
<line x1="331.18" y1="305.11" x2="295.61" y2="257.77" stroke="hsl(343.0, 73.2%, 54.7%)" stroke-width="3.6" stroke-linecap="round"/>
<line x1="335.47" y1="302.02" x2="303.86" y2="256.22" stroke="hsl(343.0, 73.2%, 54.7%)" stroke-width="3.6" stroke-linecap="round"/>
<line x1="339.88" y1="299.11" x2="312.04" y2="255.09" stroke="hsl(343.0, 73.2%, 54.7%)" stroke-width="3.6" stroke-linecap="round"/>
<line x1="344.40" y1="296.38" x2="320.14" y2="254.35" stroke="hsl(343.0, 73.2%, 54.7%)" stroke-width="3.6" stroke-linecap="round"/>
<line x1="349.03" y1="293.83" x2="328.13" y2="254.02" stroke="hsl(343.0, 73.2%, 54.7%)" stroke-width="3.6" stroke-linecap="round"/>
<line x1="353.76" y1="291.47" x2="336.01" y2="254.07" stroke="hsl(343.0, 73.2%, 54.7%)" stroke-width="3.6" stroke-linecap="round"/>
<line x1="358.57" y1="289.30" x2="343.75" y2="254.49" stroke="hsl(343.0, 73.2%, 54.7%)" stroke-width="3.6" stroke-linecap="round"/>
<line x1="363.48" y1="287.33" x2="351.32" y2="255.29" stroke="hsl(343.0, 73.2%, 54.7%)" stroke-width="3.6" stroke-linecap="round"/>
<line x1="368.45" y1="285.55" x2="358.73" y2="256.43" stroke="hsl(343.0, 73.2%, 54.7%)" stroke-width="3.6" stroke-linecap="round"/>
<line x1="373.50" y1="283.98" x2="365.95" y2="257.91" stroke="hsl(343.0, 73.2%, 54.7%)" stroke-width="3.6" stroke-linecap="round"/>
<line x1="378.60" y1="282.61" x2="372.96" y2="259.72" stroke="hsl(343.0, 73.2%, 54.7%)" stroke-width="3.6" stroke-linecap="round"/>
<line x1="383.76" y1="281.45" x2="378.82" y2="257.26" stroke="hsl(343.1, 75.3%, 53.2%)" stroke-width="3.6" stroke-linecap="round"/>
<line x1="388.95" y1="280.50" x2="384.82" y2="255.03" stroke="hsl(343.2, 77.4%, 51.7%)" stroke-width="3.6" stroke-linecap="round"/>
<line x1="394.19" y1="279.76" x2="390.94" y2="253.04" stroke="hsl(343.4, 79.5%, 50.2%)" stroke-width="3.6" stroke-linecap="round"/>
<line x1="399.44" y1="279.23" x2="397.19" y2="251.29" stroke="hsl(343.5, 81.7%, 48.7%)" stroke-width="3.6" stroke-linecap="round"/>
<line x1="404.72" y1="278.91" x2="403.54" y2="249.79" stroke="hsl(343.7, 83.9%, 47.1%)" stroke-width="3.6" stroke-linecap="round"/>
<text x="490.5" y="83.6" text-anchor="middle" dominant-baseline="middle" font-family="sans-serif" font-size="15.5" fill="#777">経済</text>
<text x="686.7" y="219.0" text-anchor="middle" dominant-baseline="middle" font-family="sans-serif" font-size="15.5" fill="#777">経営・商</text>
<text x="724.4" y="529.2" text-anchor="middle" dominant-baseline="middle" font-family="sans-serif" font-size="15.5" fill="#777">法・政治</text>
<text x="490.5" y="736.4" text-anchor="middle" dominant-baseline="middle" font-family="sans-serif" font-size="15.5" fill="#777">社会・国際</text>
<text x="187.1" y="661.6" text-anchor="middle" dominant-baseline="middle" font-family="sans-serif" font-size="15.5" fill="#777">文学・外国語</text>
<text x="76.3" y="450.5" text-anchor="middle" dominant-baseline="middle" font-family="sans-serif" font-size="15.5" fill="#777">哲学</text>
<text x="95.6" y="290.8" text-anchor="middle" dominant-baseline="middle" font-family="sans-serif" font-size="15.5" fill="#777">心理</text>
<text x="253.8" y="112.3" text-anchor="middle" dominant-baseline="middle" font-family="sans-serif" font-size="15.5" fill="#777">教育・スポーツ</text>
<text x="410" y="806" text-anchor="middle" font-family="sans-serif" font-size="19" fill="#444">8カテゴリ (13学部) / 156本 / hum 15軸計測 / hsl</text>
</svg>