<svg xmlns="http://www.w3.org/2000/svg" width="820" height="820" viewBox="0 0 820 820">
<rect width="820" height="820" fill="white"/>
<line x1="410.00" y1="278.80" x2="410.00" y2="248.54" stroke="hsl(343.8, 86.2%, 37.5%)" stroke-width="5.4" stroke-linecap="round"/>
<line x1="415.28" y1="278.91" x2="416.55" y2="247.56" stroke="hsl(343.9, 88.4%, 36.0%)" stroke-width="5.4" stroke-linecap="round"/>
<line x1="420.56" y1="279.23" x2="423.17" y2="246.85" stroke="hsl(344.0, 90.7%, 34.4%)" stroke-width="5.4" stroke-linecap="round"/>
<line x1="425.81" y1="279.76" x2="429.86" y2="246.40" stroke="hsl(344.1, 93.0%, 32.8%)" stroke-width="5.4" stroke-linecap="round"/>
<line x1="431.05" y1="280.50" x2="436.61" y2="246.24" stroke="hsl(344.2, 95.3%, 31.2%)" stroke-width="5.4" stroke-linecap="round"/>
<line x1="436.24" y1="281.45" x2="443.41" y2="246.35" stroke="hsl(344.4, 97.6%, 29.6%)" stroke-width="5.4" stroke-linecap="round"/>
<line x1="441.40" y1="282.61" x2="450.24" y2="246.75" stroke="hsl(344.5, 100.0%, 28.0%)" stroke-width="5.4" stroke-linecap="round"/>
<line x1="446.50" y1="283.98" x2="457.09" y2="247.43" stroke="hsl(347.9, 95.8%, 31.1%)" stroke-width="5.4" stroke-linecap="round"/>
<line x1="451.55" y1="285.55" x2="463.95" y2="248.40" stroke="hsl(351.3, 92.4%, 34.0%)" stroke-width="5.4" stroke-linecap="round"/>
<line x1="456.52" y1="287.33" x2="470.81" y2="249.66" stroke="hsl(354.7, 89.8%, 36.5%)" stroke-width="5.4" stroke-linecap="round"/>
<line x1="461.43" y1="289.30" x2="477.65" y2="251.22" stroke="hsl(358.1, 87.9%, 38.8%)" stroke-width="5.4" stroke-linecap="round"/>
<line x1="466.24" y1="291.47" x2="484.47" y2="253.06" stroke="hsl(1.5, 86.8%, 40.8%)" stroke-width="5.4" stroke-linecap="round"/>
<line x1="470.97" y1="293.83" x2="491.24" y2="255.20" stroke="hsl(4.9, 86.4%, 42.5%)" stroke-width="5.4" stroke-linecap="round"/>
<line x1="475.60" y1="296.38" x2="497.97" y2="257.63" stroke="hsl(8.3, 86.8%, 44.0%)" stroke-width="5.4" stroke-linecap="round"/>
<line x1="480.12" y1="299.11" x2="504.63" y2="260.36" stroke="hsl(11.7, 87.9%, 45.1%)" stroke-width="5.4" stroke-linecap="round"/>
<line x1="484.53" y1="302.02" x2="511.21" y2="263.37" stroke="hsl(15.1, 89.8%, 46.0%)" stroke-width="5.4" stroke-linecap="round"/>
<line x1="488.82" y1="305.11" x2="517.70" y2="266.68" stroke="hsl(18.5, 92.4%, 46.7%)" stroke-width="5.4" stroke-linecap="round"/>
<line x1="492.98" y1="308.37" x2="524.09" y2="270.27" stroke="hsl(21.9, 95.8%, 47.0%)" stroke-width="5.4" stroke-linecap="round"/>
<line x1="497.00" y1="311.80" x2="530.36" y2="274.14" stroke="hsl(25.3, 100.0%, 47.1%)" stroke-width="5.4" stroke-linecap="round"/>
<line x1="500.89" y1="315.38" x2="535.73" y2="279.10" stroke="hsl(25.3, 100.0%, 47.1%)" stroke-width="5.4" stroke-linecap="round"/>
<line x1="504.62" y1="319.11" x2="540.90" y2="284.27" stroke="hsl(25.3, 100.0%, 47.1%)" stroke-width="5.4" stroke-linecap="round"/>
<line x1="508.20" y1="323.00" x2="545.86" y2="289.64" stroke="hsl(25.3, 100.0%, 47.1%)" stroke-width="5.4" stroke-linecap="round"/>
<line x1="511.63" y1="327.02" x2="550.59" y2="295.21" stroke="hsl(25.3, 100.0%, 47.1%)" stroke-width="5.4" stroke-linecap="round"/>
<line x1="514.89" y1="331.18" x2="555.10" y2="300.96" stroke="hsl(25.3, 100.0%, 47.1%)" stroke-width="5.4" stroke-linecap="round"/>
<line x1="517.98" y1="335.47" x2="559.38" y2="306.89" stroke="hsl(25.3, 100.0%, 47.1%)" stroke-width="5.4" stroke-linecap="round"/>
<line x1="520.89" y1="339.88" x2="563.41" y2="312.99" stroke="hsl(25.3, 100.0%, 47.1%)" stroke-width="5.4" stroke-linecap="round"/>
<line x1="523.62" y1="344.40" x2="567.19" y2="319.25" stroke="hsl(25.3, 100.0%, 47.1%)" stroke-width="5.4" stroke-linecap="round"/>
<line x1="526.17" y1="349.03" x2="570.72" y2="325.65" stroke="hsl(25.3, 100.0%, 47.1%)" stroke-width="5.4" stroke-linecap="round"/>
<line x1="528.53" y1="353.76" x2="573.98" y2="332.19" stroke="hsl(25.3, 100.0%, 47.1%)" stroke-width="5.4" stroke-linecap="round"/>
<line x1="530.70" y1="358.57" x2="576.98" y2="338.86" stroke="hsl(25.3, 100.0%, 47.1%)" stroke-width="5.4" stroke-linecap="round"/>
<line x1="532.67" y1="363.48" x2="579.71" y2="345.64" stroke="hsl(25.3, 100.0%, 47.1%)" stroke-width="5.4" stroke-linecap="round"/>
<line x1="534.45" y1="368.45" x2="584.49" y2="351.75" stroke="hsl(27.3, 97.5%, 47.6%)" stroke-width="5.4" stroke-linecap="round"/>
<line x1="536.02" y1="373.50" x2="589.05" y2="358.14" stroke="hsl(29.4, 95.4%, 47.9%)" stroke-width="5.4" stroke-linecap="round"/>
<line x1="537.39" y1="378.60" x2="593.37" y2="364.80" stroke="hsl(31.4, 93.8%, 48.0%)" stroke-width="5.4" stroke-linecap="round"/>
<line x1="538.55" y1="383.76" x2="597.44" y2="371.73" stroke="hsl(33.5, 92.7%, 48.0%)" stroke-width="5.4" stroke-linecap="round"/>
<line x1="539.50" y1="388.95" x2="601.25" y2="378.92" stroke="hsl(35.5, 92.0%, 47.9%)" stroke-width="5.4" stroke-linecap="round"/>
<line x1="540.24" y1="394.19" x2="604.78" y2="386.35" stroke="hsl(37.6, 91.8%, 47.5%)" stroke-width="5.4" stroke-linecap="round"/>
<line x1="540.77" y1="399.44" x2="608.01" y2="394.01" stroke="hsl(39.6, 92.0%, 47.0%)" stroke-width="5.4" stroke-linecap="round"/>
<line x1="541.09" y1="404.72" x2="610.94" y2="401.90" stroke="hsl(41.7, 92.7%, 46.3%)" stroke-width="5.4" stroke-linecap="round"/>
<line x1="541.20" y1="410.00" x2="613.56" y2="410.00" stroke="hsl(43.7, 93.8%, 45.5%)" stroke-width="5.4" stroke-linecap="round"/>
<line x1="541.09" y1="415.28" x2="615.84" y2="418.30" stroke="hsl(45.8, 95.4%, 44.5%)" stroke-width="5.4" stroke-linecap="round"/>
<line x1="540.77" y1="420.56" x2="617.78" y2="426.77" stroke="hsl(47.9, 97.5%, 43.3%)" stroke-width="5.4" stroke-linecap="round"/>
<line x1="540.24" y1="425.81" x2="619.37" y2="435.42" stroke="hsl(49.9, 100.0%, 42.0%)" stroke-width="5.4" stroke-linecap="round"/>
<line x1="539.50" y1="431.05" x2="618.62" y2="443.90" stroke="hsl(49.9, 100.0%, 42.0%)" stroke-width="5.4" stroke-linecap="round"/>
<line x1="538.55" y1="436.24" x2="617.52" y2="452.37" stroke="hsl(49.9, 100.0%, 42.0%)" stroke-width="5.4" stroke-linecap="round"/>
<line x1="537.39" y1="441.40" x2="616.08" y2="460.79" stroke="hsl(49.9, 100.0%, 42.0%)" stroke-width="5.4" stroke-linecap="round"/>
<line x1="536.02" y1="446.50" x2="614.29" y2="469.17" stroke="hsl(49.9, 100.0%, 42.0%)" stroke-width="5.4" stroke-linecap="round"/>
<line x1="534.45" y1="451.55" x2="612.17" y2="477.49" stroke="hsl(49.9, 100.0%, 42.0%)" stroke-width="5.4" stroke-linecap="round"/>
<line x1="532.67" y1="456.52" x2="609.70" y2="485.74" stroke="hsl(49.9, 100.0%, 42.0%)" stroke-width="5.4" stroke-linecap="round"/>
<line x1="530.70" y1="461.43" x2="606.90" y2="493.89" stroke="hsl(49.9, 100.0%, 42.0%)" stroke-width="5.4" stroke-linecap="round"/>
<line x1="528.53" y1="466.24" x2="603.77" y2="501.94" stroke="hsl(49.9, 100.0%, 42.0%)" stroke-width="5.4" stroke-linecap="round"/>
<line x1="526.17" y1="470.97" x2="600.30" y2="509.88" stroke="hsl(49.9, 100.0%, 42.0%)" stroke-width="5.4" stroke-linecap="round"/>
<line x1="523.62" y1="475.60" x2="596.51" y2="517.68" stroke="hsl(49.9, 100.0%, 42.0%)" stroke-width="5.4" stroke-linecap="round"/>
<line x1="520.89" y1="480.12" x2="592.40" y2="525.34" stroke="hsl(49.9, 100.0%, 42.0%)" stroke-width="5.4" stroke-linecap="round"/>
<line x1="517.98" y1="484.53" x2="587.97" y2="532.85" stroke="hsl(49.9, 100.0%, 42.0%)" stroke-width="5.4" stroke-linecap="round"/>
<line x1="514.89" y1="488.82" x2="585.20" y2="541.65" stroke="hsl(51.6, 95.8%, 43.3%)" stroke-width="5.4" stroke-linecap="round"/>
<line x1="511.63" y1="492.98" x2="582.00" y2="550.43" stroke="hsl(53.4, 92.1%, 44.5%)" stroke-width="5.4" stroke-linecap="round"/>
<line x1="508.20" y1="497.00" x2="578.37" y2="559.16" stroke="hsl(55.1, 88.9%, 45.5%)" stroke-width="5.4" stroke-linecap="round"/>
<line x1="504.62" y1="500.89" x2="574.32" y2="567.83" stroke="hsl(56.8, 86.0%, 46.4%)" stroke-width="5.4" stroke-linecap="round"/>
<line x1="500.89" y1="504.62" x2="569.83" y2="576.41" stroke="hsl(58.6, 83.5%, 47.1%)" stroke-width="5.4" stroke-linecap="round"/>
<line x1="497.00" y1="508.20" x2="564.93" y2="584.87" stroke="hsl(60.3, 81.4%, 47.7%)" stroke-width="5.4" stroke-linecap="round"/>
<line x1="492.98" y1="511.63" x2="559.59" y2="593.21" stroke="hsl(62.0, 79.6%, 48.2%)" stroke-width="5.4" stroke-linecap="round"/>
<line x1="488.82" y1="514.89" x2="553.83" y2="601.40" stroke="hsl(63.8, 78.1%, 48.5%)" stroke-width="5.4" stroke-linecap="round"/>
<line x1="484.53" y1="517.98" x2="547.65" y2="609.42" stroke="hsl(65.5, 77.0%, 48.7%)" stroke-width="5.4" stroke-linecap="round"/>
<line x1="480.12" y1="520.89" x2="541.06" y2="617.25" stroke="hsl(67.2, 76.0%, 48.8%)" stroke-width="5.4" stroke-linecap="round"/>
<line x1="475.60" y1="523.62" x2="534.05" y2="624.87" stroke="hsl(69.0, 75.4%, 48.7%)" stroke-width="5.4" stroke-linecap="round"/>
<line x1="470.97" y1="526.17" x2="526.65" y2="632.25" stroke="hsl(70.7, 74.9%, 48.4%)" stroke-width="5.4" stroke-linecap="round"/>
<line x1="466.24" y1="528.53" x2="518.46" y2="638.58" stroke="hsl(70.7, 74.9%, 48.4%)" stroke-width="5.4" stroke-linecap="round"/>
<line x1="461.43" y1="530.70" x2="509.96" y2="644.61" stroke="hsl(70.7, 74.9%, 48.4%)" stroke-width="5.4" stroke-linecap="round"/>
<line x1="456.52" y1="532.67" x2="501.14" y2="650.32" stroke="hsl(70.7, 74.9%, 48.4%)" stroke-width="5.4" stroke-linecap="round"/>
<line x1="451.55" y1="534.45" x2="492.02" y2="655.69" stroke="hsl(70.7, 74.9%, 48.4%)" stroke-width="5.4" stroke-linecap="round"/>
<line x1="446.50" y1="536.02" x2="482.62" y2="660.72" stroke="hsl(70.7, 74.9%, 48.4%)" stroke-width="5.4" stroke-linecap="round"/>
<line x1="441.40" y1="537.39" x2="472.95" y2="665.39" stroke="hsl(70.7, 74.9%, 48.4%)" stroke-width="5.4" stroke-linecap="round"/>
<line x1="436.24" y1="538.55" x2="463.01" y2="669.68" stroke="hsl(70.7, 74.9%, 48.4%)" stroke-width="5.4" stroke-linecap="round"/>
<line x1="431.05" y1="539.50" x2="452.84" y2="673.58" stroke="hsl(70.7, 74.9%, 48.4%)" stroke-width="5.4" stroke-linecap="round"/>
<line x1="425.81" y1="540.24" x2="442.43" y2="677.09" stroke="hsl(70.7, 74.9%, 48.4%)" stroke-width="5.4" stroke-linecap="round"/>
<line x1="420.56" y1="540.77" x2="431.81" y2="680.17" stroke="hsl(70.7, 74.9%, 48.4%)" stroke-width="5.4" stroke-linecap="round"/>
<line x1="415.28" y1="541.09" x2="420.99" y2="682.84" stroke="hsl(70.7, 74.9%, 48.4%)" stroke-width="5.4" stroke-linecap="round"/>
<line x1="410.00" y1="541.20" x2="410.00" y2="685.06" stroke="hsl(70.7, 74.9%, 48.4%)" stroke-width="5.4" stroke-linecap="round"/>
<line x1="404.72" y1="541.09" x2="398.87" y2="686.17" stroke="hsl(68.9, 74.2%, 51.1%)" stroke-width="5.4" stroke-linecap="round"/>
<line x1="399.44" y1="540.77" x2="387.65" y2="686.83" stroke="hsl(67.2, 73.8%, 53.7%)" stroke-width="5.4" stroke-linecap="round"/>
<line x1="394.19" y1="540.24" x2="376.36" y2="687.04" stroke="hsl(65.4, 73.7%, 56.1%)" stroke-width="5.4" stroke-linecap="round"/>
<line x1="388.95" y1="539.50" x2="365.02" y2="686.78" stroke="hsl(63.7, 73.8%, 58.3%)" stroke-width="5.4" stroke-linecap="round"/>
<line x1="383.76" y1="538.55" x2="353.64" y2="686.05" stroke="hsl(61.9, 74.2%, 60.4%)" stroke-width="5.4" stroke-linecap="round"/>
<line x1="378.60" y1="537.39" x2="342.25" y2="684.86" stroke="hsl(60.2, 75.0%, 62.4%)" stroke-width="5.4" stroke-linecap="round"/>
<line x1="373.50" y1="536.02" x2="330.87" y2="683.19" stroke="hsl(58.4, 76.0%, 64.2%)" stroke-width="5.4" stroke-linecap="round"/>
<line x1="368.45" y1="534.45" x2="319.51" y2="681.05" stroke="hsl(56.6, 77.4%, 65.9%)" stroke-width="5.4" stroke-linecap="round"/>
<line x1="363.48" y1="532.67" x2="308.20" y2="678.43" stroke="hsl(54.9, 79.1%, 67.4%)" stroke-width="5.4" stroke-linecap="round"/>
<line x1="358.57" y1="530.70" x2="296.95" y2="675.35" stroke="hsl(53.1, 81.2%, 68.8%)" stroke-width="5.4" stroke-linecap="round"/>
<line x1="353.76" y1="528.53" x2="285.78" y2="671.79" stroke="hsl(51.4, 83.6%, 70.1%)" stroke-width="5.4" stroke-linecap="round"/>
<line x1="349.03" y1="526.17" x2="274.72" y2="667.76" stroke="hsl(49.6, 86.4%, 71.2%)" stroke-width="5.4" stroke-linecap="round"/>
<line x1="344.40" y1="523.62" x2="265.01" y2="661.14" stroke="hsl(49.6, 86.4%, 71.2%)" stroke-width="5.4" stroke-linecap="round"/>
<line x1="339.88" y1="520.89" x2="255.61" y2="654.15" stroke="hsl(49.6, 86.4%, 71.2%)" stroke-width="5.4" stroke-linecap="round"/>
<line x1="335.47" y1="517.98" x2="246.53" y2="646.82" stroke="hsl(49.6, 86.4%, 71.2%)" stroke-width="5.4" stroke-linecap="round"/>
<line x1="331.18" y1="514.89" x2="237.80" y2="639.16" stroke="hsl(49.6, 86.4%, 71.2%)" stroke-width="5.4" stroke-linecap="round"/>
<line x1="327.02" y1="511.63" x2="229.42" y2="631.17" stroke="hsl(49.6, 86.4%, 71.2%)" stroke-width="5.4" stroke-linecap="round"/>
<line x1="323.00" y1="508.20" x2="221.40" y2="622.89" stroke="hsl(49.6, 86.4%, 71.2%)" stroke-width="5.4" stroke-linecap="round"/>
<line x1="319.11" y1="504.62" x2="213.75" y2="614.32" stroke="hsl(49.6, 86.4%, 71.2%)" stroke-width="5.4" stroke-linecap="round"/>
<line x1="315.38" y1="500.89" x2="206.48" y2="605.48" stroke="hsl(49.6, 86.4%, 71.2%)" stroke-width="5.4" stroke-linecap="round"/>
<line x1="311.80" y1="497.00" x2="199.61" y2="596.39" stroke="hsl(49.6, 86.4%, 71.2%)" stroke-width="5.4" stroke-linecap="round"/>
<line x1="308.37" y1="492.98" x2="193.14" y2="587.06" stroke="hsl(49.6, 86.4%, 71.2%)" stroke-width="5.4" stroke-linecap="round"/>
<line x1="305.11" y1="488.82" x2="187.08" y2="577.52" stroke="hsl(49.6, 86.4%, 71.2%)" stroke-width="5.4" stroke-linecap="round"/>
<line x1="302.02" y1="484.53" x2="181.43" y2="567.77" stroke="hsl(49.6, 86.4%, 71.2%)" stroke-width="5.4" stroke-linecap="round"/>
<line x1="299.11" y1="480.12" x2="174.51" y2="558.92" stroke="hsl(49.1, 83.3%, 72.0%)" stroke-width="5.4" stroke-linecap="round"/>
<line x1="296.38" y1="475.60" x2="167.93" y2="549.76" stroke="hsl(48.6, 80.3%, 72.9%)" stroke-width="5.4" stroke-linecap="round"/>
<line x1="293.83" y1="470.97" x2="161.71" y2="540.31" stroke="hsl(48.1, 77.4%, 73.7%)" stroke-width="5.4" stroke-linecap="round"/>
<line x1="291.47" y1="466.24" x2="155.86" y2="530.59" stroke="hsl(47.6, 74.7%, 74.4%)" stroke-width="5.4" stroke-linecap="round"/>
<line x1="289.30" y1="461.43" x2="150.39" y2="520.61" stroke="hsl(47.2, 72.0%, 75.1%)" stroke-width="5.4" stroke-linecap="round"/>
<line x1="287.33" y1="456.52" x2="145.31" y2="510.38" stroke="hsl(46.7, 69.4%, 75.8%)" stroke-width="5.4" stroke-linecap="round"/>
<line x1="285.55" y1="451.55" x2="140.64" y2="499.92" stroke="hsl(46.2, 66.9%, 76.5%)" stroke-width="5.4" stroke-linecap="round"/>
<line x1="283.98" y1="446.50" x2="136.38" y2="489.25" stroke="hsl(45.7, 64.4%, 77.0%)" stroke-width="5.4" stroke-linecap="round"/>
<line x1="282.61" y1="441.40" x2="132.55" y2="478.39" stroke="hsl(45.2, 62.0%, 77.6%)" stroke-width="5.4" stroke-linecap="round"/>
<line x1="281.45" y1="436.24" x2="129.15" y2="467.34" stroke="hsl(44.7, 59.7%, 78.1%)" stroke-width="5.4" stroke-linecap="round"/>
<line x1="280.50" y1="431.05" x2="126.19" y2="456.12" stroke="hsl(44.2, 57.4%, 78.6%)" stroke-width="5.4" stroke-linecap="round"/>
<line x1="279.76" y1="425.81" x2="123.68" y2="444.77" stroke="hsl(43.7, 55.1%, 79.0%)" stroke-width="5.4" stroke-linecap="round"/>
<line x1="279.23" y1="420.56" x2="126.73" y2="432.87" stroke="hsl(40.8, 56.8%, 79.4%)" stroke-width="5.4" stroke-linecap="round"/>
<line x1="278.91" y1="415.28" x2="130.26" y2="421.27" stroke="hsl(37.9, 58.5%, 79.6%)" stroke-width="5.4" stroke-linecap="round"/>
<line x1="278.80" y1="410.00" x2="134.27" y2="410.00" stroke="hsl(34.9, 60.5%, 79.5%)" stroke-width="5.4" stroke-linecap="round"/>
<line x1="278.91" y1="404.72" x2="138.72" y2="399.07" stroke="hsl(32.0, 62.8%, 79.2%)" stroke-width="5.4" stroke-linecap="round"/>
<line x1="279.23" y1="399.44" x2="143.60" y2="388.49" stroke="hsl(29.0, 65.4%, 78.6%)" stroke-width="5.4" stroke-linecap="round"/>
<line x1="279.76" y1="394.19" x2="148.88" y2="378.29" stroke="hsl(26.1, 68.5%, 77.8%)" stroke-width="5.4" stroke-linecap="round"/>
<line x1="280.50" y1="388.95" x2="154.55" y2="368.49" stroke="hsl(23.2, 72.0%, 76.8%)" stroke-width="5.4" stroke-linecap="round"/>
<line x1="281.45" y1="383.76" x2="160.58" y2="359.08" stroke="hsl(20.2, 76.2%, 75.5%)" stroke-width="5.4" stroke-linecap="round"/>
<line x1="282.61" y1="378.60" x2="166.94" y2="350.09" stroke="hsl(17.3, 81.0%, 74.0%)" stroke-width="5.4" stroke-linecap="round"/>
<line x1="283.98" y1="373.50" x2="173.61" y2="341.53" stroke="hsl(14.3, 86.5%, 72.3%)" stroke-width="5.4" stroke-linecap="round"/>
<line x1="285.55" y1="368.45" x2="180.58" y2="333.41" stroke="hsl(11.4, 92.8%, 70.3%)" stroke-width="5.4" stroke-linecap="round"/>
<line x1="287.33" y1="363.48" x2="187.80" y2="325.73" stroke="hsl(8.5, 100.0%, 68.0%)" stroke-width="5.4" stroke-linecap="round"/>
<line x1="289.30" y1="358.57" x2="194.45" y2="318.16" stroke="hsl(6.4, 95.2%, 67.2%)" stroke-width="5.4" stroke-linecap="round"/>
<line x1="291.47" y1="353.76" x2="201.34" y2="310.99" stroke="hsl(4.2, 91.0%, 66.2%)" stroke-width="5.4" stroke-linecap="round"/>
<line x1="293.83" y1="349.03" x2="208.46" y2="304.22" stroke="hsl(2.1, 87.4%, 65.0%)" stroke-width="5.4" stroke-linecap="round"/>
<line x1="296.38" y1="344.40" x2="215.77" y2="297.86" stroke="hsl(0.0, 84.2%, 63.7%)" stroke-width="5.4" stroke-linecap="round"/>
<line x1="299.11" y1="339.88" x2="223.27" y2="291.92" stroke="hsl(357.9, 81.5%, 62.1%)" stroke-width="5.4" stroke-linecap="round"/>
<line x1="302.02" y1="335.47" x2="230.93" y2="286.39" stroke="hsl(355.8, 79.2%, 60.5%)" stroke-width="5.4" stroke-linecap="round"/>
<line x1="305.11" y1="331.18" x2="238.72" y2="281.29" stroke="hsl(353.7, 77.4%, 58.6%)" stroke-width="5.4" stroke-linecap="round"/>
<line x1="308.37" y1="327.02" x2="246.63" y2="276.61" stroke="hsl(351.6, 75.9%, 56.5%)" stroke-width="5.4" stroke-linecap="round"/>
<line x1="311.80" y1="323.00" x2="254.63" y2="272.36" stroke="hsl(349.4, 74.8%, 54.3%)" stroke-width="5.4" stroke-linecap="round"/>
<line x1="315.38" y1="319.11" x2="262.71" y2="268.53" stroke="hsl(347.3, 73.9%, 52.0%)" stroke-width="5.4" stroke-linecap="round"/>
<line x1="319.11" y1="315.38" x2="270.84" y2="265.12" stroke="hsl(345.2, 73.4%, 49.4%)" stroke-width="5.4" stroke-linecap="round"/>
<line x1="323.00" y1="311.80" x2="279.00" y2="262.14" stroke="hsl(343.1, 73.1%, 46.7%)" stroke-width="5.4" stroke-linecap="round"/>
<line x1="327.02" y1="308.37" x2="287.32" y2="259.74" stroke="hsl(343.1, 73.1%, 46.7%)" stroke-width="5.4" stroke-linecap="round"/>
<line x1="331.18" y1="305.11" x2="295.61" y2="257.77" stroke="hsl(343.1, 73.1%, 46.7%)" stroke-width="5.4" stroke-linecap="round"/>
<line x1="335.47" y1="302.02" x2="303.86" y2="256.22" stroke="hsl(343.1, 73.1%, 46.7%)" stroke-width="5.4" stroke-linecap="round"/>
<line x1="339.88" y1="299.11" x2="312.04" y2="255.09" stroke="hsl(343.1, 73.1%, 46.7%)" stroke-width="5.4" stroke-linecap="round"/>
<line x1="344.40" y1="296.38" x2="320.14" y2="254.35" stroke="hsl(343.1, 73.1%, 46.7%)" stroke-width="5.4" stroke-linecap="round"/>
<line x1="349.03" y1="293.83" x2="328.13" y2="254.02" stroke="hsl(343.1, 73.1%, 46.7%)" stroke-width="5.4" stroke-linecap="round"/>
<line x1="353.76" y1="291.47" x2="336.01" y2="254.07" stroke="hsl(343.1, 73.1%, 46.7%)" stroke-width="5.4" stroke-linecap="round"/>
<line x1="358.57" y1="289.30" x2="343.75" y2="254.49" stroke="hsl(343.1, 73.1%, 46.7%)" stroke-width="5.4" stroke-linecap="round"/>
<line x1="363.48" y1="287.33" x2="351.32" y2="255.29" stroke="hsl(343.1, 73.1%, 46.7%)" stroke-width="5.4" stroke-linecap="round"/>
<line x1="368.45" y1="285.55" x2="358.73" y2="256.43" stroke="hsl(343.1, 73.1%, 46.7%)" stroke-width="5.4" stroke-linecap="round"/>
<line x1="373.50" y1="283.98" x2="365.95" y2="257.91" stroke="hsl(343.1, 73.1%, 46.7%)" stroke-width="5.4" stroke-linecap="round"/>
<line x1="378.60" y1="282.61" x2="372.96" y2="259.72" stroke="hsl(343.1, 73.1%, 46.7%)" stroke-width="5.4" stroke-linecap="round"/>
<line x1="383.76" y1="281.45" x2="378.82" y2="257.26" stroke="hsl(343.2, 75.2%, 45.2%)" stroke-width="5.4" stroke-linecap="round"/>
<line x1="388.95" y1="280.50" x2="384.82" y2="255.03" stroke="hsl(343.3, 77.4%, 43.7%)" stroke-width="5.4" stroke-linecap="round"/>
<line x1="394.19" y1="279.76" x2="390.94" y2="253.04" stroke="hsl(343.4, 79.6%, 42.1%)" stroke-width="5.4" stroke-linecap="round"/>
<line x1="399.44" y1="279.23" x2="397.19" y2="251.29" stroke="hsl(343.6, 81.7%, 40.6%)" stroke-width="5.4" stroke-linecap="round"/>
<line x1="404.72" y1="278.91" x2="403.54" y2="249.79" stroke="hsl(343.7, 83.9%, 39.1%)" stroke-width="5.4" stroke-linecap="round"/>
<text x="490.5" y="83.6" text-anchor="middle" dominant-baseline="middle" font-family="sans-serif" font-size="15.5" fill="#777">経済</text>
<text x="686.7" y="219.0" text-anchor="middle" dominant-baseline="middle" font-family="sans-serif" font-size="15.5" fill="#777">経営・商</text>
<text x="724.4" y="529.2" text-anchor="middle" dominant-baseline="middle" font-family="sans-serif" font-size="15.5" fill="#777">法・政治</text>
<text x="490.5" y="736.4" text-anchor="middle" dominant-baseline="middle" font-family="sans-serif" font-size="15.5" fill="#777">社会・国際</text>
<text x="187.1" y="661.6" text-anchor="middle" dominant-baseline="middle" font-family="sans-serif" font-size="15.5" fill="#777">文学・外国語</text>
<text x="76.3" y="450.5" text-anchor="middle" dominant-baseline="middle" font-family="sans-serif" font-size="15.5" fill="#777">哲学</text>
<text x="95.6" y="290.8" text-anchor="middle" dominant-baseline="middle" font-family="sans-serif" font-size="15.5" fill="#777">心理</text>
<text x="253.8" y="112.3" text-anchor="middle" dominant-baseline="middle" font-family="sans-serif" font-size="15.5" fill="#777">教育・スポーツ</text>
<text x="410" y="806" text-anchor="middle" font-family="sans-serif" font-size="19" fill="#444">8カテゴリ (13学部) / 156本 / hum 15軸計測 / hsl</text>
</svg>