<svg xmlns="http://www.w3.org/2000/svg" width="820" height="820" viewBox="0 0 820 820">
<rect width="820" height="820" fill="white"/>
<line x1="410.00" y1="278.80" x2="410.00" y2="199.18" stroke="rgb(21, 44, 97)" stroke-width="3.6" stroke-linecap="round"/>
<line x1="415.72" y1="278.92" x2="419.88" y2="183.74" stroke="rgb(19, 41, 96)" stroke-width="3.6" stroke-linecap="round"/>
<line x1="421.43" y1="279.30" x2="431.10" y2="168.80" stroke="rgb(18, 38, 96)" stroke-width="3.6" stroke-linecap="round"/>
<line x1="427.13" y1="279.92" x2="443.65" y2="154.43" stroke="rgb(16, 35, 96)" stroke-width="3.6" stroke-linecap="round"/>
<line x1="432.78" y1="280.79" x2="455.07" y2="154.40" stroke="rgb(16, 35, 96)" stroke-width="3.6" stroke-linecap="round"/>
<line x1="438.40" y1="281.91" x2="466.56" y2="154.88" stroke="rgb(16, 35, 96)" stroke-width="3.6" stroke-linecap="round"/>
<line x1="443.96" y1="283.27" x2="478.09" y2="155.89" stroke="rgb(16, 35, 96)" stroke-width="3.6" stroke-linecap="round"/>
<line x1="449.45" y1="284.87" x2="489.64" y2="157.41" stroke="rgb(16, 35, 96)" stroke-width="3.6" stroke-linecap="round"/>
<line x1="454.87" y1="286.71" x2="501.19" y2="159.47" stroke="rgb(16, 35, 96)" stroke-width="3.6" stroke-linecap="round"/>
<line x1="460.21" y1="288.79" x2="512.70" y2="162.05" stroke="rgb(16, 35, 96)" stroke-width="3.6" stroke-linecap="round"/>
<line x1="465.45" y1="291.09" x2="523.53" y2="166.54" stroke="rgb(16, 35, 96)" stroke-width="3.6" stroke-linecap="round"/>
<line x1="470.58" y1="293.62" x2="534.16" y2="171.50" stroke="rgb(16, 35, 96)" stroke-width="3.6" stroke-linecap="round"/>
<line x1="475.60" y1="296.38" x2="544.57" y2="176.92" stroke="rgb(16, 35, 96)" stroke-width="3.6" stroke-linecap="round"/>
<line x1="480.49" y1="299.35" x2="554.74" y2="182.80" stroke="rgb(16, 35, 96)" stroke-width="3.6" stroke-linecap="round"/>
<line x1="485.25" y1="302.53" x2="564.66" y2="189.12" stroke="rgb(16, 35, 96)" stroke-width="3.6" stroke-linecap="round"/>
<line x1="489.87" y1="305.91" x2="574.30" y2="195.88" stroke="rgb(16, 35, 96)" stroke-width="3.6" stroke-linecap="round"/>
<line x1="494.33" y1="309.49" x2="582.19" y2="204.80" stroke="rgb(17, 41, 107)" stroke-width="3.6" stroke-linecap="round"/>
<line x1="498.64" y1="313.27" x2="589.61" y2="213.99" stroke="rgb(19, 47, 117)" stroke-width="3.6" stroke-linecap="round"/>
<line x1="502.77" y1="317.23" x2="596.56" y2="223.44" stroke="rgb(20, 53, 128)" stroke-width="3.6" stroke-linecap="round"/>
<line x1="506.73" y1="321.36" x2="603.03" y2="233.12" stroke="rgb(21, 58, 139)" stroke-width="3.6" stroke-linecap="round"/>
<line x1="510.51" y1="325.67" x2="609.02" y2="243.01" stroke="rgb(23, 64, 149)" stroke-width="3.6" stroke-linecap="round"/>
<line x1="514.09" y1="330.13" x2="614.51" y2="253.08" stroke="rgb(24, 70, 160)" stroke-width="3.6" stroke-linecap="round"/>
<line x1="517.47" y1="334.75" x2="620.95" y2="262.29" stroke="rgb(24, 70, 160)" stroke-width="3.6" stroke-linecap="round"/>
<line x1="520.65" y1="339.51" x2="626.98" y2="271.77" stroke="rgb(24, 70, 160)" stroke-width="3.6" stroke-linecap="round"/>
<line x1="523.62" y1="344.40" x2="632.58" y2="281.49" stroke="rgb(24, 70, 160)" stroke-width="3.6" stroke-linecap="round"/>
<line x1="526.38" y1="349.42" x2="637.75" y2="291.44" stroke="rgb(24, 70, 160)" stroke-width="3.6" stroke-linecap="round"/>
<line x1="528.91" y1="354.55" x2="642.48" y2="301.59" stroke="rgb(24, 70, 160)" stroke-width="3.6" stroke-linecap="round"/>
<line x1="531.21" y1="359.79" x2="646.75" y2="311.93" stroke="rgb(24, 70, 160)" stroke-width="3.6" stroke-linecap="round"/>
<line x1="533.29" y1="365.13" x2="650.57" y2="322.44" stroke="rgb(24, 70, 160)" stroke-width="3.6" stroke-linecap="round"/>
<line x1="535.13" y1="370.55" x2="653.92" y2="333.09" stroke="rgb(24, 70, 160)" stroke-width="3.6" stroke-linecap="round"/>
<line x1="536.73" y1="376.04" x2="656.80" y2="343.87" stroke="rgb(24, 70, 160)" stroke-width="3.6" stroke-linecap="round"/>
<line x1="538.09" y1="381.60" x2="659.20" y2="354.75" stroke="rgb(24, 70, 160)" stroke-width="3.6" stroke-linecap="round"/>
<line x1="539.21" y1="387.22" x2="661.13" y2="365.72" stroke="rgb(24, 70, 160)" stroke-width="3.6" stroke-linecap="round"/>
<line x1="540.08" y1="392.87" x2="662.57" y2="376.75" stroke="rgb(24, 70, 160)" stroke-width="3.6" stroke-linecap="round"/>
<line x1="540.70" y1="398.57" x2="668.56" y2="387.38" stroke="rgb(40, 90, 173)" stroke-width="3.6" stroke-linecap="round"/>
<line x1="541.08" y1="404.28" x2="674.09" y2="398.47" stroke="rgb(57, 110, 185)" stroke-width="3.6" stroke-linecap="round"/>
<line x1="541.20" y1="410.00" x2="679.14" y2="410.00" stroke="rgb(73, 131, 198)" stroke-width="3.6" stroke-linecap="round"/>
<line x1="541.08" y1="415.72" x2="683.67" y2="421.95" stroke="rgb(89, 151, 210)" stroke-width="3.6" stroke-linecap="round"/>
<line x1="540.70" y1="421.43" x2="687.67" y2="434.29" stroke="rgb(106, 171, 222)" stroke-width="3.6" stroke-linecap="round"/>
<line x1="540.08" y1="427.13" x2="691.10" y2="447.01" stroke="rgb(122, 191, 235)" stroke-width="3.6" stroke-linecap="round"/>
<line x1="539.21" y1="432.78" x2="688.47" y2="459.10" stroke="rgb(122, 191, 235)" stroke-width="3.6" stroke-linecap="round"/>
<line x1="538.09" y1="438.40" x2="685.33" y2="471.04" stroke="rgb(122, 191, 235)" stroke-width="3.6" stroke-linecap="round"/>
<line x1="536.73" y1="443.96" x2="681.67" y2="482.79" stroke="rgb(122, 191, 235)" stroke-width="3.6" stroke-linecap="round"/>
<line x1="535.13" y1="449.45" x2="677.51" y2="494.35" stroke="rgb(122, 191, 235)" stroke-width="3.6" stroke-linecap="round"/>
<line x1="533.29" y1="454.87" x2="672.87" y2="505.68" stroke="rgb(122, 191, 235)" stroke-width="3.6" stroke-linecap="round"/>
<line x1="531.21" y1="460.21" x2="667.75" y2="516.76" stroke="rgb(122, 191, 235)" stroke-width="3.6" stroke-linecap="round"/>
<line x1="528.91" y1="465.45" x2="664.67" y2="528.76" stroke="rgb(122, 191, 235)" stroke-width="3.6" stroke-linecap="round"/>
<line x1="526.38" y1="470.58" x2="661.04" y2="540.68" stroke="rgb(122, 191, 235)" stroke-width="3.6" stroke-linecap="round"/>
<line x1="523.62" y1="475.60" x2="656.85" y2="552.52" stroke="rgb(122, 191, 235)" stroke-width="3.6" stroke-linecap="round"/>
<line x1="520.65" y1="480.49" x2="652.10" y2="564.24" stroke="rgb(122, 191, 235)" stroke-width="3.6" stroke-linecap="round"/>
<line x1="517.47" y1="485.25" x2="646.80" y2="575.81" stroke="rgb(122, 191, 235)" stroke-width="3.6" stroke-linecap="round"/>
<line x1="514.09" y1="489.87" x2="640.95" y2="587.21" stroke="rgb(122, 191, 235)" stroke-width="3.6" stroke-linecap="round"/>
<line x1="510.51" y1="494.33" x2="632.80" y2="596.95" stroke="rgb(109, 198, 238)" stroke-width="3.6" stroke-linecap="round"/>
<line x1="506.73" y1="498.64" x2="624.25" y2="606.32" stroke="rgb(95, 204, 242)" stroke-width="3.6" stroke-linecap="round"/>
<line x1="502.77" y1="502.77" x2="615.30" y2="615.30" stroke="rgb(82, 211, 245)" stroke-width="3.6" stroke-linecap="round"/>
<line x1="498.64" y1="506.73" x2="605.98" y2="623.88" stroke="rgb(68, 218, 248)" stroke-width="3.6" stroke-linecap="round"/>
<line x1="494.33" y1="510.51" x2="596.30" y2="632.03" stroke="rgb(54, 224, 252)" stroke-width="3.6" stroke-linecap="round"/>
<line x1="489.87" y1="514.09" x2="586.29" y2="639.74" stroke="rgb(41, 231, 255)" stroke-width="3.6" stroke-linecap="round"/>
<line x1="485.25" y1="517.47" x2="575.23" y2="645.97" stroke="rgb(41, 231, 255)" stroke-width="3.6" stroke-linecap="round"/>
<line x1="480.49" y1="520.65" x2="563.97" y2="651.68" stroke="rgb(41, 231, 255)" stroke-width="3.6" stroke-linecap="round"/>
<line x1="475.60" y1="523.62" x2="552.52" y2="656.85" stroke="rgb(41, 231, 255)" stroke-width="3.6" stroke-linecap="round"/>
<line x1="470.58" y1="526.38" x2="540.92" y2="661.49" stroke="rgb(41, 231, 255)" stroke-width="3.6" stroke-linecap="round"/>
<line x1="465.45" y1="528.91" x2="529.18" y2="665.59" stroke="rgb(41, 231, 255)" stroke-width="3.6" stroke-linecap="round"/>
<line x1="460.21" y1="531.21" x2="517.34" y2="669.15" stroke="rgb(41, 231, 255)" stroke-width="3.6" stroke-linecap="round"/>
<line x1="454.87" y1="533.29" x2="506.45" y2="675.00" stroke="rgb(41, 231, 255)" stroke-width="3.6" stroke-linecap="round"/>
<line x1="449.45" y1="535.13" x2="495.26" y2="680.40" stroke="rgb(41, 231, 255)" stroke-width="3.6" stroke-linecap="round"/>
<line x1="443.96" y1="536.73" x2="483.77" y2="685.33" stroke="rgb(41, 231, 255)" stroke-width="3.6" stroke-linecap="round"/>
<line x1="438.40" y1="538.09" x2="472.02" y2="689.76" stroke="rgb(41, 231, 255)" stroke-width="3.6" stroke-linecap="round"/>
<line x1="432.78" y1="539.21" x2="460.02" y2="693.69" stroke="rgb(41, 231, 255)" stroke-width="3.6" stroke-linecap="round"/>
<line x1="427.13" y1="540.08" x2="447.80" y2="697.11" stroke="rgb(41, 231, 255)" stroke-width="3.6" stroke-linecap="round"/>
<line x1="421.43" y1="540.70" x2="434.89" y2="694.46" stroke="rgb(38, 226, 239)" stroke-width="3.6" stroke-linecap="round"/>
<line x1="415.72" y1="541.08" x2="422.28" y2="691.24" stroke="rgb(35, 221, 222)" stroke-width="3.6" stroke-linecap="round"/>
<line x1="410.00" y1="541.20" x2="410.00" y2="687.47" stroke="rgb(32, 217, 206)" stroke-width="3.6" stroke-linecap="round"/>
<line x1="404.28" y1="541.08" x2="398.07" y2="683.17" stroke="rgb(28, 212, 189)" stroke-width="3.6" stroke-linecap="round"/>
<line x1="398.57" y1="540.70" x2="386.52" y2="678.36" stroke="rgb(25, 207, 172)" stroke-width="3.6" stroke-linecap="round"/>
<line x1="392.87" y1="540.08" x2="375.36" y2="673.08" stroke="rgb(22, 202, 156)" stroke-width="3.6" stroke-linecap="round"/>
<line x1="387.22" y1="539.21" x2="363.88" y2="671.57" stroke="rgb(22, 202, 156)" stroke-width="3.6" stroke-linecap="round"/>
<line x1="381.60" y1="538.09" x2="352.46" y2="669.55" stroke="rgb(22, 202, 156)" stroke-width="3.6" stroke-linecap="round"/>
<line x1="376.04" y1="536.73" x2="341.13" y2="667.04" stroke="rgb(22, 202, 156)" stroke-width="3.6" stroke-linecap="round"/>
<line x1="370.55" y1="535.13" x2="329.90" y2="664.03" stroke="rgb(22, 202, 156)" stroke-width="3.6" stroke-linecap="round"/>
<line x1="365.13" y1="533.29" x2="318.81" y2="660.53" stroke="rgb(22, 202, 156)" stroke-width="3.6" stroke-linecap="round"/>
<line x1="359.79" y1="531.21" x2="307.88" y2="656.55" stroke="rgb(22, 202, 156)" stroke-width="3.6" stroke-linecap="round"/>
<line x1="354.55" y1="528.91" x2="296.90" y2="652.55" stroke="rgb(22, 202, 156)" stroke-width="3.6" stroke-linecap="round"/>
<line x1="349.42" y1="526.38" x2="286.08" y2="648.06" stroke="rgb(22, 202, 156)" stroke-width="3.6" stroke-linecap="round"/>
<line x1="344.40" y1="523.62" x2="275.43" y2="643.08" stroke="rgb(22, 202, 156)" stroke-width="3.6" stroke-linecap="round"/>
<line x1="339.51" y1="520.65" x2="264.99" y2="637.63" stroke="rgb(22, 202, 156)" stroke-width="3.6" stroke-linecap="round"/>
<line x1="334.75" y1="517.47" x2="254.76" y2="631.70" stroke="rgb(22, 202, 156)" stroke-width="3.6" stroke-linecap="round"/>
<line x1="330.13" y1="514.09" x2="244.78" y2="625.32" stroke="rgb(22, 202, 156)" stroke-width="3.6" stroke-linecap="round"/>
<line x1="325.67" y1="510.51" x2="240.41" y2="612.11" stroke="rgb(38, 205, 158)" stroke-width="3.6" stroke-linecap="round"/>
<line x1="321.36" y1="506.73" x2="236.87" y2="598.94" stroke="rgb(54, 208, 159)" stroke-width="3.6" stroke-linecap="round"/>
<line x1="317.23" y1="502.77" x2="234.15" y2="585.85" stroke="rgb(70, 211, 161)" stroke-width="3.6" stroke-linecap="round"/>
<line x1="313.27" y1="498.64" x2="232.23" y2="572.89" stroke="rgb(86, 213, 162)" stroke-width="3.6" stroke-linecap="round"/>
<line x1="309.49" y1="494.33" x2="231.10" y2="560.12" stroke="rgb(102, 216, 164)" stroke-width="3.6" stroke-linecap="round"/>
<line x1="305.91" y1="489.87" x2="230.73" y2="547.56" stroke="rgb(118, 219, 165)" stroke-width="3.6" stroke-linecap="round"/>
<line x1="302.53" y1="485.25" x2="221.18" y2="542.22" stroke="rgb(118, 219, 165)" stroke-width="3.6" stroke-linecap="round"/>
<line x1="299.35" y1="480.49" x2="211.76" y2="536.30" stroke="rgb(118, 219, 165)" stroke-width="3.6" stroke-linecap="round"/>
<line x1="296.38" y1="475.60" x2="202.50" y2="529.80" stroke="rgb(118, 219, 165)" stroke-width="3.6" stroke-linecap="round"/>
<line x1="293.62" y1="470.58" x2="193.44" y2="522.73" stroke="rgb(118, 219, 165)" stroke-width="3.6" stroke-linecap="round"/>
<line x1="291.09" y1="465.45" x2="184.61" y2="515.10" stroke="rgb(118, 219, 165)" stroke-width="3.6" stroke-linecap="round"/>
<line x1="288.79" y1="460.21" x2="176.04" y2="506.91" stroke="rgb(118, 219, 165)" stroke-width="3.6" stroke-linecap="round"/>
<line x1="286.71" y1="454.87" x2="176.07" y2="495.14" stroke="rgb(118, 219, 165)" stroke-width="3.6" stroke-linecap="round"/>
<line x1="284.87" y1="449.45" x2="176.67" y2="483.57" stroke="rgb(118, 219, 165)" stroke-width="3.6" stroke-linecap="round"/>
<line x1="283.27" y1="443.96" x2="177.83" y2="472.21" stroke="rgb(118, 219, 165)" stroke-width="3.6" stroke-linecap="round"/>
<line x1="281.91" y1="438.40" x2="179.53" y2="461.09" stroke="rgb(118, 219, 165)" stroke-width="3.6" stroke-linecap="round"/>
<line x1="280.79" y1="432.78" x2="181.75" y2="450.25" stroke="rgb(118, 219, 165)" stroke-width="3.6" stroke-linecap="round"/>
<line x1="279.92" y1="427.13" x2="184.46" y2="439.69" stroke="rgb(118, 219, 165)" stroke-width="3.6" stroke-linecap="round"/>
<line x1="279.30" y1="421.43" x2="185.14" y2="429.67" stroke="rgb(106, 206, 164)" stroke-width="3.6" stroke-linecap="round"/>
<line x1="278.92" y1="415.72" x2="186.27" y2="419.77" stroke="rgb(94, 193, 163)" stroke-width="3.6" stroke-linecap="round"/>
<line x1="278.80" y1="410.00" x2="187.82" y2="410.00" stroke="rgb(82, 180, 162)" stroke-width="3.6" stroke-linecap="round"/>
<line x1="278.92" y1="404.28" x2="189.80" y2="400.39" stroke="rgb(70, 166, 160)" stroke-width="3.6" stroke-linecap="round"/>
<line x1="279.30" y1="398.57" x2="192.19" y2="390.94" stroke="rgb(58, 153, 159)" stroke-width="3.6" stroke-linecap="round"/>
<line x1="279.92" y1="392.87" x2="194.98" y2="381.69" stroke="rgb(46, 140, 158)" stroke-width="3.6" stroke-linecap="round"/>
<line x1="280.79" y1="387.22" x2="194.68" y2="372.03" stroke="rgb(46, 140, 158)" stroke-width="3.6" stroke-linecap="round"/>
<line x1="281.91" y1="381.60" x2="194.81" y2="362.29" stroke="rgb(46, 140, 158)" stroke-width="3.6" stroke-linecap="round"/>
<line x1="283.27" y1="376.04" x2="195.39" y2="352.50" stroke="rgb(46, 140, 158)" stroke-width="3.6" stroke-linecap="round"/>
<line x1="284.87" y1="370.55" x2="196.42" y2="342.66" stroke="rgb(46, 140, 158)" stroke-width="3.6" stroke-linecap="round"/>
<line x1="286.71" y1="365.13" x2="197.90" y2="332.80" stroke="rgb(46, 140, 158)" stroke-width="3.6" stroke-linecap="round"/>
<line x1="288.79" y1="359.79" x2="199.83" y2="322.95" stroke="rgb(46, 140, 158)" stroke-width="3.6" stroke-linecap="round"/>
<line x1="291.09" y1="354.55" x2="213.90" y2="318.56" stroke="rgb(46, 140, 158)" stroke-width="3.6" stroke-linecap="round"/>
<line x1="293.62" y1="349.42" x2="227.93" y2="315.22" stroke="rgb(46, 140, 158)" stroke-width="3.6" stroke-linecap="round"/>
<line x1="296.38" y1="344.40" x2="241.85" y2="312.92" stroke="rgb(46, 140, 158)" stroke-width="3.6" stroke-linecap="round"/>
<line x1="299.35" y1="339.51" x2="255.62" y2="311.65" stroke="rgb(46, 140, 158)" stroke-width="3.6" stroke-linecap="round"/>
<line x1="302.53" y1="334.75" x2="269.15" y2="311.38" stroke="rgb(46, 140, 158)" stroke-width="3.6" stroke-linecap="round"/>
<line x1="305.91" y1="330.13" x2="282.40" y2="312.09" stroke="rgb(46, 140, 158)" stroke-width="3.6" stroke-linecap="round"/>
<line x1="309.49" y1="325.67" x2="286.02" y2="305.97" stroke="rgb(42, 125, 148)" stroke-width="3.6" stroke-linecap="round"/>
<line x1="313.27" y1="321.36" x2="289.93" y2="299.98" stroke="rgb(39, 111, 138)" stroke-width="3.6" stroke-linecap="round"/>
<line x1="317.23" y1="317.23" x2="294.13" y2="294.13" stroke="rgb(36, 96, 128)" stroke-width="3.6" stroke-linecap="round"/>
<line x1="321.36" y1="313.27" x2="298.61" y2="288.44" stroke="rgb(32, 81, 117)" stroke-width="3.6" stroke-linecap="round"/>
<line x1="325.67" y1="309.49" x2="303.37" y2="282.93" stroke="rgb(29, 67, 107)" stroke-width="3.6" stroke-linecap="round"/>
<line x1="330.13" y1="305.91" x2="308.40" y2="277.60" stroke="rgb(25, 52, 97)" stroke-width="3.6" stroke-linecap="round"/>
<line x1="334.75" y1="302.53" x2="315.43" y2="274.94" stroke="rgb(25, 52, 97)" stroke-width="3.6" stroke-linecap="round"/>
<line x1="339.51" y1="299.35" x2="322.50" y2="272.65" stroke="rgb(25, 52, 97)" stroke-width="3.6" stroke-linecap="round"/>
<line x1="344.40" y1="296.38" x2="329.58" y2="270.71" stroke="rgb(25, 52, 97)" stroke-width="3.6" stroke-linecap="round"/>
<line x1="349.42" y1="293.62" x2="336.67" y2="269.13" stroke="rgb(25, 52, 97)" stroke-width="3.6" stroke-linecap="round"/>
<line x1="354.55" y1="291.09" x2="343.74" y2="267.90" stroke="rgb(25, 52, 97)" stroke-width="3.6" stroke-linecap="round"/>
<line x1="359.79" y1="288.79" x2="350.77" y2="267.01" stroke="rgb(25, 52, 97)" stroke-width="3.6" stroke-linecap="round"/>
<line x1="365.13" y1="286.71" x2="356.55" y2="263.14" stroke="rgb(25, 52, 97)" stroke-width="3.6" stroke-linecap="round"/>
<line x1="370.55" y1="284.87" x2="362.55" y2="259.50" stroke="rgb(25, 52, 97)" stroke-width="3.6" stroke-linecap="round"/>
<line x1="376.04" y1="283.27" x2="368.77" y2="256.11" stroke="rgb(25, 52, 97)" stroke-width="3.6" stroke-linecap="round"/>
<line x1="381.60" y1="281.91" x2="375.19" y2="252.98" stroke="rgb(25, 52, 97)" stroke-width="3.6" stroke-linecap="round"/>
<line x1="387.22" y1="280.79" x2="381.81" y2="250.12" stroke="rgb(25, 52, 97)" stroke-width="3.6" stroke-linecap="round"/>
<line x1="392.87" y1="279.92" x2="388.61" y2="247.54" stroke="rgb(25, 52, 97)" stroke-width="3.6" stroke-linecap="round"/>
<line x1="398.57" y1="279.30" x2="394.35" y2="231.17" stroke="rgb(23, 49, 97)" stroke-width="3.6" stroke-linecap="round"/>
<line x1="404.28" y1="278.92" x2="401.49" y2="215.02" stroke="rgb(22, 46, 97)" stroke-width="3.6" stroke-linecap="round"/>
<text x="538.7" y="99.4" text-anchor="middle" dominant-baseline="middle" font-family="sans-serif" font-size="15.5" fill="#777">数理・理論</text>
<text x="720.6" y="281.3" text-anchor="middle" dominant-baseline="middle" font-family="sans-serif" font-size="15.5" fill="#777">情報・データ</text>
<text x="720.6" y="538.7" text-anchor="middle" dominant-baseline="middle" font-family="sans-serif" font-size="15.5" fill="#777">機械・電気</text>
<text x="538.7" y="720.6" text-anchor="middle" dominant-baseline="middle" font-family="sans-serif" font-size="15.5" fill="#777">物質・化学</text>
<text x="281.3" y="720.6" text-anchor="middle" dominant-baseline="middle" font-family="sans-serif" font-size="15.5" fill="#777">環境・構造</text>
<text x="99.4" y="538.7" text-anchor="middle" dominant-baseline="middle" font-family="sans-serif" font-size="15.5" fill="#777">地球・生物</text>
<text x="99.4" y="281.3" text-anchor="middle" dominant-baseline="middle" font-family="sans-serif" font-size="15.5" fill="#777">生命・薬獣</text>
<text x="281.3" y="99.4" text-anchor="middle" dominant-baseline="middle" font-family="sans-serif" font-size="15.5" fill="#777">医療・臨床</text>
<text x="410" y="806" text-anchor="middle" font-family="sans-serif" font-size="19" fill="#444">8カテゴリ (24学部) / 144本 / sci 17軸計測 / rgb</text>
</svg>