<svg xmlns="http://www.w3.org/2000/svg" width="720" height="720" viewBox="0 0 720 720">
<rect width="720" height="720" fill="white"/>
<line x1="360.00" y1="244.80" x2="360.00" y2="91.72" stroke="hsl(205.5, 69.8%, 63.5%)" stroke-width="4.2" stroke-linecap="round"/>
<line x1="365.65" y1="244.94" x2="373.01" y2="95.27" stroke="hsl(214.2, 77.8%, 64.3%)" stroke-width="4.2" stroke-linecap="round"/>
<line x1="371.29" y1="245.35" x2="385.66" y2="99.44" stroke="hsl(223.0, 91.5%, 62.9%)" stroke-width="4.2" stroke-linecap="round"/>
<line x1="376.90" y1="246.05" x2="398.42" y2="101.01" stroke="hsl(223.0, 91.5%, 62.9%)" stroke-width="4.2" stroke-linecap="round"/>
<line x1="382.47" y1="247.01" x2="411.08" y2="103.21" stroke="hsl(223.0, 91.5%, 62.9%)" stroke-width="4.2" stroke-linecap="round"/>
<line x1="387.99" y1="248.25" x2="423.62" y2="106.03" stroke="hsl(223.0, 91.5%, 62.9%)" stroke-width="4.2" stroke-linecap="round"/>
<line x1="393.44" y1="249.76" x2="436.00" y2="109.45" stroke="hsl(223.0, 91.5%, 62.9%)" stroke-width="4.2" stroke-linecap="round"/>
<line x1="398.81" y1="251.53" x2="447.74" y2="114.79" stroke="hsl(223.0, 91.5%, 62.9%)" stroke-width="4.2" stroke-linecap="round"/>
<line x1="404.09" y1="253.57" x2="459.14" y2="120.66" stroke="hsl(223.0, 91.5%, 62.9%)" stroke-width="4.2" stroke-linecap="round"/>
<line x1="409.25" y1="255.86" x2="470.17" y2="127.07" stroke="hsl(223.0, 91.5%, 62.9%)" stroke-width="4.2" stroke-linecap="round"/>
<line x1="414.30" y1="258.40" x2="480.81" y2="133.97" stroke="hsl(223.0, 91.5%, 62.9%)" stroke-width="4.2" stroke-linecap="round"/>
<line x1="419.22" y1="261.19" x2="492.94" y2="138.20" stroke="hsl(230.3, 84.1%, 66.4%)" stroke-width="4.2" stroke-linecap="round"/>
<line x1="424.00" y1="264.21" x2="504.95" y2="143.07" stroke="hsl(237.6, 81.2%, 68.1%)" stroke-width="4.2" stroke-linecap="round"/>
<line x1="428.62" y1="267.47" x2="516.79" y2="148.59" stroke="hsl(244.9, 82.7%, 68.0%)" stroke-width="4.2" stroke-linecap="round"/>
<line x1="433.08" y1="270.95" x2="528.44" y2="154.76" stroke="hsl(252.2, 88.4%, 66.1%)" stroke-width="4.2" stroke-linecap="round"/>
<line x1="437.36" y1="274.64" x2="531.80" y2="170.45" stroke="hsl(252.2, 88.4%, 66.1%)" stroke-width="4.2" stroke-linecap="round"/>
<line x1="441.46" y1="278.54" x2="534.05" y2="185.95" stroke="hsl(252.2, 88.4%, 66.1%)" stroke-width="4.2" stroke-linecap="round"/>
<line x1="445.36" y1="282.64" x2="535.20" y2="201.20" stroke="hsl(252.2, 88.4%, 66.1%)" stroke-width="4.2" stroke-linecap="round"/>
<line x1="449.05" y1="286.92" x2="535.30" y2="216.13" stroke="hsl(252.2, 88.4%, 66.1%)" stroke-width="4.2" stroke-linecap="round"/>
<line x1="452.53" y1="291.38" x2="542.15" y2="224.91" stroke="hsl(252.2, 88.4%, 66.1%)" stroke-width="4.2" stroke-linecap="round"/>
<line x1="455.79" y1="296.00" x2="548.56" y2="234.01" stroke="hsl(252.2, 88.4%, 66.1%)" stroke-width="4.2" stroke-linecap="round"/>
<line x1="458.81" y1="300.78" x2="554.51" y2="243.41" stroke="hsl(252.2, 88.4%, 66.1%)" stroke-width="4.2" stroke-linecap="round"/>
<line x1="461.60" y1="305.70" x2="560.00" y2="253.10" stroke="hsl(252.2, 88.4%, 66.1%)" stroke-width="4.2" stroke-linecap="round"/>
<line x1="464.14" y1="310.75" x2="557.08" y2="266.79" stroke="hsl(271.4, 67.4%, 72.0%)" stroke-width="4.2" stroke-linecap="round"/>
<line x1="466.43" y1="315.91" x2="553.32" y2="279.92" stroke="hsl(290.6, 58.3%, 73.2%)" stroke-width="4.2" stroke-linecap="round"/>
<line x1="468.47" y1="321.19" x2="548.77" y2="292.46" stroke="hsl(309.9, 59.3%, 69.7%)" stroke-width="4.2" stroke-linecap="round"/>
<line x1="470.24" y1="326.56" x2="543.47" y2="304.34" stroke="hsl(329.1, 68.4%, 61.6%)" stroke-width="4.2" stroke-linecap="round"/>
<line x1="471.75" y1="332.01" x2="550.01" y2="312.40" stroke="hsl(329.1, 68.4%, 61.6%)" stroke-width="4.2" stroke-linecap="round"/>
<line x1="472.99" y1="337.53" x2="556.19" y2="320.98" stroke="hsl(329.1, 68.4%, 61.6%)" stroke-width="4.2" stroke-linecap="round"/>
<line x1="473.95" y1="343.10" x2="561.97" y2="330.04" stroke="hsl(329.1, 68.4%, 61.6%)" stroke-width="4.2" stroke-linecap="round"/>
<line x1="474.65" y1="348.71" x2="567.33" y2="339.58" stroke="hsl(329.1, 68.4%, 61.6%)" stroke-width="4.2" stroke-linecap="round"/>
<line x1="475.06" y1="354.35" x2="580.52" y2="349.17" stroke="hsl(329.1, 68.4%, 61.6%)" stroke-width="4.2" stroke-linecap="round"/>
<line x1="475.20" y1="360.00" x2="593.23" y2="360.00" stroke="hsl(329.1, 68.4%, 61.6%)" stroke-width="4.2" stroke-linecap="round"/>
<line x1="475.06" y1="365.65" x2="605.39" y2="372.06" stroke="hsl(329.1, 68.4%, 61.6%)" stroke-width="4.2" stroke-linecap="round"/>
<line x1="474.65" y1="371.29" x2="616.89" y2="385.30" stroke="hsl(329.1, 68.4%, 61.6%)" stroke-width="4.2" stroke-linecap="round"/>
<line x1="473.95" y1="376.90" x2="605.30" y2="396.39" stroke="hsl(329.1, 68.4%, 61.6%)" stroke-width="4.2" stroke-linecap="round"/>
<line x1="472.99" y1="382.47" x2="593.27" y2="406.40" stroke="hsl(329.1, 68.4%, 61.6%)" stroke-width="4.2" stroke-linecap="round"/>
<line x1="471.75" y1="387.99" x2="580.87" y2="415.33" stroke="hsl(329.1, 68.4%, 61.6%)" stroke-width="4.2" stroke-linecap="round"/>
<line x1="470.24" y1="393.44" x2="568.19" y2="423.15" stroke="hsl(329.1, 68.4%, 61.6%)" stroke-width="4.2" stroke-linecap="round"/>
<line x1="468.47" y1="398.81" x2="553.98" y2="429.41" stroke="hsl(337.1, 66.3%, 64.7%)" stroke-width="4.2" stroke-linecap="round"/>
<line x1="466.43" y1="404.09" x2="539.69" y2="434.43" stroke="hsl(345.1, 67.7%, 66.0%)" stroke-width="4.2" stroke-linecap="round"/>
<line x1="464.14" y1="409.25" x2="525.40" y2="438.23" stroke="hsl(353.1, 73.2%, 65.2%)" stroke-width="4.2" stroke-linecap="round"/>
<line x1="461.60" y1="414.30" x2="511.20" y2="440.82" stroke="hsl(1.1, 83.2%, 62.5%)" stroke-width="4.2" stroke-linecap="round"/>
<line x1="458.81" y1="419.22" x2="506.65" y2="447.90" stroke="hsl(1.1, 83.2%, 62.5%)" stroke-width="4.2" stroke-linecap="round"/>
<line x1="455.79" y1="424.00" x2="501.78" y2="454.74" stroke="hsl(1.1, 83.2%, 62.5%)" stroke-width="4.2" stroke-linecap="round"/>
<line x1="452.53" y1="428.62" x2="496.59" y2="461.30" stroke="hsl(1.1, 83.2%, 62.5%)" stroke-width="4.2" stroke-linecap="round"/>
<line x1="449.05" y1="433.08" x2="491.10" y2="467.59" stroke="hsl(1.1, 83.2%, 62.5%)" stroke-width="4.2" stroke-linecap="round"/>
<line x1="445.36" y1="437.36" x2="493.52" y2="481.02" stroke="hsl(1.1, 83.2%, 62.5%)" stroke-width="4.2" stroke-linecap="round"/>
<line x1="441.46" y1="441.46" x2="494.92" y2="494.92" stroke="hsl(1.1, 83.2%, 62.5%)" stroke-width="4.2" stroke-linecap="round"/>
<line x1="437.36" y1="445.36" x2="495.26" y2="509.24" stroke="hsl(1.1, 83.2%, 62.5%)" stroke-width="4.2" stroke-linecap="round"/>
<line x1="433.08" y1="449.05" x2="494.50" y2="523.89" stroke="hsl(1.1, 83.2%, 62.5%)" stroke-width="4.2" stroke-linecap="round"/>
<line x1="428.62" y1="452.53" x2="485.48" y2="529.18" stroke="hsl(8.3, 78.8%, 64.8%)" stroke-width="4.2" stroke-linecap="round"/>
<line x1="424.00" y1="455.79" x2="476.25" y2="533.99" stroke="hsl(15.5, 78.3%, 65.3%)" stroke-width="4.2" stroke-linecap="round"/>
<line x1="419.22" y1="458.81" x2="466.87" y2="538.30" stroke="hsl(22.7, 81.9%, 64.0%)" stroke-width="4.2" stroke-linecap="round"/>
<line x1="414.30" y1="461.60" x2="457.34" y2="542.10" stroke="hsl(29.8, 89.9%, 61.0%)" stroke-width="4.2" stroke-linecap="round"/>
<line x1="409.25" y1="464.14" x2="449.27" y2="548.75" stroke="hsl(29.8, 89.9%, 61.0%)" stroke-width="4.2" stroke-linecap="round"/>
<line x1="404.09" y1="466.43" x2="440.78" y2="555.03" stroke="hsl(29.8, 89.9%, 61.0%)" stroke-width="4.2" stroke-linecap="round"/>
<line x1="398.81" y1="468.47" x2="431.89" y2="560.93" stroke="hsl(29.8, 89.9%, 61.0%)" stroke-width="4.2" stroke-linecap="round"/>
<line x1="393.44" y1="470.24" x2="422.62" y2="566.42" stroke="hsl(29.8, 89.9%, 61.0%)" stroke-width="4.2" stroke-linecap="round"/>
<line x1="387.99" y1="471.75" x2="416.11" y2="584.01" stroke="hsl(29.8, 89.9%, 61.0%)" stroke-width="4.2" stroke-linecap="round"/>
<line x1="382.47" y1="472.99" x2="408.02" y2="601.41" stroke="hsl(29.8, 89.9%, 61.0%)" stroke-width="4.2" stroke-linecap="round"/>
<line x1="376.90" y1="473.95" x2="398.35" y2="618.53" stroke="hsl(29.8, 89.9%, 61.0%)" stroke-width="4.2" stroke-linecap="round"/>
<line x1="371.29" y1="474.65" x2="387.11" y2="635.25" stroke="hsl(29.8, 89.9%, 61.0%)" stroke-width="4.2" stroke-linecap="round"/>
<line x1="365.65" y1="475.06" x2="371.87" y2="601.70" stroke="hsl(34.6, 85.7%, 62.7%)" stroke-width="4.2" stroke-linecap="round"/>
<line x1="360.00" y1="475.20" x2="360.00" y2="567.41" stroke="hsl(39.4, 84.2%, 63.3%)" stroke-width="4.2" stroke-linecap="round"/>
<line x1="354.35" y1="475.06" x2="351.52" y2="532.62" stroke="hsl(44.2, 85.7%, 62.7%)" stroke-width="4.2" stroke-linecap="round"/>
<line x1="348.71" y1="474.65" x2="346.45" y2="497.57" stroke="hsl(48.9, 89.9%, 61.0%)" stroke-width="4.2" stroke-linecap="round"/>
<line x1="343.10" y1="473.95" x2="339.31" y2="499.48" stroke="hsl(48.9, 89.9%, 61.0%)" stroke-width="4.2" stroke-linecap="round"/>
<line x1="337.53" y1="472.99" x2="331.95" y2="501.01" stroke="hsl(48.9, 89.9%, 61.0%)" stroke-width="4.2" stroke-linecap="round"/>
<line x1="332.01" y1="471.75" x2="324.39" y2="502.15" stroke="hsl(48.9, 89.9%, 61.0%)" stroke-width="4.2" stroke-linecap="round"/>
<line x1="326.56" y1="470.24" x2="316.66" y2="502.88" stroke="hsl(48.9, 89.9%, 61.0%)" stroke-width="4.2" stroke-linecap="round"/>
<line x1="321.19" y1="468.47" x2="309.86" y2="500.14" stroke="hsl(48.9, 89.9%, 61.0%)" stroke-width="4.2" stroke-linecap="round"/>
<line x1="315.91" y1="466.43" x2="303.22" y2="497.09" stroke="hsl(48.9, 89.9%, 61.0%)" stroke-width="4.2" stroke-linecap="round"/>
<line x1="310.75" y1="464.14" x2="296.75" y2="493.72" stroke="hsl(48.9, 89.9%, 61.0%)" stroke-width="4.2" stroke-linecap="round"/>
<line x1="305.70" y1="461.60" x2="290.49" y2="490.05" stroke="hsl(48.9, 89.9%, 61.0%)" stroke-width="4.2" stroke-linecap="round"/>
<line x1="300.78" y1="458.81" x2="273.76" y2="503.89" stroke="hsl(48.9, 89.9%, 61.0%)" stroke-width="4.2" stroke-linecap="round"/>
<line x1="296.00" y1="455.79" x2="255.53" y2="516.35" stroke="hsl(48.9, 89.9%, 61.0%)" stroke-width="4.2" stroke-linecap="round"/>
<line x1="291.38" y1="452.53" x2="235.90" y2="527.33" stroke="hsl(48.9, 89.9%, 61.0%)" stroke-width="4.2" stroke-linecap="round"/>
<line x1="286.92" y1="449.05" x2="214.96" y2="536.73" stroke="hsl(48.9, 89.9%, 61.0%)" stroke-width="4.2" stroke-linecap="round"/>
<line x1="282.64" y1="445.36" x2="206.47" y2="529.40" stroke="hsl(48.9, 89.9%, 61.0%)" stroke-width="4.2" stroke-linecap="round"/>
<line x1="278.54" y1="441.46" x2="198.34" y2="521.66" stroke="hsl(48.9, 89.9%, 61.0%)" stroke-width="4.2" stroke-linecap="round"/>
<line x1="274.64" y1="437.36" x2="190.60" y2="513.53" stroke="hsl(48.9, 89.9%, 61.0%)" stroke-width="4.2" stroke-linecap="round"/>
<line x1="270.95" y1="433.08" x2="183.27" y2="505.04" stroke="hsl(48.9, 89.9%, 61.0%)" stroke-width="4.2" stroke-linecap="round"/>
<line x1="267.47" y1="428.62" x2="179.70" y2="493.72" stroke="hsl(67.3, 63.1%, 64.8%)" stroke-width="4.2" stroke-linecap="round"/>
<line x1="264.21" y1="424.00" x2="176.81" y2="482.40" stroke="hsl(85.7, 48.8%, 64.1%)" stroke-width="4.2" stroke-linecap="round"/>
<line x1="261.19" y1="419.22" x2="174.58" y2="471.13" stroke="hsl(104.1, 42.5%, 58.9%)" stroke-width="4.2" stroke-linecap="round"/>
<line x1="258.40" y1="414.30" x2="173.02" y2="459.95" stroke="hsl(122.4, 39.4%, 49.2%)" stroke-width="4.2" stroke-linecap="round"/>
<line x1="255.86" y1="409.25" x2="157.08" y2="455.97" stroke="hsl(122.4, 39.4%, 49.2%)" stroke-width="4.2" stroke-linecap="round"/>
<line x1="253.57" y1="404.09" x2="141.11" y2="450.67" stroke="hsl(122.4, 39.4%, 49.2%)" stroke-width="4.2" stroke-linecap="round"/>
<line x1="251.53" y1="398.81" x2="125.21" y2="444.01" stroke="hsl(122.4, 39.4%, 49.2%)" stroke-width="4.2" stroke-linecap="round"/>
<line x1="249.76" y1="393.44" x2="109.45" y2="436.00" stroke="hsl(122.4, 39.4%, 49.2%)" stroke-width="4.2" stroke-linecap="round"/>
<line x1="248.25" y1="387.99" x2="99.76" y2="425.19" stroke="hsl(122.4, 39.4%, 49.2%)" stroke-width="4.2" stroke-linecap="round"/>
<line x1="247.01" y1="382.47" x2="90.55" y2="413.60" stroke="hsl(122.4, 39.4%, 49.2%)" stroke-width="4.2" stroke-linecap="round"/>
<line x1="246.05" y1="376.90" x2="81.86" y2="401.26" stroke="hsl(122.4, 39.4%, 49.2%)" stroke-width="4.2" stroke-linecap="round"/>
<line x1="245.35" y1="371.29" x2="73.74" y2="388.19" stroke="hsl(122.4, 39.4%, 49.2%)" stroke-width="4.2" stroke-linecap="round"/>
<line x1="244.94" y1="365.65" x2="70.86" y2="374.20" stroke="hsl(122.4, 39.4%, 49.2%)" stroke-width="4.2" stroke-linecap="round"/>
<line x1="244.80" y1="360.00" x2="68.67" y2="360.00" stroke="hsl(122.4, 39.4%, 49.2%)" stroke-width="4.2" stroke-linecap="round"/>
<line x1="244.94" y1="354.35" x2="67.18" y2="345.61" stroke="hsl(122.4, 39.4%, 49.2%)" stroke-width="4.2" stroke-linecap="round"/>
<line x1="245.35" y1="348.71" x2="66.40" y2="331.08" stroke="hsl(122.4, 39.4%, 49.2%)" stroke-width="4.2" stroke-linecap="round"/>
<line x1="246.05" y1="343.10" x2="66.35" y2="316.44" stroke="hsl(138.8, 38.6%, 56.8%)" stroke-width="4.2" stroke-linecap="round"/>
<line x1="247.01" y1="337.53" x2="67.03" y2="301.72" stroke="hsl(155.2, 41.4%, 60.4%)" stroke-width="4.2" stroke-linecap="round"/>
<line x1="248.25" y1="332.01" x2="68.45" y2="286.97" stroke="hsl(171.6, 50.0%, 59.9%)" stroke-width="4.2" stroke-linecap="round"/>
<line x1="249.76" y1="326.56" x2="70.62" y2="272.22" stroke="hsl(187.9, 66.5%, 55.5%)" stroke-width="4.2" stroke-linecap="round"/>
<line x1="251.53" y1="321.19" x2="75.28" y2="258.12" stroke="hsl(187.9, 66.5%, 55.5%)" stroke-width="4.2" stroke-linecap="round"/>
<line x1="253.57" y1="315.91" x2="80.62" y2="244.28" stroke="hsl(187.9, 66.5%, 55.5%)" stroke-width="4.2" stroke-linecap="round"/>
<line x1="255.86" y1="310.75" x2="86.63" y2="230.71" stroke="hsl(187.9, 66.5%, 55.5%)" stroke-width="4.2" stroke-linecap="round"/>
<line x1="258.40" y1="305.70" x2="93.31" y2="217.45" stroke="hsl(187.9, 66.5%, 55.5%)" stroke-width="4.2" stroke-linecap="round"/>
<line x1="261.19" y1="300.78" x2="103.00" y2="205.96" stroke="hsl(187.9, 66.5%, 55.5%)" stroke-width="4.2" stroke-linecap="round"/>
<line x1="264.21" y1="296.00" x2="113.16" y2="195.07" stroke="hsl(187.9, 66.5%, 55.5%)" stroke-width="4.2" stroke-linecap="round"/>
<line x1="267.47" y1="291.38" x2="123.78" y2="184.80" stroke="hsl(187.9, 66.5%, 55.5%)" stroke-width="4.2" stroke-linecap="round"/>
<line x1="270.95" y1="286.92" x2="134.80" y2="175.18" stroke="hsl(187.9, 66.5%, 55.5%)" stroke-width="4.2" stroke-linecap="round"/>
<line x1="274.64" y1="282.64" x2="147.55" y2="167.45" stroke="hsl(187.9, 66.5%, 55.5%)" stroke-width="4.2" stroke-linecap="round"/>
<line x1="278.54" y1="278.54" x2="160.52" y2="160.52" stroke="hsl(187.9, 66.5%, 55.5%)" stroke-width="4.2" stroke-linecap="round"/>
<line x1="282.64" y1="274.64" x2="173.64" y2="154.39" stroke="hsl(187.9, 66.5%, 55.5%)" stroke-width="4.2" stroke-linecap="round"/>
<line x1="286.92" y1="270.95" x2="186.88" y2="149.05" stroke="hsl(187.9, 66.5%, 55.5%)" stroke-width="4.2" stroke-linecap="round"/>
<line x1="291.38" y1="267.47" x2="199.36" y2="143.41" stroke="hsl(187.9, 66.5%, 55.5%)" stroke-width="4.2" stroke-linecap="round"/>
<line x1="296.00" y1="264.21" x2="211.98" y2="138.47" stroke="hsl(187.9, 66.5%, 55.5%)" stroke-width="4.2" stroke-linecap="round"/>
<line x1="300.78" y1="261.19" x2="224.69" y2="134.24" stroke="hsl(187.9, 66.5%, 55.5%)" stroke-width="4.2" stroke-linecap="round"/>
<line x1="305.70" y1="258.40" x2="237.45" y2="130.72" stroke="hsl(187.9, 66.5%, 55.5%)" stroke-width="4.2" stroke-linecap="round"/>
<line x1="310.75" y1="255.86" x2="252.59" y2="132.90" stroke="hsl(187.9, 66.5%, 55.5%)" stroke-width="4.2" stroke-linecap="round"/>
<line x1="315.91" y1="253.57" x2="267.22" y2="136.00" stroke="hsl(187.9, 66.5%, 55.5%)" stroke-width="4.2" stroke-linecap="round"/>
<line x1="321.19" y1="251.53" x2="281.27" y2="139.97" stroke="hsl(187.9, 66.5%, 55.5%)" stroke-width="4.2" stroke-linecap="round"/>
<line x1="326.56" y1="249.76" x2="294.71" y2="144.75" stroke="hsl(187.9, 66.5%, 55.5%)" stroke-width="4.2" stroke-linecap="round"/>
<line x1="332.01" y1="248.25" x2="302.32" y2="129.73" stroke="hsl(187.9, 66.5%, 55.5%)" stroke-width="4.2" stroke-linecap="round"/>
<line x1="337.53" y1="247.01" x2="311.26" y2="114.97" stroke="hsl(187.9, 66.5%, 55.5%)" stroke-width="4.2" stroke-linecap="round"/>
<line x1="343.10" y1="246.05" x2="321.52" y2="100.56" stroke="hsl(187.9, 66.5%, 55.5%)" stroke-width="4.2" stroke-linecap="round"/>
<line x1="348.71" y1="245.35" x2="333.07" y2="86.59" stroke="hsl(187.9, 66.5%, 55.5%)" stroke-width="4.2" stroke-linecap="round"/>
<line x1="354.35" y1="244.94" x2="346.68" y2="88.82" stroke="hsl(196.7, 66.4%, 60.6%)" stroke-width="4.2" stroke-linecap="round"/>
<text x="360" y="702" text-anchor="middle" font-family="sans-serif" font-size="22" fill="#444">案A 学部均等 / 128本</text>
</svg>