<svg xmlns="http://www.w3.org/2000/svg" width="720" height="720" viewBox="0 0 720 720">
<rect width="720" height="720" fill="white"/>
<line x1="360.00" y1="244.80" x2="360.00" y2="91.72" stroke="hsl(205.5, 69.8%, 63.5%)" stroke-width="4.2" stroke-linecap="round"/>
<line x1="367.53" y1="245.05" x2="377.26" y2="96.59" stroke="hsl(217.2, 81.7%, 64.1%)" stroke-width="4.2" stroke-linecap="round"/>
<line x1="375.04" y1="245.79" x2="394.17" y2="100.42" stroke="hsl(223.0, 91.5%, 62.9%)" stroke-width="4.2" stroke-linecap="round"/>
<line x1="382.47" y1="247.01" x2="411.08" y2="103.21" stroke="hsl(223.0, 91.5%, 62.9%)" stroke-width="4.2" stroke-linecap="round"/>
<line x1="389.82" y1="248.73" x2="427.76" y2="107.10" stroke="hsl(223.0, 91.5%, 62.9%)" stroke-width="4.2" stroke-linecap="round"/>
<line x1="397.03" y1="250.91" x2="443.86" y2="112.95" stroke="hsl(223.0, 91.5%, 62.9%)" stroke-width="4.2" stroke-linecap="round"/>
<line x1="404.09" y1="253.57" x2="459.14" y2="120.66" stroke="hsl(223.0, 91.5%, 62.9%)" stroke-width="4.2" stroke-linecap="round"/>
<line x1="410.95" y1="256.68" x2="473.76" y2="129.32" stroke="hsl(223.0, 91.5%, 62.9%)" stroke-width="4.2" stroke-linecap="round"/>
<line x1="417.60" y1="260.23" x2="488.91" y2="136.72" stroke="hsl(227.9, 86.1%, 65.4%)" stroke-width="4.2" stroke-linecap="round"/>
<line x1="424.00" y1="264.21" x2="504.95" y2="143.07" stroke="hsl(237.6, 81.2%, 68.1%)" stroke-width="4.2" stroke-linecap="round"/>
<line x1="430.13" y1="268.61" x2="520.70" y2="150.58" stroke="hsl(247.3, 84.2%, 67.5%)" stroke-width="4.2" stroke-linecap="round"/>
<line x1="435.96" y1="273.39" x2="530.81" y2="165.23" stroke="hsl(252.2, 88.4%, 66.1%)" stroke-width="4.2" stroke-linecap="round"/>
<line x1="441.46" y1="278.54" x2="534.05" y2="185.95" stroke="hsl(252.2, 88.4%, 66.1%)" stroke-width="4.2" stroke-linecap="round"/>
<line x1="446.61" y1="284.04" x2="535.35" y2="206.22" stroke="hsl(252.2, 88.4%, 66.1%)" stroke-width="4.2" stroke-linecap="round"/>
<line x1="451.39" y1="289.87" x2="539.91" y2="221.95" stroke="hsl(252.2, 88.4%, 66.1%)" stroke-width="4.2" stroke-linecap="round"/>
<line x1="455.79" y1="296.00" x2="548.56" y2="234.01" stroke="hsl(252.2, 88.4%, 66.1%)" stroke-width="4.2" stroke-linecap="round"/>
<line x1="459.77" y1="302.40" x2="556.39" y2="246.61" stroke="hsl(252.2, 88.4%, 66.1%)" stroke-width="4.2" stroke-linecap="round"/>
<line x1="463.32" y1="309.05" x2="558.15" y2="262.28" stroke="hsl(265.0, 73.0%, 70.6%)" stroke-width="4.2" stroke-linecap="round"/>
<line x1="466.43" y1="315.91" x2="553.32" y2="279.92" stroke="hsl(290.6, 58.3%, 73.2%)" stroke-width="4.2" stroke-linecap="round"/>
<line x1="469.09" y1="322.97" x2="547.09" y2="296.49" stroke="hsl(316.3, 61.5%, 67.5%)" stroke-width="4.2" stroke-linecap="round"/>
<line x1="471.27" y1="330.18" x2="547.87" y2="309.66" stroke="hsl(329.1, 68.4%, 61.6%)" stroke-width="4.2" stroke-linecap="round"/>
<line x1="472.99" y1="337.53" x2="556.19" y2="320.98" stroke="hsl(329.1, 68.4%, 61.6%)" stroke-width="4.2" stroke-linecap="round"/>
<line x1="474.21" y1="344.96" x2="563.81" y2="333.17" stroke="hsl(329.1, 68.4%, 61.6%)" stroke-width="4.2" stroke-linecap="round"/>
<line x1="474.95" y1="352.47" x2="576.17" y2="345.83" stroke="hsl(329.1, 68.4%, 61.6%)" stroke-width="4.2" stroke-linecap="round"/>
<line x1="475.20" y1="360.00" x2="593.23" y2="360.00" stroke="hsl(329.1, 68.4%, 61.6%)" stroke-width="4.2" stroke-linecap="round"/>
<line x1="474.95" y1="367.53" x2="609.30" y2="376.34" stroke="hsl(329.1, 68.4%, 61.6%)" stroke-width="4.2" stroke-linecap="round"/>
<line x1="474.21" y1="375.04" x2="609.22" y2="392.81" stroke="hsl(329.1, 68.4%, 61.6%)" stroke-width="4.2" stroke-linecap="round"/>
<line x1="472.99" y1="382.47" x2="593.27" y2="406.40" stroke="hsl(329.1, 68.4%, 61.6%)" stroke-width="4.2" stroke-linecap="round"/>
<line x1="471.27" y1="389.82" x2="576.67" y2="418.06" stroke="hsl(329.1, 68.4%, 61.6%)" stroke-width="4.2" stroke-linecap="round"/>
<line x1="469.09" y1="397.03" x2="558.73" y2="427.46" stroke="hsl(334.4, 66.6%, 63.9%)" stroke-width="4.2" stroke-linecap="round"/>
<line x1="466.43" y1="404.09" x2="539.69" y2="434.43" stroke="hsl(345.1, 67.7%, 66.0%)" stroke-width="4.2" stroke-linecap="round"/>
<line x1="463.32" y1="410.95" x2="520.65" y2="439.23" stroke="hsl(355.8, 76.0%, 64.6%)" stroke-width="4.2" stroke-linecap="round"/>
<line x1="459.77" y1="417.60" x2="508.21" y2="445.57" stroke="hsl(1.1, 83.2%, 62.5%)" stroke-width="4.2" stroke-linecap="round"/>
<line x1="455.79" y1="424.00" x2="501.78" y2="454.74" stroke="hsl(1.1, 83.2%, 62.5%)" stroke-width="4.2" stroke-linecap="round"/>
<line x1="451.39" y1="430.13" x2="494.79" y2="463.43" stroke="hsl(1.1, 83.2%, 62.5%)" stroke-width="4.2" stroke-linecap="round"/>
<line x1="446.61" y1="435.96" x2="492.83" y2="476.48" stroke="hsl(1.1, 83.2%, 62.5%)" stroke-width="4.2" stroke-linecap="round"/>
<line x1="441.46" y1="441.46" x2="494.92" y2="494.92" stroke="hsl(1.1, 83.2%, 62.5%)" stroke-width="4.2" stroke-linecap="round"/>
<line x1="435.96" y1="446.61" x2="495.13" y2="514.09" stroke="hsl(1.1, 83.2%, 62.5%)" stroke-width="4.2" stroke-linecap="round"/>
<line x1="430.13" y1="451.39" x2="488.51" y2="527.47" stroke="hsl(5.9, 79.9%, 64.2%)" stroke-width="4.2" stroke-linecap="round"/>
<line x1="424.00" y1="455.79" x2="476.25" y2="533.99" stroke="hsl(15.5, 78.3%, 65.3%)" stroke-width="4.2" stroke-linecap="round"/>
<line x1="417.60" y1="459.77" x2="463.70" y2="539.62" stroke="hsl(25.0, 84.1%, 63.2%)" stroke-width="4.2" stroke-linecap="round"/>
<line x1="410.95" y1="463.32" x2="452.01" y2="546.57" stroke="hsl(29.8, 89.9%, 61.0%)" stroke-width="4.2" stroke-linecap="round"/>
<line x1="404.09" y1="466.43" x2="440.78" y2="555.03" stroke="hsl(29.8, 89.9%, 61.0%)" stroke-width="4.2" stroke-linecap="round"/>
<line x1="397.03" y1="469.09" x2="428.84" y2="562.81" stroke="hsl(29.8, 89.9%, 61.0%)" stroke-width="4.2" stroke-linecap="round"/>
<line x1="389.82" y1="471.27" x2="418.46" y2="578.16" stroke="hsl(29.8, 89.9%, 61.0%)" stroke-width="4.2" stroke-linecap="round"/>
<line x1="382.47" y1="472.99" x2="408.02" y2="601.41" stroke="hsl(29.8, 89.9%, 61.0%)" stroke-width="4.2" stroke-linecap="round"/>
<line x1="375.04" y1="474.21" x2="394.78" y2="624.15" stroke="hsl(29.8, 89.9%, 61.0%)" stroke-width="4.2" stroke-linecap="round"/>
<line x1="367.53" y1="474.95" x2="376.58" y2="612.98" stroke="hsl(33.0, 86.8%, 62.3%)" stroke-width="4.2" stroke-linecap="round"/>
<line x1="360.00" y1="475.20" x2="360.00" y2="567.41" stroke="hsl(39.4, 84.2%, 63.3%)" stroke-width="4.2" stroke-linecap="round"/>
<line x1="352.47" y1="474.95" x2="349.45" y2="520.95" stroke="hsl(45.8, 86.8%, 62.3%)" stroke-width="4.2" stroke-linecap="round"/>
<line x1="344.96" y1="474.21" x2="341.72" y2="498.89" stroke="hsl(48.9, 89.9%, 61.0%)" stroke-width="4.2" stroke-linecap="round"/>
<line x1="337.53" y1="472.99" x2="331.95" y2="501.01" stroke="hsl(48.9, 89.9%, 61.0%)" stroke-width="4.2" stroke-linecap="round"/>
<line x1="330.18" y1="471.27" x2="321.83" y2="502.44" stroke="hsl(48.9, 89.9%, 61.0%)" stroke-width="4.2" stroke-linecap="round"/>
<line x1="322.97" y1="469.09" x2="312.11" y2="501.09" stroke="hsl(48.9, 89.9%, 61.0%)" stroke-width="4.2" stroke-linecap="round"/>
<line x1="315.91" y1="466.43" x2="303.22" y2="497.09" stroke="hsl(48.9, 89.9%, 61.0%)" stroke-width="4.2" stroke-linecap="round"/>
<line x1="309.05" y1="463.32" x2="294.64" y2="492.53" stroke="hsl(48.9, 89.9%, 61.0%)" stroke-width="4.2" stroke-linecap="round"/>
<line x1="302.40" y1="459.77" x2="279.51" y2="499.42" stroke="hsl(48.9, 89.9%, 61.0%)" stroke-width="4.2" stroke-linecap="round"/>
<line x1="296.00" y1="455.79" x2="255.53" y2="516.35" stroke="hsl(48.9, 89.9%, 61.0%)" stroke-width="4.2" stroke-linecap="round"/>
<line x1="289.87" y1="451.39" x2="229.06" y2="530.65" stroke="hsl(48.9, 89.9%, 61.0%)" stroke-width="4.2" stroke-linecap="round"/>
<line x1="284.04" y1="446.61" x2="209.26" y2="531.89" stroke="hsl(48.9, 89.9%, 61.0%)" stroke-width="4.2" stroke-linecap="round"/>
<line x1="278.54" y1="441.46" x2="198.34" y2="521.66" stroke="hsl(48.9, 89.9%, 61.0%)" stroke-width="4.2" stroke-linecap="round"/>
<line x1="273.39" y1="435.96" x2="188.11" y2="510.74" stroke="hsl(48.9, 89.9%, 61.0%)" stroke-width="4.2" stroke-linecap="round"/>
<line x1="268.61" y1="430.13" x2="180.82" y2="497.49" stroke="hsl(61.2, 70.4%, 64.0%)" stroke-width="4.2" stroke-linecap="round"/>
<line x1="264.21" y1="424.00" x2="176.81" y2="482.40" stroke="hsl(85.7, 48.8%, 64.1%)" stroke-width="4.2" stroke-linecap="round"/>
<line x1="260.23" y1="417.60" x2="173.99" y2="467.39" stroke="hsl(110.2, 41.3%, 56.2%)" stroke-width="4.2" stroke-linecap="round"/>
<line x1="256.68" y1="410.95" x2="162.40" y2="457.45" stroke="hsl(122.4, 39.4%, 49.2%)" stroke-width="4.2" stroke-linecap="round"/>
<line x1="253.57" y1="404.09" x2="141.11" y2="450.67" stroke="hsl(122.4, 39.4%, 49.2%)" stroke-width="4.2" stroke-linecap="round"/>
<line x1="250.91" y1="397.03" x2="119.93" y2="441.49" stroke="hsl(122.4, 39.4%, 49.2%)" stroke-width="4.2" stroke-linecap="round"/>
<line x1="248.73" y1="389.82" x2="102.94" y2="428.88" stroke="hsl(122.4, 39.4%, 49.2%)" stroke-width="4.2" stroke-linecap="round"/>
<line x1="247.01" y1="382.47" x2="90.55" y2="413.60" stroke="hsl(122.4, 39.4%, 49.2%)" stroke-width="4.2" stroke-linecap="round"/>
<line x1="245.79" y1="375.04" x2="79.08" y2="396.98" stroke="hsl(122.4, 39.4%, 49.2%)" stroke-width="4.2" stroke-linecap="round"/>
<line x1="245.05" y1="367.53" x2="71.74" y2="378.89" stroke="hsl(122.4, 39.4%, 49.2%)" stroke-width="4.2" stroke-linecap="round"/>
<line x1="244.80" y1="360.00" x2="68.67" y2="360.00" stroke="hsl(122.4, 39.4%, 49.2%)" stroke-width="4.2" stroke-linecap="round"/>
<line x1="245.05" y1="352.47" x2="66.84" y2="340.79" stroke="hsl(122.4, 39.4%, 49.2%)" stroke-width="4.2" stroke-linecap="round"/>
<line x1="245.79" y1="344.96" x2="66.28" y2="321.33" stroke="hsl(133.3, 38.6%, 54.7%)" stroke-width="4.2" stroke-linecap="round"/>
<line x1="247.01" y1="337.53" x2="67.03" y2="301.72" stroke="hsl(155.2, 41.4%, 60.4%)" stroke-width="4.2" stroke-linecap="round"/>
<line x1="248.73" y1="330.18" x2="69.09" y2="282.05" stroke="hsl(177.0, 54.5%, 58.9%)" stroke-width="4.2" stroke-linecap="round"/>
<line x1="250.91" y1="322.97" x2="73.65" y2="262.80" stroke="hsl(187.9, 66.5%, 55.5%)" stroke-width="4.2" stroke-linecap="round"/>
<line x1="253.57" y1="315.91" x2="80.62" y2="244.28" stroke="hsl(187.9, 66.5%, 55.5%)" stroke-width="4.2" stroke-linecap="round"/>
<line x1="256.68" y1="309.05" x2="88.79" y2="226.25" stroke="hsl(187.9, 66.5%, 55.5%)" stroke-width="4.2" stroke-linecap="round"/>
<line x1="260.23" y1="302.40" x2="99.71" y2="209.72" stroke="hsl(187.9, 66.5%, 55.5%)" stroke-width="4.2" stroke-linecap="round"/>
<line x1="264.21" y1="296.00" x2="113.16" y2="195.07" stroke="hsl(187.9, 66.5%, 55.5%)" stroke-width="4.2" stroke-linecap="round"/>
<line x1="268.61" y1="289.87" x2="127.41" y2="181.52" stroke="hsl(187.9, 66.5%, 55.5%)" stroke-width="4.2" stroke-linecap="round"/>
<line x1="273.39" y1="284.04" x2="143.28" y2="169.94" stroke="hsl(187.9, 66.5%, 55.5%)" stroke-width="4.2" stroke-linecap="round"/>
<line x1="278.54" y1="278.54" x2="160.52" y2="160.52" stroke="hsl(187.9, 66.5%, 55.5%)" stroke-width="4.2" stroke-linecap="round"/>
<line x1="284.04" y1="273.39" x2="178.05" y2="152.52" stroke="hsl(187.9, 66.5%, 55.5%)" stroke-width="4.2" stroke-linecap="round"/>
<line x1="289.87" y1="268.61" x2="195.19" y2="145.21" stroke="hsl(187.9, 66.5%, 55.5%)" stroke-width="4.2" stroke-linecap="round"/>
<line x1="296.00" y1="264.21" x2="211.98" y2="138.47" stroke="hsl(187.9, 66.5%, 55.5%)" stroke-width="4.2" stroke-linecap="round"/>
<line x1="302.40" y1="260.23" x2="228.94" y2="132.99" stroke="hsl(187.9, 66.5%, 55.5%)" stroke-width="4.2" stroke-linecap="round"/>
<line x1="309.05" y1="256.68" x2="247.60" y2="132.07" stroke="hsl(187.9, 66.5%, 55.5%)" stroke-width="4.2" stroke-linecap="round"/>
<line x1="315.91" y1="253.57" x2="267.22" y2="136.00" stroke="hsl(187.9, 66.5%, 55.5%)" stroke-width="4.2" stroke-linecap="round"/>
<line x1="322.97" y1="250.91" x2="285.82" y2="141.47" stroke="hsl(187.9, 66.5%, 55.5%)" stroke-width="4.2" stroke-linecap="round"/>
<line x1="330.18" y1="248.73" x2="299.64" y2="134.72" stroke="hsl(187.9, 66.5%, 55.5%)" stroke-width="4.2" stroke-linecap="round"/>
<line x1="337.53" y1="247.01" x2="311.26" y2="114.97" stroke="hsl(187.9, 66.5%, 55.5%)" stroke-width="4.2" stroke-linecap="round"/>
<line x1="344.96" y1="245.79" x2="325.22" y2="95.85" stroke="hsl(187.9, 66.5%, 55.5%)" stroke-width="4.2" stroke-linecap="round"/>
<line x1="352.47" y1="245.05" x2="342.17" y2="88.00" stroke="hsl(193.8, 66.1%, 59.1%)" stroke-width="4.2" stroke-linecap="round"/>
<text x="360" y="702" text-anchor="middle" font-family="sans-serif" font-size="22" fill="#444">案A 学部均等 / 96本</text>
</svg>