<svg xmlns="http://www.w3.org/2000/svg" width="720" height="720" viewBox="0 0 720 720">
<rect width="720" height="720" fill="white"/>
<line x1="360.00" y1="244.80" x2="360.00" y2="89.14" stroke="hsl(198.5, 66.8%, 61.3%)" stroke-width="4.2" stroke-linecap="round"/>
<line x1="365.65" y1="244.94" x2="373.12" y2="92.85" stroke="hsl(207.7, 71.3%, 63.9%)" stroke-width="4.2" stroke-linecap="round"/>
<line x1="371.29" y1="245.35" x2="385.88" y2="97.19" stroke="hsl(216.9, 81.3%, 64.1%)" stroke-width="4.2" stroke-linecap="round"/>
<line x1="376.90" y1="246.05" x2="398.42" y2="101.01" stroke="hsl(223.0, 91.5%, 62.9%)" stroke-width="4.2" stroke-linecap="round"/>
<line x1="382.47" y1="247.01" x2="411.08" y2="103.21" stroke="hsl(223.0, 91.5%, 62.9%)" stroke-width="4.2" stroke-linecap="round"/>
<line x1="387.99" y1="248.25" x2="423.62" y2="106.03" stroke="hsl(223.0, 91.5%, 62.9%)" stroke-width="4.2" stroke-linecap="round"/>
<line x1="393.44" y1="249.76" x2="436.00" y2="109.45" stroke="hsl(223.0, 91.5%, 62.9%)" stroke-width="4.2" stroke-linecap="round"/>
<line x1="398.81" y1="251.53" x2="448.20" y2="113.48" stroke="hsl(223.0, 91.5%, 62.9%)" stroke-width="4.2" stroke-linecap="round"/>
<line x1="404.09" y1="253.57" x2="460.19" y2="118.11" stroke="hsl(223.0, 91.5%, 62.9%)" stroke-width="4.2" stroke-linecap="round"/>
<line x1="409.25" y1="255.86" x2="471.50" y2="124.25" stroke="hsl(223.0, 91.5%, 62.9%)" stroke-width="4.2" stroke-linecap="round"/>
<line x1="414.30" y1="258.40" x2="482.44" y2="130.92" stroke="hsl(223.0, 91.5%, 62.9%)" stroke-width="4.2" stroke-linecap="round"/>
<line x1="419.22" y1="261.19" x2="493.00" y2="138.10" stroke="hsl(223.0, 91.5%, 62.9%)" stroke-width="4.2" stroke-linecap="round"/>
<line x1="424.00" y1="264.21" x2="503.15" y2="145.75" stroke="hsl(223.0, 91.5%, 62.9%)" stroke-width="4.2" stroke-linecap="round"/>
<line x1="428.62" y1="267.47" x2="512.88" y2="153.87" stroke="hsl(223.0, 91.5%, 62.9%)" stroke-width="4.2" stroke-linecap="round"/>
<line x1="433.08" y1="270.95" x2="523.32" y2="161.00" stroke="hsl(226.6, 87.3%, 64.9%)" stroke-width="4.2" stroke-linecap="round"/>
<line x1="437.36" y1="274.64" x2="534.05" y2="167.97" stroke="hsl(232.1, 83.0%, 67.0%)" stroke-width="4.2" stroke-linecap="round"/>
<line x1="441.46" y1="278.54" x2="544.48" y2="175.52" stroke="hsl(237.6, 81.2%, 68.1%)" stroke-width="4.2" stroke-linecap="round"/>
<line x1="445.36" y1="282.64" x2="554.59" y2="183.63" stroke="hsl(243.0, 81.9%, 68.2%)" stroke-width="4.2" stroke-linecap="round"/>
<line x1="449.05" y1="286.92" x2="564.35" y2="192.29" stroke="hsl(248.5, 85.1%, 67.2%)" stroke-width="4.2" stroke-linecap="round"/>
<line x1="452.53" y1="291.38" x2="571.32" y2="203.28" stroke="hsl(252.2, 88.4%, 66.1%)" stroke-width="4.2" stroke-linecap="round"/>
<line x1="455.79" y1="296.00" x2="572.71" y2="217.87" stroke="hsl(252.2, 88.4%, 66.1%)" stroke-width="4.2" stroke-linecap="round"/>
<line x1="458.81" y1="300.78" x2="573.20" y2="232.21" stroke="hsl(252.2, 88.4%, 66.1%)" stroke-width="4.2" stroke-linecap="round"/>
<line x1="461.60" y1="305.70" x2="572.81" y2="246.25" stroke="hsl(252.2, 88.4%, 66.1%)" stroke-width="4.2" stroke-linecap="round"/>
<line x1="464.14" y1="310.75" x2="571.57" y2="259.94" stroke="hsl(252.2, 88.4%, 66.1%)" stroke-width="4.2" stroke-linecap="round"/>
<line x1="466.43" y1="315.91" x2="569.51" y2="273.22" stroke="hsl(252.2, 88.4%, 66.1%)" stroke-width="4.2" stroke-linecap="round"/>
<line x1="468.47" y1="321.19" x2="573.52" y2="283.60" stroke="hsl(252.2, 88.4%, 66.1%)" stroke-width="4.2" stroke-linecap="round"/>
<line x1="470.24" y1="326.56" x2="577.01" y2="294.17" stroke="hsl(252.2, 88.4%, 66.1%)" stroke-width="4.2" stroke-linecap="round"/>
<line x1="471.75" y1="332.01" x2="579.98" y2="304.90" stroke="hsl(252.2, 88.4%, 66.1%)" stroke-width="4.2" stroke-linecap="round"/>
<line x1="472.99" y1="337.53" x2="582.42" y2="315.76" stroke="hsl(252.2, 88.4%, 66.1%)" stroke-width="4.2" stroke-linecap="round"/>
<line x1="473.95" y1="343.10" x2="584.32" y2="326.73" stroke="hsl(252.2, 88.4%, 66.1%)" stroke-width="4.2" stroke-linecap="round"/>
<line x1="474.65" y1="348.71" x2="580.70" y2="338.26" stroke="hsl(263.1, 74.8%, 70.0%)" stroke-width="4.2" stroke-linecap="round"/>
<line x1="475.06" y1="354.35" x2="574.00" y2="349.49" stroke="hsl(279.6, 62.1%, 73.1%)" stroke-width="4.2" stroke-linecap="round"/>
<line x1="475.20" y1="360.00" x2="566.75" y2="360.00" stroke="hsl(296.1, 57.6%, 72.7%)" stroke-width="4.2" stroke-linecap="round"/>
<line x1="475.06" y1="365.65" x2="559.00" y2="369.78" stroke="hsl(312.6, 60.1%, 68.9%)" stroke-width="4.2" stroke-linecap="round"/>
<line x1="474.65" y1="371.29" x2="550.81" y2="378.79" stroke="hsl(329.1, 68.4%, 61.6%)" stroke-width="4.2" stroke-linecap="round"/>
<line x1="473.95" y1="376.90" x2="553.76" y2="388.74" stroke="hsl(329.1, 68.4%, 61.6%)" stroke-width="4.2" stroke-linecap="round"/>
<line x1="472.99" y1="382.47" x2="556.19" y2="399.02" stroke="hsl(329.1, 68.4%, 61.6%)" stroke-width="4.2" stroke-linecap="round"/>
<line x1="471.75" y1="387.99" x2="558.06" y2="409.61" stroke="hsl(329.1, 68.4%, 61.6%)" stroke-width="4.2" stroke-linecap="round"/>
<line x1="470.24" y1="393.44" x2="559.36" y2="420.48" stroke="hsl(329.1, 68.4%, 61.6%)" stroke-width="4.2" stroke-linecap="round"/>
<line x1="468.47" y1="398.81" x2="567.88" y2="434.38" stroke="hsl(329.1, 68.4%, 61.6%)" stroke-width="4.2" stroke-linecap="round"/>
<line x1="466.43" y1="404.09" x2="575.48" y2="449.25" stroke="hsl(329.1, 68.4%, 61.6%)" stroke-width="4.2" stroke-linecap="round"/>
<line x1="464.14" y1="409.25" x2="582.09" y2="465.04" stroke="hsl(329.1, 68.4%, 61.6%)" stroke-width="4.2" stroke-linecap="round"/>
<line x1="461.60" y1="414.30" x2="587.65" y2="481.68" stroke="hsl(329.1, 68.4%, 61.6%)" stroke-width="4.2" stroke-linecap="round"/>
<line x1="458.81" y1="419.22" x2="572.71" y2="487.49" stroke="hsl(329.1, 68.4%, 61.6%)" stroke-width="4.2" stroke-linecap="round"/>
<line x1="455.79" y1="424.00" x2="557.76" y2="492.14" stroke="hsl(329.1, 68.4%, 61.6%)" stroke-width="4.2" stroke-linecap="round"/>
<line x1="452.53" y1="428.62" x2="542.89" y2="495.64" stroke="hsl(329.1, 68.4%, 61.6%)" stroke-width="4.2" stroke-linecap="round"/>
<line x1="449.05" y1="433.08" x2="528.17" y2="498.01" stroke="hsl(329.1, 68.4%, 61.6%)" stroke-width="4.2" stroke-linecap="round"/>
<line x1="445.36" y1="437.36" x2="513.87" y2="499.46" stroke="hsl(336.0, 66.4%, 64.4%)" stroke-width="4.2" stroke-linecap="round"/>
<line x1="441.46" y1="441.46" x2="499.86" y2="499.86" stroke="hsl(342.8, 66.9%, 65.8%)" stroke-width="4.2" stroke-linecap="round"/>
<line x1="437.36" y1="445.36" x2="486.19" y2="499.23" stroke="hsl(349.7, 70.3%, 65.8%)" stroke-width="4.2" stroke-linecap="round"/>
<line x1="433.08" y1="449.05" x2="472.94" y2="497.62" stroke="hsl(356.6, 76.9%, 64.3%)" stroke-width="4.2" stroke-linecap="round"/>
<line x1="428.62" y1="452.53" x2="462.06" y2="497.61" stroke="hsl(1.1, 83.2%, 62.5%)" stroke-width="4.2" stroke-linecap="round"/>
<line x1="424.00" y1="455.79" x2="454.99" y2="502.16" stroke="hsl(1.1, 83.2%, 62.5%)" stroke-width="4.2" stroke-linecap="round"/>
<line x1="419.22" y1="458.81" x2="447.72" y2="506.36" stroke="hsl(1.1, 83.2%, 62.5%)" stroke-width="4.2" stroke-linecap="round"/>
<line x1="414.30" y1="461.60" x2="440.27" y2="510.18" stroke="hsl(1.1, 83.2%, 62.5%)" stroke-width="4.2" stroke-linecap="round"/>
<line x1="409.25" y1="464.14" x2="432.66" y2="513.63" stroke="hsl(1.1, 83.2%, 62.5%)" stroke-width="4.2" stroke-linecap="round"/>
<line x1="404.09" y1="466.43" x2="424.90" y2="516.69" stroke="hsl(1.1, 83.2%, 62.5%)" stroke-width="4.2" stroke-linecap="round"/>
<line x1="398.81" y1="468.47" x2="419.82" y2="527.17" stroke="hsl(1.1, 83.2%, 62.5%)" stroke-width="4.2" stroke-linecap="round"/>
<line x1="393.44" y1="470.24" x2="413.85" y2="537.52" stroke="hsl(1.1, 83.2%, 62.5%)" stroke-width="4.2" stroke-linecap="round"/>
<line x1="387.99" y1="471.75" x2="407.01" y2="547.66" stroke="hsl(1.1, 83.2%, 62.5%)" stroke-width="4.2" stroke-linecap="round"/>
<line x1="382.47" y1="472.99" x2="399.29" y2="557.54" stroke="hsl(1.1, 83.2%, 62.5%)" stroke-width="4.2" stroke-linecap="round"/>
<line x1="376.90" y1="473.95" x2="390.72" y2="567.10" stroke="hsl(1.1, 83.2%, 62.5%)" stroke-width="4.2" stroke-linecap="round"/>
<line x1="371.29" y1="474.65" x2="380.71" y2="570.31" stroke="hsl(4.7, 80.6%, 63.9%)" stroke-width="4.2" stroke-linecap="round"/>
<line x1="365.65" y1="475.06" x2="370.32" y2="570.04" stroke="hsl(10.1, 78.3%, 65.1%)" stroke-width="4.2" stroke-linecap="round"/>
<line x1="360.00" y1="475.20" x2="360.00" y2="569.25" stroke="hsl(15.5, 78.3%, 65.3%)" stroke-width="4.2" stroke-linecap="round"/>
<line x1="354.35" y1="475.06" x2="349.78" y2="567.96" stroke="hsl(20.9, 80.6%, 64.5%)" stroke-width="4.2" stroke-linecap="round"/>
<line x1="348.71" y1="474.65" x2="339.69" y2="566.18" stroke="hsl(26.2, 85.4%, 62.7%)" stroke-width="4.2" stroke-linecap="round"/>
<line x1="343.10" y1="473.95" x2="329.62" y2="564.82" stroke="hsl(29.8, 89.9%, 61.0%)" stroke-width="4.2" stroke-linecap="round"/>
<line x1="337.53" y1="472.99" x2="319.27" y2="564.78" stroke="hsl(29.8, 89.9%, 61.0%)" stroke-width="4.2" stroke-linecap="round"/>
<line x1="332.01" y1="471.75" x2="308.85" y2="564.21" stroke="hsl(29.8, 89.9%, 61.0%)" stroke-width="4.2" stroke-linecap="round"/>
<line x1="326.56" y1="470.24" x2="298.39" y2="563.11" stroke="hsl(29.8, 89.9%, 61.0%)" stroke-width="4.2" stroke-linecap="round"/>
<line x1="321.19" y1="468.47" x2="287.91" y2="561.47" stroke="hsl(29.8, 89.9%, 61.0%)" stroke-width="4.2" stroke-linecap="round"/>
<line x1="315.91" y1="466.43" x2="277.45" y2="559.29" stroke="hsl(29.8, 89.9%, 61.0%)" stroke-width="4.2" stroke-linecap="round"/>
<line x1="310.75" y1="464.14" x2="262.89" y2="565.32" stroke="hsl(29.8, 89.9%, 61.0%)" stroke-width="4.2" stroke-linecap="round"/>
<line x1="305.70" y1="461.60" x2="247.56" y2="570.37" stroke="hsl(29.8, 89.9%, 61.0%)" stroke-width="4.2" stroke-linecap="round"/>
<line x1="300.78" y1="458.81" x2="231.50" y2="574.39" stroke="hsl(29.8, 89.9%, 61.0%)" stroke-width="4.2" stroke-linecap="round"/>
<line x1="296.00" y1="455.79" x2="214.80" y2="577.31" stroke="hsl(29.8, 89.9%, 61.0%)" stroke-width="4.2" stroke-linecap="round"/>
<line x1="291.38" y1="452.53" x2="197.51" y2="579.09" stroke="hsl(29.8, 89.9%, 61.0%)" stroke-width="4.2" stroke-linecap="round"/>
<line x1="286.92" y1="449.05" x2="198.25" y2="557.09" stroke="hsl(32.8, 86.9%, 62.2%)" stroke-width="4.2" stroke-linecap="round"/>
<line x1="282.64" y1="445.36" x2="210.55" y2="524.89" stroke="hsl(37.3, 84.5%, 63.2%)" stroke-width="4.2" stroke-linecap="round"/>
<line x1="278.54" y1="441.46" x2="225.57" y2="494.43" stroke="hsl(41.8, 84.6%, 63.2%)" stroke-width="4.2" stroke-linecap="round"/>
<line x1="274.64" y1="437.36" x2="243.16" y2="465.90" stroke="hsl(46.3, 87.2%, 62.1%)" stroke-width="4.2" stroke-linecap="round"/>
<line x1="270.95" y1="433.08" x2="252.07" y2="448.58" stroke="hsl(48.9, 89.9%, 61.0%)" stroke-width="4.2" stroke-linecap="round"/>
<line x1="267.47" y1="428.62" x2="245.08" y2="445.23" stroke="hsl(48.9, 89.9%, 61.0%)" stroke-width="4.2" stroke-linecap="round"/>
<line x1="264.21" y1="424.00" x2="238.16" y2="441.41" stroke="hsl(48.9, 89.9%, 61.0%)" stroke-width="4.2" stroke-linecap="round"/>
<line x1="261.19" y1="419.22" x2="232.03" y2="436.70" stroke="hsl(48.9, 89.9%, 61.0%)" stroke-width="4.2" stroke-linecap="round"/>
<line x1="258.40" y1="414.30" x2="228.93" y2="430.06" stroke="hsl(48.9, 89.9%, 61.0%)" stroke-width="4.2" stroke-linecap="round"/>
<line x1="255.86" y1="409.25" x2="226.17" y2="423.29" stroke="hsl(48.9, 89.9%, 61.0%)" stroke-width="4.2" stroke-linecap="round"/>
<line x1="253.57" y1="404.09" x2="223.76" y2="416.43" stroke="hsl(48.9, 89.9%, 61.0%)" stroke-width="4.2" stroke-linecap="round"/>
<line x1="251.53" y1="398.81" x2="197.28" y2="418.22" stroke="hsl(48.9, 89.9%, 61.0%)" stroke-width="4.2" stroke-linecap="round"/>
<line x1="249.76" y1="393.44" x2="170.35" y2="417.53" stroke="hsl(48.9, 89.9%, 61.0%)" stroke-width="4.2" stroke-linecap="round"/>
<line x1="248.25" y1="387.99" x2="143.15" y2="414.32" stroke="hsl(48.9, 89.9%, 61.0%)" stroke-width="4.2" stroke-linecap="round"/>
<line x1="247.01" y1="382.47" x2="135.77" y2="404.60" stroke="hsl(48.9, 89.9%, 61.0%)" stroke-width="4.2" stroke-linecap="round"/>
<line x1="246.05" y1="376.90" x2="133.85" y2="393.55" stroke="hsl(48.9, 89.9%, 61.0%)" stroke-width="4.2" stroke-linecap="round"/>
<line x1="245.35" y1="371.29" x2="132.48" y2="382.41" stroke="hsl(48.9, 89.9%, 61.0%)" stroke-width="4.2" stroke-linecap="round"/>
<line x1="244.94" y1="365.65" x2="134.42" y2="371.08" stroke="hsl(61.2, 70.4%, 64.0%)" stroke-width="4.2" stroke-linecap="round"/>
<line x1="244.80" y1="360.00" x2="138.76" y2="360.00" stroke="hsl(81.6, 51.2%, 64.6%)" stroke-width="4.2" stroke-linecap="round"/>
<line x1="244.94" y1="354.35" x2="143.63" y2="349.37" stroke="hsl(102.0, 43.0%, 59.7%)" stroke-width="4.2" stroke-linecap="round"/>
<line x1="245.35" y1="348.71" x2="149.00" y2="339.22" stroke="hsl(122.4, 39.4%, 49.2%)" stroke-width="4.2" stroke-linecap="round"/>
<line x1="246.05" y1="343.10" x2="137.96" y2="327.06" stroke="hsl(122.4, 39.4%, 49.2%)" stroke-width="4.2" stroke-linecap="round"/>
<line x1="247.01" y1="337.53" x2="127.63" y2="313.78" stroke="hsl(122.4, 39.4%, 49.2%)" stroke-width="4.2" stroke-linecap="round"/>
<line x1="248.25" y1="332.01" x2="118.10" y2="299.41" stroke="hsl(122.4, 39.4%, 49.2%)" stroke-width="4.2" stroke-linecap="round"/>
<line x1="249.76" y1="326.56" x2="109.45" y2="284.00" stroke="hsl(122.4, 39.4%, 49.2%)" stroke-width="4.2" stroke-linecap="round"/>
<line x1="251.53" y1="321.19" x2="107.41" y2="269.62" stroke="hsl(122.4, 39.4%, 49.2%)" stroke-width="4.2" stroke-linecap="round"/>
<line x1="253.57" y1="315.91" x2="106.18" y2="254.86" stroke="hsl(122.4, 39.4%, 49.2%)" stroke-width="4.2" stroke-linecap="round"/>
<line x1="255.86" y1="310.75" x2="105.81" y2="239.78" stroke="hsl(122.4, 39.4%, 49.2%)" stroke-width="4.2" stroke-linecap="round"/>
<line x1="258.40" y1="305.70" x2="106.32" y2="224.41" stroke="hsl(122.4, 39.4%, 49.2%)" stroke-width="4.2" stroke-linecap="round"/>
<line x1="261.19" y1="300.78" x2="111.70" y2="211.17" stroke="hsl(122.4, 39.4%, 49.2%)" stroke-width="4.2" stroke-linecap="round"/>
<line x1="264.21" y1="296.00" x2="117.77" y2="198.14" stroke="hsl(122.4, 39.4%, 49.2%)" stroke-width="4.2" stroke-linecap="round"/>
<line x1="267.47" y1="291.38" x2="124.52" y2="185.35" stroke="hsl(122.4, 39.4%, 49.2%)" stroke-width="4.2" stroke-linecap="round"/>
<line x1="270.95" y1="286.92" x2="131.94" y2="172.84" stroke="hsl(122.4, 39.4%, 49.2%)" stroke-width="4.2" stroke-linecap="round"/>
<line x1="274.64" y1="282.64" x2="139.66" y2="160.30" stroke="hsl(143.3, 38.9%, 58.2%)" stroke-width="4.2" stroke-linecap="round"/>
<line x1="278.54" y1="278.54" x2="148.07" y2="148.07" stroke="hsl(164.1, 45.2%, 60.6%)" stroke-width="4.2" stroke-linecap="round"/>
<line x1="282.64" y1="274.64" x2="157.15" y2="136.18" stroke="hsl(185.0, 62.8%, 56.6%)" stroke-width="4.2" stroke-linecap="round"/>
<line x1="286.92" y1="270.95" x2="168.16" y2="126.24" stroke="hsl(187.9, 66.5%, 55.5%)" stroke-width="4.2" stroke-linecap="round"/>
<line x1="291.38" y1="267.47" x2="179.86" y2="117.11" stroke="hsl(187.9, 66.5%, 55.5%)" stroke-width="4.2" stroke-linecap="round"/>
<line x1="296.00" y1="264.21" x2="193.53" y2="110.86" stroke="hsl(187.9, 66.5%, 55.5%)" stroke-width="4.2" stroke-linecap="round"/>
<line x1="300.78" y1="261.19" x2="208.45" y2="107.15" stroke="hsl(187.9, 66.5%, 55.5%)" stroke-width="4.2" stroke-linecap="round"/>
<line x1="305.70" y1="258.40" x2="223.75" y2="105.10" stroke="hsl(187.9, 66.5%, 55.5%)" stroke-width="4.2" stroke-linecap="round"/>
<line x1="310.75" y1="255.86" x2="239.88" y2="106.02" stroke="hsl(187.9, 66.5%, 55.5%)" stroke-width="4.2" stroke-linecap="round"/>
<line x1="315.91" y1="253.57" x2="255.57" y2="107.88" stroke="hsl(187.9, 66.5%, 55.5%)" stroke-width="4.2" stroke-linecap="round"/>
<line x1="321.19" y1="251.53" x2="269.97" y2="108.38" stroke="hsl(187.9, 66.5%, 55.5%)" stroke-width="4.2" stroke-linecap="round"/>
<line x1="326.56" y1="249.76" x2="284.06" y2="109.67" stroke="hsl(187.9, 66.5%, 55.5%)" stroke-width="4.2" stroke-linecap="round"/>
<line x1="332.01" y1="248.25" x2="299.49" y2="118.44" stroke="hsl(187.9, 66.5%, 55.5%)" stroke-width="4.2" stroke-linecap="round"/>
<line x1="337.53" y1="247.01" x2="314.41" y2="130.80" stroke="hsl(187.9, 66.5%, 55.5%)" stroke-width="4.2" stroke-linecap="round"/>
<line x1="343.10" y1="246.05" x2="325.63" y2="128.27" stroke="hsl(187.9, 66.5%, 55.5%)" stroke-width="4.2" stroke-linecap="round"/>
<line x1="348.71" y1="245.35" x2="334.90" y2="105.18" stroke="hsl(187.9, 66.5%, 55.5%)" stroke-width="4.2" stroke-linecap="round"/>
<line x1="354.35" y1="244.94" x2="346.54" y2="86.08" stroke="hsl(189.3, 66.3%, 56.4%)" stroke-width="4.2" stroke-linecap="round"/>
<text x="360" y="702" text-anchor="middle" font-family="sans-serif" font-size="22" fill="#444">案B カテゴリ均等 / 128本</text>
</svg>