<svg xmlns="http://www.w3.org/2000/svg" width="720" height="720" viewBox="0 0 720 720">
<rect width="720" height="720" fill="white"/>
<line x1="360.00" y1="244.80" x2="360.00" y2="89.14" stroke="hsl(198.5, 66.8%, 61.3%)" stroke-width="4.2" stroke-linecap="round"/>
<line x1="367.53" y1="245.05" x2="377.42" y2="94.23" stroke="hsl(210.7, 74.0%, 64.2%)" stroke-width="4.2" stroke-linecap="round"/>
<line x1="375.04" y1="245.79" x2="394.17" y2="100.42" stroke="hsl(223.0, 91.5%, 62.9%)" stroke-width="4.2" stroke-linecap="round"/>
<line x1="382.47" y1="247.01" x2="411.08" y2="103.21" stroke="hsl(223.0, 91.5%, 62.9%)" stroke-width="4.2" stroke-linecap="round"/>
<line x1="389.82" y1="248.73" x2="427.76" y2="107.10" stroke="hsl(223.0, 91.5%, 62.9%)" stroke-width="4.2" stroke-linecap="round"/>
<line x1="397.03" y1="250.91" x2="444.16" y2="112.07" stroke="hsl(223.0, 91.5%, 62.9%)" stroke-width="4.2" stroke-linecap="round"/>
<line x1="404.09" y1="253.57" x2="460.19" y2="118.11" stroke="hsl(223.0, 91.5%, 62.9%)" stroke-width="4.2" stroke-linecap="round"/>
<line x1="410.95" y1="256.68" x2="475.19" y2="126.42" stroke="hsl(223.0, 91.5%, 62.9%)" stroke-width="4.2" stroke-linecap="round"/>
<line x1="417.60" y1="260.23" x2="489.53" y2="135.65" stroke="hsl(223.0, 91.5%, 62.9%)" stroke-width="4.2" stroke-linecap="round"/>
<line x1="424.00" y1="264.21" x2="503.15" y2="145.75" stroke="hsl(223.0, 91.5%, 62.9%)" stroke-width="4.2" stroke-linecap="round"/>
<line x1="430.13" y1="268.61" x2="516.02" y2="156.67" stroke="hsl(223.0, 91.5%, 62.9%)" stroke-width="4.2" stroke-linecap="round"/>
<line x1="435.96" y1="273.39" x2="530.50" y2="165.58" stroke="hsl(230.3, 84.1%, 66.4%)" stroke-width="4.2" stroke-linecap="round"/>
<line x1="441.46" y1="278.54" x2="544.48" y2="175.52" stroke="hsl(237.6, 81.2%, 68.1%)" stroke-width="4.2" stroke-linecap="round"/>
<line x1="446.61" y1="284.04" x2="557.89" y2="186.46" stroke="hsl(244.9, 82.7%, 68.0%)" stroke-width="4.2" stroke-linecap="round"/>
<line x1="451.39" y1="289.87" x2="570.64" y2="198.37" stroke="hsl(252.2, 88.4%, 66.1%)" stroke-width="4.2" stroke-linecap="round"/>
<line x1="455.79" y1="296.00" x2="572.71" y2="217.87" stroke="hsl(252.2, 88.4%, 66.1%)" stroke-width="4.2" stroke-linecap="round"/>
<line x1="459.77" y1="302.40" x2="573.17" y2="236.93" stroke="hsl(252.2, 88.4%, 66.1%)" stroke-width="4.2" stroke-linecap="round"/>
<line x1="463.32" y1="309.05" x2="572.07" y2="255.42" stroke="hsl(252.2, 88.4%, 66.1%)" stroke-width="4.2" stroke-linecap="round"/>
<line x1="466.43" y1="315.91" x2="569.51" y2="273.22" stroke="hsl(252.2, 88.4%, 66.1%)" stroke-width="4.2" stroke-linecap="round"/>
<line x1="469.09" y1="322.97" x2="574.74" y2="287.11" stroke="hsl(252.2, 88.4%, 66.1%)" stroke-width="4.2" stroke-linecap="round"/>
<line x1="471.27" y1="330.18" x2="579.05" y2="301.31" stroke="hsl(252.2, 88.4%, 66.1%)" stroke-width="4.2" stroke-linecap="round"/>
<line x1="472.99" y1="337.53" x2="582.42" y2="315.76" stroke="hsl(252.2, 88.4%, 66.1%)" stroke-width="4.2" stroke-linecap="round"/>
<line x1="474.21" y1="344.96" x2="584.84" y2="330.40" stroke="hsl(252.2, 88.4%, 66.1%)" stroke-width="4.2" stroke-linecap="round"/>
<line x1="474.95" y1="352.47" x2="576.30" y2="345.82" stroke="hsl(274.1, 65.4%, 72.5%)" stroke-width="4.2" stroke-linecap="round"/>
<line x1="475.20" y1="360.00" x2="566.75" y2="360.00" stroke="hsl(296.1, 57.6%, 72.7%)" stroke-width="4.2" stroke-linecap="round"/>
<line x1="474.95" y1="367.53" x2="556.32" y2="372.87" stroke="hsl(318.1, 62.3%, 66.8%)" stroke-width="4.2" stroke-linecap="round"/>
<line x1="474.21" y1="375.04" x2="552.83" y2="385.39" stroke="hsl(329.1, 68.4%, 61.6%)" stroke-width="4.2" stroke-linecap="round"/>
<line x1="472.99" y1="382.47" x2="556.19" y2="399.02" stroke="hsl(329.1, 68.4%, 61.6%)" stroke-width="4.2" stroke-linecap="round"/>
<line x1="471.27" y1="389.82" x2="558.56" y2="413.20" stroke="hsl(329.1, 68.4%, 61.6%)" stroke-width="4.2" stroke-linecap="round"/>
<line x1="469.09" y1="397.03" x2="565.13" y2="429.63" stroke="hsl(329.1, 68.4%, 61.6%)" stroke-width="4.2" stroke-linecap="round"/>
<line x1="466.43" y1="404.09" x2="575.48" y2="449.25" stroke="hsl(329.1, 68.4%, 61.6%)" stroke-width="4.2" stroke-linecap="round"/>
<line x1="463.32" y1="410.95" x2="584.07" y2="470.50" stroke="hsl(329.1, 68.4%, 61.6%)" stroke-width="4.2" stroke-linecap="round"/>
<line x1="459.77" y1="417.60" x2="577.69" y2="485.68" stroke="hsl(329.1, 68.4%, 61.6%)" stroke-width="4.2" stroke-linecap="round"/>
<line x1="455.79" y1="424.00" x2="557.76" y2="492.14" stroke="hsl(329.1, 68.4%, 61.6%)" stroke-width="4.2" stroke-linecap="round"/>
<line x1="451.39" y1="430.13" x2="537.96" y2="496.56" stroke="hsl(329.1, 68.4%, 61.6%)" stroke-width="4.2" stroke-linecap="round"/>
<line x1="446.61" y1="435.96" x2="518.61" y2="499.10" stroke="hsl(333.7, 66.8%, 63.6%)" stroke-width="4.2" stroke-linecap="round"/>
<line x1="441.46" y1="441.46" x2="499.86" y2="499.86" stroke="hsl(342.8, 66.9%, 65.8%)" stroke-width="4.2" stroke-linecap="round"/>
<line x1="435.96" y1="446.61" x2="481.73" y2="498.80" stroke="hsl(352.0, 72.1%, 65.5%)" stroke-width="4.2" stroke-linecap="round"/>
<line x1="430.13" y1="451.39" x2="464.37" y2="496.01" stroke="hsl(1.1, 83.2%, 62.5%)" stroke-width="4.2" stroke-linecap="round"/>
<line x1="424.00" y1="455.79" x2="454.99" y2="502.16" stroke="hsl(1.1, 83.2%, 62.5%)" stroke-width="4.2" stroke-linecap="round"/>
<line x1="417.60" y1="459.77" x2="445.26" y2="507.67" stroke="hsl(1.1, 83.2%, 62.5%)" stroke-width="4.2" stroke-linecap="round"/>
<line x1="410.95" y1="463.32" x2="435.21" y2="512.52" stroke="hsl(1.1, 83.2%, 62.5%)" stroke-width="4.2" stroke-linecap="round"/>
<line x1="404.09" y1="466.43" x2="424.90" y2="516.69" stroke="hsl(1.1, 83.2%, 62.5%)" stroke-width="4.2" stroke-linecap="round"/>
<line x1="397.03" y1="469.09" x2="417.92" y2="530.64" stroke="hsl(1.1, 83.2%, 62.5%)" stroke-width="4.2" stroke-linecap="round"/>
<line x1="389.82" y1="471.27" x2="409.38" y2="544.31" stroke="hsl(1.1, 83.2%, 62.5%)" stroke-width="4.2" stroke-linecap="round"/>
<line x1="382.47" y1="472.99" x2="399.29" y2="557.54" stroke="hsl(1.1, 83.2%, 62.5%)" stroke-width="4.2" stroke-linecap="round"/>
<line x1="375.04" y1="474.21" x2="387.67" y2="570.21" stroke="hsl(1.1, 83.2%, 62.5%)" stroke-width="4.2" stroke-linecap="round"/>
<line x1="367.53" y1="474.95" x2="373.78" y2="570.19" stroke="hsl(8.3, 78.8%, 64.8%)" stroke-width="4.2" stroke-linecap="round"/>
<line x1="360.00" y1="475.20" x2="360.00" y2="569.25" stroke="hsl(15.5, 78.3%, 65.3%)" stroke-width="4.2" stroke-linecap="round"/>
<line x1="352.47" y1="474.95" x2="346.40" y2="567.42" stroke="hsl(22.7, 81.9%, 64.0%)" stroke-width="4.2" stroke-linecap="round"/>
<line x1="344.96" y1="474.21" x2="333.05" y2="564.72" stroke="hsl(29.8, 89.9%, 61.0%)" stroke-width="4.2" stroke-linecap="round"/>
<line x1="337.53" y1="472.99" x2="319.27" y2="564.78" stroke="hsl(29.8, 89.9%, 61.0%)" stroke-width="4.2" stroke-linecap="round"/>
<line x1="330.18" y1="471.27" x2="305.36" y2="563.90" stroke="hsl(29.8, 89.9%, 61.0%)" stroke-width="4.2" stroke-linecap="round"/>
<line x1="322.97" y1="469.09" x2="291.40" y2="562.08" stroke="hsl(29.8, 89.9%, 61.0%)" stroke-width="4.2" stroke-linecap="round"/>
<line x1="315.91" y1="466.43" x2="277.45" y2="559.29" stroke="hsl(29.8, 89.9%, 61.0%)" stroke-width="4.2" stroke-linecap="round"/>
<line x1="309.05" y1="463.32" x2="257.86" y2="567.11" stroke="hsl(29.8, 89.9%, 61.0%)" stroke-width="4.2" stroke-linecap="round"/>
<line x1="302.40" y1="459.77" x2="236.93" y2="573.17" stroke="hsl(29.8, 89.9%, 61.0%)" stroke-width="4.2" stroke-linecap="round"/>
<line x1="296.00" y1="455.79" x2="214.80" y2="577.31" stroke="hsl(29.8, 89.9%, 61.0%)" stroke-width="4.2" stroke-linecap="round"/>
<line x1="289.87" y1="451.39" x2="191.63" y2="579.42" stroke="hsl(29.8, 89.9%, 61.0%)" stroke-width="4.2" stroke-linecap="round"/>
<line x1="284.04" y1="446.61" x2="206.14" y2="535.44" stroke="hsl(35.8, 85.0%, 63.0%)" stroke-width="4.2" stroke-linecap="round"/>
<line x1="278.54" y1="441.46" x2="225.57" y2="494.43" stroke="hsl(41.8, 84.6%, 63.2%)" stroke-width="4.2" stroke-linecap="round"/>
<line x1="273.39" y1="435.96" x2="249.57" y2="456.85" stroke="hsl(47.7, 88.6%, 61.5%)" stroke-width="4.2" stroke-linecap="round"/>
<line x1="268.61" y1="430.13" x2="247.40" y2="446.40" stroke="hsl(48.9, 89.9%, 61.0%)" stroke-width="4.2" stroke-linecap="round"/>
<line x1="264.21" y1="424.00" x2="238.16" y2="441.41" stroke="hsl(48.9, 89.9%, 61.0%)" stroke-width="4.2" stroke-linecap="round"/>
<line x1="260.23" y1="417.60" x2="230.96" y2="434.50" stroke="hsl(48.9, 89.9%, 61.0%)" stroke-width="4.2" stroke-linecap="round"/>
<line x1="256.68" y1="410.95" x2="227.06" y2="425.56" stroke="hsl(48.9, 89.9%, 61.0%)" stroke-width="4.2" stroke-linecap="round"/>
<line x1="253.57" y1="404.09" x2="223.76" y2="416.43" stroke="hsl(48.9, 89.9%, 61.0%)" stroke-width="4.2" stroke-linecap="round"/>
<line x1="250.91" y1="397.03" x2="188.34" y2="418.27" stroke="hsl(48.9, 89.9%, 61.0%)" stroke-width="4.2" stroke-linecap="round"/>
<line x1="248.73" y1="389.82" x2="152.24" y2="415.67" stroke="hsl(48.9, 89.9%, 61.0%)" stroke-width="4.2" stroke-linecap="round"/>
<line x1="247.01" y1="382.47" x2="135.77" y2="404.60" stroke="hsl(48.9, 89.9%, 61.0%)" stroke-width="4.2" stroke-linecap="round"/>
<line x1="245.79" y1="375.04" x2="133.34" y2="389.84" stroke="hsl(48.9, 89.9%, 61.0%)" stroke-width="4.2" stroke-linecap="round"/>
<line x1="245.05" y1="367.53" x2="133.10" y2="374.87" stroke="hsl(54.4, 80.4%, 62.6%)" stroke-width="4.2" stroke-linecap="round"/>
<line x1="244.80" y1="360.00" x2="138.76" y2="360.00" stroke="hsl(81.6, 51.2%, 64.6%)" stroke-width="4.2" stroke-linecap="round"/>
<line x1="245.05" y1="352.47" x2="145.37" y2="345.93" stroke="hsl(108.8, 41.6%, 56.8%)" stroke-width="4.2" stroke-linecap="round"/>
<line x1="245.79" y1="344.96" x2="141.56" y2="331.24" stroke="hsl(122.4, 39.4%, 49.2%)" stroke-width="4.2" stroke-linecap="round"/>
<line x1="247.01" y1="337.53" x2="127.63" y2="313.78" stroke="hsl(122.4, 39.4%, 49.2%)" stroke-width="4.2" stroke-linecap="round"/>
<line x1="248.73" y1="330.18" x2="115.12" y2="294.38" stroke="hsl(122.4, 39.4%, 49.2%)" stroke-width="4.2" stroke-linecap="round"/>
<line x1="250.91" y1="322.97" x2="108.00" y2="274.46" stroke="hsl(122.4, 39.4%, 49.2%)" stroke-width="4.2" stroke-linecap="round"/>
<line x1="253.57" y1="315.91" x2="106.18" y2="254.86" stroke="hsl(122.4, 39.4%, 49.2%)" stroke-width="4.2" stroke-linecap="round"/>
<line x1="256.68" y1="309.05" x2="105.88" y2="234.68" stroke="hsl(122.4, 39.4%, 49.2%)" stroke-width="4.2" stroke-linecap="round"/>
<line x1="260.23" y1="302.40" x2="109.83" y2="215.56" stroke="hsl(122.4, 39.4%, 49.2%)" stroke-width="4.2" stroke-linecap="round"/>
<line x1="264.21" y1="296.00" x2="117.77" y2="198.14" stroke="hsl(122.4, 39.4%, 49.2%)" stroke-width="4.2" stroke-linecap="round"/>
<line x1="268.61" y1="289.87" x2="126.92" y2="181.15" stroke="hsl(122.4, 39.4%, 49.2%)" stroke-width="4.2" stroke-linecap="round"/>
<line x1="273.39" y1="284.04" x2="137.01" y2="164.45" stroke="hsl(136.3, 38.6%, 55.9%)" stroke-width="4.2" stroke-linecap="round"/>
<line x1="278.54" y1="278.54" x2="148.07" y2="148.07" stroke="hsl(164.1, 45.2%, 60.6%)" stroke-width="4.2" stroke-linecap="round"/>
<line x1="284.04" y1="273.39" x2="160.61" y2="132.64" stroke="hsl(187.9, 66.5%, 55.5%)" stroke-width="4.2" stroke-linecap="round"/>
<line x1="289.87" y1="268.61" x2="175.91" y2="120.09" stroke="hsl(187.9, 66.5%, 55.5%)" stroke-width="4.2" stroke-linecap="round"/>
<line x1="296.00" y1="264.21" x2="193.53" y2="110.86" stroke="hsl(187.9, 66.5%, 55.5%)" stroke-width="4.2" stroke-linecap="round"/>
<line x1="302.40" y1="260.23" x2="213.41" y2="106.10" stroke="hsl(187.9, 66.5%, 55.5%)" stroke-width="4.2" stroke-linecap="round"/>
<line x1="309.05" y1="256.68" x2="234.55" y2="105.60" stroke="hsl(187.9, 66.5%, 55.5%)" stroke-width="4.2" stroke-linecap="round"/>
<line x1="315.91" y1="253.57" x2="255.57" y2="107.88" stroke="hsl(187.9, 66.5%, 55.5%)" stroke-width="4.2" stroke-linecap="round"/>
<line x1="322.97" y1="250.91" x2="274.70" y2="108.73" stroke="hsl(187.9, 66.5%, 55.5%)" stroke-width="4.2" stroke-linecap="round"/>
<line x1="330.18" y1="248.73" x2="294.22" y2="114.52" stroke="hsl(187.9, 66.5%, 55.5%)" stroke-width="4.2" stroke-linecap="round"/>
<line x1="337.53" y1="247.01" x2="314.41" y2="130.80" stroke="hsl(187.9, 66.5%, 55.5%)" stroke-width="4.2" stroke-linecap="round"/>
<line x1="344.96" y1="245.79" x2="328.47" y2="120.53" stroke="hsl(187.9, 66.5%, 55.5%)" stroke-width="4.2" stroke-linecap="round"/>
<line x1="352.47" y1="245.05" x2="342.30" y2="90.00" stroke="hsl(187.9, 66.5%, 55.5%)" stroke-width="4.2" stroke-linecap="round"/>
<text x="360" y="702" text-anchor="middle" font-family="sans-serif" font-size="22" fill="#444">案B カテゴリ均等 / 96本</text>
</svg>