<svg xmlns="http://www.w3.org/2000/svg" width="760" height="760" viewBox="0 0 760 760">
<rect width="760" height="760" fill="white"/>
<line x1="380.00" y1="258.40" x2="380.00" y2="158.24" stroke="hsl(205.5, 69.8%, 63.5%)" stroke-width="4" stroke-linecap="round"/>
<line x1="385.97" y1="258.55" x2="391.36" y2="148.66" stroke="hsl(214.2, 77.8%, 64.3%)" stroke-width="4" stroke-linecap="round"/>
<line x1="391.92" y1="258.99" x2="403.67" y2="139.69" stroke="hsl(223.0, 91.5%, 62.9%)" stroke-width="4" stroke-linecap="round"/>
<line x1="397.84" y1="259.72" x2="415.81" y2="138.61" stroke="hsl(223.0, 91.5%, 62.9%)" stroke-width="4" stroke-linecap="round"/>
<line x1="403.72" y1="260.74" x2="428.11" y2="138.15" stroke="hsl(223.0, 91.5%, 62.9%)" stroke-width="4" stroke-linecap="round"/>
<line x1="409.55" y1="262.04" x2="440.54" y2="138.33" stroke="hsl(223.0, 91.5%, 62.9%)" stroke-width="4" stroke-linecap="round"/>
<line x1="415.30" y1="263.64" x2="453.06" y2="139.14" stroke="hsl(223.0, 91.5%, 62.9%)" stroke-width="4" stroke-linecap="round"/>
<line x1="420.97" y1="265.51" x2="463.93" y2="145.42" stroke="hsl(223.0, 91.5%, 62.9%)" stroke-width="4" stroke-linecap="round"/>
<line x1="426.53" y1="267.66" x2="474.36" y2="152.18" stroke="hsl(223.0, 91.5%, 62.9%)" stroke-width="4" stroke-linecap="round"/>
<line x1="431.99" y1="270.07" x2="484.34" y2="159.40" stroke="hsl(223.0, 91.5%, 62.9%)" stroke-width="4" stroke-linecap="round"/>
<line x1="437.32" y1="272.76" x2="493.83" y2="167.04" stroke="hsl(223.0, 91.5%, 62.9%)" stroke-width="4" stroke-linecap="round"/>
<line x1="442.51" y1="275.70" x2="504.14" y2="172.88" stroke="hsl(223.0, 91.5%, 62.9%)" stroke-width="4" stroke-linecap="round"/>
<line x1="447.56" y1="278.89" x2="514.16" y2="179.22" stroke="hsl(223.0, 91.5%, 62.9%)" stroke-width="4" stroke-linecap="round"/>
<line x1="452.44" y1="282.33" x2="523.85" y2="186.05" stroke="hsl(223.0, 91.5%, 62.9%)" stroke-width="4" stroke-linecap="round"/>
<line x1="457.14" y1="286.00" x2="533.19" y2="193.34" stroke="hsl(223.0, 91.5%, 62.9%)" stroke-width="4" stroke-linecap="round"/>
<line x1="461.66" y1="289.90" x2="546.58" y2="196.21" stroke="hsl(230.3, 84.1%, 66.4%)" stroke-width="4" stroke-linecap="round"/>
<line x1="465.98" y1="294.02" x2="560.04" y2="199.96" stroke="hsl(237.6, 81.2%, 68.1%)" stroke-width="4" stroke-linecap="round"/>
<line x1="470.10" y1="298.34" x2="573.53" y2="204.60" stroke="hsl(244.9, 82.7%, 68.0%)" stroke-width="4" stroke-linecap="round"/>
<line x1="474.00" y1="302.86" x2="586.98" y2="210.14" stroke="hsl(252.2, 88.4%, 66.1%)" stroke-width="4" stroke-linecap="round"/>
<line x1="477.67" y1="307.56" x2="593.89" y2="221.37" stroke="hsl(252.2, 88.4%, 66.1%)" stroke-width="4" stroke-linecap="round"/>
<line x1="481.11" y1="312.44" x2="600.21" y2="232.86" stroke="hsl(252.2, 88.4%, 66.1%)" stroke-width="4" stroke-linecap="round"/>
<line x1="484.30" y1="317.49" x2="605.91" y2="244.60" stroke="hsl(252.2, 88.4%, 66.1%)" stroke-width="4" stroke-linecap="round"/>
<line x1="487.24" y1="322.68" x2="610.99" y2="256.53" stroke="hsl(252.2, 88.4%, 66.1%)" stroke-width="4" stroke-linecap="round"/>
<line x1="489.93" y1="328.01" x2="619.41" y2="266.77" stroke="hsl(252.2, 88.4%, 66.1%)" stroke-width="4" stroke-linecap="round"/>
<line x1="492.34" y1="333.47" x2="627.38" y2="277.53" stroke="hsl(252.2, 88.4%, 66.1%)" stroke-width="4" stroke-linecap="round"/>
<line x1="494.49" y1="339.03" x2="634.86" y2="288.81" stroke="hsl(252.2, 88.4%, 66.1%)" stroke-width="4" stroke-linecap="round"/>
<line x1="496.36" y1="344.70" x2="641.82" y2="300.58" stroke="hsl(252.2, 88.4%, 66.1%)" stroke-width="4" stroke-linecap="round"/>
<line x1="497.96" y1="350.45" x2="628.05" y2="317.87" stroke="hsl(252.2, 88.4%, 66.1%)" stroke-width="4" stroke-linecap="round"/>
<line x1="499.26" y1="356.28" x2="613.25" y2="333.60" stroke="hsl(252.2, 88.4%, 66.1%)" stroke-width="4" stroke-linecap="round"/>
<line x1="500.28" y1="362.16" x2="597.56" y2="347.73" stroke="hsl(252.2, 88.4%, 66.1%)" stroke-width="4" stroke-linecap="round"/>
<line x1="501.01" y1="368.08" x2="581.08" y2="360.20" stroke="hsl(252.2, 88.4%, 66.1%)" stroke-width="4" stroke-linecap="round"/>
<line x1="501.45" y1="374.03" x2="597.48" y2="369.32" stroke="hsl(271.4, 67.4%, 72.0%)" stroke-width="4" stroke-linecap="round"/>
<line x1="501.60" y1="380.00" x2="613.44" y2="380.00" stroke="hsl(290.6, 58.3%, 73.2%)" stroke-width="4" stroke-linecap="round"/>
<line x1="501.45" y1="385.97" x2="628.84" y2="392.22" stroke="hsl(309.9, 59.3%, 69.7%)" stroke-width="4" stroke-linecap="round"/>
<line x1="501.01" y1="391.92" x2="643.56" y2="405.96" stroke="hsl(329.1, 68.4%, 61.6%)" stroke-width="4" stroke-linecap="round"/>
<line x1="500.28" y1="397.84" x2="644.14" y2="419.18" stroke="hsl(329.1, 68.4%, 61.6%)" stroke-width="4" stroke-linecap="round"/>
<line x1="499.26" y1="403.72" x2="644.05" y2="432.52" stroke="hsl(329.1, 68.4%, 61.6%)" stroke-width="4" stroke-linecap="round"/>
<line x1="497.96" y1="409.55" x2="643.28" y2="445.95" stroke="hsl(329.1, 68.4%, 61.6%)" stroke-width="4" stroke-linecap="round"/>
<line x1="496.36" y1="415.30" x2="641.82" y2="459.42" stroke="hsl(329.1, 68.4%, 61.6%)" stroke-width="4" stroke-linecap="round"/>
<line x1="494.49" y1="420.97" x2="632.11" y2="470.21" stroke="hsl(329.1, 68.4%, 61.6%)" stroke-width="4" stroke-linecap="round"/>
<line x1="492.34" y1="426.53" x2="621.98" y2="480.23" stroke="hsl(329.1, 68.4%, 61.6%)" stroke-width="4" stroke-linecap="round"/>
<line x1="489.93" y1="431.99" x2="611.49" y2="489.49" stroke="hsl(329.1, 68.4%, 61.6%)" stroke-width="4" stroke-linecap="round"/>
<line x1="487.24" y1="437.32" x2="600.69" y2="497.96" stroke="hsl(329.1, 68.4%, 61.6%)" stroke-width="4" stroke-linecap="round"/>
<line x1="484.30" y1="442.51" x2="592.44" y2="507.33" stroke="hsl(329.1, 68.4%, 61.6%)" stroke-width="4" stroke-linecap="round"/>
<line x1="481.11" y1="447.56" x2="583.81" y2="516.18" stroke="hsl(329.1, 68.4%, 61.6%)" stroke-width="4" stroke-linecap="round"/>
<line x1="477.67" y1="452.44" x2="574.83" y2="524.50" stroke="hsl(329.1, 68.4%, 61.6%)" stroke-width="4" stroke-linecap="round"/>
<line x1="474.00" y1="457.14" x2="565.53" y2="532.26" stroke="hsl(329.1, 68.4%, 61.6%)" stroke-width="4" stroke-linecap="round"/>
<line x1="470.10" y1="461.66" x2="553.24" y2="537.02" stroke="hsl(337.1, 66.3%, 64.7%)" stroke-width="4" stroke-linecap="round"/>
<line x1="465.98" y1="465.98" x2="540.94" y2="540.94" stroke="hsl(345.1, 67.7%, 66.0%)" stroke-width="4" stroke-linecap="round"/>
<line x1="461.66" y1="470.10" x2="528.68" y2="544.04" stroke="hsl(353.1, 73.2%, 65.2%)" stroke-width="4" stroke-linecap="round"/>
<line x1="457.14" y1="474.00" x2="516.52" y2="546.34" stroke="hsl(1.1, 83.2%, 62.5%)" stroke-width="4" stroke-linecap="round"/>
<line x1="452.44" y1="477.67" x2="497.53" y2="538.48" stroke="hsl(1.1, 83.2%, 62.5%)" stroke-width="4" stroke-linecap="round"/>
<line x1="447.56" y1="481.11" x2="479.68" y2="529.18" stroke="hsl(1.1, 83.2%, 62.5%)" stroke-width="4" stroke-linecap="round"/>
<line x1="442.51" y1="484.30" x2="463.04" y2="518.55" stroke="hsl(1.1, 83.2%, 62.5%)" stroke-width="4" stroke-linecap="round"/>
<line x1="437.32" y1="487.24" x2="447.71" y2="506.68" stroke="hsl(1.1, 83.2%, 62.5%)" stroke-width="4" stroke-linecap="round"/>
<line x1="431.99" y1="489.93" x2="442.35" y2="511.83" stroke="hsl(1.1, 83.2%, 62.5%)" stroke-width="4" stroke-linecap="round"/>
<line x1="426.53" y1="492.34" x2="436.65" y2="516.75" stroke="hsl(1.1, 83.2%, 62.5%)" stroke-width="4" stroke-linecap="round"/>
<line x1="420.97" y1="494.49" x2="430.60" y2="521.43" stroke="hsl(1.1, 83.2%, 62.5%)" stroke-width="4" stroke-linecap="round"/>
<line x1="415.30" y1="496.36" x2="424.24" y2="525.84" stroke="hsl(1.1, 83.2%, 62.5%)" stroke-width="4" stroke-linecap="round"/>
<line x1="409.55" y1="497.96" x2="416.94" y2="527.48" stroke="hsl(1.1, 83.2%, 62.5%)" stroke-width="4" stroke-linecap="round"/>
<line x1="403.72" y1="499.26" x2="409.59" y2="528.76" stroke="hsl(1.1, 83.2%, 62.5%)" stroke-width="4" stroke-linecap="round"/>
<line x1="397.84" y1="500.28" x2="402.20" y2="529.67" stroke="hsl(1.1, 83.2%, 62.5%)" stroke-width="4" stroke-linecap="round"/>
<line x1="391.92" y1="501.01" x2="394.79" y2="530.21" stroke="hsl(1.1, 83.2%, 62.5%)" stroke-width="4" stroke-linecap="round"/>
<line x1="385.97" y1="501.45" x2="388.19" y2="546.80" stroke="hsl(8.3, 78.8%, 64.8%)" stroke-width="4" stroke-linecap="round"/>
<line x1="380.00" y1="501.60" x2="380.00" y2="563.07" stroke="hsl(15.5, 78.3%, 65.3%)" stroke-width="4" stroke-linecap="round"/>
<line x1="374.03" y1="501.45" x2="370.23" y2="578.89" stroke="hsl(22.7, 81.9%, 64.0%)" stroke-width="4" stroke-linecap="round"/>
<line x1="368.08" y1="501.01" x2="358.91" y2="594.15" stroke="hsl(29.8, 89.9%, 61.0%)" stroke-width="4" stroke-linecap="round"/>
<line x1="362.16" y1="500.28" x2="347.03" y2="602.25" stroke="hsl(29.8, 89.9%, 61.0%)" stroke-width="4" stroke-linecap="round"/>
<line x1="356.28" y1="499.26" x2="334.31" y2="609.67" stroke="hsl(29.8, 89.9%, 61.0%)" stroke-width="4" stroke-linecap="round"/>
<line x1="350.45" y1="497.96" x2="320.79" y2="616.36" stroke="hsl(29.8, 89.9%, 61.0%)" stroke-width="4" stroke-linecap="round"/>
<line x1="344.70" y1="496.36" x2="306.51" y2="622.26" stroke="hsl(29.8, 89.9%, 61.0%)" stroke-width="4" stroke-linecap="round"/>
<line x1="339.03" y1="494.49" x2="298.77" y2="607.02" stroke="hsl(29.8, 89.9%, 61.0%)" stroke-width="4" stroke-linecap="round"/>
<line x1="333.47" y1="492.34" x2="292.34" y2="591.63" stroke="hsl(29.8, 89.9%, 61.0%)" stroke-width="4" stroke-linecap="round"/>
<line x1="328.01" y1="489.93" x2="287.21" y2="576.18" stroke="hsl(29.8, 89.9%, 61.0%)" stroke-width="4" stroke-linecap="round"/>
<line x1="322.68" y1="487.24" x2="283.38" y2="560.77" stroke="hsl(29.8, 89.9%, 61.0%)" stroke-width="4" stroke-linecap="round"/>
<line x1="317.49" y1="484.30" x2="275.56" y2="554.24" stroke="hsl(29.8, 89.9%, 61.0%)" stroke-width="4" stroke-linecap="round"/>
<line x1="312.44" y1="481.11" x2="268.15" y2="547.39" stroke="hsl(29.8, 89.9%, 61.0%)" stroke-width="4" stroke-linecap="round"/>
<line x1="307.56" y1="477.67" x2="261.16" y2="540.23" stroke="hsl(29.8, 89.9%, 61.0%)" stroke-width="4" stroke-linecap="round"/>
<line x1="302.86" y1="474.00" x2="254.60" y2="532.80" stroke="hsl(29.8, 89.9%, 61.0%)" stroke-width="4" stroke-linecap="round"/>
<line x1="298.34" y1="470.10" x2="240.63" y2="533.77" stroke="hsl(34.6, 85.7%, 62.7%)" stroke-width="4" stroke-linecap="round"/>
<line x1="294.02" y1="465.98" x2="226.29" y2="533.71" stroke="hsl(39.4, 84.2%, 63.3%)" stroke-width="4" stroke-linecap="round"/>
<line x1="289.90" y1="461.66" x2="211.63" y2="532.60" stroke="hsl(44.2, 85.7%, 62.7%)" stroke-width="4" stroke-linecap="round"/>
<line x1="286.00" y1="457.14" x2="196.72" y2="530.41" stroke="hsl(48.9, 89.9%, 61.0%)" stroke-width="4" stroke-linecap="round"/>
<line x1="282.33" y1="452.44" x2="188.10" y2="522.32" stroke="hsl(48.9, 89.9%, 61.0%)" stroke-width="4" stroke-linecap="round"/>
<line x1="278.89" y1="447.56" x2="179.83" y2="513.75" stroke="hsl(48.9, 89.9%, 61.0%)" stroke-width="4" stroke-linecap="round"/>
<line x1="275.70" y1="442.51" x2="171.94" y2="504.71" stroke="hsl(48.9, 89.9%, 61.0%)" stroke-width="4" stroke-linecap="round"/>
<line x1="272.76" y1="437.32" x2="164.46" y2="495.21" stroke="hsl(48.9, 89.9%, 61.0%)" stroke-width="4" stroke-linecap="round"/>
<line x1="270.07" y1="431.99" x2="166.00" y2="481.21" stroke="hsl(48.9, 89.9%, 61.0%)" stroke-width="4" stroke-linecap="round"/>
<line x1="267.66" y1="426.53" x2="168.37" y2="467.66" stroke="hsl(48.9, 89.9%, 61.0%)" stroke-width="4" stroke-linecap="round"/>
<line x1="265.51" y1="420.97" x2="171.55" y2="454.59" stroke="hsl(48.9, 89.9%, 61.0%)" stroke-width="4" stroke-linecap="round"/>
<line x1="263.64" y1="415.30" x2="175.47" y2="442.04" stroke="hsl(48.9, 89.9%, 61.0%)" stroke-width="4" stroke-linecap="round"/>
<line x1="262.04" y1="409.55" x2="172.67" y2="431.93" stroke="hsl(48.9, 89.9%, 61.0%)" stroke-width="4" stroke-linecap="round"/>
<line x1="260.74" y1="403.72" x2="170.38" y2="421.70" stroke="hsl(48.9, 89.9%, 61.0%)" stroke-width="4" stroke-linecap="round"/>
<line x1="259.72" y1="397.84" x2="168.58" y2="411.36" stroke="hsl(48.9, 89.9%, 61.0%)" stroke-width="4" stroke-linecap="round"/>
<line x1="258.99" y1="391.92" x2="167.30" y2="400.95" stroke="hsl(48.9, 89.9%, 61.0%)" stroke-width="4" stroke-linecap="round"/>
<line x1="258.55" y1="385.97" x2="170.17" y2="390.31" stroke="hsl(67.3, 63.1%, 64.8%)" stroke-width="4" stroke-linecap="round"/>
<line x1="258.40" y1="380.00" x2="173.57" y2="380.00" stroke="hsl(85.7, 48.8%, 64.1%)" stroke-width="4" stroke-linecap="round"/>
<line x1="258.55" y1="374.03" x2="177.47" y2="370.05" stroke="hsl(104.1, 42.5%, 58.9%)" stroke-width="4" stroke-linecap="round"/>
<line x1="258.99" y1="368.08" x2="181.83" y2="360.48" stroke="hsl(122.4, 39.4%, 49.2%)" stroke-width="4" stroke-linecap="round"/>
<line x1="259.72" y1="362.16" x2="173.28" y2="349.34" stroke="hsl(122.4, 39.4%, 49.2%)" stroke-width="4" stroke-linecap="round"/>
<line x1="260.74" y1="356.28" x2="165.36" y2="337.31" stroke="hsl(122.4, 39.4%, 49.2%)" stroke-width="4" stroke-linecap="round"/>
<line x1="262.04" y1="350.45" x2="158.16" y2="324.43" stroke="hsl(122.4, 39.4%, 49.2%)" stroke-width="4" stroke-linecap="round"/>
<line x1="263.64" y1="344.70" x2="151.72" y2="310.75" stroke="hsl(122.4, 39.4%, 49.2%)" stroke-width="4" stroke-linecap="round"/>
<line x1="265.51" y1="339.03" x2="162.95" y2="302.34" stroke="hsl(122.4, 39.4%, 49.2%)" stroke-width="4" stroke-linecap="round"/>
<line x1="267.66" y1="333.47" x2="174.44" y2="294.86" stroke="hsl(122.4, 39.4%, 49.2%)" stroke-width="4" stroke-linecap="round"/>
<line x1="270.07" y1="328.01" x2="186.13" y2="288.31" stroke="hsl(122.4, 39.4%, 49.2%)" stroke-width="4" stroke-linecap="round"/>
<line x1="272.76" y1="322.68" x2="197.95" y2="282.69" stroke="hsl(122.4, 39.4%, 49.2%)" stroke-width="4" stroke-linecap="round"/>
<line x1="275.70" y1="317.49" x2="207.32" y2="276.50" stroke="hsl(122.4, 39.4%, 49.2%)" stroke-width="4" stroke-linecap="round"/>
<line x1="278.89" y1="312.44" x2="216.86" y2="270.99" stroke="hsl(122.4, 39.4%, 49.2%)" stroke-width="4" stroke-linecap="round"/>
<line x1="282.33" y1="307.56" x2="226.51" y2="266.16" stroke="hsl(122.4, 39.4%, 49.2%)" stroke-width="4" stroke-linecap="round"/>
<line x1="286.00" y1="302.86" x2="236.23" y2="262.01" stroke="hsl(122.4, 39.4%, 49.2%)" stroke-width="4" stroke-linecap="round"/>
<line x1="289.90" y1="298.34" x2="245.17" y2="257.80" stroke="hsl(138.8, 38.6%, 56.8%)" stroke-width="4" stroke-linecap="round"/>
<line x1="294.02" y1="294.02" x2="254.17" y2="254.17" stroke="hsl(155.2, 41.4%, 60.4%)" stroke-width="4" stroke-linecap="round"/>
<line x1="298.34" y1="289.90" x2="263.19" y2="251.12" stroke="hsl(171.6, 50.0%, 59.9%)" stroke-width="4" stroke-linecap="round"/>
<line x1="302.86" y1="286.00" x2="272.20" y2="248.65" stroke="hsl(187.9, 66.5%, 55.5%)" stroke-width="4" stroke-linecap="round"/>
<line x1="307.56" y1="282.33" x2="278.99" y2="243.81" stroke="hsl(187.9, 66.5%, 55.5%)" stroke-width="4" stroke-linecap="round"/>
<line x1="312.44" y1="278.89" x2="286.00" y2="239.32" stroke="hsl(187.9, 66.5%, 55.5%)" stroke-width="4" stroke-linecap="round"/>
<line x1="317.49" y1="275.70" x2="293.20" y2="235.19" stroke="hsl(187.9, 66.5%, 55.5%)" stroke-width="4" stroke-linecap="round"/>
<line x1="322.68" y1="272.76" x2="300.59" y2="231.43" stroke="hsl(187.9, 66.5%, 55.5%)" stroke-width="4" stroke-linecap="round"/>
<line x1="328.01" y1="270.07" x2="303.29" y2="217.81" stroke="hsl(187.9, 66.5%, 55.5%)" stroke-width="4" stroke-linecap="round"/>
<line x1="333.47" y1="267.66" x2="307.15" y2="204.12" stroke="hsl(187.9, 66.5%, 55.5%)" stroke-width="4" stroke-linecap="round"/>
<line x1="339.03" y1="265.51" x2="312.18" y2="190.45" stroke="hsl(187.9, 66.5%, 55.5%)" stroke-width="4" stroke-linecap="round"/>
<line x1="344.70" y1="263.64" x2="318.38" y2="176.87" stroke="hsl(187.9, 66.5%, 55.5%)" stroke-width="4" stroke-linecap="round"/>
<line x1="350.45" y1="262.04" x2="329.04" y2="176.57" stroke="hsl(187.9, 66.5%, 55.5%)" stroke-width="4" stroke-linecap="round"/>
<line x1="356.28" y1="260.74" x2="339.59" y2="176.82" stroke="hsl(187.9, 66.5%, 55.5%)" stroke-width="4" stroke-linecap="round"/>
<line x1="362.16" y1="259.72" x2="349.98" y2="177.61" stroke="hsl(187.9, 66.5%, 55.5%)" stroke-width="4" stroke-linecap="round"/>
<line x1="368.08" y1="258.99" x2="360.20" y2="178.92" stroke="hsl(187.9, 66.5%, 55.5%)" stroke-width="4" stroke-linecap="round"/>
<line x1="374.03" y1="258.55" x2="369.60" y2="168.35" stroke="hsl(196.7, 66.4%, 60.6%)" stroke-width="4" stroke-linecap="round"/>
<text x="502.2" y="85.1" text-anchor="middle" dominant-baseline="middle" font-family="sans-serif" font-size="17" fill="#777">数理・情報</text>
<text x="674.9" y="257.8" text-anchor="middle" dominant-baseline="middle" font-family="sans-serif" font-size="17" fill="#777">工学・ものづくり</text>
<text x="674.9" y="502.2" text-anchor="middle" dominant-baseline="middle" font-family="sans-serif" font-size="17" fill="#777">化学・生命</text>
<text x="502.2" y="674.9" text-anchor="middle" dominant-baseline="middle" font-family="sans-serif" font-size="17" fill="#777">医療・健康</text>
<text x="257.8" y="674.9" text-anchor="middle" dominant-baseline="middle" font-family="sans-serif" font-size="17" fill="#777">教育・こころ・からだ</text>
<text x="85.1" y="502.2" text-anchor="middle" dominant-baseline="middle" font-family="sans-serif" font-size="17" fill="#777">経済・ビジネス・データ</text>
<text x="85.1" y="257.8" text-anchor="middle" dominant-baseline="middle" font-family="sans-serif" font-size="17" fill="#777">法・政治・社会</text>
<text x="257.8" y="85.1" text-anchor="middle" dominant-baseline="middle" font-family="sans-serif" font-size="17" fill="#777">言語・人文・地球</text>
<text x="380" y="744" text-anchor="middle" font-family="sans-serif" font-size="20" fill="#444">新8×4 / 128本 / ペルソナA</text>
</svg>