<svg xmlns="http://www.w3.org/2000/svg" width="760" height="760" viewBox="0 0 760 760">
<rect width="760" height="760" fill="white"/>
<line x1="380.00" y1="258.40" x2="380.00" y2="150.49" stroke="hsl(205.5, 69.8%, 63.5%)" stroke-width="4" stroke-linecap="round"/>
<line x1="385.97" y1="258.55" x2="390.41" y2="168.15" stroke="hsl(214.2, 77.8%, 64.3%)" stroke-width="4" stroke-linecap="round"/>
<line x1="391.92" y1="258.99" x2="399.08" y2="186.24" stroke="hsl(223.0, 91.5%, 62.9%)" stroke-width="4" stroke-linecap="round"/>
<line x1="397.84" y1="259.72" x2="408.57" y2="187.41" stroke="hsl(223.0, 91.5%, 62.9%)" stroke-width="4" stroke-linecap="round"/>
<line x1="403.72" y1="260.74" x2="417.98" y2="189.05" stroke="hsl(223.0, 91.5%, 62.9%)" stroke-width="4" stroke-linecap="round"/>
<line x1="409.55" y1="262.04" x2="427.31" y2="191.14" stroke="hsl(223.0, 91.5%, 62.9%)" stroke-width="4" stroke-linecap="round"/>
<line x1="415.30" y1="263.64" x2="436.52" y2="193.69" stroke="hsl(223.0, 91.5%, 62.9%)" stroke-width="4" stroke-linecap="round"/>
<line x1="420.97" y1="265.51" x2="445.46" y2="197.05" stroke="hsl(223.0, 91.5%, 62.9%)" stroke-width="4" stroke-linecap="round"/>
<line x1="426.53" y1="267.66" x2="454.21" y2="200.84" stroke="hsl(223.0, 91.5%, 62.9%)" stroke-width="4" stroke-linecap="round"/>
<line x1="431.99" y1="270.07" x2="462.75" y2="205.05" stroke="hsl(223.0, 91.5%, 62.9%)" stroke-width="4" stroke-linecap="round"/>
<line x1="437.32" y1="272.76" x2="471.05" y2="209.66" stroke="hsl(223.0, 91.5%, 62.9%)" stroke-width="4" stroke-linecap="round"/>
<line x1="442.51" y1="275.70" x2="478.70" y2="215.33" stroke="hsl(223.0, 91.5%, 62.9%)" stroke-width="4" stroke-linecap="round"/>
<line x1="447.56" y1="278.89" x2="486.02" y2="221.33" stroke="hsl(223.0, 91.5%, 62.9%)" stroke-width="4" stroke-linecap="round"/>
<line x1="452.44" y1="282.33" x2="492.98" y2="227.66" stroke="hsl(223.0, 91.5%, 62.9%)" stroke-width="4" stroke-linecap="round"/>
<line x1="457.14" y1="286.00" x2="499.59" y2="234.28" stroke="hsl(223.0, 91.5%, 62.9%)" stroke-width="4" stroke-linecap="round"/>
<line x1="461.66" y1="289.90" x2="501.92" y2="245.48" stroke="hsl(230.3, 84.1%, 66.4%)" stroke-width="4" stroke-linecap="round"/>
<line x1="465.98" y1="294.02" x2="503.45" y2="256.55" stroke="hsl(237.6, 81.2%, 68.1%)" stroke-width="4" stroke-linecap="round"/>
<line x1="470.10" y1="298.34" x2="504.20" y2="267.43" stroke="hsl(244.9, 82.7%, 68.0%)" stroke-width="4" stroke-linecap="round"/>
<line x1="474.00" y1="302.86" x2="504.19" y2="278.08" stroke="hsl(252.2, 88.4%, 66.1%)" stroke-width="4" stroke-linecap="round"/>
<line x1="477.67" y1="307.56" x2="509.35" y2="284.07" stroke="hsl(252.2, 88.4%, 66.1%)" stroke-width="4" stroke-linecap="round"/>
<line x1="481.11" y1="312.44" x2="514.23" y2="290.31" stroke="hsl(252.2, 88.4%, 66.1%)" stroke-width="4" stroke-linecap="round"/>
<line x1="484.30" y1="317.49" x2="518.80" y2="296.81" stroke="hsl(252.2, 88.4%, 66.1%)" stroke-width="4" stroke-linecap="round"/>
<line x1="487.24" y1="322.68" x2="523.05" y2="303.54" stroke="hsl(252.2, 88.4%, 66.1%)" stroke-width="4" stroke-linecap="round"/>
<line x1="489.93" y1="328.01" x2="541.32" y2="303.70" stroke="hsl(252.2, 88.4%, 66.1%)" stroke-width="4" stroke-linecap="round"/>
<line x1="492.34" y1="333.47" x2="559.88" y2="305.49" stroke="hsl(252.2, 88.4%, 66.1%)" stroke-width="4" stroke-linecap="round"/>
<line x1="494.49" y1="339.03" x2="578.61" y2="308.94" stroke="hsl(252.2, 88.4%, 66.1%)" stroke-width="4" stroke-linecap="round"/>
<line x1="496.36" y1="344.70" x2="597.40" y2="314.05" stroke="hsl(252.2, 88.4%, 66.1%)" stroke-width="4" stroke-linecap="round"/>
<line x1="497.96" y1="350.45" x2="592.87" y2="326.68" stroke="hsl(252.2, 88.4%, 66.1%)" stroke-width="4" stroke-linecap="round"/>
<line x1="499.26" y1="356.28" x2="587.65" y2="338.70" stroke="hsl(252.2, 88.4%, 66.1%)" stroke-width="4" stroke-linecap="round"/>
<line x1="500.28" y1="362.16" x2="581.77" y2="350.07" stroke="hsl(252.2, 88.4%, 66.1%)" stroke-width="4" stroke-linecap="round"/>
<line x1="501.01" y1="368.08" x2="575.30" y2="360.76" stroke="hsl(252.2, 88.4%, 66.1%)" stroke-width="4" stroke-linecap="round"/>
<line x1="501.45" y1="374.03" x2="574.85" y2="370.43" stroke="hsl(271.4, 67.4%, 72.0%)" stroke-width="4" stroke-linecap="round"/>
<line x1="501.60" y1="380.00" x2="573.92" y2="380.00" stroke="hsl(290.6, 58.3%, 73.2%)" stroke-width="4" stroke-linecap="round"/>
<line x1="501.45" y1="385.97" x2="572.53" y2="389.46" stroke="hsl(309.9, 59.3%, 69.7%)" stroke-width="4" stroke-linecap="round"/>
<line x1="501.01" y1="391.92" x2="570.68" y2="398.78" stroke="hsl(329.1, 68.4%, 61.6%)" stroke-width="4" stroke-linecap="round"/>
<line x1="500.28" y1="397.84" x2="569.15" y2="408.06" stroke="hsl(329.1, 68.4%, 61.6%)" stroke-width="4" stroke-linecap="round"/>
<line x1="499.26" y1="403.72" x2="567.16" y2="417.23" stroke="hsl(329.1, 68.4%, 61.6%)" stroke-width="4" stroke-linecap="round"/>
<line x1="497.96" y1="409.55" x2="564.73" y2="426.27" stroke="hsl(329.1, 68.4%, 61.6%)" stroke-width="4" stroke-linecap="round"/>
<line x1="496.36" y1="415.30" x2="561.87" y2="435.17" stroke="hsl(329.1, 68.4%, 61.6%)" stroke-width="4" stroke-linecap="round"/>
<line x1="494.49" y1="420.97" x2="552.75" y2="441.81" stroke="hsl(329.1, 68.4%, 61.6%)" stroke-width="4" stroke-linecap="round"/>
<line x1="492.34" y1="426.53" x2="543.44" y2="447.70" stroke="hsl(329.1, 68.4%, 61.6%)" stroke-width="4" stroke-linecap="round"/>
<line x1="489.93" y1="431.99" x2="533.97" y2="452.82" stroke="hsl(329.1, 68.4%, 61.6%)" stroke-width="4" stroke-linecap="round"/>
<line x1="487.24" y1="437.32" x2="524.42" y2="457.19" stroke="hsl(329.1, 68.4%, 61.6%)" stroke-width="4" stroke-linecap="round"/>
<line x1="484.30" y1="442.51" x2="520.12" y2="463.99" stroke="hsl(329.1, 68.4%, 61.6%)" stroke-width="4" stroke-linecap="round"/>
<line x1="481.11" y1="447.56" x2="515.51" y2="470.55" stroke="hsl(329.1, 68.4%, 61.6%)" stroke-width="4" stroke-linecap="round"/>
<line x1="477.67" y1="452.44" x2="510.60" y2="476.86" stroke="hsl(329.1, 68.4%, 61.6%)" stroke-width="4" stroke-linecap="round"/>
<line x1="474.00" y1="457.14" x2="505.39" y2="482.90" stroke="hsl(329.1, 68.4%, 61.6%)" stroke-width="4" stroke-linecap="round"/>
<line x1="470.10" y1="461.66" x2="501.05" y2="489.71" stroke="hsl(337.1, 66.3%, 64.7%)" stroke-width="4" stroke-linecap="round"/>
<line x1="465.98" y1="465.98" x2="496.34" y2="496.34" stroke="hsl(345.1, 67.7%, 66.0%)" stroke-width="4" stroke-linecap="round"/>
<line x1="461.66" y1="470.10" x2="491.27" y2="502.77" stroke="hsl(353.1, 73.2%, 65.2%)" stroke-width="4" stroke-linecap="round"/>
<line x1="457.14" y1="474.00" x2="485.85" y2="508.97" stroke="hsl(1.1, 83.2%, 62.5%)" stroke-width="4" stroke-linecap="round"/>
<line x1="452.44" y1="477.67" x2="476.17" y2="509.66" stroke="hsl(1.1, 83.2%, 62.5%)" stroke-width="4" stroke-linecap="round"/>
<line x1="447.56" y1="481.11" x2="466.68" y2="509.72" stroke="hsl(1.1, 83.2%, 62.5%)" stroke-width="4" stroke-linecap="round"/>
<line x1="442.51" y1="484.30" x2="457.42" y2="509.18" stroke="hsl(1.1, 83.2%, 62.5%)" stroke-width="4" stroke-linecap="round"/>
<line x1="437.32" y1="487.24" x2="448.44" y2="508.04" stroke="hsl(1.1, 83.2%, 62.5%)" stroke-width="4" stroke-linecap="round"/>
<line x1="431.99" y1="489.93" x2="442.90" y2="513.00" stroke="hsl(1.1, 83.2%, 62.5%)" stroke-width="4" stroke-linecap="round"/>
<line x1="426.53" y1="492.34" x2="437.04" y2="517.71" stroke="hsl(1.1, 83.2%, 62.5%)" stroke-width="4" stroke-linecap="round"/>
<line x1="420.97" y1="494.49" x2="430.87" y2="522.16" stroke="hsl(1.1, 83.2%, 62.5%)" stroke-width="4" stroke-linecap="round"/>
<line x1="415.30" y1="496.36" x2="424.39" y2="526.34" stroke="hsl(1.1, 83.2%, 62.5%)" stroke-width="4" stroke-linecap="round"/>
<line x1="409.55" y1="497.96" x2="416.59" y2="526.09" stroke="hsl(1.1, 83.2%, 62.5%)" stroke-width="4" stroke-linecap="round"/>
<line x1="403.72" y1="499.26" x2="408.93" y2="525.43" stroke="hsl(1.1, 83.2%, 62.5%)" stroke-width="4" stroke-linecap="round"/>
<line x1="397.84" y1="500.28" x2="401.42" y2="524.38" stroke="hsl(1.1, 83.2%, 62.5%)" stroke-width="4" stroke-linecap="round"/>
<line x1="391.92" y1="501.01" x2="394.08" y2="522.95" stroke="hsl(1.1, 83.2%, 62.5%)" stroke-width="4" stroke-linecap="round"/>
<line x1="385.97" y1="501.45" x2="387.73" y2="537.37" stroke="hsl(8.3, 78.8%, 64.8%)" stroke-width="4" stroke-linecap="round"/>
<line x1="380.00" y1="501.60" x2="380.00" y2="551.49" stroke="hsl(15.5, 78.3%, 65.3%)" stroke-width="4" stroke-linecap="round"/>
<line x1="374.03" y1="501.45" x2="370.90" y2="565.19" stroke="hsl(22.7, 81.9%, 64.0%)" stroke-width="4" stroke-linecap="round"/>
<line x1="368.08" y1="501.01" x2="360.46" y2="578.38" stroke="hsl(29.8, 89.9%, 61.0%)" stroke-width="4" stroke-linecap="round"/>
<line x1="362.16" y1="500.28" x2="349.28" y2="587.13" stroke="hsl(29.8, 89.9%, 61.0%)" stroke-width="4" stroke-linecap="round"/>
<line x1="356.28" y1="499.26" x2="337.19" y2="595.23" stroke="hsl(29.8, 89.9%, 61.0%)" stroke-width="4" stroke-linecap="round"/>
<line x1="350.45" y1="497.96" x2="324.23" y2="602.63" stroke="hsl(29.8, 89.9%, 61.0%)" stroke-width="4" stroke-linecap="round"/>
<line x1="344.70" y1="496.36" x2="310.46" y2="609.25" stroke="hsl(29.8, 89.9%, 61.0%)" stroke-width="4" stroke-linecap="round"/>
<line x1="339.03" y1="494.49" x2="303.07" y2="595.00" stroke="hsl(29.8, 89.9%, 61.0%)" stroke-width="4" stroke-linecap="round"/>
<line x1="333.47" y1="492.34" x2="296.91" y2="580.60" stroke="hsl(29.8, 89.9%, 61.0%)" stroke-width="4" stroke-linecap="round"/>
<line x1="328.01" y1="489.93" x2="291.96" y2="566.14" stroke="hsl(29.8, 89.9%, 61.0%)" stroke-width="4" stroke-linecap="round"/>
<line x1="322.68" y1="487.24" x2="288.22" y2="551.71" stroke="hsl(29.8, 89.9%, 61.0%)" stroke-width="4" stroke-linecap="round"/>
<line x1="317.49" y1="484.30" x2="276.92" y2="551.97" stroke="hsl(29.8, 89.9%, 61.0%)" stroke-width="4" stroke-linecap="round"/>
<line x1="312.44" y1="481.11" x2="265.39" y2="551.53" stroke="hsl(29.8, 89.9%, 61.0%)" stroke-width="4" stroke-linecap="round"/>
<line x1="307.56" y1="477.67" x2="253.65" y2="550.36" stroke="hsl(29.8, 89.9%, 61.0%)" stroke-width="4" stroke-linecap="round"/>
<line x1="302.86" y1="474.00" x2="241.76" y2="548.44" stroke="hsl(29.8, 89.9%, 61.0%)" stroke-width="4" stroke-linecap="round"/>
<line x1="298.34" y1="470.10" x2="242.50" y2="531.71" stroke="hsl(34.6, 85.7%, 62.7%)" stroke-width="4" stroke-linecap="round"/>
<line x1="294.02" y1="465.98" x2="244.52" y2="515.48" stroke="hsl(39.4, 84.2%, 63.3%)" stroke-width="4" stroke-linecap="round"/>
<line x1="289.90" y1="461.66" x2="247.78" y2="499.84" stroke="hsl(44.2, 85.7%, 62.7%)" stroke-width="4" stroke-linecap="round"/>
<line x1="286.00" y1="457.14" x2="252.22" y2="484.87" stroke="hsl(48.9, 89.9%, 61.0%)" stroke-width="4" stroke-linecap="round"/>
<line x1="282.33" y1="452.44" x2="239.77" y2="484.00" stroke="hsl(48.9, 89.9%, 61.0%)" stroke-width="4" stroke-linecap="round"/>
<line x1="278.89" y1="447.56" x2="227.12" y2="482.15" stroke="hsl(48.9, 89.9%, 61.0%)" stroke-width="4" stroke-linecap="round"/>
<line x1="275.70" y1="442.51" x2="214.33" y2="479.30" stroke="hsl(48.9, 89.9%, 61.0%)" stroke-width="4" stroke-linecap="round"/>
<line x1="272.76" y1="437.32" x2="201.47" y2="475.43" stroke="hsl(48.9, 89.9%, 61.0%)" stroke-width="4" stroke-linecap="round"/>
<line x1="270.07" y1="431.99" x2="195.26" y2="467.38" stroke="hsl(48.9, 89.9%, 61.0%)" stroke-width="4" stroke-linecap="round"/>
<line x1="267.66" y1="426.53" x2="189.40" y2="458.95" stroke="hsl(48.9, 89.9%, 61.0%)" stroke-width="4" stroke-linecap="round"/>
<line x1="265.51" y1="420.97" x2="183.94" y2="450.15" stroke="hsl(48.9, 89.9%, 61.0%)" stroke-width="4" stroke-linecap="round"/>
<line x1="263.64" y1="415.30" x2="178.88" y2="441.01" stroke="hsl(48.9, 89.9%, 61.0%)" stroke-width="4" stroke-linecap="round"/>
<line x1="262.04" y1="409.55" x2="176.13" y2="431.07" stroke="hsl(48.9, 89.9%, 61.0%)" stroke-width="4" stroke-linecap="round"/>
<line x1="260.74" y1="403.72" x2="173.87" y2="421.00" stroke="hsl(48.9, 89.9%, 61.0%)" stroke-width="4" stroke-linecap="round"/>
<line x1="259.72" y1="397.84" x2="172.11" y2="410.84" stroke="hsl(48.9, 89.9%, 61.0%)" stroke-width="4" stroke-linecap="round"/>
<line x1="258.99" y1="391.92" x2="170.84" y2="400.60" stroke="hsl(48.9, 89.9%, 61.0%)" stroke-width="4" stroke-linecap="round"/>
<line x1="258.55" y1="385.97" x2="164.68" y2="390.58" stroke="hsl(67.3, 63.1%, 64.8%)" stroke-width="4" stroke-linecap="round"/>
<line x1="258.40" y1="380.00" x2="159.00" y2="380.00" stroke="hsl(85.7, 48.8%, 64.1%)" stroke-width="4" stroke-linecap="round"/>
<line x1="258.55" y1="374.03" x2="153.86" y2="368.89" stroke="hsl(104.1, 42.5%, 58.9%)" stroke-width="4" stroke-linecap="round"/>
<line x1="258.99" y1="368.08" x2="149.29" y2="357.28" stroke="hsl(122.4, 39.4%, 49.2%)" stroke-width="4" stroke-linecap="round"/>
<line x1="259.72" y1="362.16" x2="146.09" y2="345.30" stroke="hsl(122.4, 39.4%, 49.2%)" stroke-width="4" stroke-linecap="round"/>
<line x1="260.74" y1="356.28" x2="143.52" y2="332.96" stroke="hsl(122.4, 39.4%, 49.2%)" stroke-width="4" stroke-linecap="round"/>
<line x1="262.04" y1="350.45" x2="141.61" y2="320.29" stroke="hsl(122.4, 39.4%, 49.2%)" stroke-width="4" stroke-linecap="round"/>
<line x1="263.64" y1="344.70" x2="140.39" y2="307.31" stroke="hsl(122.4, 39.4%, 49.2%)" stroke-width="4" stroke-linecap="round"/>
<line x1="265.51" y1="339.03" x2="141.33" y2="294.60" stroke="hsl(122.4, 39.4%, 49.2%)" stroke-width="4" stroke-linecap="round"/>
<line x1="267.66" y1="333.47" x2="142.95" y2="281.81" stroke="hsl(122.4, 39.4%, 49.2%)" stroke-width="4" stroke-linecap="round"/>
<line x1="270.07" y1="328.01" x2="145.26" y2="268.97" stroke="hsl(122.4, 39.4%, 49.2%)" stroke-width="4" stroke-linecap="round"/>
<line x1="272.76" y1="322.68" x2="148.26" y2="256.13" stroke="hsl(122.4, 39.4%, 49.2%)" stroke-width="4" stroke-linecap="round"/>
<line x1="275.70" y1="317.49" x2="162.25" y2="249.48" stroke="hsl(122.4, 39.4%, 49.2%)" stroke-width="4" stroke-linecap="round"/>
<line x1="278.89" y1="312.44" x2="176.31" y2="243.90" stroke="hsl(122.4, 39.4%, 49.2%)" stroke-width="4" stroke-linecap="round"/>
<line x1="282.33" y1="307.56" x2="190.38" y2="239.37" stroke="hsl(122.4, 39.4%, 49.2%)" stroke-width="4" stroke-linecap="round"/>
<line x1="286.00" y1="302.86" x2="204.38" y2="235.87" stroke="hsl(122.4, 39.4%, 49.2%)" stroke-width="4" stroke-linecap="round"/>
<line x1="289.90" y1="298.34" x2="203.36" y2="219.90" stroke="hsl(138.8, 38.6%, 56.8%)" stroke-width="4" stroke-linecap="round"/>
<line x1="294.02" y1="294.02" x2="203.49" y2="203.49" stroke="hsl(155.2, 41.4%, 60.4%)" stroke-width="4" stroke-linecap="round"/>
<line x1="298.34" y1="289.90" x2="204.83" y2="186.73" stroke="hsl(171.6, 50.0%, 59.9%)" stroke-width="4" stroke-linecap="round"/>
<line x1="302.86" y1="286.00" x2="207.41" y2="169.70" stroke="hsl(187.9, 66.5%, 55.5%)" stroke-width="4" stroke-linecap="round"/>
<line x1="307.56" y1="282.33" x2="217.71" y2="161.17" stroke="hsl(187.9, 66.5%, 55.5%)" stroke-width="4" stroke-linecap="round"/>
<line x1="312.44" y1="278.89" x2="228.43" y2="153.15" stroke="hsl(187.9, 66.5%, 55.5%)" stroke-width="4" stroke-linecap="round"/>
<line x1="317.49" y1="275.70" x2="239.54" y2="145.66" stroke="hsl(187.9, 66.5%, 55.5%)" stroke-width="4" stroke-linecap="round"/>
<line x1="322.68" y1="272.76" x2="251.03" y2="138.71" stroke="hsl(187.9, 66.5%, 55.5%)" stroke-width="4" stroke-linecap="round"/>
<line x1="328.01" y1="270.07" x2="269.97" y2="147.35" stroke="hsl(187.9, 66.5%, 55.5%)" stroke-width="4" stroke-linecap="round"/>
<line x1="333.47" y1="267.66" x2="287.73" y2="157.24" stroke="hsl(187.9, 66.5%, 55.5%)" stroke-width="4" stroke-linecap="round"/>
<line x1="339.03" y1="265.51" x2="304.25" y2="168.28" stroke="hsl(187.9, 66.5%, 55.5%)" stroke-width="4" stroke-linecap="round"/>
<line x1="344.70" y1="263.64" x2="319.44" y2="180.36" stroke="hsl(187.9, 66.5%, 55.5%)" stroke-width="4" stroke-linecap="round"/>
<line x1="350.45" y1="262.04" x2="325.93" y2="164.13" stroke="hsl(187.9, 66.5%, 55.5%)" stroke-width="4" stroke-linecap="round"/>
<line x1="356.28" y1="260.74" x2="333.87" y2="148.08" stroke="hsl(187.9, 66.5%, 55.5%)" stroke-width="4" stroke-linecap="round"/>
<line x1="362.16" y1="259.72" x2="343.26" y2="132.32" stroke="hsl(187.9, 66.5%, 55.5%)" stroke-width="4" stroke-linecap="round"/>
<line x1="368.08" y1="258.99" x2="354.09" y2="116.96" stroke="hsl(187.9, 66.5%, 55.5%)" stroke-width="4" stroke-linecap="round"/>
<line x1="374.03" y1="258.55" x2="367.88" y2="133.39" stroke="hsl(196.7, 66.4%, 60.6%)" stroke-width="4" stroke-linecap="round"/>
<text x="502.2" y="85.1" text-anchor="middle" dominant-baseline="middle" font-family="sans-serif" font-size="17" fill="#777">数理・情報</text>
<text x="674.9" y="257.8" text-anchor="middle" dominant-baseline="middle" font-family="sans-serif" font-size="17" fill="#777">工学・ものづくり</text>
<text x="674.9" y="502.2" text-anchor="middle" dominant-baseline="middle" font-family="sans-serif" font-size="17" fill="#777">化学・生命</text>
<text x="502.2" y="674.9" text-anchor="middle" dominant-baseline="middle" font-family="sans-serif" font-size="17" fill="#777">医療・健康</text>
<text x="257.8" y="674.9" text-anchor="middle" dominant-baseline="middle" font-family="sans-serif" font-size="17" fill="#777">教育・こころ・からだ</text>
<text x="85.1" y="502.2" text-anchor="middle" dominant-baseline="middle" font-family="sans-serif" font-size="17" fill="#777">経済・ビジネス・データ</text>
<text x="85.1" y="257.8" text-anchor="middle" dominant-baseline="middle" font-family="sans-serif" font-size="17" fill="#777">法・政治・社会</text>
<text x="257.8" y="85.1" text-anchor="middle" dominant-baseline="middle" font-family="sans-serif" font-size="17" fill="#777">言語・人文・地球</text>
<text x="380" y="744" text-anchor="middle" font-family="sans-serif" font-size="20" fill="#444">新8×4 / 128本 / ペルソナB</text>
</svg>