<svg xmlns="http://www.w3.org/2000/svg" width="760" height="760" viewBox="0 0 760 760">
<rect width="760" height="760" fill="white"/>
<line x1="380.00" y1="258.40" x2="380.00" y2="138.17" stroke="hsl(205.5, 69.8%, 63.5%)" stroke-width="4" stroke-linecap="round"/>
<line x1="385.97" y1="258.55" x2="392.65" y2="122.59" stroke="hsl(214.2, 77.8%, 64.3%)" stroke-width="4" stroke-linecap="round"/>
<line x1="391.92" y1="258.99" x2="406.82" y2="107.72" stroke="hsl(223.0, 91.5%, 62.9%)" stroke-width="4" stroke-linecap="round"/>
<line x1="397.84" y1="259.72" x2="420.04" y2="110.08" stroke="hsl(223.0, 91.5%, 62.9%)" stroke-width="4" stroke-linecap="round"/>
<line x1="403.72" y1="260.74" x2="433.10" y2="113.07" stroke="hsl(223.0, 91.5%, 62.9%)" stroke-width="4" stroke-linecap="round"/>
<line x1="409.55" y1="262.04" x2="445.95" y2="116.70" stroke="hsl(223.0, 91.5%, 62.9%)" stroke-width="4" stroke-linecap="round"/>
<line x1="415.30" y1="263.64" x2="458.58" y2="120.94" stroke="hsl(223.0, 91.5%, 62.9%)" stroke-width="4" stroke-linecap="round"/>
<line x1="420.97" y1="265.51" x2="471.44" y2="124.43" stroke="hsl(223.0, 91.5%, 62.9%)" stroke-width="4" stroke-linecap="round"/>
<line x1="426.53" y1="267.66" x2="484.15" y2="128.56" stroke="hsl(223.0, 91.5%, 62.9%)" stroke-width="4" stroke-linecap="round"/>
<line x1="431.99" y1="270.07" x2="496.67" y2="133.32" stroke="hsl(223.0, 91.5%, 62.9%)" stroke-width="4" stroke-linecap="round"/>
<line x1="437.32" y1="272.76" x2="508.97" y2="138.71" stroke="hsl(223.0, 91.5%, 62.9%)" stroke-width="4" stroke-linecap="round"/>
<line x1="442.51" y1="275.70" x2="519.36" y2="147.49" stroke="hsl(223.0, 91.5%, 62.9%)" stroke-width="4" stroke-linecap="round"/>
<line x1="447.56" y1="278.89" x2="529.20" y2="156.71" stroke="hsl(223.0, 91.5%, 62.9%)" stroke-width="4" stroke-linecap="round"/>
<line x1="452.44" y1="282.33" x2="538.47" y2="166.33" stroke="hsl(223.0, 91.5%, 62.9%)" stroke-width="4" stroke-linecap="round"/>
<line x1="457.14" y1="286.00" x2="547.16" y2="176.32" stroke="hsl(223.0, 91.5%, 62.9%)" stroke-width="4" stroke-linecap="round"/>
<line x1="461.66" y1="289.90" x2="550.40" y2="191.99" stroke="hsl(230.3, 84.1%, 66.4%)" stroke-width="4" stroke-linecap="round"/>
<line x1="465.98" y1="294.02" x2="552.53" y2="207.47" stroke="hsl(237.6, 81.2%, 68.1%)" stroke-width="4" stroke-linecap="round"/>
<line x1="470.10" y1="298.34" x2="553.57" y2="222.69" stroke="hsl(244.9, 82.7%, 68.0%)" stroke-width="4" stroke-linecap="round"/>
<line x1="474.00" y1="302.86" x2="553.54" y2="237.58" stroke="hsl(252.2, 88.4%, 66.1%)" stroke-width="4" stroke-linecap="round"/>
<line x1="477.67" y1="307.56" x2="558.58" y2="247.55" stroke="hsl(252.2, 88.4%, 66.1%)" stroke-width="4" stroke-linecap="round"/>
<line x1="481.11" y1="312.44" x2="563.07" y2="257.68" stroke="hsl(252.2, 88.4%, 66.1%)" stroke-width="4" stroke-linecap="round"/>
<line x1="484.30" y1="317.49" x2="566.99" y2="267.92" stroke="hsl(252.2, 88.4%, 66.1%)" stroke-width="4" stroke-linecap="round"/>
<line x1="487.24" y1="322.68" x2="570.35" y2="278.25" stroke="hsl(252.2, 88.4%, 66.1%)" stroke-width="4" stroke-linecap="round"/>
<line x1="489.93" y1="328.01" x2="583.93" y2="283.55" stroke="hsl(252.2, 88.4%, 66.1%)" stroke-width="4" stroke-linecap="round"/>
<line x1="492.34" y1="333.47" x2="597.42" y2="289.94" stroke="hsl(252.2, 88.4%, 66.1%)" stroke-width="4" stroke-linecap="round"/>
<line x1="494.49" y1="339.03" x2="610.75" y2="297.43" stroke="hsl(252.2, 88.4%, 66.1%)" stroke-width="4" stroke-linecap="round"/>
<line x1="496.36" y1="344.70" x2="623.86" y2="306.03" stroke="hsl(252.2, 88.4%, 66.1%)" stroke-width="4" stroke-linecap="round"/>
<line x1="497.96" y1="350.45" x2="607.58" y2="322.99" stroke="hsl(252.2, 88.4%, 66.1%)" stroke-width="4" stroke-linecap="round"/>
<line x1="499.26" y1="356.28" x2="590.28" y2="338.17" stroke="hsl(252.2, 88.4%, 66.1%)" stroke-width="4" stroke-linecap="round"/>
<line x1="500.28" y1="362.16" x2="572.08" y2="351.51" stroke="hsl(252.2, 88.4%, 66.1%)" stroke-width="4" stroke-linecap="round"/>
<line x1="501.01" y1="368.08" x2="553.13" y2="362.95" stroke="hsl(252.2, 88.4%, 66.1%)" stroke-width="4" stroke-linecap="round"/>
<line x1="501.45" y1="374.03" x2="566.01" y2="370.86" stroke="hsl(271.4, 67.4%, 72.0%)" stroke-width="4" stroke-linecap="round"/>
<line x1="501.60" y1="380.00" x2="578.51" y2="380.00" stroke="hsl(290.6, 58.3%, 73.2%)" stroke-width="4" stroke-linecap="round"/>
<line x1="501.45" y1="385.97" x2="590.53" y2="390.34" stroke="hsl(309.9, 59.3%, 69.7%)" stroke-width="4" stroke-linecap="round"/>
<line x1="501.01" y1="391.92" x2="601.99" y2="401.86" stroke="hsl(329.1, 68.4%, 61.6%)" stroke-width="4" stroke-linecap="round"/>
<line x1="500.28" y1="397.84" x2="599.93" y2="412.62" stroke="hsl(329.1, 68.4%, 61.6%)" stroke-width="4" stroke-linecap="round"/>
<line x1="499.26" y1="403.72" x2="597.36" y2="423.24" stroke="hsl(329.1, 68.4%, 61.6%)" stroke-width="4" stroke-linecap="round"/>
<line x1="497.96" y1="409.55" x2="594.27" y2="433.67" stroke="hsl(329.1, 68.4%, 61.6%)" stroke-width="4" stroke-linecap="round"/>
<line x1="496.36" y1="415.30" x2="590.69" y2="443.91" stroke="hsl(329.1, 68.4%, 61.6%)" stroke-width="4" stroke-linecap="round"/>
<line x1="494.49" y1="420.97" x2="578.80" y2="451.13" stroke="hsl(329.1, 68.4%, 61.6%)" stroke-width="4" stroke-linecap="round"/>
<line x1="492.34" y1="426.53" x2="566.74" y2="457.35" stroke="hsl(329.1, 68.4%, 61.6%)" stroke-width="4" stroke-linecap="round"/>
<line x1="489.93" y1="431.99" x2="554.56" y2="462.56" stroke="hsl(329.1, 68.4%, 61.6%)" stroke-width="4" stroke-linecap="round"/>
<line x1="487.24" y1="437.32" x2="542.34" y2="466.77" stroke="hsl(329.1, 68.4%, 61.6%)" stroke-width="4" stroke-linecap="round"/>
<line x1="484.30" y1="442.51" x2="536.95" y2="474.08" stroke="hsl(329.1, 68.4%, 61.6%)" stroke-width="4" stroke-linecap="round"/>
<line x1="481.11" y1="447.56" x2="531.25" y2="481.06" stroke="hsl(329.1, 68.4%, 61.6%)" stroke-width="4" stroke-linecap="round"/>
<line x1="477.67" y1="452.44" x2="525.24" y2="487.72" stroke="hsl(329.1, 68.4%, 61.6%)" stroke-width="4" stroke-linecap="round"/>
<line x1="474.00" y1="457.14" x2="518.94" y2="494.03" stroke="hsl(329.1, 68.4%, 61.6%)" stroke-width="4" stroke-linecap="round"/>
<line x1="470.10" y1="461.66" x2="511.04" y2="498.77" stroke="hsl(337.1, 66.3%, 64.7%)" stroke-width="4" stroke-linecap="round"/>
<line x1="465.98" y1="465.98" x2="503.01" y2="503.01" stroke="hsl(345.1, 67.7%, 66.0%)" stroke-width="4" stroke-linecap="round"/>
<line x1="461.66" y1="470.10" x2="494.89" y2="506.76" stroke="hsl(353.1, 73.2%, 65.2%)" stroke-width="4" stroke-linecap="round"/>
<line x1="457.14" y1="474.00" x2="486.70" y2="510.01" stroke="hsl(1.1, 83.2%, 62.5%)" stroke-width="4" stroke-linecap="round"/>
<line x1="452.44" y1="477.67" x2="476.53" y2="510.16" stroke="hsl(1.1, 83.2%, 62.5%)" stroke-width="4" stroke-linecap="round"/>
<line x1="447.56" y1="481.11" x2="466.62" y2="509.64" stroke="hsl(1.1, 83.2%, 62.5%)" stroke-width="4" stroke-linecap="round"/>
<line x1="442.51" y1="484.30" x2="457.00" y2="508.47" stroke="hsl(1.1, 83.2%, 62.5%)" stroke-width="4" stroke-linecap="round"/>
<line x1="437.32" y1="487.24" x2="447.71" y2="506.68" stroke="hsl(1.1, 83.2%, 62.5%)" stroke-width="4" stroke-linecap="round"/>
<line x1="431.99" y1="489.93" x2="441.72" y2="510.50" stroke="hsl(1.1, 83.2%, 62.5%)" stroke-width="4" stroke-linecap="round"/>
<line x1="426.53" y1="492.34" x2="435.52" y2="514.04" stroke="hsl(1.1, 83.2%, 62.5%)" stroke-width="4" stroke-linecap="round"/>
<line x1="420.97" y1="494.49" x2="429.12" y2="517.28" stroke="hsl(1.1, 83.2%, 62.5%)" stroke-width="4" stroke-linecap="round"/>
<line x1="415.30" y1="496.36" x2="422.53" y2="520.22" stroke="hsl(1.1, 83.2%, 62.5%)" stroke-width="4" stroke-linecap="round"/>
<line x1="409.55" y1="497.96" x2="415.52" y2="521.79" stroke="hsl(1.1, 83.2%, 62.5%)" stroke-width="4" stroke-linecap="round"/>
<line x1="403.72" y1="499.26" x2="408.45" y2="523.00" stroke="hsl(1.1, 83.2%, 62.5%)" stroke-width="4" stroke-linecap="round"/>
<line x1="397.84" y1="500.28" x2="401.34" y2="523.87" stroke="hsl(1.1, 83.2%, 62.5%)" stroke-width="4" stroke-linecap="round"/>
<line x1="391.92" y1="501.01" x2="394.22" y2="524.39" stroke="hsl(1.1, 83.2%, 62.5%)" stroke-width="4" stroke-linecap="round"/>
<line x1="385.97" y1="501.45" x2="387.77" y2="538.25" stroke="hsl(8.3, 78.8%, 64.8%)" stroke-width="4" stroke-linecap="round"/>
<line x1="380.00" y1="501.60" x2="380.00" y2="551.80" stroke="hsl(15.5, 78.3%, 65.3%)" stroke-width="4" stroke-linecap="round"/>
<line x1="374.03" y1="501.45" x2="370.91" y2="564.93" stroke="hsl(22.7, 81.9%, 64.0%)" stroke-width="4" stroke-linecap="round"/>
<line x1="368.08" y1="501.01" x2="360.54" y2="577.56" stroke="hsl(29.8, 89.9%, 61.0%)" stroke-width="4" stroke-linecap="round"/>
<line x1="362.16" y1="500.28" x2="349.07" y2="588.50" stroke="hsl(29.8, 89.9%, 61.0%)" stroke-width="4" stroke-linecap="round"/>
<line x1="356.28" y1="499.26" x2="336.48" y2="598.77" stroke="hsl(29.8, 89.9%, 61.0%)" stroke-width="4" stroke-linecap="round"/>
<line x1="350.45" y1="497.96" x2="322.82" y2="608.28" stroke="hsl(29.8, 89.9%, 61.0%)" stroke-width="4" stroke-linecap="round"/>
<line x1="344.70" y1="496.36" x2="308.12" y2="616.95" stroke="hsl(29.8, 89.9%, 61.0%)" stroke-width="4" stroke-linecap="round"/>
<line x1="339.03" y1="494.49" x2="300.96" y2="600.90" stroke="hsl(29.8, 89.9%, 61.0%)" stroke-width="4" stroke-linecap="round"/>
<line x1="333.47" y1="492.34" x2="295.19" y2="584.75" stroke="hsl(29.8, 89.9%, 61.0%)" stroke-width="4" stroke-linecap="round"/>
<line x1="328.01" y1="489.93" x2="290.80" y2="568.59" stroke="hsl(29.8, 89.9%, 61.0%)" stroke-width="4" stroke-linecap="round"/>
<line x1="322.68" y1="487.24" x2="287.78" y2="552.52" stroke="hsl(29.8, 89.9%, 61.0%)" stroke-width="4" stroke-linecap="round"/>
<line x1="317.49" y1="484.30" x2="279.61" y2="547.48" stroke="hsl(29.8, 89.9%, 61.0%)" stroke-width="4" stroke-linecap="round"/>
<line x1="312.44" y1="481.11" x2="271.72" y2="542.06" stroke="hsl(29.8, 89.9%, 61.0%)" stroke-width="4" stroke-linecap="round"/>
<line x1="307.56" y1="477.67" x2="264.11" y2="536.26" stroke="hsl(29.8, 89.9%, 61.0%)" stroke-width="4" stroke-linecap="round"/>
<line x1="302.86" y1="474.00" x2="256.81" y2="530.10" stroke="hsl(29.8, 89.9%, 61.0%)" stroke-width="4" stroke-linecap="round"/>
<line x1="298.34" y1="470.10" x2="236.75" y2="538.05" stroke="hsl(34.6, 85.7%, 62.7%)" stroke-width="4" stroke-linecap="round"/>
<line x1="294.02" y1="465.98" x2="215.64" y2="544.36" stroke="hsl(39.4, 84.2%, 63.3%)" stroke-width="4" stroke-linecap="round"/>
<line x1="289.90" y1="461.66" x2="193.59" y2="548.95" stroke="hsl(44.2, 85.7%, 62.7%)" stroke-width="4" stroke-linecap="round"/>
<line x1="286.00" y1="457.14" x2="170.74" y2="551.74" stroke="hsl(48.9, 89.9%, 61.0%)" stroke-width="4" stroke-linecap="round"/>
<line x1="282.33" y1="452.44" x2="163.72" y2="540.40" stroke="hsl(48.9, 89.9%, 61.0%)" stroke-width="4" stroke-linecap="round"/>
<line x1="278.89" y1="447.56" x2="157.31" y2="528.80" stroke="hsl(48.9, 89.9%, 61.0%)" stroke-width="4" stroke-linecap="round"/>
<line x1="275.70" y1="442.51" x2="151.52" y2="516.95" stroke="hsl(48.9, 89.9%, 61.0%)" stroke-width="4" stroke-linecap="round"/>
<line x1="272.76" y1="437.32" x2="146.35" y2="504.89" stroke="hsl(48.9, 89.9%, 61.0%)" stroke-width="4" stroke-linecap="round"/>
<line x1="270.07" y1="431.99" x2="149.64" y2="488.95" stroke="hsl(48.9, 89.9%, 61.0%)" stroke-width="4" stroke-linecap="round"/>
<line x1="267.66" y1="426.53" x2="153.91" y2="473.65" stroke="hsl(48.9, 89.9%, 61.0%)" stroke-width="4" stroke-linecap="round"/>
<line x1="265.51" y1="420.97" x2="159.10" y2="459.04" stroke="hsl(48.9, 89.9%, 61.0%)" stroke-width="4" stroke-linecap="round"/>
<line x1="263.64" y1="415.30" x2="165.16" y2="445.17" stroke="hsl(48.9, 89.9%, 61.0%)" stroke-width="4" stroke-linecap="round"/>
<line x1="262.04" y1="409.55" x2="161.87" y2="434.64" stroke="hsl(48.9, 89.9%, 61.0%)" stroke-width="4" stroke-linecap="round"/>
<line x1="260.74" y1="403.72" x2="159.10" y2="423.94" stroke="hsl(48.9, 89.9%, 61.0%)" stroke-width="4" stroke-linecap="round"/>
<line x1="259.72" y1="397.84" x2="156.85" y2="413.10" stroke="hsl(48.9, 89.9%, 61.0%)" stroke-width="4" stroke-linecap="round"/>
<line x1="258.99" y1="391.92" x2="155.14" y2="402.15" stroke="hsl(48.9, 89.9%, 61.0%)" stroke-width="4" stroke-linecap="round"/>
<line x1="258.55" y1="385.97" x2="157.57" y2="390.93" stroke="hsl(67.3, 63.1%, 64.8%)" stroke-width="4" stroke-linecap="round"/>
<line x1="258.40" y1="380.00" x2="160.55" y2="380.00" stroke="hsl(85.7, 48.8%, 64.1%)" stroke-width="4" stroke-linecap="round"/>
<line x1="258.55" y1="374.03" x2="164.06" y2="369.39" stroke="hsl(104.1, 42.5%, 58.9%)" stroke-width="4" stroke-linecap="round"/>
<line x1="258.99" y1="368.08" x2="168.07" y2="359.13" stroke="hsl(122.4, 39.4%, 49.2%)" stroke-width="4" stroke-linecap="round"/>
<line x1="259.72" y1="362.16" x2="160.43" y2="347.43" stroke="hsl(122.4, 39.4%, 49.2%)" stroke-width="4" stroke-linecap="round"/>
<line x1="260.74" y1="356.28" x2="153.44" y2="334.93" stroke="hsl(122.4, 39.4%, 49.2%)" stroke-width="4" stroke-linecap="round"/>
<line x1="262.04" y1="350.45" x2="147.17" y2="321.68" stroke="hsl(122.4, 39.4%, 49.2%)" stroke-width="4" stroke-linecap="round"/>
<line x1="263.64" y1="344.70" x2="141.67" y2="307.70" stroke="hsl(122.4, 39.4%, 49.2%)" stroke-width="4" stroke-linecap="round"/>
<line x1="265.51" y1="339.03" x2="152.64" y2="298.65" stroke="hsl(122.4, 39.4%, 49.2%)" stroke-width="4" stroke-linecap="round"/>
<line x1="267.66" y1="333.47" x2="163.91" y2="290.49" stroke="hsl(122.4, 39.4%, 49.2%)" stroke-width="4" stroke-linecap="round"/>
<line x1="270.07" y1="328.01" x2="175.42" y2="283.24" stroke="hsl(122.4, 39.4%, 49.2%)" stroke-width="4" stroke-linecap="round"/>
<line x1="272.76" y1="322.68" x2="187.10" y2="276.89" stroke="hsl(122.4, 39.4%, 49.2%)" stroke-width="4" stroke-linecap="round"/>
<line x1="275.70" y1="317.49" x2="199.20" y2="271.63" stroke="hsl(122.4, 39.4%, 49.2%)" stroke-width="4" stroke-linecap="round"/>
<line x1="278.89" y1="312.44" x2="211.34" y2="267.31" stroke="hsl(122.4, 39.4%, 49.2%)" stroke-width="4" stroke-linecap="round"/>
<line x1="282.33" y1="307.56" x2="223.45" y2="263.90" stroke="hsl(122.4, 39.4%, 49.2%)" stroke-width="4" stroke-linecap="round"/>
<line x1="286.00" y1="302.86" x2="235.48" y2="261.39" stroke="hsl(122.4, 39.4%, 49.2%)" stroke-width="4" stroke-linecap="round"/>
<line x1="289.90" y1="298.34" x2="242.01" y2="254.93" stroke="hsl(138.8, 38.6%, 56.8%)" stroke-width="4" stroke-linecap="round"/>
<line x1="294.02" y1="294.02" x2="248.82" y2="248.82" stroke="hsl(155.2, 41.4%, 60.4%)" stroke-width="4" stroke-linecap="round"/>
<line x1="298.34" y1="289.90" x2="255.90" y2="243.08" stroke="hsl(171.6, 50.0%, 59.9%)" stroke-width="4" stroke-linecap="round"/>
<line x1="302.86" y1="286.00" x2="263.23" y2="237.71" stroke="hsl(187.9, 66.5%, 55.5%)" stroke-width="4" stroke-linecap="round"/>
<line x1="307.56" y1="282.33" x2="271.42" y2="233.60" stroke="hsl(187.9, 66.5%, 55.5%)" stroke-width="4" stroke-linecap="round"/>
<line x1="312.44" y1="278.89" x2="279.74" y2="229.95" stroke="hsl(187.9, 66.5%, 55.5%)" stroke-width="4" stroke-linecap="round"/>
<line x1="317.49" y1="275.70" x2="288.15" y2="226.76" stroke="hsl(187.9, 66.5%, 55.5%)" stroke-width="4" stroke-linecap="round"/>
<line x1="322.68" y1="272.76" x2="296.63" y2="224.03" stroke="hsl(187.9, 66.5%, 55.5%)" stroke-width="4" stroke-linecap="round"/>
<line x1="328.01" y1="270.07" x2="300.84" y2="212.62" stroke="hsl(187.9, 66.5%, 55.5%)" stroke-width="4" stroke-linecap="round"/>
<line x1="333.47" y1="267.66" x2="305.97" y2="201.27" stroke="hsl(187.9, 66.5%, 55.5%)" stroke-width="4" stroke-linecap="round"/>
<line x1="339.03" y1="265.51" x2="312.03" y2="190.03" stroke="hsl(187.9, 66.5%, 55.5%)" stroke-width="4" stroke-linecap="round"/>
<line x1="344.70" y1="263.64" x2="319.02" y2="178.98" stroke="hsl(187.9, 66.5%, 55.5%)" stroke-width="4" stroke-linecap="round"/>
<line x1="350.45" y1="262.04" x2="328.96" y2="176.23" stroke="hsl(187.9, 66.5%, 55.5%)" stroke-width="4" stroke-linecap="round"/>
<line x1="356.28" y1="260.74" x2="339.02" y2="173.97" stroke="hsl(187.9, 66.5%, 55.5%)" stroke-width="4" stroke-linecap="round"/>
<line x1="362.16" y1="259.72" x2="349.18" y2="172.21" stroke="hsl(187.9, 66.5%, 55.5%)" stroke-width="4" stroke-linecap="round"/>
<line x1="368.08" y1="258.99" x2="359.41" y2="170.95" stroke="hsl(187.9, 66.5%, 55.5%)" stroke-width="4" stroke-linecap="round"/>
<line x1="374.03" y1="258.55" x2="368.91" y2="154.32" stroke="hsl(196.7, 66.4%, 60.6%)" stroke-width="4" stroke-linecap="round"/>
<text x="502.2" y="85.1" text-anchor="middle" dominant-baseline="middle" font-family="sans-serif" font-size="17" fill="#777">数理・情報</text>
<text x="674.9" y="257.8" text-anchor="middle" dominant-baseline="middle" font-family="sans-serif" font-size="17" fill="#777">工学・ものづくり</text>
<text x="674.9" y="502.2" text-anchor="middle" dominant-baseline="middle" font-family="sans-serif" font-size="17" fill="#777">化学・生命</text>
<text x="502.2" y="674.9" text-anchor="middle" dominant-baseline="middle" font-family="sans-serif" font-size="17" fill="#777">医療・健康</text>
<text x="257.8" y="674.9" text-anchor="middle" dominant-baseline="middle" font-family="sans-serif" font-size="17" fill="#777">教育・こころ・からだ</text>
<text x="85.1" y="502.2" text-anchor="middle" dominant-baseline="middle" font-family="sans-serif" font-size="17" fill="#777">経済・ビジネス・データ</text>
<text x="85.1" y="257.8" text-anchor="middle" dominant-baseline="middle" font-family="sans-serif" font-size="17" fill="#777">法・政治・社会</text>
<text x="257.8" y="85.1" text-anchor="middle" dominant-baseline="middle" font-family="sans-serif" font-size="17" fill="#777">言語・人文・地球</text>
<text x="380" y="744" text-anchor="middle" font-family="sans-serif" font-size="20" fill="#444">新8×4 / 128本 / ペルソナC</text>
</svg>