<svg xmlns="http://www.w3.org/2000/svg" width="820" height="820" viewBox="0 0 820 820">
<rect width="820" height="820" fill="white"/>
<line x1="410.00" y1="278.80" x2="410.00" y2="127.99" stroke="hsl(237.6, 81.2%, 68.1%)" stroke-width="3.6" stroke-linecap="round"/>
<line x1="415.72" y1="278.92" x2="422.50" y2="123.72" stroke="hsl(230.3, 84.1%, 66.4%)" stroke-width="3.6" stroke-linecap="round"/>
<line x1="421.43" y1="279.30" x2="435.37" y2="120.01" stroke="hsl(223.0, 91.5%, 62.9%)" stroke-width="3.6" stroke-linecap="round"/>
<line x1="427.13" y1="279.92" x2="448.00" y2="121.39" stroke="hsl(223.0, 91.5%, 62.9%)" stroke-width="3.6" stroke-linecap="round"/>
<line x1="432.78" y1="280.79" x2="460.55" y2="123.32" stroke="hsl(223.0, 91.5%, 62.9%)" stroke-width="3.6" stroke-linecap="round"/>
<line x1="438.40" y1="281.91" x2="473.01" y2="125.80" stroke="hsl(223.0, 91.5%, 62.9%)" stroke-width="3.6" stroke-linecap="round"/>
<line x1="443.96" y1="283.27" x2="485.34" y2="128.82" stroke="hsl(223.0, 91.5%, 62.9%)" stroke-width="3.6" stroke-linecap="round"/>
<line x1="449.45" y1="284.87" x2="497.31" y2="133.10" stroke="hsl(223.0, 91.5%, 62.9%)" stroke-width="3.6" stroke-linecap="round"/>
<line x1="454.87" y1="286.71" x2="509.04" y2="137.88" stroke="hsl(223.0, 91.5%, 62.9%)" stroke-width="3.6" stroke-linecap="round"/>
<line x1="460.21" y1="288.79" x2="520.53" y2="143.16" stroke="hsl(223.0, 91.5%, 62.9%)" stroke-width="3.6" stroke-linecap="round"/>
<line x1="465.45" y1="291.09" x2="531.74" y2="148.92" stroke="hsl(223.0, 91.5%, 62.9%)" stroke-width="3.6" stroke-linecap="round"/>
<line x1="470.58" y1="293.62" x2="542.14" y2="156.16" stroke="hsl(223.0, 91.5%, 62.9%)" stroke-width="3.6" stroke-linecap="round"/>
<line x1="475.60" y1="296.38" x2="552.14" y2="163.80" stroke="hsl(223.0, 91.5%, 62.9%)" stroke-width="3.6" stroke-linecap="round"/>
<line x1="480.49" y1="299.35" x2="561.73" y2="171.83" stroke="hsl(223.0, 91.5%, 62.9%)" stroke-width="3.6" stroke-linecap="round"/>
<line x1="485.25" y1="302.53" x2="570.89" y2="180.23" stroke="hsl(223.0, 91.5%, 62.9%)" stroke-width="3.6" stroke-linecap="round"/>
<line x1="489.87" y1="305.91" x2="581.91" y2="185.96" stroke="hsl(214.2, 77.8%, 64.3%)" stroke-width="3.6" stroke-linecap="round"/>
<line x1="494.33" y1="309.49" x2="592.73" y2="192.23" stroke="hsl(205.5, 69.8%, 63.5%)" stroke-width="3.6" stroke-linecap="round"/>
<line x1="498.64" y1="313.27" x2="603.34" y2="199.01" stroke="hsl(196.7, 66.4%, 60.6%)" stroke-width="3.6" stroke-linecap="round"/>
<line x1="502.77" y1="317.23" x2="613.70" y2="206.30" stroke="hsl(187.9, 66.5%, 55.5%)" stroke-width="3.6" stroke-linecap="round"/>
<line x1="506.73" y1="321.36" x2="613.45" y2="223.57" stroke="hsl(187.9, 66.5%, 55.5%)" stroke-width="3.6" stroke-linecap="round"/>
<line x1="510.51" y1="325.67" x2="612.11" y2="240.41" stroke="hsl(187.9, 66.5%, 55.5%)" stroke-width="3.6" stroke-linecap="round"/>
<line x1="514.09" y1="330.13" x2="609.70" y2="256.76" stroke="hsl(187.9, 66.5%, 55.5%)" stroke-width="3.6" stroke-linecap="round"/>
<line x1="517.47" y1="334.75" x2="606.27" y2="272.57" stroke="hsl(187.9, 66.5%, 55.5%)" stroke-width="3.6" stroke-linecap="round"/>
<line x1="520.65" y1="339.51" x2="611.44" y2="281.67" stroke="hsl(187.9, 66.5%, 55.5%)" stroke-width="3.6" stroke-linecap="round"/>
<line x1="523.62" y1="344.40" x2="616.19" y2="290.96" stroke="hsl(187.9, 66.5%, 55.5%)" stroke-width="3.6" stroke-linecap="round"/>
<line x1="526.38" y1="349.42" x2="620.51" y2="300.41" stroke="hsl(187.9, 66.5%, 55.5%)" stroke-width="3.6" stroke-linecap="round"/>
<line x1="528.91" y1="354.55" x2="624.41" y2="310.02" stroke="hsl(187.9, 66.5%, 55.5%)" stroke-width="3.6" stroke-linecap="round"/>
<line x1="531.21" y1="359.79" x2="619.47" y2="323.24" stroke="hsl(187.9, 66.5%, 55.5%)" stroke-width="3.6" stroke-linecap="round"/>
<line x1="533.29" y1="365.13" x2="613.80" y2="335.82" stroke="hsl(187.9, 66.5%, 55.5%)" stroke-width="3.6" stroke-linecap="round"/>
<line x1="535.13" y1="370.55" x2="607.45" y2="347.74" stroke="hsl(187.9, 66.5%, 55.5%)" stroke-width="3.6" stroke-linecap="round"/>
<line x1="536.73" y1="376.04" x2="600.47" y2="358.96" stroke="hsl(187.9, 66.5%, 55.5%)" stroke-width="3.6" stroke-linecap="round"/>
<line x1="538.09" y1="381.60" x2="610.65" y2="365.52" stroke="hsl(171.6, 50.0%, 59.9%)" stroke-width="3.6" stroke-linecap="round"/>
<line x1="539.21" y1="387.22" x2="620.60" y2="372.87" stroke="hsl(155.2, 41.4%, 60.4%)" stroke-width="3.6" stroke-linecap="round"/>
<line x1="540.08" y1="392.87" x2="630.28" y2="381.00" stroke="hsl(138.8, 38.6%, 56.8%)" stroke-width="3.6" stroke-linecap="round"/>
<line x1="540.70" y1="398.57" x2="639.63" y2="389.91" stroke="hsl(122.4, 39.4%, 49.2%)" stroke-width="3.6" stroke-linecap="round"/>
<line x1="541.08" y1="404.28" x2="642.18" y2="399.86" stroke="hsl(122.4, 39.4%, 49.2%)" stroke-width="3.6" stroke-linecap="round"/>
<line x1="541.20" y1="410.00" x2="644.30" y2="410.00" stroke="hsl(122.4, 39.4%, 49.2%)" stroke-width="3.6" stroke-linecap="round"/>
<line x1="541.08" y1="415.72" x2="645.97" y2="420.30" stroke="hsl(122.4, 39.4%, 49.2%)" stroke-width="3.6" stroke-linecap="round"/>
<line x1="540.70" y1="421.43" x2="647.18" y2="430.75" stroke="hsl(122.4, 39.4%, 49.2%)" stroke-width="3.6" stroke-linecap="round"/>
<line x1="540.08" y1="427.13" x2="653.93" y2="442.11" stroke="hsl(122.4, 39.4%, 49.2%)" stroke-width="3.6" stroke-linecap="round"/>
<line x1="539.21" y1="432.78" x2="660.13" y2="454.10" stroke="hsl(122.4, 39.4%, 49.2%)" stroke-width="3.6" stroke-linecap="round"/>
<line x1="538.09" y1="438.40" x2="665.73" y2="466.69" stroke="hsl(122.4, 39.4%, 49.2%)" stroke-width="3.6" stroke-linecap="round"/>
<line x1="536.73" y1="443.96" x2="670.70" y2="479.85" stroke="hsl(122.4, 39.4%, 49.2%)" stroke-width="3.6" stroke-linecap="round"/>
<line x1="535.13" y1="449.45" x2="659.46" y2="488.65" stroke="hsl(122.4, 39.4%, 49.2%)" stroke-width="3.6" stroke-linecap="round"/>
<line x1="533.29" y1="454.87" x2="647.96" y2="496.61" stroke="hsl(122.4, 39.4%, 49.2%)" stroke-width="3.6" stroke-linecap="round"/>
<line x1="531.21" y1="460.21" x2="636.26" y2="503.72" stroke="hsl(122.4, 39.4%, 49.2%)" stroke-width="3.6" stroke-linecap="round"/>
<line x1="528.91" y1="465.45" x2="624.41" y2="509.98" stroke="hsl(122.4, 39.4%, 49.2%)" stroke-width="3.6" stroke-linecap="round"/>
<line x1="526.38" y1="470.58" x2="608.76" y2="513.47" stroke="hsl(110.7, 42.5%, 53.4%)" stroke-width="3.6" stroke-linecap="round"/>
<line x1="523.62" y1="475.60" x2="593.23" y2="515.79" stroke="hsl(99.0, 48.0%, 54.6%)" stroke-width="3.6" stroke-linecap="round"/>
<line x1="520.65" y1="480.49" x2="577.90" y2="516.97" stroke="hsl(87.3, 57.8%, 53.1%)" stroke-width="3.6" stroke-linecap="round"/>
<line x1="517.47" y1="485.25" x2="562.84" y2="517.02" stroke="hsl(75.7, 74.2%, 48.6%)" stroke-width="3.6" stroke-linecap="round"/>
<line x1="514.09" y1="489.87" x2="565.24" y2="529.12" stroke="hsl(75.7, 74.2%, 48.6%)" stroke-width="3.6" stroke-linecap="round"/>
<line x1="510.51" y1="494.33" x2="566.86" y2="541.62" stroke="hsl(75.7, 74.2%, 48.6%)" stroke-width="3.6" stroke-linecap="round"/>
<line x1="506.73" y1="498.64" x2="567.67" y2="554.47" stroke="hsl(75.7, 74.2%, 48.6%)" stroke-width="3.6" stroke-linecap="round"/>
<line x1="502.77" y1="502.77" x2="567.64" y2="567.64" stroke="hsl(75.7, 74.2%, 48.6%)" stroke-width="3.6" stroke-linecap="round"/>
<line x1="498.64" y1="506.73" x2="560.87" y2="574.65" stroke="hsl(75.7, 74.2%, 48.6%)" stroke-width="3.6" stroke-linecap="round"/>
<line x1="494.33" y1="510.51" x2="553.79" y2="581.36" stroke="hsl(75.7, 74.2%, 48.6%)" stroke-width="3.6" stroke-linecap="round"/>
<line x1="489.87" y1="514.09" x2="546.41" y2="587.77" stroke="hsl(75.7, 74.2%, 48.6%)" stroke-width="3.6" stroke-linecap="round"/>
<line x1="485.25" y1="517.47" x2="538.74" y2="593.86" stroke="hsl(75.7, 74.2%, 48.6%)" stroke-width="3.6" stroke-linecap="round"/>
<line x1="480.49" y1="520.65" x2="528.97" y2="596.75" stroke="hsl(75.7, 74.2%, 48.6%)" stroke-width="3.6" stroke-linecap="round"/>
<line x1="475.60" y1="523.62" x2="519.20" y2="599.13" stroke="hsl(75.7, 74.2%, 48.6%)" stroke-width="3.6" stroke-linecap="round"/>
<line x1="470.58" y1="526.38" x2="509.44" y2="601.03" stroke="hsl(75.7, 74.2%, 48.6%)" stroke-width="3.6" stroke-linecap="round"/>
<line x1="465.45" y1="528.91" x2="499.74" y2="602.44" stroke="hsl(75.7, 74.2%, 48.6%)" stroke-width="3.6" stroke-linecap="round"/>
<line x1="460.21" y1="531.21" x2="489.37" y2="601.62" stroke="hsl(69.0, 72.9%, 54.2%)" stroke-width="3.6" stroke-linecap="round"/>
<line x1="454.87" y1="533.29" x2="479.26" y2="600.28" stroke="hsl(62.3, 74.8%, 58.1%)" stroke-width="3.6" stroke-linecap="round"/>
<line x1="449.45" y1="535.13" x2="469.41" y2="598.42" stroke="hsl(55.6, 80.3%, 60.3%)" stroke-width="3.6" stroke-linecap="round"/>
<line x1="443.96" y1="536.73" x2="459.86" y2="596.08" stroke="hsl(48.9, 89.9%, 61.0%)" stroke-width="3.6" stroke-linecap="round"/>
<line x1="438.40" y1="538.09" x2="449.81" y2="589.57" stroke="hsl(48.9, 89.9%, 61.0%)" stroke-width="3.6" stroke-linecap="round"/>
<line x1="432.78" y1="539.21" x2="440.43" y2="582.56" stroke="hsl(48.9, 89.9%, 61.0%)" stroke-width="3.6" stroke-linecap="round"/>
<line x1="427.13" y1="540.08" x2="431.73" y2="575.09" stroke="hsl(48.9, 89.9%, 61.0%)" stroke-width="3.6" stroke-linecap="round"/>
<line x1="421.43" y1="540.70" x2="423.75" y2="567.20" stroke="hsl(48.9, 89.9%, 61.0%)" stroke-width="3.6" stroke-linecap="round"/>
<line x1="415.72" y1="541.08" x2="416.90" y2="568.03" stroke="hsl(48.9, 89.9%, 61.0%)" stroke-width="3.6" stroke-linecap="round"/>
<line x1="410.00" y1="541.20" x2="410.00" y2="568.56" stroke="hsl(48.9, 89.9%, 61.0%)" stroke-width="3.6" stroke-linecap="round"/>
<line x1="404.28" y1="541.08" x2="403.07" y2="568.79" stroke="hsl(48.9, 89.9%, 61.0%)" stroke-width="3.6" stroke-linecap="round"/>
<line x1="398.57" y1="540.70" x2="396.11" y2="568.71" stroke="hsl(48.9, 89.9%, 61.0%)" stroke-width="3.6" stroke-linecap="round"/>
<line x1="392.87" y1="540.08" x2="389.30" y2="567.21" stroke="hsl(48.9, 89.9%, 61.0%)" stroke-width="3.6" stroke-linecap="round"/>
<line x1="387.22" y1="539.21" x2="382.60" y2="565.41" stroke="hsl(48.9, 89.9%, 61.0%)" stroke-width="3.6" stroke-linecap="round"/>
<line x1="381.60" y1="538.09" x2="376.01" y2="563.32" stroke="hsl(48.9, 89.9%, 61.0%)" stroke-width="3.6" stroke-linecap="round"/>
<line x1="376.04" y1="536.73" x2="369.55" y2="560.96" stroke="hsl(48.9, 89.9%, 61.0%)" stroke-width="3.6" stroke-linecap="round"/>
<line x1="370.55" y1="535.13" x2="361.18" y2="564.83" stroke="hsl(44.2, 85.7%, 62.7%)" stroke-width="3.6" stroke-linecap="round"/>
<line x1="365.13" y1="533.29" x2="352.40" y2="568.25" stroke="hsl(39.4, 84.2%, 63.3%)" stroke-width="3.6" stroke-linecap="round"/>
<line x1="359.79" y1="531.21" x2="343.23" y2="571.19" stroke="hsl(34.6, 85.7%, 62.7%)" stroke-width="3.6" stroke-linecap="round"/>
<line x1="354.55" y1="528.91" x2="333.71" y2="573.61" stroke="hsl(29.8, 89.9%, 61.0%)" stroke-width="3.6" stroke-linecap="round"/>
<line x1="349.42" y1="526.38" x2="329.62" y2="564.42" stroke="hsl(29.8, 89.9%, 61.0%)" stroke-width="3.6" stroke-linecap="round"/>
<line x1="344.40" y1="523.62" x2="326.17" y2="555.19" stroke="hsl(29.8, 89.9%, 61.0%)" stroke-width="3.6" stroke-linecap="round"/>
<line x1="339.51" y1="520.65" x2="323.38" y2="545.97" stroke="hsl(29.8, 89.9%, 61.0%)" stroke-width="3.6" stroke-linecap="round"/>
<line x1="334.75" y1="517.47" x2="321.22" y2="536.78" stroke="hsl(29.8, 89.9%, 61.0%)" stroke-width="3.6" stroke-linecap="round"/>
<line x1="330.13" y1="514.09" x2="299.18" y2="554.42" stroke="hsl(29.8, 89.9%, 61.0%)" stroke-width="3.6" stroke-linecap="round"/>
<line x1="325.67" y1="510.51" x2="275.46" y2="570.34" stroke="hsl(29.8, 89.9%, 61.0%)" stroke-width="3.6" stroke-linecap="round"/>
<line x1="321.36" y1="506.73" x2="250.18" y2="584.42" stroke="hsl(29.8, 89.9%, 61.0%)" stroke-width="3.6" stroke-linecap="round"/>
<line x1="317.23" y1="502.77" x2="223.44" y2="596.56" stroke="hsl(29.8, 89.9%, 61.0%)" stroke-width="3.6" stroke-linecap="round"/>
<line x1="313.27" y1="498.64" x2="225.53" y2="579.03" stroke="hsl(29.8, 89.9%, 61.0%)" stroke-width="3.6" stroke-linecap="round"/>
<line x1="309.49" y1="494.33" x2="228.78" y2="562.06" stroke="hsl(29.8, 89.9%, 61.0%)" stroke-width="3.6" stroke-linecap="round"/>
<line x1="305.91" y1="489.87" x2="233.13" y2="545.72" stroke="hsl(29.8, 89.9%, 61.0%)" stroke-width="3.6" stroke-linecap="round"/>
<line x1="302.53" y1="485.25" x2="238.55" y2="530.05" stroke="hsl(29.8, 89.9%, 61.0%)" stroke-width="3.6" stroke-linecap="round"/>
<line x1="299.35" y1="480.49" x2="233.47" y2="522.46" stroke="hsl(22.7, 81.9%, 64.0%)" stroke-width="3.6" stroke-linecap="round"/>
<line x1="296.38" y1="475.60" x2="228.74" y2="514.65" stroke="hsl(15.5, 78.3%, 65.3%)" stroke-width="3.6" stroke-linecap="round"/>
<line x1="293.62" y1="470.58" x2="224.34" y2="506.65" stroke="hsl(8.3, 78.8%, 64.8%)" stroke-width="3.6" stroke-linecap="round"/>
<line x1="291.09" y1="465.45" x2="220.31" y2="498.46" stroke="hsl(1.1, 83.2%, 62.5%)" stroke-width="3.6" stroke-linecap="round"/>
<line x1="288.79" y1="460.21" x2="221.18" y2="488.21" stroke="hsl(1.1, 83.2%, 62.5%)" stroke-width="3.6" stroke-linecap="round"/>
<line x1="286.71" y1="454.87" x2="222.57" y2="478.22" stroke="hsl(1.1, 83.2%, 62.5%)" stroke-width="3.6" stroke-linecap="round"/>
<line x1="284.87" y1="449.45" x2="224.47" y2="468.50" stroke="hsl(1.1, 83.2%, 62.5%)" stroke-width="3.6" stroke-linecap="round"/>
<line x1="283.27" y1="443.96" x2="226.85" y2="459.08" stroke="hsl(1.1, 83.2%, 62.5%)" stroke-width="3.6" stroke-linecap="round"/>
<line x1="281.91" y1="438.40" x2="223.03" y2="451.45" stroke="hsl(1.1, 83.2%, 62.5%)" stroke-width="3.6" stroke-linecap="round"/>
<line x1="280.79" y1="432.78" x2="219.54" y2="443.58" stroke="hsl(1.1, 83.2%, 62.5%)" stroke-width="3.6" stroke-linecap="round"/>
<line x1="279.92" y1="427.13" x2="216.38" y2="435.49" stroke="hsl(1.1, 83.2%, 62.5%)" stroke-width="3.6" stroke-linecap="round"/>
<line x1="279.30" y1="421.43" x2="213.56" y2="427.19" stroke="hsl(1.1, 83.2%, 62.5%)" stroke-width="3.6" stroke-linecap="round"/>
<line x1="278.92" y1="415.72" x2="206.19" y2="418.90" stroke="hsl(1.1, 83.2%, 62.5%)" stroke-width="3.6" stroke-linecap="round"/>
<line x1="278.80" y1="410.00" x2="199.18" y2="410.00" stroke="hsl(1.1, 83.2%, 62.5%)" stroke-width="3.6" stroke-linecap="round"/>
<line x1="278.92" y1="404.28" x2="192.57" y2="400.51" stroke="hsl(1.1, 83.2%, 62.5%)" stroke-width="3.6" stroke-linecap="round"/>
<line x1="279.30" y1="398.57" x2="186.40" y2="390.44" stroke="hsl(1.1, 83.2%, 62.5%)" stroke-width="3.6" stroke-linecap="round"/>
<line x1="279.92" y1="392.87" x2="193.10" y2="381.44" stroke="hsl(353.1, 73.2%, 65.2%)" stroke-width="3.6" stroke-linecap="round"/>
<line x1="280.79" y1="387.22" x2="200.15" y2="373.00" stroke="hsl(345.1, 67.7%, 66.0%)" stroke-width="3.6" stroke-linecap="round"/>
<line x1="281.91" y1="381.60" x2="207.50" y2="365.11" stroke="hsl(337.1, 66.3%, 64.7%)" stroke-width="3.6" stroke-linecap="round"/>
<line x1="283.27" y1="376.04" x2="215.14" y2="357.79" stroke="hsl(329.1, 68.4%, 61.6%)" stroke-width="3.6" stroke-linecap="round"/>
<line x1="284.87" y1="370.55" x2="211.47" y2="347.40" stroke="hsl(329.1, 68.4%, 61.6%)" stroke-width="3.6" stroke-linecap="round"/>
<line x1="286.71" y1="365.13" x2="208.34" y2="336.60" stroke="hsl(329.1, 68.4%, 61.6%)" stroke-width="3.6" stroke-linecap="round"/>
<line x1="288.79" y1="359.79" x2="205.78" y2="325.41" stroke="hsl(329.1, 68.4%, 61.6%)" stroke-width="3.6" stroke-linecap="round"/>
<line x1="291.09" y1="354.55" x2="203.83" y2="313.86" stroke="hsl(329.1, 68.4%, 61.6%)" stroke-width="3.6" stroke-linecap="round"/>
<line x1="293.62" y1="349.42" x2="199.82" y2="300.59" stroke="hsl(329.1, 68.4%, 61.6%)" stroke-width="3.6" stroke-linecap="round"/>
<line x1="296.38" y1="344.40" x2="196.60" y2="286.79" stroke="hsl(329.1, 68.4%, 61.6%)" stroke-width="3.6" stroke-linecap="round"/>
<line x1="299.35" y1="339.51" x2="194.19" y2="272.51" stroke="hsl(329.1, 68.4%, 61.6%)" stroke-width="3.6" stroke-linecap="round"/>
<line x1="302.53" y1="334.75" x2="192.64" y2="257.80" stroke="hsl(329.1, 68.4%, 61.6%)" stroke-width="3.6" stroke-linecap="round"/>
<line x1="305.91" y1="330.13" x2="205.79" y2="253.31" stroke="hsl(329.1, 68.4%, 61.6%)" stroke-width="3.6" stroke-linecap="round"/>
<line x1="309.49" y1="325.67" x2="218.91" y2="249.66" stroke="hsl(329.1, 68.4%, 61.6%)" stroke-width="3.6" stroke-linecap="round"/>
<line x1="313.27" y1="321.36" x2="231.95" y2="246.85" stroke="hsl(329.1, 68.4%, 61.6%)" stroke-width="3.6" stroke-linecap="round"/>
<line x1="317.23" y1="317.23" x2="244.86" y2="244.86" stroke="hsl(329.1, 68.4%, 61.6%)" stroke-width="3.6" stroke-linecap="round"/>
<line x1="321.36" y1="313.27" x2="244.04" y2="228.88" stroke="hsl(309.9, 59.3%, 69.7%)" stroke-width="3.6" stroke-linecap="round"/>
<line x1="325.67" y1="309.49" x2="244.30" y2="212.53" stroke="hsl(290.6, 58.3%, 73.2%)" stroke-width="3.6" stroke-linecap="round"/>
<line x1="330.13" y1="305.91" x2="245.70" y2="195.88" stroke="hsl(271.4, 67.4%, 72.0%)" stroke-width="3.6" stroke-linecap="round"/>
<line x1="334.75" y1="302.53" x2="248.24" y2="178.99" stroke="hsl(252.2, 88.4%, 66.1%)" stroke-width="3.6" stroke-linecap="round"/>
<line x1="339.51" y1="299.35" x2="264.17" y2="181.10" stroke="hsl(252.2, 88.4%, 66.1%)" stroke-width="3.6" stroke-linecap="round"/>
<line x1="344.40" y1="296.38" x2="279.60" y2="184.14" stroke="hsl(252.2, 88.4%, 66.1%)" stroke-width="3.6" stroke-linecap="round"/>
<line x1="349.42" y1="293.62" x2="294.47" y2="188.07" stroke="hsl(252.2, 88.4%, 66.1%)" stroke-width="3.6" stroke-linecap="round"/>
<line x1="354.55" y1="291.09" x2="308.74" y2="192.85" stroke="hsl(252.2, 88.4%, 66.1%)" stroke-width="3.6" stroke-linecap="round"/>
<line x1="359.79" y1="288.79" x2="318.16" y2="188.29" stroke="hsl(252.2, 88.4%, 66.1%)" stroke-width="3.6" stroke-linecap="round"/>
<line x1="365.13" y1="286.71" x2="327.79" y2="184.14" stroke="hsl(252.2, 88.4%, 66.1%)" stroke-width="3.6" stroke-linecap="round"/>
<line x1="370.55" y1="284.87" x2="337.61" y2="180.41" stroke="hsl(252.2, 88.4%, 66.1%)" stroke-width="3.6" stroke-linecap="round"/>
<line x1="376.04" y1="283.27" x2="347.60" y2="177.10" stroke="hsl(252.2, 88.4%, 66.1%)" stroke-width="3.6" stroke-linecap="round"/>
<line x1="381.60" y1="281.91" x2="356.09" y2="166.84" stroke="hsl(252.2, 88.4%, 66.1%)" stroke-width="3.6" stroke-linecap="round"/>
<line x1="387.22" y1="280.79" x2="365.37" y2="156.89" stroke="hsl(252.2, 88.4%, 66.1%)" stroke-width="3.6" stroke-linecap="round"/>
<line x1="392.87" y1="279.92" x2="375.41" y2="147.30" stroke="hsl(252.2, 88.4%, 66.1%)" stroke-width="3.6" stroke-linecap="round"/>
<line x1="398.57" y1="279.30" x2="386.21" y2="138.12" stroke="hsl(252.2, 88.4%, 66.1%)" stroke-width="3.6" stroke-linecap="round"/>
<line x1="404.28" y1="278.92" x2="397.90" y2="132.80" stroke="hsl(244.9, 82.7%, 68.0%)" stroke-width="3.6" stroke-linecap="round"/>
<text x="525.0" y="94.1" text-anchor="middle" dominant-baseline="middle" font-family="sans-serif" font-size="15.5" fill="#777">数理・情報</text>
<text x="701.2" y="241.9" text-anchor="middle" dominant-baseline="middle" font-family="sans-serif" font-size="15.5" fill="#777">物理・化学</text>
<text x="741.1" y="468.4" text-anchor="middle" dominant-baseline="middle" font-family="sans-serif" font-size="15.5" fill="#777">機械・材料</text>
<text x="626.1" y="667.5" text-anchor="middle" dominant-baseline="middle" font-family="sans-serif" font-size="15.5" fill="#777">建設・環境</text>
<text x="410.0" y="746.2" text-anchor="middle" dominant-baseline="middle" font-family="sans-serif" font-size="15.5" fill="#777">生命・医療</text>
<text x="193.9" y="667.5" text-anchor="middle" dominant-baseline="middle" font-family="sans-serif" font-size="15.5" fill="#777">健康・こころ</text>
<text x="78.9" y="468.4" text-anchor="middle" dominant-baseline="middle" font-family="sans-serif" font-size="15.5" fill="#777">教育・人文</text>
<text x="118.8" y="241.9" text-anchor="middle" dominant-baseline="middle" font-family="sans-serif" font-size="15.5" fill="#777">法・政治・社会</text>
<text x="295.0" y="94.1" text-anchor="middle" dominant-baseline="middle" font-family="sans-serif" font-size="15.5" fill="#777">経済・経営</text>
<text x="410" y="806" text-anchor="middle" font-family="sans-serif" font-size="19" fill="#444">9カテゴリ×4 (36学部) / 144本 / ペルソナC</text>
</svg>