<svg xmlns="http://www.w3.org/2000/svg" width="820" height="820" viewBox="0 0 820 820">
<rect width="820" height="820" fill="white"/>
<line x1="410.00" y1="278.80" x2="410.00" y2="148.44" stroke="hsl(237.6, 81.2%, 68.1%)" stroke-width="3.6" stroke-linecap="round"/>
<line x1="415.72" y1="278.92" x2="421.29" y2="151.33" stroke="hsl(230.3, 84.1%, 66.4%)" stroke-width="3.6" stroke-linecap="round"/>
<line x1="421.43" y1="279.30" x2="432.33" y2="154.71" stroke="hsl(223.0, 91.5%, 62.9%)" stroke-width="3.6" stroke-linecap="round"/>
<line x1="427.13" y1="279.92" x2="443.45" y2="155.93" stroke="hsl(223.0, 91.5%, 62.9%)" stroke-width="3.6" stroke-linecap="round"/>
<line x1="432.78" y1="280.79" x2="454.50" y2="157.63" stroke="hsl(223.0, 91.5%, 62.9%)" stroke-width="3.6" stroke-linecap="round"/>
<line x1="438.40" y1="281.91" x2="465.47" y2="159.81" stroke="hsl(223.0, 91.5%, 62.9%)" stroke-width="3.6" stroke-linecap="round"/>
<line x1="443.96" y1="283.27" x2="476.33" y2="162.47" stroke="hsl(223.0, 91.5%, 62.9%)" stroke-width="3.6" stroke-linecap="round"/>
<line x1="449.45" y1="284.87" x2="486.72" y2="166.68" stroke="hsl(223.0, 91.5%, 62.9%)" stroke-width="3.6" stroke-linecap="round"/>
<line x1="454.87" y1="286.71" x2="496.87" y2="171.33" stroke="hsl(223.0, 91.5%, 62.9%)" stroke-width="3.6" stroke-linecap="round"/>
<line x1="460.21" y1="288.79" x2="506.76" y2="176.39" stroke="hsl(223.0, 91.5%, 62.9%)" stroke-width="3.6" stroke-linecap="round"/>
<line x1="465.45" y1="291.09" x2="516.38" y2="181.87" stroke="hsl(223.0, 91.5%, 62.9%)" stroke-width="3.6" stroke-linecap="round"/>
<line x1="470.58" y1="293.62" x2="526.75" y2="185.72" stroke="hsl(223.0, 91.5%, 62.9%)" stroke-width="3.6" stroke-linecap="round"/>
<line x1="475.60" y1="296.38" x2="536.99" y2="190.04" stroke="hsl(223.0, 91.5%, 62.9%)" stroke-width="3.6" stroke-linecap="round"/>
<line x1="480.49" y1="299.35" x2="547.08" y2="194.83" stroke="hsl(223.0, 91.5%, 62.9%)" stroke-width="3.6" stroke-linecap="round"/>
<line x1="485.25" y1="302.53" x2="556.99" y2="200.08" stroke="hsl(223.0, 91.5%, 62.9%)" stroke-width="3.6" stroke-linecap="round"/>
<line x1="489.87" y1="305.91" x2="567.62" y2="204.59" stroke="hsl(214.2, 77.8%, 64.3%)" stroke-width="3.6" stroke-linecap="round"/>
<line x1="494.33" y1="309.49" x2="578.13" y2="209.63" stroke="hsl(205.5, 69.8%, 63.5%)" stroke-width="3.6" stroke-linecap="round"/>
<line x1="498.64" y1="313.27" x2="588.50" y2="215.20" stroke="hsl(196.7, 66.4%, 60.6%)" stroke-width="3.6" stroke-linecap="round"/>
<line x1="502.77" y1="317.23" x2="598.70" y2="221.30" stroke="hsl(187.9, 66.5%, 55.5%)" stroke-width="3.6" stroke-linecap="round"/>
<line x1="506.73" y1="321.36" x2="609.27" y2="227.41" stroke="hsl(187.9, 66.5%, 55.5%)" stroke-width="3.6" stroke-linecap="round"/>
<line x1="510.51" y1="325.67" x2="619.65" y2="234.08" stroke="hsl(187.9, 66.5%, 55.5%)" stroke-width="3.6" stroke-linecap="round"/>
<line x1="514.09" y1="330.13" x2="629.83" y2="241.32" stroke="hsl(187.9, 66.5%, 55.5%)" stroke-width="3.6" stroke-linecap="round"/>
<line x1="517.47" y1="334.75" x2="639.77" y2="249.11" stroke="hsl(187.9, 66.5%, 55.5%)" stroke-width="3.6" stroke-linecap="round"/>
<line x1="520.65" y1="339.51" x2="648.48" y2="258.07" stroke="hsl(187.9, 66.5%, 55.5%)" stroke-width="3.6" stroke-linecap="round"/>
<line x1="523.62" y1="344.40" x2="656.85" y2="267.48" stroke="hsl(187.9, 66.5%, 55.5%)" stroke-width="3.6" stroke-linecap="round"/>
<line x1="526.38" y1="349.42" x2="664.85" y2="277.33" stroke="hsl(187.9, 66.5%, 55.5%)" stroke-width="3.6" stroke-linecap="round"/>
<line x1="528.91" y1="354.55" x2="672.45" y2="287.62" stroke="hsl(187.9, 66.5%, 55.5%)" stroke-width="3.6" stroke-linecap="round"/>
<line x1="531.21" y1="359.79" x2="671.94" y2="301.50" stroke="hsl(187.9, 66.5%, 55.5%)" stroke-width="3.6" stroke-linecap="round"/>
<line x1="533.29" y1="365.13" x2="670.73" y2="315.10" stroke="hsl(187.9, 66.5%, 55.5%)" stroke-width="3.6" stroke-linecap="round"/>
<line x1="535.13" y1="370.55" x2="668.85" y2="328.39" stroke="hsl(187.9, 66.5%, 55.5%)" stroke-width="3.6" stroke-linecap="round"/>
<line x1="536.73" y1="376.04" x2="666.31" y2="341.32" stroke="hsl(187.9, 66.5%, 55.5%)" stroke-width="3.6" stroke-linecap="round"/>
<line x1="538.09" y1="381.60" x2="672.02" y2="351.91" stroke="hsl(171.6, 50.0%, 59.9%)" stroke-width="3.6" stroke-linecap="round"/>
<line x1="539.21" y1="387.22" x2="677.29" y2="362.87" stroke="hsl(155.2, 41.4%, 60.4%)" stroke-width="3.6" stroke-linecap="round"/>
<line x1="540.08" y1="392.87" x2="682.09" y2="374.18" stroke="hsl(138.8, 38.6%, 56.8%)" stroke-width="3.6" stroke-linecap="round"/>
<line x1="540.70" y1="398.57" x2="686.41" y2="385.82" stroke="hsl(122.4, 39.4%, 49.2%)" stroke-width="3.6" stroke-linecap="round"/>
<line x1="541.08" y1="404.28" x2="688.72" y2="397.83" stroke="hsl(122.4, 39.4%, 49.2%)" stroke-width="3.6" stroke-linecap="round"/>
<line x1="541.20" y1="410.00" x2="690.50" y2="410.00" stroke="hsl(122.4, 39.4%, 49.2%)" stroke-width="3.6" stroke-linecap="round"/>
<line x1="541.08" y1="415.72" x2="691.74" y2="422.30" stroke="hsl(122.4, 39.4%, 49.2%)" stroke-width="3.6" stroke-linecap="round"/>
<line x1="540.70" y1="421.43" x2="692.45" y2="434.71" stroke="hsl(122.4, 39.4%, 49.2%)" stroke-width="3.6" stroke-linecap="round"/>
<line x1="540.08" y1="427.13" x2="692.60" y2="447.21" stroke="hsl(122.4, 39.4%, 49.2%)" stroke-width="3.6" stroke-linecap="round"/>
<line x1="539.21" y1="432.78" x2="692.20" y2="459.76" stroke="hsl(122.4, 39.4%, 49.2%)" stroke-width="3.6" stroke-linecap="round"/>
<line x1="538.09" y1="438.40" x2="691.24" y2="472.35" stroke="hsl(122.4, 39.4%, 49.2%)" stroke-width="3.6" stroke-linecap="round"/>
<line x1="536.73" y1="443.96" x2="689.72" y2="484.95" stroke="hsl(122.4, 39.4%, 49.2%)" stroke-width="3.6" stroke-linecap="round"/>
<line x1="535.13" y1="449.45" x2="686.54" y2="497.19" stroke="hsl(122.4, 39.4%, 49.2%)" stroke-width="3.6" stroke-linecap="round"/>
<line x1="533.29" y1="454.87" x2="682.83" y2="509.30" stroke="hsl(122.4, 39.4%, 49.2%)" stroke-width="3.6" stroke-linecap="round"/>
<line x1="531.21" y1="460.21" x2="678.59" y2="521.25" stroke="hsl(122.4, 39.4%, 49.2%)" stroke-width="3.6" stroke-linecap="round"/>
<line x1="528.91" y1="465.45" x2="673.83" y2="533.02" stroke="hsl(122.4, 39.4%, 49.2%)" stroke-width="3.6" stroke-linecap="round"/>
<line x1="526.38" y1="470.58" x2="651.41" y2="535.67" stroke="hsl(110.7, 42.5%, 53.4%)" stroke-width="3.6" stroke-linecap="round"/>
<line x1="523.62" y1="475.60" x2="629.31" y2="536.62" stroke="hsl(99.0, 48.0%, 54.6%)" stroke-width="3.6" stroke-linecap="round"/>
<line x1="520.65" y1="480.49" x2="607.60" y2="535.89" stroke="hsl(87.3, 57.8%, 53.1%)" stroke-width="3.6" stroke-linecap="round"/>
<line x1="517.47" y1="485.25" x2="586.42" y2="533.53" stroke="hsl(75.7, 74.2%, 48.6%)" stroke-width="3.6" stroke-linecap="round"/>
<line x1="514.09" y1="489.87" x2="591.98" y2="549.63" stroke="hsl(75.7, 74.2%, 48.6%)" stroke-width="3.6" stroke-linecap="round"/>
<line x1="510.51" y1="494.33" x2="596.44" y2="566.45" stroke="hsl(75.7, 74.2%, 48.6%)" stroke-width="3.6" stroke-linecap="round"/>
<line x1="506.73" y1="498.64" x2="599.77" y2="583.90" stroke="hsl(75.7, 74.2%, 48.6%)" stroke-width="3.6" stroke-linecap="round"/>
<line x1="502.77" y1="502.77" x2="601.91" y2="601.91" stroke="hsl(75.7, 74.2%, 48.6%)" stroke-width="3.6" stroke-linecap="round"/>
<line x1="498.64" y1="506.73" x2="585.69" y2="601.73" stroke="hsl(75.7, 74.2%, 48.6%)" stroke-width="3.6" stroke-linecap="round"/>
<line x1="494.33" y1="510.51" x2="569.85" y2="600.51" stroke="hsl(75.7, 74.2%, 48.6%)" stroke-width="3.6" stroke-linecap="round"/>
<line x1="489.87" y1="514.09" x2="554.48" y2="598.28" stroke="hsl(75.7, 74.2%, 48.6%)" stroke-width="3.6" stroke-linecap="round"/>
<line x1="485.25" y1="517.47" x2="539.61" y2="595.10" stroke="hsl(75.7, 74.2%, 48.6%)" stroke-width="3.6" stroke-linecap="round"/>
<line x1="480.49" y1="520.65" x2="531.82" y2="601.22" stroke="hsl(75.7, 74.2%, 48.6%)" stroke-width="3.6" stroke-linecap="round"/>
<line x1="475.60" y1="523.62" x2="523.74" y2="607.00" stroke="hsl(75.7, 74.2%, 48.6%)" stroke-width="3.6" stroke-linecap="round"/>
<line x1="470.58" y1="526.38" x2="515.39" y2="612.45" stroke="hsl(75.7, 74.2%, 48.6%)" stroke-width="3.6" stroke-linecap="round"/>
<line x1="465.45" y1="528.91" x2="506.78" y2="617.54" stroke="hsl(75.7, 74.2%, 48.6%)" stroke-width="3.6" stroke-linecap="round"/>
<line x1="460.21" y1="531.21" x2="499.95" y2="627.16" stroke="hsl(69.0, 72.9%, 54.2%)" stroke-width="3.6" stroke-linecap="round"/>
<line x1="454.87" y1="533.29" x2="492.47" y2="636.57" stroke="hsl(62.3, 74.8%, 58.1%)" stroke-width="3.6" stroke-linecap="round"/>
<line x1="449.45" y1="535.13" x2="484.33" y2="645.73" stroke="hsl(55.6, 80.3%, 60.3%)" stroke-width="3.6" stroke-linecap="round"/>
<line x1="443.96" y1="536.73" x2="475.54" y2="654.60" stroke="hsl(48.9, 89.9%, 61.0%)" stroke-width="3.6" stroke-linecap="round"/>
<line x1="438.40" y1="538.09" x2="459.97" y2="635.42" stroke="hsl(48.9, 89.9%, 61.0%)" stroke-width="3.6" stroke-linecap="round"/>
<line x1="432.78" y1="539.21" x2="446.21" y2="615.38" stroke="hsl(48.9, 89.9%, 61.0%)" stroke-width="3.6" stroke-linecap="round"/>
<line x1="427.13" y1="540.08" x2="434.30" y2="594.61" stroke="hsl(48.9, 89.9%, 61.0%)" stroke-width="3.6" stroke-linecap="round"/>
<line x1="421.43" y1="540.70" x2="424.28" y2="573.24" stroke="hsl(48.9, 89.9%, 61.0%)" stroke-width="3.6" stroke-linecap="round"/>
<line x1="415.72" y1="541.08" x2="417.18" y2="574.46" stroke="hsl(48.9, 89.9%, 61.0%)" stroke-width="3.6" stroke-linecap="round"/>
<line x1="410.00" y1="541.20" x2="410.00" y2="575.38" stroke="hsl(48.9, 89.9%, 61.0%)" stroke-width="3.6" stroke-linecap="round"/>
<line x1="404.28" y1="541.08" x2="402.75" y2="575.98" stroke="hsl(48.9, 89.9%, 61.0%)" stroke-width="3.6" stroke-linecap="round"/>
<line x1="398.57" y1="540.70" x2="395.45" y2="576.26" stroke="hsl(48.9, 89.9%, 61.0%)" stroke-width="3.6" stroke-linecap="round"/>
<line x1="392.87" y1="540.08" x2="388.36" y2="574.34" stroke="hsl(48.9, 89.9%, 61.0%)" stroke-width="3.6" stroke-linecap="round"/>
<line x1="387.22" y1="539.21" x2="381.41" y2="572.12" stroke="hsl(48.9, 89.9%, 61.0%)" stroke-width="3.6" stroke-linecap="round"/>
<line x1="381.60" y1="538.09" x2="374.62" y2="569.61" stroke="hsl(48.9, 89.9%, 61.0%)" stroke-width="3.6" stroke-linecap="round"/>
<line x1="376.04" y1="536.73" x2="367.98" y2="566.82" stroke="hsl(48.9, 89.9%, 61.0%)" stroke-width="3.6" stroke-linecap="round"/>
<line x1="370.55" y1="535.13" x2="356.17" y2="580.73" stroke="hsl(44.2, 85.7%, 62.7%)" stroke-width="3.6" stroke-linecap="round"/>
<line x1="365.13" y1="533.29" x2="343.08" y2="593.87" stroke="hsl(39.4, 84.2%, 63.3%)" stroke-width="3.6" stroke-linecap="round"/>
<line x1="359.79" y1="531.21" x2="328.74" y2="606.17" stroke="hsl(34.6, 85.7%, 62.7%)" stroke-width="3.6" stroke-linecap="round"/>
<line x1="354.55" y1="528.91" x2="313.22" y2="617.54" stroke="hsl(29.8, 89.9%, 61.0%)" stroke-width="3.6" stroke-linecap="round"/>
<line x1="349.42" y1="526.38" x2="312.83" y2="596.66" stroke="hsl(29.8, 89.9%, 61.0%)" stroke-width="3.6" stroke-linecap="round"/>
<line x1="344.40" y1="523.62" x2="314.06" y2="576.18" stroke="hsl(29.8, 89.9%, 61.0%)" stroke-width="3.6" stroke-linecap="round"/>
<line x1="339.51" y1="520.65" x2="316.87" y2="556.19" stroke="hsl(29.8, 89.9%, 61.0%)" stroke-width="3.6" stroke-linecap="round"/>
<line x1="334.75" y1="517.47" x2="321.22" y2="536.78" stroke="hsl(29.8, 89.9%, 61.0%)" stroke-width="3.6" stroke-linecap="round"/>
<line x1="330.13" y1="514.09" x2="298.72" y2="555.02" stroke="hsl(29.8, 89.9%, 61.0%)" stroke-width="3.6" stroke-linecap="round"/>
<line x1="325.67" y1="510.51" x2="274.49" y2="571.50" stroke="hsl(29.8, 89.9%, 61.0%)" stroke-width="3.6" stroke-linecap="round"/>
<line x1="321.36" y1="506.73" x2="248.64" y2="586.09" stroke="hsl(29.8, 89.9%, 61.0%)" stroke-width="3.6" stroke-linecap="round"/>
<line x1="317.23" y1="502.77" x2="221.30" y2="598.70" stroke="hsl(29.8, 89.9%, 61.0%)" stroke-width="3.6" stroke-linecap="round"/>
<line x1="313.27" y1="498.64" x2="222.18" y2="582.10" stroke="hsl(29.8, 89.9%, 61.0%)" stroke-width="3.6" stroke-linecap="round"/>
<line x1="309.49" y1="494.33" x2="224.14" y2="565.96" stroke="hsl(29.8, 89.9%, 61.0%)" stroke-width="3.6" stroke-linecap="round"/>
<line x1="305.91" y1="489.87" x2="227.12" y2="550.33" stroke="hsl(29.8, 89.9%, 61.0%)" stroke-width="3.6" stroke-linecap="round"/>
<line x1="302.53" y1="485.25" x2="231.10" y2="535.27" stroke="hsl(29.8, 89.9%, 61.0%)" stroke-width="3.6" stroke-linecap="round"/>
<line x1="299.35" y1="480.49" x2="227.41" y2="526.33" stroke="hsl(22.7, 81.9%, 64.0%)" stroke-width="3.6" stroke-linecap="round"/>
<line x1="296.38" y1="475.60" x2="224.15" y2="517.30" stroke="hsl(15.5, 78.3%, 65.3%)" stroke-width="3.6" stroke-linecap="round"/>
<line x1="293.62" y1="470.58" x2="221.32" y2="508.22" stroke="hsl(8.3, 78.8%, 64.8%)" stroke-width="3.6" stroke-linecap="round"/>
<line x1="291.09" y1="465.45" x2="218.93" y2="499.10" stroke="hsl(1.1, 83.2%, 62.5%)" stroke-width="3.6" stroke-linecap="round"/>
<line x1="288.79" y1="460.21" x2="222.23" y2="487.78" stroke="hsl(1.1, 83.2%, 62.5%)" stroke-width="3.6" stroke-linecap="round"/>
<line x1="286.71" y1="454.87" x2="226.13" y2="476.92" stroke="hsl(1.1, 83.2%, 62.5%)" stroke-width="3.6" stroke-linecap="round"/>
<line x1="284.87" y1="449.45" x2="230.61" y2="466.56" stroke="hsl(1.1, 83.2%, 62.5%)" stroke-width="3.6" stroke-linecap="round"/>
<line x1="283.27" y1="443.96" x2="235.63" y2="456.72" stroke="hsl(1.1, 83.2%, 62.5%)" stroke-width="3.6" stroke-linecap="round"/>
<line x1="281.91" y1="438.40" x2="233.38" y2="449.15" stroke="hsl(1.1, 83.2%, 62.5%)" stroke-width="3.6" stroke-linecap="round"/>
<line x1="280.79" y1="432.78" x2="231.47" y2="441.48" stroke="hsl(1.1, 83.2%, 62.5%)" stroke-width="3.6" stroke-linecap="round"/>
<line x1="279.92" y1="427.13" x2="229.89" y2="433.71" stroke="hsl(1.1, 83.2%, 62.5%)" stroke-width="3.6" stroke-linecap="round"/>
<line x1="279.30" y1="421.43" x2="228.65" y2="425.87" stroke="hsl(1.1, 83.2%, 62.5%)" stroke-width="3.6" stroke-linecap="round"/>
<line x1="278.92" y1="415.72" x2="219.81" y2="418.30" stroke="hsl(1.1, 83.2%, 62.5%)" stroke-width="3.6" stroke-linecap="round"/>
<line x1="278.80" y1="410.00" x2="211.30" y2="410.00" stroke="hsl(1.1, 83.2%, 62.5%)" stroke-width="3.6" stroke-linecap="round"/>
<line x1="278.92" y1="404.28" x2="203.16" y2="400.97" stroke="hsl(1.1, 83.2%, 62.5%)" stroke-width="3.6" stroke-linecap="round"/>
<line x1="279.30" y1="398.57" x2="195.46" y2="391.23" stroke="hsl(1.1, 83.2%, 62.5%)" stroke-width="3.6" stroke-linecap="round"/>
<line x1="279.92" y1="392.87" x2="200.61" y2="382.43" stroke="hsl(353.1, 73.2%, 65.2%)" stroke-width="3.6" stroke-linecap="round"/>
<line x1="280.79" y1="387.22" x2="206.11" y2="374.05" stroke="hsl(345.1, 67.7%, 66.0%)" stroke-width="3.6" stroke-linecap="round"/>
<line x1="281.91" y1="381.60" x2="211.94" y2="366.09" stroke="hsl(337.1, 66.3%, 64.7%)" stroke-width="3.6" stroke-linecap="round"/>
<line x1="283.27" y1="376.04" x2="218.07" y2="358.57" stroke="hsl(329.1, 68.4%, 61.6%)" stroke-width="3.6" stroke-linecap="round"/>
<line x1="284.87" y1="370.55" x2="217.24" y2="349.22" stroke="hsl(329.1, 68.4%, 61.6%)" stroke-width="3.6" stroke-linecap="round"/>
<line x1="286.71" y1="365.13" x2="216.88" y2="339.71" stroke="hsl(329.1, 68.4%, 61.6%)" stroke-width="3.6" stroke-linecap="round"/>
<line x1="288.79" y1="359.79" x2="216.98" y2="330.05" stroke="hsl(329.1, 68.4%, 61.6%)" stroke-width="3.6" stroke-linecap="round"/>
<line x1="291.09" y1="354.55" x2="217.56" y2="320.26" stroke="hsl(329.1, 68.4%, 61.6%)" stroke-width="3.6" stroke-linecap="round"/>
<line x1="293.62" y1="349.42" x2="212.59" y2="307.23" stroke="hsl(329.1, 68.4%, 61.6%)" stroke-width="3.6" stroke-linecap="round"/>
<line x1="296.38" y1="344.40" x2="208.40" y2="293.61" stroke="hsl(329.1, 68.4%, 61.6%)" stroke-width="3.6" stroke-linecap="round"/>
<line x1="299.35" y1="339.51" x2="205.05" y2="279.43" stroke="hsl(329.1, 68.4%, 61.6%)" stroke-width="3.6" stroke-linecap="round"/>
<line x1="302.53" y1="334.75" x2="202.56" y2="264.75" stroke="hsl(329.1, 68.4%, 61.6%)" stroke-width="3.6" stroke-linecap="round"/>
<line x1="305.91" y1="330.13" x2="215.71" y2="260.91" stroke="hsl(329.1, 68.4%, 61.6%)" stroke-width="3.6" stroke-linecap="round"/>
<line x1="309.49" y1="325.67" x2="228.78" y2="257.94" stroke="hsl(329.1, 68.4%, 61.6%)" stroke-width="3.6" stroke-linecap="round"/>
<line x1="313.27" y1="321.36" x2="241.72" y2="255.80" stroke="hsl(329.1, 68.4%, 61.6%)" stroke-width="3.6" stroke-linecap="round"/>
<line x1="317.23" y1="317.23" x2="254.50" y2="254.50" stroke="hsl(329.1, 68.4%, 61.6%)" stroke-width="3.6" stroke-linecap="round"/>
<line x1="321.36" y1="313.27" x2="254.78" y2="240.61" stroke="hsl(309.9, 59.3%, 69.7%)" stroke-width="3.6" stroke-linecap="round"/>
<line x1="325.67" y1="309.49" x2="255.99" y2="226.46" stroke="hsl(290.6, 58.3%, 73.2%)" stroke-width="3.6" stroke-linecap="round"/>
<line x1="330.13" y1="305.91" x2="258.15" y2="212.10" stroke="hsl(271.4, 67.4%, 72.0%)" stroke-width="3.6" stroke-linecap="round"/>
<line x1="334.75" y1="302.53" x2="261.28" y2="197.60" stroke="hsl(252.2, 88.4%, 66.1%)" stroke-width="3.6" stroke-linecap="round"/>
<line x1="339.51" y1="299.35" x2="274.96" y2="198.02" stroke="hsl(252.2, 88.4%, 66.1%)" stroke-width="3.6" stroke-linecap="round"/>
<line x1="344.40" y1="296.38" x2="288.31" y2="199.22" stroke="hsl(252.2, 88.4%, 66.1%)" stroke-width="3.6" stroke-linecap="round"/>
<line x1="349.42" y1="293.62" x2="301.29" y2="201.17" stroke="hsl(252.2, 88.4%, 66.1%)" stroke-width="3.6" stroke-linecap="round"/>
<line x1="354.55" y1="291.09" x2="313.86" y2="203.83" stroke="hsl(252.2, 88.4%, 66.1%)" stroke-width="3.6" stroke-linecap="round"/>
<line x1="359.79" y1="288.79" x2="322.95" y2="199.83" stroke="hsl(252.2, 88.4%, 66.1%)" stroke-width="3.6" stroke-linecap="round"/>
<line x1="365.13" y1="286.71" x2="332.20" y2="196.24" stroke="hsl(252.2, 88.4%, 66.1%)" stroke-width="3.6" stroke-linecap="round"/>
<line x1="370.55" y1="284.87" x2="341.59" y2="193.05" stroke="hsl(252.2, 88.4%, 66.1%)" stroke-width="3.6" stroke-linecap="round"/>
<line x1="376.04" y1="283.27" x2="351.12" y2="190.27" stroke="hsl(252.2, 88.4%, 66.1%)" stroke-width="3.6" stroke-linecap="round"/>
<line x1="381.60" y1="281.91" x2="358.63" y2="178.30" stroke="hsl(252.2, 88.4%, 66.1%)" stroke-width="3.6" stroke-linecap="round"/>
<line x1="387.22" y1="280.79" x2="367.08" y2="166.58" stroke="hsl(252.2, 88.4%, 66.1%)" stroke-width="3.6" stroke-linecap="round"/>
<line x1="392.87" y1="279.92" x2="376.45" y2="155.18" stroke="hsl(252.2, 88.4%, 66.1%)" stroke-width="3.6" stroke-linecap="round"/>
<line x1="398.57" y1="279.30" x2="386.74" y2="144.15" stroke="hsl(252.2, 88.4%, 66.1%)" stroke-width="3.6" stroke-linecap="round"/>
<line x1="404.28" y1="278.92" x2="398.48" y2="146.04" stroke="hsl(244.9, 82.7%, 68.0%)" stroke-width="3.6" stroke-linecap="round"/>
<text x="525.0" y="94.1" text-anchor="middle" dominant-baseline="middle" font-family="sans-serif" font-size="15.5" fill="#777">数理・情報</text>
<text x="701.2" y="241.9" text-anchor="middle" dominant-baseline="middle" font-family="sans-serif" font-size="15.5" fill="#777">物理・化学</text>
<text x="741.1" y="468.4" text-anchor="middle" dominant-baseline="middle" font-family="sans-serif" font-size="15.5" fill="#777">機械・材料</text>
<text x="626.1" y="667.5" text-anchor="middle" dominant-baseline="middle" font-family="sans-serif" font-size="15.5" fill="#777">建設・環境</text>
<text x="410.0" y="746.2" text-anchor="middle" dominant-baseline="middle" font-family="sans-serif" font-size="15.5" fill="#777">生命・医療</text>
<text x="193.9" y="667.5" text-anchor="middle" dominant-baseline="middle" font-family="sans-serif" font-size="15.5" fill="#777">健康・こころ</text>
<text x="78.9" y="468.4" text-anchor="middle" dominant-baseline="middle" font-family="sans-serif" font-size="15.5" fill="#777">教育・人文</text>
<text x="118.8" y="241.9" text-anchor="middle" dominant-baseline="middle" font-family="sans-serif" font-size="15.5" fill="#777">法・政治・社会</text>
<text x="295.0" y="94.1" text-anchor="middle" dominant-baseline="middle" font-family="sans-serif" font-size="15.5" fill="#777">経済・経営</text>
<text x="410" y="806" text-anchor="middle" font-family="sans-serif" font-size="19" fill="#444">9カテゴリ×4 (36学部) / 144本 / ペルソナA</text>
</svg>