<svg xmlns="http://www.w3.org/2000/svg" width="820" height="820" viewBox="0 0 820 820">
<rect width="820" height="820" fill="white"/>
<line x1="410.00" y1="278.80" x2="410.00" y2="182.96" stroke="hsl(237.6, 81.2%, 68.1%)" stroke-width="3.6" stroke-linecap="round"/>
<line x1="415.72" y1="278.92" x2="419.35" y2="195.94" stroke="hsl(227.3, 86.7%, 65.2%)" stroke-width="3.6" stroke-linecap="round"/>
<line x1="421.43" y1="279.30" x2="428.21" y2="201.82" stroke="hsl(223.0, 91.5%, 62.9%)" stroke-width="3.6" stroke-linecap="round"/>
<line x1="427.13" y1="279.92" x2="437.21" y2="203.29" stroke="hsl(223.0, 91.5%, 62.9%)" stroke-width="3.6" stroke-linecap="round"/>
<line x1="432.78" y1="280.79" x2="446.00" y2="205.82" stroke="hsl(223.0, 91.5%, 62.9%)" stroke-width="3.6" stroke-linecap="round"/>
<line x1="438.40" y1="281.91" x2="454.62" y2="208.71" stroke="hsl(223.0, 91.5%, 62.9%)" stroke-width="3.6" stroke-linecap="round"/>
<line x1="443.96" y1="283.27" x2="463.24" y2="211.32" stroke="hsl(223.0, 91.5%, 62.9%)" stroke-width="3.6" stroke-linecap="round"/>
<line x1="449.45" y1="284.87" x2="470.55" y2="217.96" stroke="hsl(223.0, 91.5%, 62.9%)" stroke-width="3.6" stroke-linecap="round"/>
<line x1="454.87" y1="286.71" x2="475.29" y2="230.60" stroke="hsl(223.0, 91.5%, 62.9%)" stroke-width="3.6" stroke-linecap="round"/>
<line x1="460.21" y1="288.79" x2="479.06" y2="243.28" stroke="hsl(223.0, 91.5%, 62.9%)" stroke-width="3.6" stroke-linecap="round"/>
<line x1="465.45" y1="291.09" x2="484.43" y2="250.37" stroke="hsl(223.0, 91.5%, 62.9%)" stroke-width="3.6" stroke-linecap="round"/>
<line x1="470.58" y1="293.62" x2="492.99" y2="250.57" stroke="hsl(223.0, 91.5%, 62.9%)" stroke-width="3.6" stroke-linecap="round"/>
<line x1="475.60" y1="296.38" x2="504.22" y2="246.80" stroke="hsl(223.0, 91.5%, 62.9%)" stroke-width="3.6" stroke-linecap="round"/>
<line x1="480.49" y1="299.35" x2="515.93" y2="243.72" stroke="hsl(223.0, 91.5%, 62.9%)" stroke-width="3.6" stroke-linecap="round"/>
<line x1="485.25" y1="302.53" x2="525.15" y2="245.54" stroke="hsl(223.0, 91.5%, 62.9%)" stroke-width="3.6" stroke-linecap="round"/>
<line x1="489.87" y1="305.91" x2="532.80" y2="249.96" stroke="hsl(217.9, 82.7%, 64.0%)" stroke-width="3.6" stroke-linecap="round"/>
<line x1="494.33" y1="309.49" x2="541.16" y2="253.69" stroke="hsl(205.5, 69.8%, 63.5%)" stroke-width="3.6" stroke-linecap="round"/>
<line x1="498.64" y1="313.27" x2="549.42" y2="257.85" stroke="hsl(193.1, 66.1%, 58.7%)" stroke-width="3.6" stroke-linecap="round"/>
<line x1="502.77" y1="317.23" x2="556.61" y2="263.39" stroke="hsl(187.9, 66.5%, 55.5%)" stroke-width="3.6" stroke-linecap="round"/>
<line x1="506.73" y1="321.36" x2="562.51" y2="270.25" stroke="hsl(187.9, 66.5%, 55.5%)" stroke-width="3.6" stroke-linecap="round"/>
<line x1="510.51" y1="325.67" x2="567.57" y2="277.78" stroke="hsl(187.9, 66.5%, 55.5%)" stroke-width="3.6" stroke-linecap="round"/>
<line x1="514.09" y1="330.13" x2="572.26" y2="285.49" stroke="hsl(187.9, 66.5%, 55.5%)" stroke-width="3.6" stroke-linecap="round"/>
<line x1="517.47" y1="334.75" x2="577.15" y2="292.96" stroke="hsl(187.9, 66.5%, 55.5%)" stroke-width="3.6" stroke-linecap="round"/>
<line x1="520.65" y1="339.51" x2="581.89" y2="300.49" stroke="hsl(187.9, 66.5%, 55.5%)" stroke-width="3.6" stroke-linecap="round"/>
<line x1="523.62" y1="344.40" x2="586.00" y2="308.39" stroke="hsl(187.9, 66.5%, 55.5%)" stroke-width="3.6" stroke-linecap="round"/>
<line x1="526.38" y1="349.42" x2="589.75" y2="316.43" stroke="hsl(187.9, 66.5%, 55.5%)" stroke-width="3.6" stroke-linecap="round"/>
<line x1="528.91" y1="354.55" x2="593.44" y2="324.46" stroke="hsl(187.9, 66.5%, 55.5%)" stroke-width="3.6" stroke-linecap="round"/>
<line x1="531.21" y1="359.79" x2="593.22" y2="334.11" stroke="hsl(187.9, 66.5%, 55.5%)" stroke-width="3.6" stroke-linecap="round"/>
<line x1="533.29" y1="365.13" x2="587.08" y2="345.55" stroke="hsl(187.9, 66.5%, 55.5%)" stroke-width="3.6" stroke-linecap="round"/>
<line x1="535.13" y1="370.55" x2="580.31" y2="356.30" stroke="hsl(187.9, 66.5%, 55.5%)" stroke-width="3.6" stroke-linecap="round"/>
<line x1="536.73" y1="376.04" x2="578.54" y2="364.84" stroke="hsl(187.9, 66.5%, 55.5%)" stroke-width="3.6" stroke-linecap="round"/>
<line x1="538.09" y1="381.60" x2="580.11" y2="372.29" stroke="hsl(178.4, 55.7%, 58.6%)" stroke-width="3.6" stroke-linecap="round"/>
<line x1="539.21" y1="387.22" x2="581.03" y2="379.84" stroke="hsl(155.2, 41.4%, 60.4%)" stroke-width="3.6" stroke-linecap="round"/>
<line x1="540.08" y1="392.87" x2="581.60" y2="387.41" stroke="hsl(132.0, 38.7%, 54.1%)" stroke-width="3.6" stroke-linecap="round"/>
<line x1="540.70" y1="398.57" x2="582.18" y2="394.94" stroke="hsl(122.4, 39.4%, 49.2%)" stroke-width="3.6" stroke-linecap="round"/>
<line x1="541.08" y1="404.28" x2="582.44" y2="402.47" stroke="hsl(122.4, 39.4%, 49.2%)" stroke-width="3.6" stroke-linecap="round"/>
<line x1="541.20" y1="410.00" x2="582.02" y2="410.00" stroke="hsl(122.4, 39.4%, 49.2%)" stroke-width="3.6" stroke-linecap="round"/>
<line x1="541.08" y1="415.72" x2="581.28" y2="417.48" stroke="hsl(122.4, 39.4%, 49.2%)" stroke-width="3.6" stroke-linecap="round"/>
<line x1="540.70" y1="421.43" x2="580.55" y2="424.92" stroke="hsl(122.4, 39.4%, 49.2%)" stroke-width="3.6" stroke-linecap="round"/>
<line x1="540.08" y1="427.13" x2="589.99" y2="433.70" stroke="hsl(122.4, 39.4%, 49.2%)" stroke-width="3.6" stroke-linecap="round"/>
<line x1="539.21" y1="432.78" x2="613.38" y2="445.86" stroke="hsl(122.4, 39.4%, 49.2%)" stroke-width="3.6" stroke-linecap="round"/>
<line x1="538.09" y1="438.40" x2="636.00" y2="460.10" stroke="hsl(122.4, 39.4%, 49.2%)" stroke-width="3.6" stroke-linecap="round"/>
<line x1="536.73" y1="443.96" x2="643.59" y2="472.59" stroke="hsl(122.4, 39.4%, 49.2%)" stroke-width="3.6" stroke-linecap="round"/>
<line x1="535.13" y1="449.45" x2="634.67" y2="480.84" stroke="hsl(122.4, 39.4%, 49.2%)" stroke-width="3.6" stroke-linecap="round"/>
<line x1="533.29" y1="454.87" x2="617.18" y2="485.41" stroke="hsl(122.4, 39.4%, 49.2%)" stroke-width="3.6" stroke-linecap="round"/>
<line x1="531.21" y1="460.21" x2="599.74" y2="488.59" stroke="hsl(122.4, 39.4%, 49.2%)" stroke-width="3.6" stroke-linecap="round"/>
<line x1="528.91" y1="465.45" x2="590.47" y2="494.15" stroke="hsl(122.4, 39.4%, 49.2%)" stroke-width="3.6" stroke-linecap="round"/>
<line x1="526.38" y1="470.58" x2="587.90" y2="502.61" stroke="hsl(115.6, 41.1%, 52.0%)" stroke-width="3.6" stroke-linecap="round"/>
<line x1="523.62" y1="475.60" x2="586.71" y2="512.02" stroke="hsl(99.0, 48.0%, 54.6%)" stroke-width="3.6" stroke-linecap="round"/>
<line x1="520.65" y1="480.49" x2="585.03" y2="521.51" stroke="hsl(82.5, 63.7%, 51.6%)" stroke-width="3.6" stroke-linecap="round"/>
<line x1="517.47" y1="485.25" x2="581.18" y2="529.86" stroke="hsl(75.7, 74.2%, 48.6%)" stroke-width="3.6" stroke-linecap="round"/>
<line x1="514.09" y1="489.87" x2="575.03" y2="536.63" stroke="hsl(75.7, 74.2%, 48.6%)" stroke-width="3.6" stroke-linecap="round"/>
<line x1="510.51" y1="494.33" x2="567.57" y2="542.22" stroke="hsl(75.7, 74.2%, 48.6%)" stroke-width="3.6" stroke-linecap="round"/>
<line x1="506.73" y1="498.64" x2="559.94" y2="547.39" stroke="hsl(75.7, 74.2%, 48.6%)" stroke-width="3.6" stroke-linecap="round"/>
<line x1="502.77" y1="502.77" x2="553.12" y2="553.12" stroke="hsl(75.7, 74.2%, 48.6%)" stroke-width="3.6" stroke-linecap="round"/>
<line x1="498.64" y1="506.73" x2="548.86" y2="561.54" stroke="hsl(75.7, 74.2%, 48.6%)" stroke-width="3.6" stroke-linecap="round"/>
<line x1="494.33" y1="510.51" x2="546.97" y2="573.23" stroke="hsl(75.7, 74.2%, 48.6%)" stroke-width="3.6" stroke-linecap="round"/>
<line x1="489.87" y1="514.09" x2="544.31" y2="585.04" stroke="hsl(75.7, 74.2%, 48.6%)" stroke-width="3.6" stroke-linecap="round"/>
<line x1="485.25" y1="517.47" x2="538.34" y2="593.29" stroke="hsl(75.7, 74.2%, 48.6%)" stroke-width="3.6" stroke-linecap="round"/>
<line x1="480.49" y1="520.65" x2="529.45" y2="597.50" stroke="hsl(75.7, 74.2%, 48.6%)" stroke-width="3.6" stroke-linecap="round"/>
<line x1="475.60" y1="523.62" x2="519.42" y2="599.51" stroke="hsl(75.7, 74.2%, 48.6%)" stroke-width="3.6" stroke-linecap="round"/>
<line x1="470.58" y1="526.38" x2="509.44" y2="601.02" stroke="hsl(75.7, 74.2%, 48.6%)" stroke-width="3.6" stroke-linecap="round"/>
<line x1="465.45" y1="528.91" x2="500.40" y2="603.86" stroke="hsl(75.7, 74.2%, 48.6%)" stroke-width="3.6" stroke-linecap="round"/>
<line x1="460.21" y1="531.21" x2="489.56" y2="602.07" stroke="hsl(71.7, 73.1%, 52.1%)" stroke-width="3.6" stroke-linecap="round"/>
<line x1="454.87" y1="533.29" x2="476.14" y2="591.71" stroke="hsl(62.3, 74.8%, 58.1%)" stroke-width="3.6" stroke-linecap="round"/>
<line x1="449.45" y1="535.13" x2="463.78" y2="580.58" stroke="hsl(52.9, 83.7%, 60.8%)" stroke-width="3.6" stroke-linecap="round"/>
<line x1="443.96" y1="536.73" x2="454.73" y2="576.95" stroke="hsl(48.9, 89.9%, 61.0%)" stroke-width="3.6" stroke-linecap="round"/>
<line x1="438.40" y1="538.09" x2="447.10" y2="577.34" stroke="hsl(48.9, 89.9%, 61.0%)" stroke-width="3.6" stroke-linecap="round"/>
<line x1="432.78" y1="539.21" x2="439.16" y2="575.36" stroke="hsl(48.9, 89.9%, 61.0%)" stroke-width="3.6" stroke-linecap="round"/>
<line x1="427.13" y1="540.08" x2="431.46" y2="573.02" stroke="hsl(48.9, 89.9%, 61.0%)" stroke-width="3.6" stroke-linecap="round"/>
<line x1="421.43" y1="540.70" x2="424.21" y2="572.37" stroke="hsl(48.9, 89.9%, 61.0%)" stroke-width="3.6" stroke-linecap="round"/>
<line x1="415.72" y1="541.08" x2="417.11" y2="572.83" stroke="hsl(48.9, 89.9%, 61.0%)" stroke-width="3.6" stroke-linecap="round"/>
<line x1="410.00" y1="541.20" x2="410.00" y2="572.99" stroke="hsl(48.9, 89.9%, 61.0%)" stroke-width="3.6" stroke-linecap="round"/>
<line x1="404.28" y1="541.08" x2="402.89" y2="572.83" stroke="hsl(48.9, 89.9%, 61.0%)" stroke-width="3.6" stroke-linecap="round"/>
<line x1="398.57" y1="540.70" x2="395.79" y2="572.37" stroke="hsl(48.9, 89.9%, 61.0%)" stroke-width="3.6" stroke-linecap="round"/>
<line x1="392.87" y1="540.08" x2="388.88" y2="570.40" stroke="hsl(48.9, 89.9%, 61.0%)" stroke-width="3.6" stroke-linecap="round"/>
<line x1="387.22" y1="539.21" x2="382.41" y2="566.47" stroke="hsl(48.9, 89.9%, 61.0%)" stroke-width="3.6" stroke-linecap="round"/>
<line x1="381.60" y1="538.09" x2="376.24" y2="562.28" stroke="hsl(48.9, 89.9%, 61.0%)" stroke-width="3.6" stroke-linecap="round"/>
<line x1="376.04" y1="536.73" x2="369.94" y2="559.50" stroke="hsl(48.9, 89.9%, 61.0%)" stroke-width="3.6" stroke-linecap="round"/>
<line x1="370.55" y1="535.13" x2="362.45" y2="560.82" stroke="hsl(46.1, 87.1%, 62.1%)" stroke-width="3.6" stroke-linecap="round"/>
<line x1="365.13" y1="533.29" x2="353.13" y2="566.24" stroke="hsl(39.4, 84.2%, 63.3%)" stroke-width="3.6" stroke-linecap="round"/>
<line x1="359.79" y1="531.21" x2="343.26" y2="571.13" stroke="hsl(32.6, 87.1%, 62.1%)" stroke-width="3.6" stroke-linecap="round"/>
<line x1="354.55" y1="528.91" x2="334.87" y2="571.11" stroke="hsl(29.8, 89.9%, 61.0%)" stroke-width="3.6" stroke-linecap="round"/>
<line x1="349.42" y1="526.38" x2="329.47" y2="564.70" stroke="hsl(29.8, 89.9%, 61.0%)" stroke-width="3.6" stroke-linecap="round"/>
<line x1="344.40" y1="523.62" x2="326.86" y2="554.00" stroke="hsl(29.8, 89.9%, 61.0%)" stroke-width="3.6" stroke-linecap="round"/>
<line x1="339.51" y1="520.65" x2="325.03" y2="543.38" stroke="hsl(29.8, 89.9%, 61.0%)" stroke-width="3.6" stroke-linecap="round"/>
<line x1="334.75" y1="517.47" x2="321.22" y2="536.78" stroke="hsl(29.8, 89.9%, 61.0%)" stroke-width="3.6" stroke-linecap="round"/>
<line x1="330.13" y1="514.09" x2="306.85" y2="544.43" stroke="hsl(29.8, 89.9%, 61.0%)" stroke-width="3.6" stroke-linecap="round"/>
<line x1="325.67" y1="510.51" x2="278.31" y2="566.94" stroke="hsl(29.8, 89.9%, 61.0%)" stroke-width="3.6" stroke-linecap="round"/>
<line x1="321.36" y1="506.73" x2="247.66" y2="587.16" stroke="hsl(29.8, 89.9%, 61.0%)" stroke-width="3.6" stroke-linecap="round"/>
<line x1="317.23" y1="502.77" x2="229.71" y2="590.29" stroke="hsl(29.8, 89.9%, 61.0%)" stroke-width="3.6" stroke-linecap="round"/>
<line x1="313.27" y1="498.64" x2="227.16" y2="577.54" stroke="hsl(29.8, 89.9%, 61.0%)" stroke-width="3.6" stroke-linecap="round"/>
<line x1="309.49" y1="494.33" x2="232.93" y2="558.58" stroke="hsl(29.8, 89.9%, 61.0%)" stroke-width="3.6" stroke-linecap="round"/>
<line x1="305.91" y1="489.87" x2="239.98" y2="540.46" stroke="hsl(29.8, 89.9%, 61.0%)" stroke-width="3.6" stroke-linecap="round"/>
<line x1="302.53" y1="485.25" x2="240.16" y2="528.92" stroke="hsl(29.8, 89.9%, 61.0%)" stroke-width="3.6" stroke-linecap="round"/>
<line x1="299.35" y1="480.49" x2="232.09" y2="523.34" stroke="hsl(25.6, 84.7%, 63.0%)" stroke-width="3.6" stroke-linecap="round"/>
<line x1="296.38" y1="475.60" x2="219.78" y2="519.83" stroke="hsl(15.5, 78.3%, 65.3%)" stroke-width="3.6" stroke-linecap="round"/>
<line x1="293.62" y1="470.58" x2="207.44" y2="515.45" stroke="hsl(5.3, 80.2%, 64.1%)" stroke-width="3.6" stroke-linecap="round"/>
<line x1="291.09" y1="465.45" x2="199.76" y2="508.04" stroke="hsl(1.1, 83.2%, 62.5%)" stroke-width="3.6" stroke-linecap="round"/>
<line x1="288.79" y1="460.21" x2="187.69" y2="502.09" stroke="hsl(1.1, 83.2%, 62.5%)" stroke-width="3.6" stroke-linecap="round"/>
<line x1="286.71" y1="454.87" x2="164.24" y2="499.45" stroke="hsl(1.1, 83.2%, 62.5%)" stroke-width="3.6" stroke-linecap="round"/>
<line x1="284.87" y1="449.45" x2="140.63" y2="494.93" stroke="hsl(1.1, 83.2%, 62.5%)" stroke-width="3.6" stroke-linecap="round"/>
<line x1="283.27" y1="443.96" x2="128.82" y2="485.34" stroke="hsl(1.1, 83.2%, 62.5%)" stroke-width="3.6" stroke-linecap="round"/>
<line x1="281.91" y1="438.40" x2="126.04" y2="472.95" stroke="hsl(1.1, 83.2%, 62.5%)" stroke-width="3.6" stroke-linecap="round"/>
<line x1="280.79" y1="432.78" x2="124.13" y2="460.41" stroke="hsl(1.1, 83.2%, 62.5%)" stroke-width="3.6" stroke-linecap="round"/>
<line x1="279.92" y1="427.13" x2="122.78" y2="447.81" stroke="hsl(1.1, 83.2%, 62.5%)" stroke-width="3.6" stroke-linecap="round"/>
<line x1="279.30" y1="421.43" x2="121.64" y2="435.23" stroke="hsl(1.1, 83.2%, 62.5%)" stroke-width="3.6" stroke-linecap="round"/>
<line x1="278.92" y1="415.72" x2="122.02" y2="422.57" stroke="hsl(1.1, 83.2%, 62.5%)" stroke-width="3.6" stroke-linecap="round"/>
<line x1="278.80" y1="410.00" x2="124.65" y2="410.00" stroke="hsl(1.1, 83.2%, 62.5%)" stroke-width="3.6" stroke-linecap="round"/>
<line x1="278.92" y1="404.28" x2="127.82" y2="397.68" stroke="hsl(1.1, 83.2%, 62.5%)" stroke-width="3.6" stroke-linecap="round"/>
<line x1="279.30" y1="398.57" x2="129.83" y2="385.49" stroke="hsl(1.1, 83.2%, 62.5%)" stroke-width="3.6" stroke-linecap="round"/>
<line x1="279.92" y1="392.87" x2="136.65" y2="374.01" stroke="hsl(356.4, 76.7%, 64.4%)" stroke-width="3.6" stroke-linecap="round"/>
<line x1="280.79" y1="387.22" x2="151.63" y2="364.44" stroke="hsl(345.1, 67.7%, 66.0%)" stroke-width="3.6" stroke-linecap="round"/>
<line x1="281.91" y1="381.60" x2="166.90" y2="356.11" stroke="hsl(333.8, 66.8%, 63.7%)" stroke-width="3.6" stroke-linecap="round"/>
<line x1="283.27" y1="376.04" x2="174.83" y2="346.99" stroke="hsl(329.1, 68.4%, 61.6%)" stroke-width="3.6" stroke-linecap="round"/>
<line x1="284.87" y1="370.55" x2="177.34" y2="336.64" stroke="hsl(329.1, 68.4%, 61.6%)" stroke-width="3.6" stroke-linecap="round"/>
<line x1="286.71" y1="365.13" x2="179.67" y2="326.17" stroke="hsl(329.1, 68.4%, 61.6%)" stroke-width="3.6" stroke-linecap="round"/>
<line x1="288.79" y1="359.79" x2="182.47" y2="315.76" stroke="hsl(329.1, 68.4%, 61.6%)" stroke-width="3.6" stroke-linecap="round"/>
<line x1="291.09" y1="354.55" x2="186.37" y2="305.72" stroke="hsl(329.1, 68.4%, 61.6%)" stroke-width="3.6" stroke-linecap="round"/>
<line x1="293.62" y1="349.42" x2="188.57" y2="294.73" stroke="hsl(329.1, 68.4%, 61.6%)" stroke-width="3.6" stroke-linecap="round"/>
<line x1="296.38" y1="344.40" x2="187.77" y2="281.70" stroke="hsl(329.1, 68.4%, 61.6%)" stroke-width="3.6" stroke-linecap="round"/>
<line x1="299.35" y1="339.51" x2="187.70" y2="268.38" stroke="hsl(329.1, 68.4%, 61.6%)" stroke-width="3.6" stroke-linecap="round"/>
<line x1="302.53" y1="334.75" x2="191.73" y2="257.16" stroke="hsl(329.1, 68.4%, 61.6%)" stroke-width="3.6" stroke-linecap="round"/>
<line x1="305.91" y1="330.13" x2="197.07" y2="246.62" stroke="hsl(329.1, 68.4%, 61.6%)" stroke-width="3.6" stroke-linecap="round"/>
<line x1="309.49" y1="325.67" x2="200.84" y2="234.50" stroke="hsl(329.1, 68.4%, 61.6%)" stroke-width="3.6" stroke-linecap="round"/>
<line x1="313.27" y1="321.36" x2="205.27" y2="222.40" stroke="hsl(329.1, 68.4%, 61.6%)" stroke-width="3.6" stroke-linecap="round"/>
<line x1="317.23" y1="317.23" x2="212.29" y2="212.29" stroke="hsl(329.1, 68.4%, 61.6%)" stroke-width="3.6" stroke-linecap="round"/>
<line x1="321.36" y1="313.27" x2="227.28" y2="210.59" stroke="hsl(317.8, 62.2%, 66.9%)" stroke-width="3.6" stroke-linecap="round"/>
<line x1="325.67" y1="309.49" x2="250.33" y2="219.72" stroke="hsl(290.6, 58.3%, 73.2%)" stroke-width="3.6" stroke-linecap="round"/>
<line x1="330.13" y1="305.91" x2="272.22" y2="230.44" stroke="hsl(263.4, 74.5%, 70.1%)" stroke-width="3.6" stroke-linecap="round"/>
<line x1="334.75" y1="302.53" x2="285.43" y2="232.09" stroke="hsl(252.2, 88.4%, 66.1%)" stroke-width="3.6" stroke-linecap="round"/>
<line x1="339.51" y1="299.35" x2="292.66" y2="225.81" stroke="hsl(252.2, 88.4%, 66.1%)" stroke-width="3.6" stroke-linecap="round"/>
<line x1="344.40" y1="296.38" x2="299.35" y2="218.35" stroke="hsl(252.2, 88.4%, 66.1%)" stroke-width="3.6" stroke-linecap="round"/>
<line x1="349.42" y1="293.62" x2="306.48" y2="211.13" stroke="hsl(252.2, 88.4%, 66.1%)" stroke-width="3.6" stroke-linecap="round"/>
<line x1="354.55" y1="291.09" x2="314.74" y2="205.72" stroke="hsl(252.2, 88.4%, 66.1%)" stroke-width="3.6" stroke-linecap="round"/>
<line x1="359.79" y1="288.79" x2="323.83" y2="201.98" stroke="hsl(252.2, 88.4%, 66.1%)" stroke-width="3.6" stroke-linecap="round"/>
<line x1="365.13" y1="286.71" x2="333.19" y2="198.96" stroke="hsl(252.2, 88.4%, 66.1%)" stroke-width="3.6" stroke-linecap="round"/>
<line x1="370.55" y1="284.87" x2="342.64" y2="196.37" stroke="hsl(252.2, 88.4%, 66.1%)" stroke-width="3.6" stroke-linecap="round"/>
<line x1="376.04" y1="283.27" x2="352.09" y2="193.87" stroke="hsl(252.2, 88.4%, 66.1%)" stroke-width="3.6" stroke-linecap="round"/>
<line x1="381.60" y1="281.91" x2="360.89" y2="188.49" stroke="hsl(252.2, 88.4%, 66.1%)" stroke-width="3.6" stroke-linecap="round"/>
<line x1="387.22" y1="280.79" x2="369.29" y2="179.13" stroke="hsl(252.2, 88.4%, 66.1%)" stroke-width="3.6" stroke-linecap="round"/>
<line x1="392.87" y1="279.92" x2="378.41" y2="170.09" stroke="hsl(252.2, 88.4%, 66.1%)" stroke-width="3.6" stroke-linecap="round"/>
<line x1="398.57" y1="279.30" x2="388.64" y2="165.82" stroke="hsl(252.2, 88.4%, 66.1%)" stroke-width="3.6" stroke-linecap="round"/>
<line x1="404.28" y1="278.92" x2="399.54" y2="170.41" stroke="hsl(247.9, 84.6%, 67.4%)" stroke-width="3.6" stroke-linecap="round"/>
<text x="525.0" y="94.1" text-anchor="middle" dominant-baseline="middle" font-family="sans-serif" font-size="15.5" fill="#777">数理・情報</text>
<text x="701.2" y="241.9" text-anchor="middle" dominant-baseline="middle" font-family="sans-serif" font-size="15.5" fill="#777">物理・化学</text>
<text x="741.1" y="468.4" text-anchor="middle" dominant-baseline="middle" font-family="sans-serif" font-size="15.5" fill="#777">機械・材料</text>
<text x="626.1" y="667.5" text-anchor="middle" dominant-baseline="middle" font-family="sans-serif" font-size="15.5" fill="#777">建設・環境</text>
<text x="410.0" y="746.2" text-anchor="middle" dominant-baseline="middle" font-family="sans-serif" font-size="15.5" fill="#777">生命・医療</text>
<text x="193.9" y="667.5" text-anchor="middle" dominant-baseline="middle" font-family="sans-serif" font-size="15.5" fill="#777">健康・こころ</text>
<text x="78.9" y="468.4" text-anchor="middle" dominant-baseline="middle" font-family="sans-serif" font-size="15.5" fill="#777">教育・人文</text>
<text x="118.8" y="241.9" text-anchor="middle" dominant-baseline="middle" font-family="sans-serif" font-size="15.5" fill="#777">法・政治・社会</text>
<text x="295.0" y="94.1" text-anchor="middle" dominant-baseline="middle" font-family="sans-serif" font-size="15.5" fill="#777">経済・経営</text>
<text x="410" y="806" text-anchor="middle" font-family="sans-serif" font-size="19" fill="#444">9カテゴリ×4 (36学部) / 144本 / ペルソナB</text>
</svg>