<svg xmlns="http://www.w3.org/2000/svg" width="820" height="820" viewBox="0 0 820 820">
<rect width="820" height="820" fill="white"/>
<line x1="410.00" y1="278.80" x2="410.00" y2="148.44" stroke="hsl(237.6, 81.2%, 68.1%)" stroke-width="3.6" stroke-linecap="round"/>
<line x1="415.72" y1="278.92" x2="421.20" y2="153.55" stroke="hsl(224.2, 90.0%, 63.6%)" stroke-width="3.6" stroke-linecap="round"/>
<line x1="421.43" y1="279.30" x2="432.33" y2="154.71" stroke="hsl(223.0, 91.5%, 62.9%)" stroke-width="3.6" stroke-linecap="round"/>
<line x1="427.13" y1="279.92" x2="443.45" y2="155.93" stroke="hsl(223.0, 91.5%, 62.9%)" stroke-width="3.6" stroke-linecap="round"/>
<line x1="432.78" y1="280.79" x2="454.50" y2="157.63" stroke="hsl(223.0, 91.5%, 62.9%)" stroke-width="3.6" stroke-linecap="round"/>
<line x1="438.40" y1="281.91" x2="465.47" y2="159.81" stroke="hsl(223.0, 91.5%, 62.9%)" stroke-width="3.6" stroke-linecap="round"/>
<line x1="443.96" y1="283.27" x2="476.33" y2="162.47" stroke="hsl(223.0, 91.5%, 62.9%)" stroke-width="3.6" stroke-linecap="round"/>
<line x1="449.45" y1="284.87" x2="487.00" y2="165.77" stroke="hsl(223.0, 91.5%, 62.9%)" stroke-width="3.6" stroke-linecap="round"/>
<line x1="454.87" y1="286.71" x2="496.87" y2="171.33" stroke="hsl(223.0, 91.5%, 62.9%)" stroke-width="3.6" stroke-linecap="round"/>
<line x1="460.21" y1="288.79" x2="506.40" y2="177.27" stroke="hsl(223.0, 91.5%, 62.9%)" stroke-width="3.6" stroke-linecap="round"/>
<line x1="465.45" y1="291.09" x2="516.38" y2="181.87" stroke="hsl(223.0, 91.5%, 62.9%)" stroke-width="3.6" stroke-linecap="round"/>
<line x1="470.58" y1="293.62" x2="526.32" y2="186.56" stroke="hsl(223.0, 91.5%, 62.9%)" stroke-width="3.6" stroke-linecap="round"/>
<line x1="475.60" y1="296.38" x2="536.99" y2="190.04" stroke="hsl(223.0, 91.5%, 62.9%)" stroke-width="3.6" stroke-linecap="round"/>
<line x1="480.49" y1="299.35" x2="547.59" y2="194.03" stroke="hsl(223.0, 91.5%, 62.9%)" stroke-width="3.6" stroke-linecap="round"/>
<line x1="485.25" y1="302.53" x2="556.99" y2="200.08" stroke="hsl(223.0, 91.5%, 62.9%)" stroke-width="3.6" stroke-linecap="round"/>
<line x1="489.87" y1="305.91" x2="566.26" y2="206.35" stroke="hsl(221.6, 88.9%, 63.3%)" stroke-width="3.6" stroke-linecap="round"/>
<line x1="494.33" y1="309.49" x2="578.13" y2="209.63" stroke="hsl(205.5, 69.8%, 63.5%)" stroke-width="3.6" stroke-linecap="round"/>
<line x1="498.64" y1="313.27" x2="590.00" y2="213.56" stroke="hsl(189.4, 66.3%, 56.5%)" stroke-width="3.6" stroke-linecap="round"/>
<line x1="502.77" y1="317.23" x2="598.70" y2="221.30" stroke="hsl(187.9, 66.5%, 55.5%)" stroke-width="3.6" stroke-linecap="round"/>
<line x1="506.73" y1="321.36" x2="607.16" y2="229.34" stroke="hsl(187.9, 66.5%, 55.5%)" stroke-width="3.6" stroke-linecap="round"/>
<line x1="510.51" y1="325.67" x2="619.65" y2="234.08" stroke="hsl(187.9, 66.5%, 55.5%)" stroke-width="3.6" stroke-linecap="round"/>
<line x1="514.09" y1="330.13" x2="632.09" y2="239.58" stroke="hsl(187.9, 66.5%, 55.5%)" stroke-width="3.6" stroke-linecap="round"/>
<line x1="517.47" y1="334.75" x2="639.77" y2="249.11" stroke="hsl(187.9, 66.5%, 55.5%)" stroke-width="3.6" stroke-linecap="round"/>
<line x1="520.65" y1="339.51" x2="646.88" y2="259.09" stroke="hsl(187.9, 66.5%, 55.5%)" stroke-width="3.6" stroke-linecap="round"/>
<line x1="523.62" y1="344.40" x2="656.85" y2="267.48" stroke="hsl(187.9, 66.5%, 55.5%)" stroke-width="3.6" stroke-linecap="round"/>
<line x1="526.38" y1="349.42" x2="666.54" y2="276.45" stroke="hsl(187.9, 66.5%, 55.5%)" stroke-width="3.6" stroke-linecap="round"/>
<line x1="528.91" y1="354.55" x2="672.45" y2="287.62" stroke="hsl(187.9, 66.5%, 55.5%)" stroke-width="3.6" stroke-linecap="round"/>
<line x1="531.21" y1="359.79" x2="676.63" y2="299.56" stroke="hsl(187.9, 66.5%, 55.5%)" stroke-width="3.6" stroke-linecap="round"/>
<line x1="533.29" y1="365.13" x2="670.73" y2="315.10" stroke="hsl(187.9, 66.5%, 55.5%)" stroke-width="3.6" stroke-linecap="round"/>
<line x1="535.13" y1="370.55" x2="664.00" y2="329.91" stroke="hsl(187.9, 66.5%, 55.5%)" stroke-width="3.6" stroke-linecap="round"/>
<line x1="536.73" y1="376.04" x2="666.31" y2="341.32" stroke="hsl(187.9, 66.5%, 55.5%)" stroke-width="3.6" stroke-linecap="round"/>
<line x1="538.09" y1="381.60" x2="669.54" y2="352.46" stroke="hsl(185.3, 63.2%, 56.5%)" stroke-width="3.6" stroke-linecap="round"/>
<line x1="539.21" y1="387.22" x2="677.29" y2="362.87" stroke="hsl(155.2, 41.4%, 60.4%)" stroke-width="3.6" stroke-linecap="round"/>
<line x1="540.08" y1="392.87" x2="684.61" y2="373.85" stroke="hsl(125.1, 39.2%, 50.7%)" stroke-width="3.6" stroke-linecap="round"/>
<line x1="540.70" y1="398.57" x2="686.41" y2="385.82" stroke="hsl(122.4, 39.4%, 49.2%)" stroke-width="3.6" stroke-linecap="round"/>
<line x1="541.08" y1="404.28" x2="687.45" y2="397.89" stroke="hsl(122.4, 39.4%, 49.2%)" stroke-width="3.6" stroke-linecap="round"/>
<line x1="541.20" y1="410.00" x2="690.50" y2="410.00" stroke="hsl(122.4, 39.4%, 49.2%)" stroke-width="3.6" stroke-linecap="round"/>
<line x1="541.08" y1="415.72" x2="693.01" y2="422.36" stroke="hsl(122.4, 39.4%, 49.2%)" stroke-width="3.6" stroke-linecap="round"/>
<line x1="540.70" y1="421.43" x2="692.45" y2="434.71" stroke="hsl(122.4, 39.4%, 49.2%)" stroke-width="3.6" stroke-linecap="round"/>
<line x1="540.08" y1="427.13" x2="691.34" y2="447.04" stroke="hsl(122.4, 39.4%, 49.2%)" stroke-width="3.6" stroke-linecap="round"/>
<line x1="539.21" y1="432.78" x2="692.20" y2="459.76" stroke="hsl(122.4, 39.4%, 49.2%)" stroke-width="3.6" stroke-linecap="round"/>
<line x1="538.09" y1="438.40" x2="692.48" y2="472.62" stroke="hsl(122.4, 39.4%, 49.2%)" stroke-width="3.6" stroke-linecap="round"/>
<line x1="536.73" y1="443.96" x2="689.72" y2="484.95" stroke="hsl(122.4, 39.4%, 49.2%)" stroke-width="3.6" stroke-linecap="round"/>
<line x1="535.13" y1="449.45" x2="686.24" y2="497.10" stroke="hsl(122.4, 39.4%, 49.2%)" stroke-width="3.6" stroke-linecap="round"/>
<line x1="533.29" y1="454.87" x2="682.83" y2="509.30" stroke="hsl(122.4, 39.4%, 49.2%)" stroke-width="3.6" stroke-linecap="round"/>
<line x1="531.21" y1="460.21" x2="678.88" y2="521.38" stroke="hsl(122.4, 39.4%, 49.2%)" stroke-width="3.6" stroke-linecap="round"/>
<line x1="528.91" y1="465.45" x2="673.83" y2="533.02" stroke="hsl(122.4, 39.4%, 49.2%)" stroke-width="3.6" stroke-linecap="round"/>
<line x1="526.38" y1="470.58" x2="665.49" y2="543.00" stroke="hsl(120.5, 39.9%, 50.1%)" stroke-width="3.6" stroke-linecap="round"/>
<line x1="523.62" y1="475.60" x2="629.31" y2="536.62" stroke="hsl(99.0, 48.0%, 54.6%)" stroke-width="3.6" stroke-linecap="round"/>
<line x1="520.65" y1="480.49" x2="594.22" y2="527.36" stroke="hsl(77.5, 71.0%, 49.5%)" stroke-width="3.6" stroke-linecap="round"/>
<line x1="517.47" y1="485.25" x2="586.42" y2="533.53" stroke="hsl(75.7, 74.2%, 48.6%)" stroke-width="3.6" stroke-linecap="round"/>
<line x1="514.09" y1="489.87" x2="582.66" y2="542.49" stroke="hsl(75.7, 74.2%, 48.6%)" stroke-width="3.6" stroke-linecap="round"/>
<line x1="510.51" y1="494.33" x2="596.44" y2="566.45" stroke="hsl(75.7, 74.2%, 48.6%)" stroke-width="3.6" stroke-linecap="round"/>
<line x1="506.73" y1="498.64" x2="608.43" y2="591.83" stroke="hsl(75.7, 74.2%, 48.6%)" stroke-width="3.6" stroke-linecap="round"/>
<line x1="502.77" y1="502.77" x2="601.91" y2="601.91" stroke="hsl(75.7, 74.2%, 48.6%)" stroke-width="3.6" stroke-linecap="round"/>
<line x1="498.64" y1="506.73" x2="592.12" y2="608.75" stroke="hsl(75.7, 74.2%, 48.6%)" stroke-width="3.6" stroke-linecap="round"/>
<line x1="494.33" y1="510.51" x2="569.85" y2="600.51" stroke="hsl(75.7, 74.2%, 48.6%)" stroke-width="3.6" stroke-linecap="round"/>
<line x1="489.87" y1="514.09" x2="548.68" y2="590.73" stroke="hsl(75.7, 74.2%, 48.6%)" stroke-width="3.6" stroke-linecap="round"/>
<line x1="485.25" y1="517.47" x2="539.61" y2="595.10" stroke="hsl(75.7, 74.2%, 48.6%)" stroke-width="3.6" stroke-linecap="round"/>
<line x1="480.49" y1="520.65" x2="531.48" y2="600.68" stroke="hsl(75.7, 74.2%, 48.6%)" stroke-width="3.6" stroke-linecap="round"/>
<line x1="475.60" y1="523.62" x2="523.74" y2="607.00" stroke="hsl(75.7, 74.2%, 48.6%)" stroke-width="3.6" stroke-linecap="round"/>
<line x1="470.58" y1="526.38" x2="515.68" y2="613.01" stroke="hsl(75.7, 74.2%, 48.6%)" stroke-width="3.6" stroke-linecap="round"/>
<line x1="465.45" y1="528.91" x2="506.78" y2="617.54" stroke="hsl(75.7, 74.2%, 48.6%)" stroke-width="3.6" stroke-linecap="round"/>
<line x1="460.21" y1="531.21" x2="498.01" y2="622.47" stroke="hsl(74.6, 73.8%, 49.6%)" stroke-width="3.6" stroke-linecap="round"/>
<line x1="454.87" y1="533.29" x2="492.47" y2="636.57" stroke="hsl(62.3, 74.8%, 58.1%)" stroke-width="3.6" stroke-linecap="round"/>
<line x1="449.45" y1="535.13" x2="485.85" y2="650.58" stroke="hsl(50.0, 88.1%, 61.0%)" stroke-width="3.6" stroke-linecap="round"/>
<line x1="443.96" y1="536.73" x2="475.54" y2="654.60" stroke="hsl(48.9, 89.9%, 61.0%)" stroke-width="3.6" stroke-linecap="round"/>
<line x1="438.40" y1="538.09" x2="464.03" y2="653.69" stroke="hsl(48.9, 89.9%, 61.0%)" stroke-width="3.6" stroke-linecap="round"/>
<line x1="432.78" y1="539.21" x2="446.21" y2="615.38" stroke="hsl(48.9, 89.9%, 61.0%)" stroke-width="3.6" stroke-linecap="round"/>
<line x1="427.13" y1="540.08" x2="431.86" y2="576.05" stroke="hsl(48.9, 89.9%, 61.0%)" stroke-width="3.6" stroke-linecap="round"/>
<line x1="421.43" y1="540.70" x2="424.28" y2="573.24" stroke="hsl(48.9, 89.9%, 61.0%)" stroke-width="3.6" stroke-linecap="round"/>
<line x1="415.72" y1="541.08" x2="417.15" y2="573.83" stroke="hsl(48.9, 89.9%, 61.0%)" stroke-width="3.6" stroke-linecap="round"/>
<line x1="410.00" y1="541.20" x2="410.00" y2="575.38" stroke="hsl(48.9, 89.9%, 61.0%)" stroke-width="3.6" stroke-linecap="round"/>
<line x1="404.28" y1="541.08" x2="402.73" y2="576.61" stroke="hsl(48.9, 89.9%, 61.0%)" stroke-width="3.6" stroke-linecap="round"/>
<line x1="398.57" y1="540.70" x2="395.45" y2="576.26" stroke="hsl(48.9, 89.9%, 61.0%)" stroke-width="3.6" stroke-linecap="round"/>
<line x1="392.87" y1="540.08" x2="388.24" y2="575.28" stroke="hsl(48.9, 89.9%, 61.0%)" stroke-width="3.6" stroke-linecap="round"/>
<line x1="387.22" y1="539.21" x2="381.41" y2="572.12" stroke="hsl(48.9, 89.9%, 61.0%)" stroke-width="3.6" stroke-linecap="round"/>
<line x1="381.60" y1="538.09" x2="374.82" y2="568.68" stroke="hsl(48.9, 89.9%, 61.0%)" stroke-width="3.6" stroke-linecap="round"/>
<line x1="376.04" y1="536.73" x2="367.98" y2="566.82" stroke="hsl(48.9, 89.9%, 61.0%)" stroke-width="3.6" stroke-linecap="round"/>
<line x1="370.55" y1="535.13" x2="360.37" y2="567.41" stroke="hsl(48.2, 89.1%, 61.3%)" stroke-width="3.6" stroke-linecap="round"/>
<line x1="365.13" y1="533.29" x2="343.08" y2="593.87" stroke="hsl(39.4, 84.2%, 63.3%)" stroke-width="3.6" stroke-linecap="round"/>
<line x1="359.79" y1="531.21" x2="323.40" y2="619.07" stroke="hsl(30.6, 89.1%, 61.3%)" stroke-width="3.6" stroke-linecap="round"/>
<line x1="354.55" y1="528.91" x2="313.22" y2="617.54" stroke="hsl(29.8, 89.9%, 61.0%)" stroke-width="3.6" stroke-linecap="round"/>
<line x1="349.42" y1="526.38" x2="305.65" y2="610.45" stroke="hsl(29.8, 89.9%, 61.0%)" stroke-width="3.6" stroke-linecap="round"/>
<line x1="344.40" y1="523.62" x2="314.06" y2="576.18" stroke="hsl(29.8, 89.9%, 61.0%)" stroke-width="3.6" stroke-linecap="round"/>
<line x1="339.51" y1="520.65" x2="325.22" y2="543.07" stroke="hsl(29.8, 89.9%, 61.0%)" stroke-width="3.6" stroke-linecap="round"/>
<line x1="334.75" y1="517.47" x2="321.22" y2="536.78" stroke="hsl(29.8, 89.9%, 61.0%)" stroke-width="3.6" stroke-linecap="round"/>
<line x1="330.13" y1="514.09" x2="313.01" y2="536.39" stroke="hsl(29.8, 89.9%, 61.0%)" stroke-width="3.6" stroke-linecap="round"/>
<line x1="325.67" y1="510.51" x2="274.49" y2="571.50" stroke="hsl(29.8, 89.9%, 61.0%)" stroke-width="3.6" stroke-linecap="round"/>
<line x1="321.36" y1="506.73" x2="232.78" y2="603.40" stroke="hsl(29.8, 89.9%, 61.0%)" stroke-width="3.6" stroke-linecap="round"/>
<line x1="317.23" y1="502.77" x2="221.30" y2="598.70" stroke="hsl(29.8, 89.9%, 61.0%)" stroke-width="3.6" stroke-linecap="round"/>
<line x1="313.27" y1="498.64" x2="214.69" y2="588.96" stroke="hsl(29.8, 89.9%, 61.0%)" stroke-width="3.6" stroke-linecap="round"/>
<line x1="309.49" y1="494.33" x2="224.14" y2="565.96" stroke="hsl(29.8, 89.9%, 61.0%)" stroke-width="3.6" stroke-linecap="round"/>
<line x1="305.91" y1="489.87" x2="235.18" y2="544.14" stroke="hsl(29.8, 89.9%, 61.0%)" stroke-width="3.6" stroke-linecap="round"/>
<line x1="302.53" y1="485.25" x2="231.10" y2="535.27" stroke="hsl(29.8, 89.9%, 61.0%)" stroke-width="3.6" stroke-linecap="round"/>
<line x1="299.35" y1="480.49" x2="226.07" y2="527.18" stroke="hsl(28.7, 88.3%, 61.6%)" stroke-width="3.6" stroke-linecap="round"/>
<line x1="296.38" y1="475.60" x2="224.15" y2="517.30" stroke="hsl(15.5, 78.3%, 65.3%)" stroke-width="3.6" stroke-linecap="round"/>
<line x1="293.62" y1="470.58" x2="222.73" y2="507.49" stroke="hsl(2.3, 82.3%, 63.0%)" stroke-width="3.6" stroke-linecap="round"/>
<line x1="291.09" y1="465.45" x2="218.93" y2="499.10" stroke="hsl(1.1, 83.2%, 62.5%)" stroke-width="3.6" stroke-linecap="round"/>
<line x1="288.79" y1="460.21" x2="216.36" y2="490.21" stroke="hsl(1.1, 83.2%, 62.5%)" stroke-width="3.6" stroke-linecap="round"/>
<line x1="286.71" y1="454.87" x2="226.13" y2="476.92" stroke="hsl(1.1, 83.2%, 62.5%)" stroke-width="3.6" stroke-linecap="round"/>
<line x1="284.87" y1="449.45" x2="236.66" y2="464.65" stroke="hsl(1.1, 83.2%, 62.5%)" stroke-width="3.6" stroke-linecap="round"/>
<line x1="283.27" y1="443.96" x2="235.63" y2="456.72" stroke="hsl(1.1, 83.2%, 62.5%)" stroke-width="3.6" stroke-linecap="round"/>
<line x1="281.91" y1="438.40" x2="233.69" y2="449.09" stroke="hsl(1.1, 83.2%, 62.5%)" stroke-width="3.6" stroke-linecap="round"/>
<line x1="280.79" y1="432.78" x2="231.47" y2="441.48" stroke="hsl(1.1, 83.2%, 62.5%)" stroke-width="3.6" stroke-linecap="round"/>
<line x1="279.92" y1="427.13" x2="229.58" y2="433.75" stroke="hsl(1.1, 83.2%, 62.5%)" stroke-width="3.6" stroke-linecap="round"/>
<line x1="279.30" y1="421.43" x2="228.65" y2="425.87" stroke="hsl(1.1, 83.2%, 62.5%)" stroke-width="3.6" stroke-linecap="round"/>
<line x1="278.92" y1="415.72" x2="226.78" y2="418.00" stroke="hsl(1.1, 83.2%, 62.5%)" stroke-width="3.6" stroke-linecap="round"/>
<line x1="278.80" y1="410.00" x2="211.30" y2="410.00" stroke="hsl(1.1, 83.2%, 62.5%)" stroke-width="3.6" stroke-linecap="round"/>
<line x1="278.92" y1="404.28" x2="196.19" y2="400.66" stroke="hsl(1.1, 83.2%, 62.5%)" stroke-width="3.6" stroke-linecap="round"/>
<line x1="279.30" y1="398.57" x2="195.46" y2="391.23" stroke="hsl(1.1, 83.2%, 62.5%)" stroke-width="3.6" stroke-linecap="round"/>
<line x1="279.92" y1="392.87" x2="197.15" y2="381.98" stroke="hsl(359.8, 81.3%, 63.1%)" stroke-width="3.6" stroke-linecap="round"/>
<line x1="280.79" y1="387.22" x2="206.11" y2="374.05" stroke="hsl(345.1, 67.7%, 66.0%)" stroke-width="3.6" stroke-linecap="round"/>
<line x1="281.91" y1="381.60" x2="215.35" y2="366.85" stroke="hsl(330.4, 67.8%, 62.2%)" stroke-width="3.6" stroke-linecap="round"/>
<line x1="283.27" y1="376.04" x2="218.07" y2="358.57" stroke="hsl(329.1, 68.4%, 61.6%)" stroke-width="3.6" stroke-linecap="round"/>
<line x1="284.87" y1="370.55" x2="219.97" y2="350.08" stroke="hsl(329.1, 68.4%, 61.6%)" stroke-width="3.6" stroke-linecap="round"/>
<line x1="286.71" y1="365.13" x2="216.88" y2="339.71" stroke="hsl(329.1, 68.4%, 61.6%)" stroke-width="3.6" stroke-linecap="round"/>
<line x1="288.79" y1="359.79" x2="214.34" y2="328.95" stroke="hsl(329.1, 68.4%, 61.6%)" stroke-width="3.6" stroke-linecap="round"/>
<line x1="291.09" y1="354.55" x2="217.56" y2="320.26" stroke="hsl(329.1, 68.4%, 61.6%)" stroke-width="3.6" stroke-linecap="round"/>
<line x1="293.62" y1="349.42" x2="220.19" y2="311.19" stroke="hsl(329.1, 68.4%, 61.6%)" stroke-width="3.6" stroke-linecap="round"/>
<line x1="296.38" y1="344.40" x2="208.40" y2="293.61" stroke="hsl(329.1, 68.4%, 61.6%)" stroke-width="3.6" stroke-linecap="round"/>
<line x1="299.35" y1="339.51" x2="197.82" y2="274.83" stroke="hsl(329.1, 68.4%, 61.6%)" stroke-width="3.6" stroke-linecap="round"/>
<line x1="302.53" y1="334.75" x2="202.56" y2="264.75" stroke="hsl(329.1, 68.4%, 61.6%)" stroke-width="3.6" stroke-linecap="round"/>
<line x1="305.91" y1="330.13" x2="210.17" y2="256.66" stroke="hsl(329.1, 68.4%, 61.6%)" stroke-width="3.6" stroke-linecap="round"/>
<line x1="309.49" y1="325.67" x2="228.78" y2="257.94" stroke="hsl(329.1, 68.4%, 61.6%)" stroke-width="3.6" stroke-linecap="round"/>
<line x1="313.27" y1="321.36" x2="246.87" y2="260.52" stroke="hsl(329.1, 68.4%, 61.6%)" stroke-width="3.6" stroke-linecap="round"/>
<line x1="317.23" y1="317.23" x2="254.50" y2="254.50" stroke="hsl(329.1, 68.4%, 61.6%)" stroke-width="3.6" stroke-linecap="round"/>
<line x1="321.36" y1="313.27" x2="260.35" y2="246.69" stroke="hsl(326.0, 66.4%, 63.2%)" stroke-width="3.6" stroke-linecap="round"/>
<line x1="325.67" y1="309.49" x2="255.99" y2="226.46" stroke="hsl(290.6, 58.3%, 73.2%)" stroke-width="3.6" stroke-linecap="round"/>
<line x1="330.13" y1="305.91" x2="253.13" y2="205.56" stroke="hsl(255.3, 84.1%, 67.4%)" stroke-width="3.6" stroke-linecap="round"/>
<line x1="334.75" y1="302.53" x2="261.28" y2="197.60" stroke="hsl(252.2, 88.4%, 66.1%)" stroke-width="3.6" stroke-linecap="round"/>
<line x1="339.51" y1="299.35" x2="271.38" y2="192.40" stroke="hsl(252.2, 88.4%, 66.1%)" stroke-width="3.6" stroke-linecap="round"/>
<line x1="344.40" y1="296.38" x2="288.31" y2="199.22" stroke="hsl(252.2, 88.4%, 66.1%)" stroke-width="3.6" stroke-linecap="round"/>
<line x1="349.42" y1="293.62" x2="304.37" y2="207.08" stroke="hsl(252.2, 88.4%, 66.1%)" stroke-width="3.6" stroke-linecap="round"/>
<line x1="354.55" y1="291.09" x2="313.86" y2="203.83" stroke="hsl(252.2, 88.4%, 66.1%)" stroke-width="3.6" stroke-linecap="round"/>
<line x1="359.79" y1="288.79" x2="322.95" y2="199.83" stroke="hsl(252.2, 88.4%, 66.1%)" stroke-width="3.6" stroke-linecap="round"/>
<line x1="365.13" y1="286.71" x2="332.20" y2="196.24" stroke="hsl(252.2, 88.4%, 66.1%)" stroke-width="3.6" stroke-linecap="round"/>
<line x1="370.55" y1="284.87" x2="341.59" y2="193.05" stroke="hsl(252.2, 88.4%, 66.1%)" stroke-width="3.6" stroke-linecap="round"/>
<line x1="376.04" y1="283.27" x2="351.12" y2="190.27" stroke="hsl(252.2, 88.4%, 66.1%)" stroke-width="3.6" stroke-linecap="round"/>
<line x1="381.60" y1="281.91" x2="360.42" y2="186.35" stroke="hsl(252.2, 88.4%, 66.1%)" stroke-width="3.6" stroke-linecap="round"/>
<line x1="387.22" y1="280.79" x2="367.08" y2="166.58" stroke="hsl(252.2, 88.4%, 66.1%)" stroke-width="3.6" stroke-linecap="round"/>
<line x1="392.87" y1="279.92" x2="375.38" y2="147.00" stroke="hsl(252.2, 88.4%, 66.1%)" stroke-width="3.6" stroke-linecap="round"/>
<line x1="398.57" y1="279.30" x2="386.74" y2="144.15" stroke="hsl(252.2, 88.4%, 66.1%)" stroke-width="3.6" stroke-linecap="round"/>
<line x1="404.28" y1="278.92" x2="398.38" y2="143.82" stroke="hsl(251.0, 87.2%, 66.5%)" stroke-width="3.6" stroke-linecap="round"/>
<text x="525.0" y="94.1" text-anchor="middle" dominant-baseline="middle" font-family="sans-serif" font-size="15.5" fill="#777">数理・情報</text>
<text x="701.2" y="241.9" text-anchor="middle" dominant-baseline="middle" font-family="sans-serif" font-size="15.5" fill="#777">物理・化学</text>
<text x="741.1" y="468.4" text-anchor="middle" dominant-baseline="middle" font-family="sans-serif" font-size="15.5" fill="#777">機械・材料</text>
<text x="626.1" y="667.5" text-anchor="middle" dominant-baseline="middle" font-family="sans-serif" font-size="15.5" fill="#777">建設・環境</text>
<text x="410.0" y="746.2" text-anchor="middle" dominant-baseline="middle" font-family="sans-serif" font-size="15.5" fill="#777">生命・医療</text>
<text x="193.9" y="667.5" text-anchor="middle" dominant-baseline="middle" font-family="sans-serif" font-size="15.5" fill="#777">健康・こころ</text>
<text x="78.9" y="468.4" text-anchor="middle" dominant-baseline="middle" font-family="sans-serif" font-size="15.5" fill="#777">教育・人文</text>
<text x="118.8" y="241.9" text-anchor="middle" dominant-baseline="middle" font-family="sans-serif" font-size="15.5" fill="#777">法・政治・社会</text>
<text x="295.0" y="94.1" text-anchor="middle" dominant-baseline="middle" font-family="sans-serif" font-size="15.5" fill="#777">経済・経営</text>
<text x="410" y="806" text-anchor="middle" font-family="sans-serif" font-size="18" fill="#444">台地型 / 柔らかさ soft=0.33 / 36学部 144本 / ペルソナA</text>
</svg>