<svg xmlns="http://www.w3.org/2000/svg" width="720" height="720" viewBox="0 0 720 720">
<rect width="720" height="720" fill="white"/>
<line x1="360.00" y1="244.80" x2="360.00" y2="70.46" stroke="hsl(205.5, 69.8%, 63.5%)" stroke-width="4.2" stroke-linecap="round"/>
<line x1="366.03" y1="244.96" x2="375.06" y2="72.57" stroke="hsl(207.8, 71.4%, 63.9%)" stroke-width="4.2" stroke-linecap="round"/>
<line x1="372.04" y1="245.43" x2="389.91" y2="75.46" stroke="hsl(210.2, 73.4%, 64.2%)" stroke-width="4.2" stroke-linecap="round"/>
<line x1="378.02" y1="246.22" x2="404.49" y2="79.10" stroke="hsl(212.5, 75.8%, 64.3%)" stroke-width="4.2" stroke-linecap="round"/>
<line x1="383.95" y1="247.32" x2="418.77" y2="83.50" stroke="hsl(214.8, 78.5%, 64.3%)" stroke-width="4.2" stroke-linecap="round"/>
<line x1="389.82" y1="248.73" x2="432.72" y2="88.61" stroke="hsl(217.2, 81.7%, 64.1%)" stroke-width="4.2" stroke-linecap="round"/>
<line x1="395.60" y1="250.44" x2="446.29" y2="94.41" stroke="hsl(219.5, 85.3%, 63.7%)" stroke-width="4.2" stroke-linecap="round"/>
<line x1="401.28" y1="252.45" x2="459.46" y2="100.90" stroke="hsl(221.8, 89.3%, 63.2%)" stroke-width="4.2" stroke-linecap="round"/>
<line x1="406.86" y1="254.76" x2="472.06" y2="108.31" stroke="hsl(224.0, 90.3%, 63.5%)" stroke-width="4.2" stroke-linecap="round"/>
<line x1="412.30" y1="257.36" x2="484.02" y2="116.60" stroke="hsl(225.9, 88.0%, 64.5%)" stroke-width="4.2" stroke-linecap="round"/>
<line x1="417.60" y1="260.23" x2="495.42" y2="125.45" stroke="hsl(227.9, 86.1%, 65.4%)" stroke-width="4.2" stroke-linecap="round"/>
<line x1="422.74" y1="263.39" x2="506.23" y2="134.82" stroke="hsl(229.8, 84.5%, 66.2%)" stroke-width="4.2" stroke-linecap="round"/>
<line x1="427.71" y1="266.80" x2="516.44" y2="144.68" stroke="hsl(231.8, 83.2%, 66.9%)" stroke-width="4.2" stroke-linecap="round"/>
<line x1="432.50" y1="270.47" x2="526.03" y2="154.98" stroke="hsl(233.7, 82.2%, 67.4%)" stroke-width="4.2" stroke-linecap="round"/>
<line x1="437.08" y1="274.39" x2="534.96" y2="165.68" stroke="hsl(235.6, 81.6%, 67.8%)" stroke-width="4.2" stroke-linecap="round"/>
<line x1="441.46" y1="278.54" x2="543.24" y2="176.76" stroke="hsl(237.6, 81.2%, 68.1%)" stroke-width="4.2" stroke-linecap="round"/>
<line x1="445.61" y1="282.92" x2="550.84" y2="188.17" stroke="hsl(239.5, 81.2%, 68.2%)" stroke-width="4.2" stroke-linecap="round"/>
<line x1="449.53" y1="287.50" x2="557.75" y2="199.86" stroke="hsl(241.5, 81.5%, 68.2%)" stroke-width="4.2" stroke-linecap="round"/>
<line x1="453.20" y1="292.29" x2="563.97" y2="211.81" stroke="hsl(243.4, 82.1%, 68.1%)" stroke-width="4.2" stroke-linecap="round"/>
<line x1="456.61" y1="297.26" x2="569.49" y2="223.96" stroke="hsl(245.4, 83.0%, 67.9%)" stroke-width="4.2" stroke-linecap="round"/>
<line x1="459.77" y1="302.40" x2="574.29" y2="236.28" stroke="hsl(247.3, 84.2%, 67.5%)" stroke-width="4.2" stroke-linecap="round"/>
<line x1="462.64" y1="307.70" x2="578.39" y2="248.72" stroke="hsl(249.2, 85.6%, 67.0%)" stroke-width="4.2" stroke-linecap="round"/>
<line x1="465.24" y1="313.14" x2="581.78" y2="261.26" stroke="hsl(251.2, 87.4%, 66.4%)" stroke-width="4.2" stroke-linecap="round"/>
<line x1="467.55" y1="318.72" x2="584.45" y2="273.84" stroke="hsl(254.7, 84.9%, 67.1%)" stroke-width="4.2" stroke-linecap="round"/>
<line x1="469.56" y1="324.40" x2="586.42" y2="286.43" stroke="hsl(259.9, 78.5%, 69.0%)" stroke-width="4.2" stroke-linecap="round"/>
<line x1="471.27" y1="330.18" x2="587.68" y2="298.99" stroke="hsl(265.0, 73.0%, 70.6%)" stroke-width="4.2" stroke-linecap="round"/>
<line x1="472.68" y1="336.05" x2="588.26" y2="311.48" stroke="hsl(270.1, 68.4%, 71.8%)" stroke-width="4.2" stroke-linecap="round"/>
<line x1="473.78" y1="341.98" x2="588.17" y2="323.86" stroke="hsl(275.2, 64.7%, 72.6%)" stroke-width="4.2" stroke-linecap="round"/>
<line x1="474.57" y1="347.96" x2="587.41" y2="336.10" stroke="hsl(280.4, 61.8%, 73.2%)" stroke-width="4.2" stroke-linecap="round"/>
<line x1="475.04" y1="353.97" x2="586.00" y2="348.16" stroke="hsl(285.5, 59.7%, 73.4%)" stroke-width="4.2" stroke-linecap="round"/>
<line x1="475.20" y1="360.00" x2="583.95" y2="360.00" stroke="hsl(290.6, 58.3%, 73.2%)" stroke-width="4.2" stroke-linecap="round"/>
<line x1="475.04" y1="366.03" x2="581.30" y2="371.60" stroke="hsl(295.8, 57.6%, 72.8%)" stroke-width="4.2" stroke-linecap="round"/>
<line x1="474.57" y1="372.04" x2="578.05" y2="382.92" stroke="hsl(300.9, 57.7%, 72.0%)" stroke-width="4.2" stroke-linecap="round"/>
<line x1="473.78" y1="378.02" x2="574.23" y2="393.93" stroke="hsl(306.0, 58.4%, 70.8%)" stroke-width="4.2" stroke-linecap="round"/>
<line x1="472.68" y1="383.95" x2="569.86" y2="404.61" stroke="hsl(311.2, 59.6%, 69.4%)" stroke-width="4.2" stroke-linecap="round"/>
<line x1="471.27" y1="389.82" x2="564.96" y2="414.92" stroke="hsl(316.3, 61.5%, 67.5%)" stroke-width="4.2" stroke-linecap="round"/>
<line x1="469.56" y1="395.60" x2="559.57" y2="424.84" stroke="hsl(321.4, 63.9%, 65.4%)" stroke-width="4.2" stroke-linecap="round"/>
<line x1="467.55" y1="401.28" x2="553.71" y2="434.36" stroke="hsl(326.5, 66.8%, 62.9%)" stroke-width="4.2" stroke-linecap="round"/>
<line x1="465.24" y1="406.86" x2="546.69" y2="443.12" stroke="hsl(330.2, 67.9%, 62.1%)" stroke-width="4.2" stroke-linecap="round"/>
<line x1="462.64" y1="412.30" x2="538.62" y2="451.01" stroke="hsl(332.3, 67.2%, 63.1%)" stroke-width="4.2" stroke-linecap="round"/>
<line x1="459.77" y1="417.60" x2="530.24" y2="458.29" stroke="hsl(334.4, 66.6%, 63.9%)" stroke-width="4.2" stroke-linecap="round"/>
<line x1="456.61" y1="422.74" x2="521.59" y2="464.94" stroke="hsl(336.6, 66.4%, 64.6%)" stroke-width="4.2" stroke-linecap="round"/>
<line x1="453.20" y1="427.71" x2="512.73" y2="470.96" stroke="hsl(338.7, 66.3%, 65.2%)" stroke-width="4.2" stroke-linecap="round"/>
<line x1="449.53" y1="432.50" x2="503.68" y2="476.35" stroke="hsl(340.8, 66.5%, 65.6%)" stroke-width="4.2" stroke-linecap="round"/>
<line x1="445.61" y1="437.08" x2="494.50" y2="481.10" stroke="hsl(343.0, 67.0%, 65.8%)" stroke-width="4.2" stroke-linecap="round"/>
<line x1="441.46" y1="441.46" x2="485.22" y2="485.22" stroke="hsl(345.1, 67.7%, 66.0%)" stroke-width="4.2" stroke-linecap="round"/>
<line x1="437.08" y1="445.61" x2="475.89" y2="488.71" stroke="hsl(347.3, 68.7%, 66.0%)" stroke-width="4.2" stroke-linecap="round"/>
<line x1="432.50" y1="449.53" x2="466.54" y2="491.57" stroke="hsl(349.4, 70.1%, 65.8%)" stroke-width="4.2" stroke-linecap="round"/>
<line x1="427.71" y1="453.20" x2="457.22" y2="493.81" stroke="hsl(351.5, 71.7%, 65.5%)" stroke-width="4.2" stroke-linecap="round"/>
<line x1="422.74" y1="456.61" x2="447.96" y2="495.45" stroke="hsl(353.7, 73.7%, 65.1%)" stroke-width="4.2" stroke-linecap="round"/>
<line x1="417.60" y1="459.77" x2="438.81" y2="496.50" stroke="hsl(355.8, 76.0%, 64.6%)" stroke-width="4.2" stroke-linecap="round"/>
<line x1="412.30" y1="462.64" x2="429.79" y2="496.96" stroke="hsl(357.9, 78.6%, 63.9%)" stroke-width="4.2" stroke-linecap="round"/>
<line x1="406.86" y1="465.24" x2="420.94" y2="496.87" stroke="hsl(0.1, 81.6%, 63.0%)" stroke-width="4.2" stroke-linecap="round"/>
<line x1="401.28" y1="467.55" x2="413.97" y2="500.59" stroke="hsl(2.1, 82.4%, 62.9%)" stroke-width="4.2" stroke-linecap="round"/>
<line x1="395.60" y1="469.56" x2="408.22" y2="508.39" stroke="hsl(4.0, 81.0%, 63.7%)" stroke-width="4.2" stroke-linecap="round"/>
<line x1="389.82" y1="471.27" x2="401.79" y2="515.97" stroke="hsl(5.9, 79.9%, 64.2%)" stroke-width="4.2" stroke-linecap="round"/>
<line x1="383.95" y1="472.68" x2="394.70" y2="523.26" stroke="hsl(7.8, 79.0%, 64.7%)" stroke-width="4.2" stroke-linecap="round"/>
<line x1="378.02" y1="473.78" x2="386.96" y2="530.22" stroke="hsl(9.7, 78.4%, 65.0%)" stroke-width="4.2" stroke-linecap="round"/>
<line x1="372.04" y1="474.57" x2="378.58" y2="536.81" stroke="hsl(11.7, 78.1%, 65.2%)" stroke-width="4.2" stroke-linecap="round"/>
<line x1="366.03" y1="475.04" x2="369.59" y2="542.97" stroke="hsl(13.6, 78.1%, 65.3%)" stroke-width="4.2" stroke-linecap="round"/>
<line x1="360.00" y1="475.20" x2="360.00" y2="548.66" stroke="hsl(15.5, 78.3%, 65.3%)" stroke-width="4.2" stroke-linecap="round"/>
<line x1="353.97" y1="475.04" x2="349.84" y2="553.84" stroke="hsl(17.4, 78.9%, 65.1%)" stroke-width="4.2" stroke-linecap="round"/>
<line x1="347.96" y1="474.57" x2="339.14" y2="558.45" stroke="hsl(19.3, 79.7%, 64.8%)" stroke-width="4.2" stroke-linecap="round"/>
<line x1="341.98" y1="473.78" x2="327.93" y2="562.46" stroke="hsl(21.2, 80.9%, 64.4%)" stroke-width="4.2" stroke-linecap="round"/>
<line x1="336.05" y1="472.68" x2="316.25" y2="565.82" stroke="hsl(23.1, 82.3%, 63.9%)" stroke-width="4.2" stroke-linecap="round"/>
<line x1="330.18" y1="471.27" x2="304.13" y2="568.50" stroke="hsl(25.0, 84.1%, 63.2%)" stroke-width="4.2" stroke-linecap="round"/>
<line x1="324.40" y1="469.56" x2="291.62" y2="570.46" stroke="hsl(27.0, 86.2%, 62.4%)" stroke-width="4.2" stroke-linecap="round"/>
<line x1="318.72" y1="467.55" x2="278.75" y2="571.67" stroke="hsl(28.9, 88.6%, 61.5%)" stroke-width="4.2" stroke-linecap="round"/>
<line x1="313.14" y1="465.24" x2="267.91" y2="566.84" stroke="hsl(30.5, 89.2%, 61.3%)" stroke-width="4.2" stroke-linecap="round"/>
<line x1="307.70" y1="462.64" x2="259.97" y2="556.32" stroke="hsl(31.7, 87.9%, 61.8%)" stroke-width="4.2" stroke-linecap="round"/>
<line x1="302.40" y1="459.77" x2="252.87" y2="545.55" stroke="hsl(33.0, 86.8%, 62.3%)" stroke-width="4.2" stroke-linecap="round"/>
<line x1="297.26" y1="456.61" x2="246.62" y2="534.59" stroke="hsl(34.3, 85.9%, 62.7%)" stroke-width="4.2" stroke-linecap="round"/>
<line x1="292.29" y1="453.20" x2="241.21" y2="523.49" stroke="hsl(35.6, 85.1%, 62.9%)" stroke-width="4.2" stroke-linecap="round"/>
<line x1="287.50" y1="449.53" x2="236.65" y2="512.33" stroke="hsl(36.8, 84.6%, 63.1%)" stroke-width="4.2" stroke-linecap="round"/>
<line x1="282.92" y1="445.61" x2="232.91" y2="501.14" stroke="hsl(38.1, 84.3%, 63.3%)" stroke-width="4.2" stroke-linecap="round"/>
<line x1="278.54" y1="441.46" x2="230.00" y2="490.00" stroke="hsl(39.4, 84.2%, 63.3%)" stroke-width="4.2" stroke-linecap="round"/>
<line x1="274.39" y1="437.08" x2="227.89" y2="478.95" stroke="hsl(40.7, 84.3%, 63.3%)" stroke-width="4.2" stroke-linecap="round"/>
<line x1="270.47" y1="432.50" x2="226.58" y2="468.04" stroke="hsl(41.9, 84.6%, 63.1%)" stroke-width="4.2" stroke-linecap="round"/>
<line x1="266.80" y1="427.71" x2="226.02" y2="457.34" stroke="hsl(43.2, 85.1%, 62.9%)" stroke-width="4.2" stroke-linecap="round"/>
<line x1="263.39" y1="422.74" x2="226.21" y2="446.88" stroke="hsl(44.5, 85.9%, 62.7%)" stroke-width="4.2" stroke-linecap="round"/>
<line x1="260.23" y1="417.60" x2="227.12" y2="436.72" stroke="hsl(45.8, 86.8%, 62.3%)" stroke-width="4.2" stroke-linecap="round"/>
<line x1="257.36" y1="412.30" x2="228.70" y2="426.90" stroke="hsl(47.0, 87.9%, 61.8%)" stroke-width="4.2" stroke-linecap="round"/>
<line x1="254.76" y1="406.86" x2="230.93" y2="417.46" stroke="hsl(48.3, 89.2%, 61.3%)" stroke-width="4.2" stroke-linecap="round"/>
<line x1="252.45" y1="401.28" x2="226.42" y2="411.27" stroke="hsl(51.4, 85.5%, 61.7%)" stroke-width="4.2" stroke-linecap="round"/>
<line x1="250.44" y1="395.60" x2="214.72" y2="407.20" stroke="hsl(56.3, 77.4%, 63.0%)" stroke-width="4.2" stroke-linecap="round"/>
<line x1="248.73" y1="389.82" x2="203.10" y2="402.04" stroke="hsl(61.2, 70.4%, 64.0%)" stroke-width="4.2" stroke-linecap="round"/>
<line x1="247.32" y1="383.95" x2="191.65" y2="395.78" stroke="hsl(66.1, 64.5%, 64.7%)" stroke-width="4.2" stroke-linecap="round"/>
<line x1="246.22" y1="378.02" x2="180.45" y2="388.44" stroke="hsl(71.0, 59.4%, 65.0%)" stroke-width="4.2" stroke-linecap="round"/>
<line x1="245.43" y1="372.04" x2="169.58" y2="380.01" stroke="hsl(75.9, 55.2%, 65.0%)" stroke-width="4.2" stroke-linecap="round"/>
<line x1="244.96" y1="366.03" x2="159.13" y2="370.53" stroke="hsl(80.8, 51.7%, 64.7%)" stroke-width="4.2" stroke-linecap="round"/>
<line x1="244.80" y1="360.00" x2="149.18" y2="360.00" stroke="hsl(85.7, 48.8%, 64.1%)" stroke-width="4.2" stroke-linecap="round"/>
<line x1="244.96" y1="353.97" x2="139.80" y2="348.46" stroke="hsl(90.6, 46.6%, 63.1%)" stroke-width="4.2" stroke-linecap="round"/>
<line x1="245.43" y1="347.96" x2="131.08" y2="335.94" stroke="hsl(95.5, 44.8%, 61.9%)" stroke-width="4.2" stroke-linecap="round"/>
<line x1="246.22" y1="341.98" x2="123.10" y2="322.48" stroke="hsl(100.4, 43.4%, 60.3%)" stroke-width="4.2" stroke-linecap="round"/>
<line x1="247.32" y1="336.05" x2="115.92" y2="308.12" stroke="hsl(105.3, 42.2%, 58.4%)" stroke-width="4.2" stroke-linecap="round"/>
<line x1="248.73" y1="330.18" x2="109.62" y2="292.91" stroke="hsl(110.2, 41.3%, 56.2%)" stroke-width="4.2" stroke-linecap="round"/>
<line x1="250.44" y1="324.40" x2="104.27" y2="276.91" stroke="hsl(115.1, 40.6%, 53.6%)" stroke-width="4.2" stroke-linecap="round"/>
<line x1="252.45" y1="318.72" x2="99.94" y2="260.17" stroke="hsl(120.0, 39.8%, 50.8%)" stroke-width="4.2" stroke-linecap="round"/>
<line x1="254.76" y1="313.14" x2="100.52" y2="244.47" stroke="hsl(124.6, 39.2%, 50.5%)" stroke-width="4.2" stroke-linecap="round"/>
<line x1="257.36" y1="307.70" x2="105.79" y2="230.48" stroke="hsl(129.0, 38.8%, 52.7%)" stroke-width="4.2" stroke-linecap="round"/>
<line x1="260.23" y1="302.40" x2="111.82" y2="216.72" stroke="hsl(133.3, 38.6%, 54.7%)" stroke-width="4.2" stroke-linecap="round"/>
<line x1="263.39" y1="297.26" x2="118.60" y2="203.23" stroke="hsl(137.7, 38.6%, 56.4%)" stroke-width="4.2" stroke-linecap="round"/>
<line x1="266.80" y1="292.29" x2="126.11" y2="190.07" stroke="hsl(142.1, 38.8%, 57.8%)" stroke-width="4.2" stroke-linecap="round"/>
<line x1="270.47" y1="287.50" x2="134.34" y2="177.27" stroke="hsl(146.4, 39.4%, 59.0%)" stroke-width="4.2" stroke-linecap="round"/>
<line x1="274.39" y1="282.92" x2="143.27" y2="164.86" stroke="hsl(150.8, 40.2%, 59.8%)" stroke-width="4.2" stroke-linecap="round"/>
<line x1="278.54" y1="278.54" x2="152.89" y2="152.89" stroke="hsl(155.2, 41.4%, 60.4%)" stroke-width="4.2" stroke-linecap="round"/>
<line x1="282.92" y1="274.39" x2="163.16" y2="141.39" stroke="hsl(159.6, 43.0%, 60.6%)" stroke-width="4.2" stroke-linecap="round"/>
<line x1="287.50" y1="270.47" x2="174.08" y2="130.40" stroke="hsl(163.9, 45.1%, 60.6%)" stroke-width="4.2" stroke-linecap="round"/>
<line x1="292.29" y1="266.80" x2="185.60" y2="119.96" stroke="hsl(168.3, 47.7%, 60.3%)" stroke-width="4.2" stroke-linecap="round"/>
<line x1="297.26" y1="263.39" x2="197.72" y2="110.10" stroke="hsl(172.7, 50.8%, 59.8%)" stroke-width="4.2" stroke-linecap="round"/>
<line x1="302.40" y1="260.23" x2="210.38" y2="100.86" stroke="hsl(177.0, 54.5%, 58.9%)" stroke-width="4.2" stroke-linecap="round"/>
<line x1="307.70" y1="257.36" x2="223.58" y2="92.25" stroke="hsl(181.4, 58.8%, 57.7%)" stroke-width="4.2" stroke-linecap="round"/>
<line x1="313.14" y1="254.76" x2="237.26" y2="84.32" stroke="hsl(185.8, 63.8%, 56.3%)" stroke-width="4.2" stroke-linecap="round"/>
<line x1="318.72" y1="252.45" x2="251.94" y2="78.49" stroke="hsl(189.1, 66.3%, 56.3%)" stroke-width="4.2" stroke-linecap="round"/>
<line x1="324.40" y1="250.44" x2="267.35" y2="74.85" stroke="hsl(191.5, 66.1%, 57.8%)" stroke-width="4.2" stroke-linecap="round"/>
<line x1="330.18" y1="248.73" x2="282.84" y2="72.04" stroke="hsl(193.8, 66.1%, 59.1%)" stroke-width="4.2" stroke-linecap="round"/>
<line x1="336.05" y1="247.32" x2="298.38" y2="70.08" stroke="hsl(196.1, 66.3%, 60.3%)" stroke-width="4.2" stroke-linecap="round"/>
<line x1="341.98" y1="246.22" x2="313.90" y2="68.94" stroke="hsl(198.5, 66.8%, 61.3%)" stroke-width="4.2" stroke-linecap="round"/>
<line x1="347.96" y1="245.43" x2="329.38" y2="68.64" stroke="hsl(200.8, 67.5%, 62.2%)" stroke-width="4.2" stroke-linecap="round"/>
<line x1="353.97" y1="244.96" x2="344.76" y2="69.14" stroke="hsl(203.1, 68.5%, 62.9%)" stroke-width="4.2" stroke-linecap="round"/>
<text x="360" y="702" text-anchor="middle" font-family="sans-serif" font-size="22" fill="#444">参照: 現行8カテゴリ / 120本</text>
</svg>