<svg xmlns="http://www.w3.org/2000/svg" width="560" height="560" viewBox="0 0 560 560">
<rect width="560" height="560" fill="white"/>
<line x1="280.00" y1="184.80" x2="280.00" y2="97.89" stroke="hsl(202.1, 54.1%, 54.8%)" stroke-width="6.61" stroke-linecap="round"/>
<line x1="284.15" y1="184.89" x2="287.83" y2="100.56" stroke="hsl(216.1, 58.2%, 52.4%)" stroke-width="6.61" stroke-linecap="round"/>
<line x1="288.30" y1="185.16" x2="295.56" y2="102.10" stroke="hsl(221.9, 62.4%, 50.0%)" stroke-width="6.61" stroke-linecap="round"/>
<line x1="292.43" y1="185.61" x2="303.31" y2="102.93" stroke="hsl(221.9, 62.4%, 50.0%)" stroke-width="6.61" stroke-linecap="round"/>
<line x1="296.53" y1="186.25" x2="311.02" y2="104.06" stroke="hsl(221.9, 62.4%, 50.0%)" stroke-width="6.61" stroke-linecap="round"/>
<line x1="300.61" y1="187.06" x2="318.68" y2="105.54" stroke="hsl(221.9, 62.4%, 50.0%)" stroke-width="6.61" stroke-linecap="round"/>
<line x1="304.64" y1="188.04" x2="326.26" y2="107.37" stroke="hsl(221.9, 62.4%, 50.0%)" stroke-width="6.61" stroke-linecap="round"/>
<line x1="308.63" y1="189.21" x2="333.62" y2="109.95" stroke="hsl(221.9, 62.4%, 50.0%)" stroke-width="6.61" stroke-linecap="round"/>
<line x1="312.56" y1="190.54" x2="340.63" y2="113.41" stroke="hsl(221.9, 62.4%, 50.0%)" stroke-width="6.61" stroke-linecap="round"/>
<line x1="316.43" y1="192.05" x2="347.46" y2="117.15" stroke="hsl(221.9, 62.4%, 50.0%)" stroke-width="6.61" stroke-linecap="round"/>
<line x1="320.23" y1="193.72" x2="354.32" y2="120.63" stroke="hsl(221.9, 62.4%, 50.0%)" stroke-width="6.61" stroke-linecap="round"/>
<line x1="323.96" y1="195.56" x2="361.36" y2="123.71" stroke="hsl(221.9, 62.4%, 50.0%)" stroke-width="6.61" stroke-linecap="round"/>
<line x1="327.60" y1="197.55" x2="368.53" y2="126.66" stroke="hsl(221.9, 62.4%, 50.0%)" stroke-width="6.61" stroke-linecap="round"/>
<line x1="331.15" y1="199.71" x2="375.60" y2="129.94" stroke="hsl(221.9, 62.4%, 50.0%)" stroke-width="6.61" stroke-linecap="round"/>
<line x1="334.60" y1="202.02" x2="382.25" y2="133.97" stroke="hsl(221.9, 62.4%, 50.0%)" stroke-width="6.61" stroke-linecap="round"/>
<line x1="337.95" y1="204.47" x2="389.20" y2="137.69" stroke="hsl(227.7, 58.2%, 52.4%)" stroke-width="6.61" stroke-linecap="round"/>
<line x1="341.19" y1="207.07" x2="397.01" y2="140.55" stroke="hsl(241.9, 54.0%, 54.9%)" stroke-width="6.61" stroke-linecap="round"/>
<line x1="344.32" y1="209.81" x2="404.78" y2="143.82" stroke="hsl(256.0, 58.2%, 52.4%)" stroke-width="6.61" stroke-linecap="round"/>
<line x1="347.32" y1="212.68" x2="411.38" y2="148.62" stroke="hsl(261.9, 62.4%, 50.0%)" stroke-width="6.61" stroke-linecap="round"/>
<line x1="350.19" y1="215.68" x2="417.93" y2="153.61" stroke="hsl(261.9, 62.4%, 50.0%)" stroke-width="6.61" stroke-linecap="round"/>
<line x1="352.93" y1="218.81" x2="425.68" y2="157.76" stroke="hsl(261.9, 62.4%, 50.0%)" stroke-width="6.61" stroke-linecap="round"/>
<line x1="355.53" y1="222.05" x2="433.32" y2="162.35" stroke="hsl(261.9, 62.4%, 50.0%)" stroke-width="6.61" stroke-linecap="round"/>
<line x1="357.98" y1="225.40" x2="439.35" y2="168.42" stroke="hsl(261.9, 62.4%, 50.0%)" stroke-width="6.61" stroke-linecap="round"/>
<line x1="360.29" y1="228.85" x2="444.80" y2="175.01" stroke="hsl(261.9, 62.4%, 50.0%)" stroke-width="6.61" stroke-linecap="round"/>
<line x1="362.45" y1="232.40" x2="451.02" y2="181.26" stroke="hsl(261.9, 62.4%, 50.0%)" stroke-width="6.61" stroke-linecap="round"/>
<line x1="364.44" y1="236.04" x2="457.00" y2="187.86" stroke="hsl(261.9, 62.4%, 50.0%)" stroke-width="6.61" stroke-linecap="round"/>
<line x1="366.28" y1="239.77" x2="461.64" y2="195.30" stroke="hsl(261.9, 62.4%, 50.0%)" stroke-width="6.61" stroke-linecap="round"/>
<line x1="367.95" y1="243.57" x2="463.00" y2="204.20" stroke="hsl(261.9, 62.4%, 50.0%)" stroke-width="6.61" stroke-linecap="round"/>
<line x1="369.46" y1="247.44" x2="460.85" y2="214.18" stroke="hsl(261.9, 62.4%, 50.0%)" stroke-width="6.61" stroke-linecap="round"/>
<line x1="370.79" y1="251.37" x2="458.19" y2="223.82" stroke="hsl(261.9, 62.4%, 50.0%)" stroke-width="6.61" stroke-linecap="round"/>
<line x1="371.96" y1="255.36" x2="458.22" y2="232.25" stroke="hsl(261.9, 62.4%, 50.0%)" stroke-width="6.61" stroke-linecap="round"/>
<line x1="372.94" y1="259.39" x2="461.34" y2="239.80" stroke="hsl(267.8, 58.2%, 52.5%)" stroke-width="6.61" stroke-linecap="round"/>
<line x1="373.75" y1="263.47" x2="465.88" y2="247.23" stroke="hsl(282.1, 54.0%, 54.9%)" stroke-width="6.61" stroke-linecap="round"/>
<line x1="374.39" y1="267.57" x2="470.10" y2="254.97" stroke="hsl(296.4, 58.2%, 52.5%)" stroke-width="6.61" stroke-linecap="round"/>
<line x1="374.84" y1="271.70" x2="472.25" y2="263.18" stroke="hsl(302.3, 62.4%, 50.0%)" stroke-width="6.61" stroke-linecap="round"/>
<line x1="375.11" y1="275.85" x2="473.38" y2="271.56" stroke="hsl(302.3, 62.4%, 50.0%)" stroke-width="6.61" stroke-linecap="round"/>
<line x1="375.20" y1="280.00" x2="474.98" y2="280.00" stroke="hsl(302.3, 62.4%, 50.0%)" stroke-width="6.61" stroke-linecap="round"/>
<line x1="375.11" y1="284.15" x2="476.21" y2="288.57" stroke="hsl(302.3, 62.4%, 50.0%)" stroke-width="6.61" stroke-linecap="round"/>
<line x1="374.84" y1="288.30" x2="476.24" y2="297.17" stroke="hsl(302.3, 62.4%, 50.0%)" stroke-width="6.61" stroke-linecap="round"/>
<line x1="374.39" y1="292.43" x2="475.89" y2="305.79" stroke="hsl(302.3, 62.4%, 50.0%)" stroke-width="6.61" stroke-linecap="round"/>
<line x1="373.75" y1="296.53" x2="476.01" y2="314.56" stroke="hsl(302.3, 62.4%, 50.0%)" stroke-width="6.61" stroke-linecap="round"/>
<line x1="372.94" y1="300.61" x2="475.72" y2="323.39" stroke="hsl(302.3, 62.4%, 50.0%)" stroke-width="6.61" stroke-linecap="round"/>
<line x1="371.96" y1="304.64" x2="474.22" y2="332.04" stroke="hsl(302.3, 62.4%, 50.0%)" stroke-width="6.61" stroke-linecap="round"/>
<line x1="370.79" y1="308.63" x2="471.84" y2="340.49" stroke="hsl(302.3, 62.4%, 50.0%)" stroke-width="6.61" stroke-linecap="round"/>
<line x1="369.46" y1="312.56" x2="469.19" y2="348.86" stroke="hsl(302.3, 62.4%, 50.0%)" stroke-width="6.61" stroke-linecap="round"/>
<line x1="367.95" y1="316.43" x2="466.18" y2="357.12" stroke="hsl(302.3, 62.4%, 50.0%)" stroke-width="6.61" stroke-linecap="round"/>
<line x1="366.28" y1="320.23" x2="462.71" y2="365.20" stroke="hsl(302.3, 62.4%, 50.0%)" stroke-width="6.61" stroke-linecap="round"/>
<line x1="364.44" y1="323.96" x2="452.35" y2="369.72" stroke="hsl(308.1, 58.2%, 52.4%)" stroke-width="6.61" stroke-linecap="round"/>
<line x1="362.45" y1="327.60" x2="433.01" y2="368.34" stroke="hsl(322.1, 54.1%, 54.8%)" stroke-width="6.61" stroke-linecap="round"/>
<line x1="360.29" y1="331.15" x2="414.15" y2="365.46" stroke="hsl(336.1, 58.2%, 52.4%)" stroke-width="6.61" stroke-linecap="round"/>
<line x1="357.98" y1="334.60" x2="404.32" y2="367.05" stroke="hsl(341.9, 62.4%, 50.0%)" stroke-width="6.61" stroke-linecap="round"/>
<line x1="355.53" y1="337.95" x2="404.66" y2="375.65" stroke="hsl(341.9, 62.4%, 50.0%)" stroke-width="6.61" stroke-linecap="round"/>
<line x1="352.93" y1="341.19" x2="410.30" y2="389.33" stroke="hsl(341.9, 62.4%, 50.0%)" stroke-width="6.61" stroke-linecap="round"/>
<line x1="350.19" y1="344.32" x2="414.96" y2="403.67" stroke="hsl(341.9, 62.4%, 50.0%)" stroke-width="6.61" stroke-linecap="round"/>
<line x1="347.32" y1="347.32" x2="413.24" y2="413.24" stroke="hsl(341.9, 62.4%, 50.0%)" stroke-width="6.61" stroke-linecap="round"/>
<line x1="344.32" y1="350.19" x2="404.35" y2="415.71" stroke="hsl(341.9, 62.4%, 50.0%)" stroke-width="6.61" stroke-linecap="round"/>
<line x1="341.19" y1="352.93" x2="391.55" y2="412.94" stroke="hsl(341.9, 62.4%, 50.0%)" stroke-width="6.61" stroke-linecap="round"/>
<line x1="337.95" y1="355.53" x2="379.24" y2="409.33" stroke="hsl(341.9, 62.4%, 50.0%)" stroke-width="6.61" stroke-linecap="round"/>
<line x1="334.60" y1="357.98" x2="371.01" y2="409.97" stroke="hsl(341.9, 62.4%, 50.0%)" stroke-width="6.61" stroke-linecap="round"/>
<line x1="331.15" y1="360.29" x2="365.39" y2="414.03" stroke="hsl(341.9, 62.4%, 50.0%)" stroke-width="6.61" stroke-linecap="round"/>
<line x1="327.60" y1="362.45" x2="359.76" y2="418.15" stroke="hsl(341.9, 62.4%, 50.0%)" stroke-width="6.61" stroke-linecap="round"/>
<line x1="323.96" y1="364.44" x2="353.94" y2="422.04" stroke="hsl(341.9, 62.4%, 50.0%)" stroke-width="6.61" stroke-linecap="round"/>
<line x1="320.23" y1="366.28" x2="347.78" y2="425.36" stroke="hsl(341.9, 62.4%, 50.0%)" stroke-width="6.61" stroke-linecap="round"/>
<line x1="316.43" y1="367.95" x2="342.30" y2="430.40" stroke="hsl(347.7, 58.2%, 52.4%)" stroke-width="6.61" stroke-linecap="round"/>
<line x1="312.56" y1="369.46" x2="337.66" y2="438.43" stroke="hsl(1.9, 54.0%, 54.9%)" stroke-width="6.61" stroke-linecap="round"/>
<line x1="308.63" y1="370.79" x2="332.44" y2="446.33" stroke="hsl(16.0, 58.2%, 52.4%)" stroke-width="6.61" stroke-linecap="round"/>
<line x1="304.64" y1="371.96" x2="325.76" y2="450.79" stroke="hsl(21.9, 62.4%, 50.0%)" stroke-width="6.61" stroke-linecap="round"/>
<line x1="300.61" y1="372.94" x2="316.39" y2="444.13" stroke="hsl(21.9, 62.4%, 50.0%)" stroke-width="6.61" stroke-linecap="round"/>
<line x1="296.53" y1="373.75" x2="305.55" y2="424.89" stroke="hsl(21.9, 62.4%, 50.0%)" stroke-width="6.61" stroke-linecap="round"/>
<line x1="292.43" y1="374.39" x2="296.46" y2="405.05" stroke="hsl(21.9, 62.4%, 50.0%)" stroke-width="6.61" stroke-linecap="round"/>
<line x1="288.30" y1="374.84" x2="290.23" y2="396.99" stroke="hsl(21.9, 62.4%, 50.0%)" stroke-width="6.61" stroke-linecap="round"/>
<line x1="284.15" y1="375.11" x2="285.13" y2="397.54" stroke="hsl(21.9, 62.4%, 50.0%)" stroke-width="6.61" stroke-linecap="round"/>
<line x1="280.00" y1="375.20" x2="280.00" y2="398.19" stroke="hsl(21.9, 62.4%, 50.0%)" stroke-width="6.61" stroke-linecap="round"/>
<line x1="275.85" y1="375.11" x2="274.82" y2="398.61" stroke="hsl(21.9, 62.4%, 50.0%)" stroke-width="6.61" stroke-linecap="round"/>
<line x1="271.70" y1="374.84" x2="269.63" y2="398.49" stroke="hsl(21.9, 62.4%, 50.0%)" stroke-width="6.61" stroke-linecap="round"/>
<line x1="267.57" y1="374.39" x2="264.53" y2="397.48" stroke="hsl(21.9, 62.4%, 50.0%)" stroke-width="6.61" stroke-linecap="round"/>
<line x1="263.47" y1="373.75" x2="259.61" y2="395.61" stroke="hsl(21.9, 62.4%, 50.0%)" stroke-width="6.61" stroke-linecap="round"/>
<line x1="259.39" y1="372.94" x2="254.83" y2="393.54" stroke="hsl(21.9, 62.4%, 50.0%)" stroke-width="6.61" stroke-linecap="round"/>
<line x1="255.36" y1="371.96" x2="250.02" y2="391.90" stroke="hsl(21.9, 62.4%, 50.0%)" stroke-width="6.61" stroke-linecap="round"/>
<line x1="251.37" y1="370.79" x2="243.20" y2="396.71" stroke="hsl(27.8, 58.2%, 52.5%)" stroke-width="6.61" stroke-linecap="round"/>
<line x1="247.44" y1="369.46" x2="232.75" y2="409.81" stroke="hsl(42.1, 54.0%, 54.9%)" stroke-width="6.61" stroke-linecap="round"/>
<line x1="243.57" y1="367.95" x2="221.10" y2="422.19" stroke="hsl(56.4, 58.2%, 52.5%)" stroke-width="6.61" stroke-linecap="round"/>
<line x1="239.77" y1="366.28" x2="212.19" y2="425.41" stroke="hsl(62.3, 62.4%, 50.0%)" stroke-width="6.61" stroke-linecap="round"/>
<line x1="236.04" y1="364.44" x2="209.25" y2="415.91" stroke="hsl(62.3, 62.4%, 50.0%)" stroke-width="6.61" stroke-linecap="round"/>
<line x1="232.40" y1="362.45" x2="212.10" y2="397.61" stroke="hsl(62.3, 62.4%, 50.0%)" stroke-width="6.61" stroke-linecap="round"/>
<line x1="228.85" y1="360.29" x2="216.40" y2="379.84" stroke="hsl(62.3, 62.4%, 50.0%)" stroke-width="6.61" stroke-linecap="round"/>
<line x1="225.40" y1="357.98" x2="216.24" y2="371.06" stroke="hsl(62.3, 62.4%, 50.0%)" stroke-width="6.61" stroke-linecap="round"/>
<line x1="222.05" y1="355.53" x2="205.66" y2="376.88" stroke="hsl(62.3, 62.4%, 50.0%)" stroke-width="6.61" stroke-linecap="round"/>
<line x1="218.81" y1="352.93" x2="184.50" y2="393.81" stroke="hsl(62.3, 62.4%, 50.0%)" stroke-width="6.61" stroke-linecap="round"/>
<line x1="215.68" y1="350.19" x2="161.75" y2="409.04" stroke="hsl(62.3, 62.4%, 50.0%)" stroke-width="6.61" stroke-linecap="round"/>
<line x1="212.68" y1="347.32" x2="148.49" y2="411.51" stroke="hsl(62.3, 62.4%, 50.0%)" stroke-width="6.61" stroke-linecap="round"/>
<line x1="209.81" y1="344.32" x2="146.44" y2="402.38" stroke="hsl(62.3, 62.4%, 50.0%)" stroke-width="6.61" stroke-linecap="round"/>
<line x1="207.07" y1="341.19" x2="150.18" y2="388.93" stroke="hsl(62.3, 62.4%, 50.0%)" stroke-width="6.61" stroke-linecap="round"/>
<line x1="204.47" y1="337.95" x2="154.82" y2="376.05" stroke="hsl(62.3, 62.4%, 50.0%)" stroke-width="6.61" stroke-linecap="round"/>
<line x1="202.02" y1="334.60" x2="154.72" y2="367.72" stroke="hsl(62.3, 62.4%, 50.0%)" stroke-width="6.61" stroke-linecap="round"/>
<line x1="199.71" y1="331.15" x2="151.62" y2="361.79" stroke="hsl(68.1, 58.2%, 52.4%)" stroke-width="6.61" stroke-linecap="round"/>
<line x1="197.55" y1="327.60" x2="149.68" y2="355.24" stroke="hsl(82.1, 54.1%, 54.8%)" stroke-width="6.61" stroke-linecap="round"/>
<line x1="195.56" y1="323.96" x2="148.07" y2="348.68" stroke="hsl(96.1, 58.2%, 52.4%)" stroke-width="6.61" stroke-linecap="round"/>
<line x1="193.72" y1="320.23" x2="145.85" y2="342.56" stroke="hsl(101.9, 62.4%, 50.0%)" stroke-width="6.61" stroke-linecap="round"/>
<line x1="192.05" y1="316.43" x2="145.97" y2="335.52" stroke="hsl(101.9, 62.4%, 50.0%)" stroke-width="6.61" stroke-linecap="round"/>
<line x1="190.54" y1="312.56" x2="150.35" y2="327.19" stroke="hsl(101.9, 62.4%, 50.0%)" stroke-width="6.61" stroke-linecap="round"/>
<line x1="189.21" y1="308.63" x2="155.19" y2="319.35" stroke="hsl(101.9, 62.4%, 50.0%)" stroke-width="6.61" stroke-linecap="round"/>
<line x1="188.04" y1="304.64" x2="156.44" y2="313.11" stroke="hsl(101.9, 62.4%, 50.0%)" stroke-width="6.61" stroke-linecap="round"/>
<line x1="187.06" y1="300.61" x2="154.85" y2="307.74" stroke="hsl(101.9, 62.4%, 50.0%)" stroke-width="6.61" stroke-linecap="round"/>
<line x1="186.25" y1="296.53" x2="153.13" y2="302.37" stroke="hsl(101.9, 62.4%, 50.0%)" stroke-width="6.61" stroke-linecap="round"/>
<line x1="185.61" y1="292.43" x2="151.64" y2="296.90" stroke="hsl(101.9, 62.4%, 50.0%)" stroke-width="6.61" stroke-linecap="round"/>
<line x1="185.16" y1="288.30" x2="150.76" y2="291.31" stroke="hsl(101.9, 62.4%, 50.0%)" stroke-width="6.61" stroke-linecap="round"/>
<line x1="184.89" y1="284.15" x2="147.25" y2="285.80" stroke="hsl(101.9, 62.4%, 50.0%)" stroke-width="6.61" stroke-linecap="round"/>
<line x1="184.80" y1="280.00" x2="139.55" y2="280.00" stroke="hsl(101.9, 62.4%, 50.0%)" stroke-width="6.61" stroke-linecap="round"/>
<line x1="184.89" y1="275.85" x2="132.11" y2="273.54" stroke="hsl(101.9, 62.4%, 50.0%)" stroke-width="6.61" stroke-linecap="round"/>
<line x1="185.16" y1="271.70" x2="129.40" y2="266.82" stroke="hsl(101.9, 62.4%, 50.0%)" stroke-width="6.61" stroke-linecap="round"/>
<line x1="185.61" y1="267.57" x2="131.69" y2="260.47" stroke="hsl(107.7, 58.2%, 52.4%)" stroke-width="6.61" stroke-linecap="round"/>
<line x1="186.25" y1="263.47" x2="136.45" y2="254.69" stroke="hsl(121.9, 54.0%, 54.9%)" stroke-width="6.61" stroke-linecap="round"/>
<line x1="187.06" y1="259.39" x2="141.43" y2="249.28" stroke="hsl(136.0, 58.2%, 52.4%)" stroke-width="6.61" stroke-linecap="round"/>
<line x1="188.04" y1="255.36" x2="144.44" y2="243.68" stroke="hsl(141.9, 62.4%, 50.0%)" stroke-width="6.61" stroke-linecap="round"/>
<line x1="189.21" y1="251.37" x2="144.95" y2="237.42" stroke="hsl(141.9, 62.4%, 50.0%)" stroke-width="6.61" stroke-linecap="round"/>
<line x1="190.54" y1="247.44" x2="144.08" y2="230.53" stroke="hsl(141.9, 62.4%, 50.0%)" stroke-width="6.61" stroke-linecap="round"/>
<line x1="192.05" y1="243.57" x2="143.56" y2="223.48" stroke="hsl(141.9, 62.4%, 50.0%)" stroke-width="6.61" stroke-linecap="round"/>
<line x1="193.72" y1="239.77" x2="145.01" y2="217.05" stroke="hsl(141.9, 62.4%, 50.0%)" stroke-width="6.61" stroke-linecap="round"/>
<line x1="195.56" y1="236.04" x2="144.31" y2="209.36" stroke="hsl(141.9, 62.4%, 50.0%)" stroke-width="6.61" stroke-linecap="round"/>
<line x1="197.55" y1="232.40" x2="139.10" y2="198.65" stroke="hsl(141.9, 62.4%, 50.0%)" stroke-width="6.61" stroke-linecap="round"/>
<line x1="199.71" y1="228.85" x2="134.57" y2="187.35" stroke="hsl(141.9, 62.4%, 50.0%)" stroke-width="6.61" stroke-linecap="round"/>
<line x1="202.02" y1="225.40" x2="135.45" y2="178.78" stroke="hsl(141.9, 62.4%, 50.0%)" stroke-width="6.61" stroke-linecap="round"/>
<line x1="204.47" y1="222.05" x2="142.57" y2="174.54" stroke="hsl(141.9, 62.4%, 50.0%)" stroke-width="6.61" stroke-linecap="round"/>
<line x1="207.07" y1="218.81" x2="153.28" y2="173.67" stroke="hsl(141.9, 62.4%, 50.0%)" stroke-width="6.61" stroke-linecap="round"/>
<line x1="209.81" y1="215.68" x2="163.79" y2="173.52" stroke="hsl(141.9, 62.4%, 50.0%)" stroke-width="6.61" stroke-linecap="round"/>
<line x1="212.68" y1="212.68" x2="170.83" y2="170.83" stroke="hsl(141.9, 62.4%, 50.0%)" stroke-width="6.61" stroke-linecap="round"/>
<line x1="215.68" y1="209.81" x2="173.15" y2="163.40" stroke="hsl(147.8, 58.2%, 52.5%)" stroke-width="6.61" stroke-linecap="round"/>
<line x1="218.81" y1="207.07" x2="172.50" y2="151.88" stroke="hsl(162.1, 54.0%, 54.9%)" stroke-width="6.61" stroke-linecap="round"/>
<line x1="222.05" y1="204.47" x2="172.65" y2="140.10" stroke="hsl(176.4, 58.2%, 52.5%)" stroke-width="6.61" stroke-linecap="round"/>
<line x1="225.40" y1="202.02" x2="176.70" y2="132.47" stroke="hsl(182.3, 62.4%, 50.0%)" stroke-width="6.61" stroke-linecap="round"/>
<line x1="228.85" y1="199.71" x2="184.86" y2="130.66" stroke="hsl(182.3, 62.4%, 50.0%)" stroke-width="6.61" stroke-linecap="round"/>
<line x1="232.40" y1="197.55" x2="195.13" y2="133.00" stroke="hsl(182.3, 62.4%, 50.0%)" stroke-width="6.61" stroke-linecap="round"/>
<line x1="236.04" y1="195.56" x2="205.01" y2="135.94" stroke="hsl(182.3, 62.4%, 50.0%)" stroke-width="6.61" stroke-linecap="round"/>
<line x1="239.77" y1="193.72" x2="212.65" y2="135.56" stroke="hsl(182.3, 62.4%, 50.0%)" stroke-width="6.61" stroke-linecap="round"/>
<line x1="243.57" y1="192.05" x2="219.01" y2="132.75" stroke="hsl(182.3, 62.4%, 50.0%)" stroke-width="6.61" stroke-linecap="round"/>
<line x1="247.44" y1="190.54" x2="225.48" y2="130.20" stroke="hsl(182.3, 62.4%, 50.0%)" stroke-width="6.61" stroke-linecap="round"/>
<line x1="251.37" y1="189.21" x2="232.06" y2="127.94" stroke="hsl(182.3, 62.4%, 50.0%)" stroke-width="6.61" stroke-linecap="round"/>
<line x1="255.36" y1="188.04" x2="238.73" y2="125.98" stroke="hsl(182.3, 62.4%, 50.0%)" stroke-width="6.61" stroke-linecap="round"/>
<line x1="259.39" y1="187.06" x2="244.66" y2="120.58" stroke="hsl(182.3, 62.4%, 50.0%)" stroke-width="6.61" stroke-linecap="round"/>
<line x1="263.47" y1="186.25" x2="250.04" y2="110.08" stroke="hsl(182.3, 62.4%, 50.0%)" stroke-width="6.61" stroke-linecap="round"/>
<line x1="267.57" y1="185.61" x2="256.27" y2="99.75" stroke="hsl(182.3, 62.4%, 50.0%)" stroke-width="6.61" stroke-linecap="round"/>
<line x1="271.70" y1="185.16" x2="263.82" y2="95.07" stroke="hsl(182.3, 62.4%, 50.0%)" stroke-width="6.61" stroke-linecap="round"/>
<line x1="275.85" y1="184.89" x2="271.95" y2="95.57" stroke="hsl(188.1, 58.2%, 52.4%)" stroke-width="6.61" stroke-linecap="round"/>
<text x="280" y="526" text-anchor="middle" font-family="sans-serif" font-size="22" font-weight="bold" fill="#222">⑬ 配色: 深め</text>
<text x="280" y="548" text-anchor="middle" font-family="sans-serif" font-size="15" fill="#888">9×4丸み・別パレット案</text>
</svg>