<svg xmlns="http://www.w3.org/2000/svg" width="560" height="560" viewBox="0 0 560 560">
<rect width="560" height="560" fill="white"/>
<line x1="280.00" y1="184.80" x2="280.00" y2="97.12" stroke="hsl(205.5, 69.8%, 63.5%)" stroke-width="7.44" stroke-linecap="round"/>
<line x1="284.67" y1="184.91" x2="288.88" y2="99.16" stroke="hsl(214.2, 77.8%, 64.3%)" stroke-width="7.44" stroke-linecap="round"/>
<line x1="289.33" y1="185.26" x2="297.57" y2="101.63" stroke="hsl(223.0, 91.5%, 62.9%)" stroke-width="7.44" stroke-linecap="round"/>
<line x1="293.97" y1="185.83" x2="306.30" y2="102.70" stroke="hsl(223.0, 91.5%, 62.9%)" stroke-width="7.44" stroke-linecap="round"/>
<line x1="298.57" y1="186.63" x2="314.97" y2="104.19" stroke="hsl(223.0, 91.5%, 62.9%)" stroke-width="7.44" stroke-linecap="round"/>
<line x1="303.13" y1="187.65" x2="323.56" y2="106.11" stroke="hsl(223.0, 91.5%, 62.9%)" stroke-width="7.44" stroke-linecap="round"/>
<line x1="307.64" y1="188.90" x2="332.04" y2="108.45" stroke="hsl(223.0, 91.5%, 62.9%)" stroke-width="7.44" stroke-linecap="round"/>
<line x1="312.07" y1="190.37" x2="340.15" y2="111.89" stroke="hsl(223.0, 91.5%, 62.9%)" stroke-width="7.44" stroke-linecap="round"/>
<line x1="316.43" y1="192.05" x2="348.05" y2="115.71" stroke="hsl(223.0, 91.5%, 62.9%)" stroke-width="7.44" stroke-linecap="round"/>
<line x1="320.70" y1="193.94" x2="355.73" y2="119.89" stroke="hsl(223.0, 91.5%, 62.9%)" stroke-width="7.44" stroke-linecap="round"/>
<line x1="324.88" y1="196.04" x2="363.15" y2="124.43" stroke="hsl(223.0, 91.5%, 62.9%)" stroke-width="7.44" stroke-linecap="round"/>
<line x1="328.94" y1="198.34" x2="371.25" y2="127.76" stroke="hsl(230.3, 84.1%, 66.4%)" stroke-width="7.44" stroke-linecap="round"/>
<line x1="332.89" y1="200.84" x2="379.22" y2="131.50" stroke="hsl(237.6, 81.2%, 68.1%)" stroke-width="7.44" stroke-linecap="round"/>
<line x1="336.71" y1="203.53" x2="387.04" y2="135.67" stroke="hsl(244.9, 82.7%, 68.0%)" stroke-width="7.44" stroke-linecap="round"/>
<line x1="340.39" y1="206.41" x2="394.70" y2="140.24" stroke="hsl(252.2, 88.4%, 66.1%)" stroke-width="7.44" stroke-linecap="round"/>
<line x1="343.93" y1="209.46" x2="397.92" y2="149.89" stroke="hsl(252.2, 88.4%, 66.1%)" stroke-width="7.44" stroke-linecap="round"/>
<line x1="347.32" y1="212.68" x2="400.49" y2="159.51" stroke="hsl(252.2, 88.4%, 66.1%)" stroke-width="7.44" stroke-linecap="round"/>
<line x1="350.54" y1="216.07" x2="402.41" y2="169.06" stroke="hsl(252.2, 88.4%, 66.1%)" stroke-width="7.44" stroke-linecap="round"/>
<line x1="353.59" y1="219.61" x2="403.68" y2="178.50" stroke="hsl(252.2, 88.4%, 66.1%)" stroke-width="7.44" stroke-linecap="round"/>
<line x1="356.47" y1="223.29" x2="408.49" y2="184.71" stroke="hsl(252.2, 88.4%, 66.1%)" stroke-width="7.44" stroke-linecap="round"/>
<line x1="359.16" y1="227.11" x2="412.98" y2="191.14" stroke="hsl(252.2, 88.4%, 66.1%)" stroke-width="7.44" stroke-linecap="round"/>
<line x1="361.66" y1="231.06" x2="417.16" y2="197.79" stroke="hsl(252.2, 88.4%, 66.1%)" stroke-width="7.44" stroke-linecap="round"/>
<line x1="363.96" y1="235.12" x2="421.00" y2="204.64" stroke="hsl(252.2, 88.4%, 66.1%)" stroke-width="7.44" stroke-linecap="round"/>
<line x1="366.06" y1="239.30" x2="420.16" y2="213.71" stroke="hsl(271.4, 67.4%, 72.0%)" stroke-width="7.44" stroke-linecap="round"/>
<line x1="367.95" y1="243.57" x2="418.77" y2="222.52" stroke="hsl(290.6, 58.3%, 73.2%)" stroke-width="7.44" stroke-linecap="round"/>
<line x1="369.63" y1="247.93" x2="416.88" y2="231.02" stroke="hsl(309.9, 59.3%, 69.7%)" stroke-width="7.44" stroke-linecap="round"/>
<line x1="371.10" y1="252.36" x2="414.49" y2="239.20" stroke="hsl(329.1, 68.4%, 61.6%)" stroke-width="7.44" stroke-linecap="round"/>
<line x1="372.35" y1="256.87" x2="418.45" y2="245.32" stroke="hsl(329.1, 68.4%, 61.6%)" stroke-width="7.44" stroke-linecap="round"/>
<line x1="373.37" y1="261.43" x2="422.12" y2="251.73" stroke="hsl(329.1, 68.4%, 61.6%)" stroke-width="7.44" stroke-linecap="round"/>
<line x1="374.17" y1="266.03" x2="425.50" y2="258.42" stroke="hsl(329.1, 68.4%, 61.6%)" stroke-width="7.44" stroke-linecap="round"/>
<line x1="374.74" y1="270.67" x2="428.56" y2="265.37" stroke="hsl(329.1, 68.4%, 61.6%)" stroke-width="7.44" stroke-linecap="round"/>
<line x1="375.09" y1="275.33" x2="436.04" y2="272.33" stroke="hsl(329.1, 68.4%, 61.6%)" stroke-width="7.44" stroke-linecap="round"/>
<line x1="375.20" y1="280.00" x2="443.18" y2="280.00" stroke="hsl(329.1, 68.4%, 61.6%)" stroke-width="7.44" stroke-linecap="round"/>
<line x1="375.09" y1="284.67" x2="449.92" y2="288.35" stroke="hsl(329.1, 68.4%, 61.6%)" stroke-width="7.44" stroke-linecap="round"/>
<line x1="374.74" y1="289.33" x2="456.23" y2="297.36" stroke="hsl(329.1, 68.4%, 61.6%)" stroke-width="7.44" stroke-linecap="round"/>
<line x1="374.17" y1="293.97" x2="449.65" y2="305.16" stroke="hsl(329.1, 68.4%, 61.6%)" stroke-width="7.44" stroke-linecap="round"/>
<line x1="373.37" y1="298.57" x2="442.74" y2="312.37" stroke="hsl(329.1, 68.4%, 61.6%)" stroke-width="7.44" stroke-linecap="round"/>
<line x1="372.35" y1="303.13" x2="435.55" y2="318.96" stroke="hsl(329.1, 68.4%, 61.6%)" stroke-width="7.44" stroke-linecap="round"/>
<line x1="371.10" y1="307.64" x2="428.11" y2="324.93" stroke="hsl(329.1, 68.4%, 61.6%)" stroke-width="7.44" stroke-linecap="round"/>
<line x1="369.63" y1="312.07" x2="419.86" y2="330.04" stroke="hsl(337.1, 66.3%, 64.7%)" stroke-width="7.44" stroke-linecap="round"/>
<line x1="367.95" y1="316.43" x2="411.47" y2="334.46" stroke="hsl(345.1, 67.7%, 66.0%)" stroke-width="7.44" stroke-linecap="round"/>
<line x1="366.06" y1="320.70" x2="403.01" y2="338.18" stroke="hsl(353.1, 73.2%, 65.2%)" stroke-width="7.44" stroke-linecap="round"/>
<line x1="363.96" y1="324.88" x2="394.50" y2="341.20" stroke="hsl(1.1, 83.2%, 62.5%)" stroke-width="7.44" stroke-linecap="round"/>
<line x1="361.66" y1="328.94" x2="390.96" y2="346.51" stroke="hsl(1.1, 83.2%, 62.5%)" stroke-width="7.44" stroke-linecap="round"/>
<line x1="359.16" y1="332.89" x2="387.17" y2="351.61" stroke="hsl(1.1, 83.2%, 62.5%)" stroke-width="7.44" stroke-linecap="round"/>
<line x1="356.47" y1="336.71" x2="383.15" y2="356.50" stroke="hsl(1.1, 83.2%, 62.5%)" stroke-width="7.44" stroke-linecap="round"/>
<line x1="353.59" y1="340.39" x2="378.91" y2="361.18" stroke="hsl(1.1, 83.2%, 62.5%)" stroke-width="7.44" stroke-linecap="round"/>
<line x1="350.54" y1="343.93" x2="379.17" y2="369.88" stroke="hsl(1.1, 83.2%, 62.5%)" stroke-width="7.44" stroke-linecap="round"/>
<line x1="347.32" y1="347.32" x2="378.79" y2="378.79" stroke="hsl(1.1, 83.2%, 62.5%)" stroke-width="7.44" stroke-linecap="round"/>
<line x1="343.93" y1="350.54" x2="377.77" y2="387.87" stroke="hsl(1.1, 83.2%, 62.5%)" stroke-width="7.44" stroke-linecap="round"/>
<line x1="340.39" y1="353.59" x2="376.08" y2="397.08" stroke="hsl(1.1, 83.2%, 62.5%)" stroke-width="7.44" stroke-linecap="round"/>
<line x1="336.71" y1="356.47" x2="369.77" y2="401.04" stroke="hsl(8.3, 78.8%, 64.8%)" stroke-width="7.44" stroke-linecap="round"/>
<line x1="332.89" y1="359.16" x2="363.29" y2="404.66" stroke="hsl(15.5, 78.3%, 65.3%)" stroke-width="7.44" stroke-linecap="round"/>
<line x1="328.94" y1="361.66" x2="356.68" y2="407.94" stroke="hsl(22.7, 81.9%, 64.0%)" stroke-width="7.44" stroke-linecap="round"/>
<line x1="324.88" y1="363.96" x2="349.95" y2="410.87" stroke="hsl(29.8, 89.9%, 61.0%)" stroke-width="7.44" stroke-linecap="round"/>
<line x1="320.70" y1="366.06" x2="343.99" y2="415.29" stroke="hsl(29.8, 89.9%, 61.0%)" stroke-width="7.44" stroke-linecap="round"/>
<line x1="316.43" y1="367.95" x2="337.76" y2="419.44" stroke="hsl(29.8, 89.9%, 61.0%)" stroke-width="7.44" stroke-linecap="round"/>
<line x1="312.07" y1="369.63" x2="331.27" y2="423.30" stroke="hsl(29.8, 89.9%, 61.0%)" stroke-width="7.44" stroke-linecap="round"/>
<line x1="307.64" y1="371.10" x2="324.55" y2="426.86" stroke="hsl(29.8, 89.9%, 61.0%)" stroke-width="7.44" stroke-linecap="round"/>
<line x1="303.13" y1="372.35" x2="319.33" y2="436.99" stroke="hsl(29.8, 89.9%, 61.0%)" stroke-width="7.44" stroke-linecap="round"/>
<line x1="298.57" y1="373.37" x2="313.21" y2="446.95" stroke="hsl(29.8, 89.9%, 61.0%)" stroke-width="7.44" stroke-linecap="round"/>
<line x1="293.97" y1="374.17" x2="306.21" y2="456.66" stroke="hsl(29.8, 89.9%, 61.0%)" stroke-width="7.44" stroke-linecap="round"/>
<line x1="289.33" y1="374.74" x2="298.33" y2="466.07" stroke="hsl(29.8, 89.9%, 61.0%)" stroke-width="7.44" stroke-linecap="round"/>
<line x1="284.67" y1="375.09" x2="288.24" y2="447.82" stroke="hsl(34.6, 85.7%, 62.7%)" stroke-width="7.44" stroke-linecap="round"/>
<line x1="280.00" y1="375.20" x2="280.00" y2="429.06" stroke="hsl(39.4, 84.2%, 63.3%)" stroke-width="7.44" stroke-linecap="round"/>
<line x1="275.33" y1="375.09" x2="273.62" y2="409.96" stroke="hsl(44.2, 85.7%, 62.7%)" stroke-width="7.44" stroke-linecap="round"/>
<line x1="270.67" y1="374.74" x2="269.10" y2="390.62" stroke="hsl(48.9, 89.9%, 61.0%)" stroke-width="7.44" stroke-linecap="round"/>
<line x1="266.03" y1="374.17" x2="263.45" y2="391.55" stroke="hsl(48.9, 89.9%, 61.0%)" stroke-width="7.44" stroke-linecap="round"/>
<line x1="261.43" y1="373.37" x2="257.69" y2="392.18" stroke="hsl(48.9, 89.9%, 61.0%)" stroke-width="7.44" stroke-linecap="round"/>
<line x1="256.87" y1="372.35" x2="251.82" y2="392.52" stroke="hsl(48.9, 89.9%, 61.0%)" stroke-width="7.44" stroke-linecap="round"/>
<line x1="252.36" y1="371.10" x2="245.86" y2="392.54" stroke="hsl(48.9, 89.9%, 61.0%)" stroke-width="7.44" stroke-linecap="round"/>
<line x1="247.93" y1="369.63" x2="240.52" y2="390.33" stroke="hsl(48.9, 89.9%, 61.0%)" stroke-width="7.44" stroke-linecap="round"/>
<line x1="243.57" y1="367.95" x2="235.32" y2="387.87" stroke="hsl(48.9, 89.9%, 61.0%)" stroke-width="7.44" stroke-linecap="round"/>
<line x1="239.30" y1="366.06" x2="230.26" y2="385.16" stroke="hsl(48.9, 89.9%, 61.0%)" stroke-width="7.44" stroke-linecap="round"/>
<line x1="235.12" y1="363.96" x2="225.36" y2="382.22" stroke="hsl(48.9, 89.9%, 61.0%)" stroke-width="7.44" stroke-linecap="round"/>
<line x1="231.06" y1="361.66" x2="214.61" y2="389.10" stroke="hsl(48.9, 89.9%, 61.0%)" stroke-width="7.44" stroke-linecap="round"/>
<line x1="227.11" y1="359.16" x2="203.06" y2="395.15" stroke="hsl(48.9, 89.9%, 61.0%)" stroke-width="7.44" stroke-linecap="round"/>
<line x1="223.29" y1="356.47" x2="190.77" y2="400.31" stroke="hsl(48.9, 89.9%, 61.0%)" stroke-width="7.44" stroke-linecap="round"/>
<line x1="219.61" y1="353.59" x2="177.81" y2="404.52" stroke="hsl(48.9, 89.9%, 61.0%)" stroke-width="7.44" stroke-linecap="round"/>
<line x1="216.07" y1="350.54" x2="171.89" y2="399.28" stroke="hsl(48.9, 89.9%, 61.0%)" stroke-width="7.44" stroke-linecap="round"/>
<line x1="212.68" y1="347.32" x2="166.24" y2="393.76" stroke="hsl(48.9, 89.9%, 61.0%)" stroke-width="7.44" stroke-linecap="round"/>
<line x1="209.46" y1="343.93" x2="160.87" y2="387.97" stroke="hsl(48.9, 89.9%, 61.0%)" stroke-width="7.44" stroke-linecap="round"/>
<line x1="206.41" y1="340.39" x2="155.79" y2="381.93" stroke="hsl(48.9, 89.9%, 61.0%)" stroke-width="7.44" stroke-linecap="round"/>
<line x1="203.53" y1="336.71" x2="152.68" y2="374.43" stroke="hsl(67.3, 63.1%, 64.8%)" stroke-width="7.44" stroke-linecap="round"/>
<line x1="200.84" y1="332.89" x2="150.00" y2="366.86" stroke="hsl(85.7, 48.8%, 64.1%)" stroke-width="7.44" stroke-linecap="round"/>
<line x1="198.34" y1="328.94" x2="147.76" y2="359.26" stroke="hsl(104.1, 42.5%, 58.9%)" stroke-width="7.44" stroke-linecap="round"/>
<line x1="196.04" y1="324.88" x2="145.94" y2="351.66" stroke="hsl(122.4, 39.4%, 49.2%)" stroke-width="7.44" stroke-linecap="round"/>
<line x1="193.94" y1="320.70" x2="136.56" y2="347.84" stroke="hsl(122.4, 39.4%, 49.2%)" stroke-width="7.44" stroke-linecap="round"/>
<line x1="192.05" y1="316.43" x2="127.24" y2="343.28" stroke="hsl(122.4, 39.4%, 49.2%)" stroke-width="7.44" stroke-linecap="round"/>
<line x1="190.37" y1="312.07" x2="118.04" y2="337.95" stroke="hsl(122.4, 39.4%, 49.2%)" stroke-width="7.44" stroke-linecap="round"/>
<line x1="188.90" y1="307.64" x2="109.01" y2="331.87" stroke="hsl(122.4, 39.4%, 49.2%)" stroke-width="7.44" stroke-linecap="round"/>
<line x1="187.65" y1="303.13" x2="103.04" y2="324.33" stroke="hsl(122.4, 39.4%, 49.2%)" stroke-width="7.44" stroke-linecap="round"/>
<line x1="186.63" y1="298.57" x2="97.41" y2="316.32" stroke="hsl(122.4, 39.4%, 49.2%)" stroke-width="7.44" stroke-linecap="round"/>
<line x1="185.83" y1="293.97" x2="92.16" y2="307.86" stroke="hsl(122.4, 39.4%, 49.2%)" stroke-width="7.44" stroke-linecap="round"/>
<line x1="185.26" y1="289.33" x2="87.30" y2="298.98" stroke="hsl(122.4, 39.4%, 49.2%)" stroke-width="7.44" stroke-linecap="round"/>
<line x1="184.91" y1="284.67" x2="85.61" y2="289.55" stroke="hsl(122.4, 39.4%, 49.2%)" stroke-width="7.44" stroke-linecap="round"/>
<line x1="184.80" y1="280.00" x2="84.38" y2="280.00" stroke="hsl(122.4, 39.4%, 49.2%)" stroke-width="7.44" stroke-linecap="round"/>
<line x1="184.91" y1="275.33" x2="83.63" y2="270.35" stroke="hsl(122.4, 39.4%, 49.2%)" stroke-width="7.44" stroke-linecap="round"/>
<line x1="185.26" y1="270.67" x2="83.35" y2="260.63" stroke="hsl(122.4, 39.4%, 49.2%)" stroke-width="7.44" stroke-linecap="round"/>
<line x1="185.83" y1="266.03" x2="83.55" y2="250.86" stroke="hsl(138.8, 38.6%, 56.8%)" stroke-width="7.44" stroke-linecap="round"/>
<line x1="186.63" y1="261.43" x2="84.23" y2="241.06" stroke="hsl(155.2, 41.4%, 60.4%)" stroke-width="7.44" stroke-linecap="round"/>
<line x1="187.65" y1="256.87" x2="85.41" y2="231.26" stroke="hsl(171.6, 50.0%, 59.9%)" stroke-width="7.44" stroke-linecap="round"/>
<line x1="188.90" y1="252.36" x2="87.08" y2="221.48" stroke="hsl(187.9, 66.5%, 55.5%)" stroke-width="7.44" stroke-linecap="round"/>
<line x1="190.37" y1="247.93" x2="90.29" y2="212.12" stroke="hsl(187.9, 66.5%, 55.5%)" stroke-width="7.44" stroke-linecap="round"/>
<line x1="192.05" y1="243.57" x2="93.96" y2="202.94" stroke="hsl(187.9, 66.5%, 55.5%)" stroke-width="7.44" stroke-linecap="round"/>
<line x1="193.94" y1="239.30" x2="98.07" y2="193.95" stroke="hsl(187.9, 66.5%, 55.5%)" stroke-width="7.44" stroke-linecap="round"/>
<line x1="196.04" y1="235.12" x2="102.62" y2="185.19" stroke="hsl(187.9, 66.5%, 55.5%)" stroke-width="7.44" stroke-linecap="round"/>
<line x1="198.34" y1="231.06" x2="108.70" y2="177.33" stroke="hsl(187.9, 66.5%, 55.5%)" stroke-width="7.44" stroke-linecap="round"/>
<line x1="200.84" y1="227.11" x2="115.13" y2="169.84" stroke="hsl(187.9, 66.5%, 55.5%)" stroke-width="7.44" stroke-linecap="round"/>
<line x1="203.53" y1="223.29" x2="121.88" y2="162.73" stroke="hsl(187.9, 66.5%, 55.5%)" stroke-width="7.44" stroke-linecap="round"/>
<line x1="206.41" y1="219.61" x2="128.92" y2="156.01" stroke="hsl(187.9, 66.5%, 55.5%)" stroke-width="7.44" stroke-linecap="round"/>
<line x1="209.46" y1="216.07" x2="137.07" y2="150.46" stroke="hsl(187.9, 66.5%, 55.5%)" stroke-width="7.44" stroke-linecap="round"/>
<line x1="212.68" y1="212.68" x2="145.41" y2="145.41" stroke="hsl(187.9, 66.5%, 55.5%)" stroke-width="7.44" stroke-linecap="round"/>
<line x1="216.07" y1="209.46" x2="153.88" y2="140.85" stroke="hsl(187.9, 66.5%, 55.5%)" stroke-width="7.44" stroke-linecap="round"/>
<line x1="219.61" y1="206.41" x2="162.48" y2="136.80" stroke="hsl(187.9, 66.5%, 55.5%)" stroke-width="7.44" stroke-linecap="round"/>
<line x1="223.29" y1="203.53" x2="170.80" y2="132.77" stroke="hsl(187.9, 66.5%, 55.5%)" stroke-width="7.44" stroke-linecap="round"/>
<line x1="227.11" y1="200.84" x2="179.24" y2="129.20" stroke="hsl(187.9, 66.5%, 55.5%)" stroke-width="7.44" stroke-linecap="round"/>
<line x1="231.06" y1="198.34" x2="187.75" y2="126.10" stroke="hsl(187.9, 66.5%, 55.5%)" stroke-width="7.44" stroke-linecap="round"/>
<line x1="235.12" y1="196.04" x2="196.33" y2="123.46" stroke="hsl(187.9, 66.5%, 55.5%)" stroke-width="7.44" stroke-linecap="round"/>
<line x1="239.30" y1="193.94" x2="206.07" y2="123.69" stroke="hsl(187.9, 66.5%, 55.5%)" stroke-width="7.44" stroke-linecap="round"/>
<line x1="243.57" y1="192.05" x2="215.58" y2="124.48" stroke="hsl(187.9, 66.5%, 55.5%)" stroke-width="7.44" stroke-linecap="round"/>
<line x1="247.93" y1="190.37" x2="224.83" y2="125.81" stroke="hsl(187.9, 66.5%, 55.5%)" stroke-width="7.44" stroke-linecap="round"/>
<line x1="252.36" y1="188.90" x2="233.79" y2="127.67" stroke="hsl(187.9, 66.5%, 55.5%)" stroke-width="7.44" stroke-linecap="round"/>
<line x1="256.87" y1="187.65" x2="239.66" y2="118.96" stroke="hsl(187.9, 66.5%, 55.5%)" stroke-width="7.44" stroke-linecap="round"/>
<line x1="261.43" y1="186.63" x2="246.28" y2="110.47" stroke="hsl(187.9, 66.5%, 55.5%)" stroke-width="7.44" stroke-linecap="round"/>
<line x1="266.03" y1="185.83" x2="253.63" y2="102.25" stroke="hsl(187.9, 66.5%, 55.5%)" stroke-width="7.44" stroke-linecap="round"/>
<line x1="270.67" y1="185.26" x2="261.72" y2="94.37" stroke="hsl(187.9, 66.5%, 55.5%)" stroke-width="7.44" stroke-linecap="round"/>
<line x1="275.33" y1="184.91" x2="270.94" y2="95.52" stroke="hsl(196.7, 66.4%, 60.6%)" stroke-width="7.44" stroke-linecap="round"/>
<text x="280" y="526" text-anchor="middle" font-family="sans-serif" font-size="22" font-weight="bold" fill="#222">② 32学部 案A</text>
<text x="280" y="548" text-anchor="middle" font-family="sans-serif" font-size="15" fill="#888">学部均等・32×11.25°</text>
</svg>