<svg xmlns="http://www.w3.org/2000/svg" width="560" height="560" viewBox="0 0 560 560">
<rect width="560" height="560" fill="white"/>
<line x1="280.00" y1="184.80" x2="280.00" y2="95.66" stroke="hsl(198.5, 66.8%, 61.3%)" stroke-width="7.44" stroke-linecap="round"/>
<line x1="284.67" y1="184.91" x2="288.95" y2="97.80" stroke="hsl(207.7, 71.3%, 63.9%)" stroke-width="7.44" stroke-linecap="round"/>
<line x1="289.33" y1="185.26" x2="297.69" y2="100.36" stroke="hsl(216.9, 81.3%, 64.1%)" stroke-width="7.44" stroke-linecap="round"/>
<line x1="293.97" y1="185.83" x2="306.30" y2="102.70" stroke="hsl(223.0, 91.5%, 62.9%)" stroke-width="7.44" stroke-linecap="round"/>
<line x1="298.57" y1="186.63" x2="314.97" y2="104.20" stroke="hsl(223.0, 91.5%, 62.9%)" stroke-width="7.44" stroke-linecap="round"/>
<line x1="303.13" y1="187.65" x2="323.55" y2="106.12" stroke="hsl(223.0, 91.5%, 62.9%)" stroke-width="7.44" stroke-linecap="round"/>
<line x1="307.64" y1="188.90" x2="332.04" y2="108.46" stroke="hsl(223.0, 91.5%, 62.9%)" stroke-width="7.44" stroke-linecap="round"/>
<line x1="312.07" y1="190.37" x2="340.39" y2="111.22" stroke="hsl(223.0, 91.5%, 62.9%)" stroke-width="7.44" stroke-linecap="round"/>
<line x1="316.43" y1="192.05" x2="348.60" y2="114.38" stroke="hsl(223.0, 91.5%, 62.9%)" stroke-width="7.44" stroke-linecap="round"/>
<line x1="320.70" y1="193.94" x2="356.42" y2="118.43" stroke="hsl(223.0, 91.5%, 62.9%)" stroke-width="7.44" stroke-linecap="round"/>
<line x1="324.88" y1="196.04" x2="364.00" y2="122.85" stroke="hsl(223.0, 91.5%, 62.9%)" stroke-width="7.44" stroke-linecap="round"/>
<line x1="328.94" y1="198.34" x2="371.33" y2="127.62" stroke="hsl(223.0, 91.5%, 62.9%)" stroke-width="7.44" stroke-linecap="round"/>
<line x1="332.89" y1="200.84" x2="378.40" y2="132.74" stroke="hsl(223.0, 91.5%, 62.9%)" stroke-width="7.44" stroke-linecap="round"/>
<line x1="336.71" y1="203.53" x2="385.18" y2="138.17" stroke="hsl(223.0, 91.5%, 62.9%)" stroke-width="7.44" stroke-linecap="round"/>
<line x1="340.39" y1="206.41" x2="392.25" y2="143.22" stroke="hsl(226.6, 87.3%, 64.9%)" stroke-width="7.44" stroke-linecap="round"/>
<line x1="343.93" y1="209.46" x2="399.38" y2="148.28" stroke="hsl(232.1, 83.0%, 67.0%)" stroke-width="7.44" stroke-linecap="round"/>
<line x1="347.32" y1="212.68" x2="406.29" y2="153.71" stroke="hsl(237.6, 81.2%, 68.1%)" stroke-width="7.44" stroke-linecap="round"/>
<line x1="350.54" y1="216.07" x2="412.94" y2="159.51" stroke="hsl(243.0, 81.9%, 68.2%)" stroke-width="7.44" stroke-linecap="round"/>
<line x1="353.59" y1="219.61" x2="419.33" y2="165.65" stroke="hsl(248.5, 85.1%, 67.2%)" stroke-width="7.44" stroke-linecap="round"/>
<line x1="356.47" y1="223.29" x2="424.17" y2="173.07" stroke="hsl(252.2, 88.4%, 66.1%)" stroke-width="7.44" stroke-linecap="round"/>
<line x1="359.16" y1="227.11" x2="426.00" y2="182.44" stroke="hsl(252.2, 88.4%, 66.1%)" stroke-width="7.44" stroke-linecap="round"/>
<line x1="361.66" y1="231.06" x2="427.27" y2="191.73" stroke="hsl(252.2, 88.4%, 66.1%)" stroke-width="7.44" stroke-linecap="round"/>
<line x1="363.96" y1="235.12" x2="427.99" y2="200.90" stroke="hsl(252.2, 88.4%, 66.1%)" stroke-width="7.44" stroke-linecap="round"/>
<line x1="366.06" y1="239.30" x2="428.17" y2="209.92" stroke="hsl(252.2, 88.4%, 66.1%)" stroke-width="7.44" stroke-linecap="round"/>
<line x1="367.95" y1="243.57" x2="427.82" y2="218.77" stroke="hsl(252.2, 88.4%, 66.1%)" stroke-width="7.44" stroke-linecap="round"/>
<line x1="369.63" y1="247.93" x2="430.63" y2="226.10" stroke="hsl(252.2, 88.4%, 66.1%)" stroke-width="7.44" stroke-linecap="round"/>
<line x1="371.10" y1="252.36" x2="433.07" y2="233.57" stroke="hsl(252.2, 88.4%, 66.1%)" stroke-width="7.44" stroke-linecap="round"/>
<line x1="372.35" y1="256.87" x2="435.14" y2="241.14" stroke="hsl(252.2, 88.4%, 66.1%)" stroke-width="7.44" stroke-linecap="round"/>
<line x1="373.37" y1="261.43" x2="436.83" y2="248.80" stroke="hsl(252.2, 88.4%, 66.1%)" stroke-width="7.44" stroke-linecap="round"/>
<line x1="374.17" y1="266.03" x2="438.15" y2="256.54" stroke="hsl(252.2, 88.4%, 66.1%)" stroke-width="7.44" stroke-linecap="round"/>
<line x1="374.74" y1="270.67" x2="436.36" y2="264.60" stroke="hsl(263.1, 74.8%, 70.0%)" stroke-width="7.44" stroke-linecap="round"/>
<line x1="375.09" y1="275.33" x2="432.79" y2="272.49" stroke="hsl(279.6, 62.1%, 73.1%)" stroke-width="7.44" stroke-linecap="round"/>
<line x1="375.20" y1="280.00" x2="428.83" y2="280.00" stroke="hsl(296.1, 57.6%, 72.7%)" stroke-width="7.44" stroke-linecap="round"/>
<line x1="375.09" y1="284.67" x2="424.51" y2="287.10" stroke="hsl(312.6, 60.1%, 68.9%)" stroke-width="7.44" stroke-linecap="round"/>
<line x1="374.74" y1="289.33" x2="419.86" y2="293.78" stroke="hsl(329.1, 68.4%, 61.6%)" stroke-width="7.44" stroke-linecap="round"/>
<line x1="374.17" y1="293.97" x2="421.18" y2="300.94" stroke="hsl(329.1, 68.4%, 61.6%)" stroke-width="7.44" stroke-linecap="round"/>
<line x1="373.37" y1="298.57" x2="422.12" y2="308.27" stroke="hsl(329.1, 68.4%, 61.6%)" stroke-width="7.44" stroke-linecap="round"/>
<line x1="372.35" y1="303.13" x2="422.68" y2="315.74" stroke="hsl(329.1, 68.4%, 61.6%)" stroke-width="7.44" stroke-linecap="round"/>
<line x1="371.10" y1="307.64" x2="422.85" y2="323.33" stroke="hsl(329.1, 68.4%, 61.6%)" stroke-width="7.44" stroke-linecap="round"/>
<line x1="369.63" y1="312.07" x2="427.09" y2="332.63" stroke="hsl(329.1, 68.4%, 61.6%)" stroke-width="7.44" stroke-linecap="round"/>
<line x1="367.95" y1="316.43" x2="430.76" y2="342.45" stroke="hsl(329.1, 68.4%, 61.6%)" stroke-width="7.44" stroke-linecap="round"/>
<line x1="366.06" y1="320.70" x2="433.79" y2="352.74" stroke="hsl(329.1, 68.4%, 61.6%)" stroke-width="7.44" stroke-linecap="round"/>
<line x1="363.96" y1="324.88" x2="436.17" y2="363.47" stroke="hsl(329.1, 68.4%, 61.6%)" stroke-width="7.44" stroke-linecap="round"/>
<line x1="361.66" y1="328.94" x2="427.10" y2="368.17" stroke="hsl(329.1, 68.4%, 61.6%)" stroke-width="7.44" stroke-linecap="round"/>
<line x1="359.16" y1="332.89" x2="417.96" y2="372.18" stroke="hsl(329.1, 68.4%, 61.6%)" stroke-width="7.44" stroke-linecap="round"/>
<line x1="356.47" y1="336.71" x2="408.80" y2="375.52" stroke="hsl(329.1, 68.4%, 61.6%)" stroke-width="7.44" stroke-linecap="round"/>
<line x1="353.59" y1="340.39" x2="399.64" y2="378.19" stroke="hsl(329.1, 68.4%, 61.6%)" stroke-width="7.44" stroke-linecap="round"/>
<line x1="350.54" y1="343.93" x2="390.72" y2="380.35" stroke="hsl(336.0, 66.4%, 64.4%)" stroke-width="7.44" stroke-linecap="round"/>
<line x1="347.32" y1="347.32" x2="381.88" y2="381.88" stroke="hsl(342.8, 66.9%, 65.8%)" stroke-width="7.44" stroke-linecap="round"/>
<line x1="343.93" y1="350.54" x2="373.17" y2="382.80" stroke="hsl(349.7, 70.3%, 65.8%)" stroke-width="7.44" stroke-linecap="round"/>
<line x1="340.39" y1="353.59" x2="364.63" y2="383.12" stroke="hsl(356.6, 76.9%, 64.3%)" stroke-width="7.44" stroke-linecap="round"/>
<line x1="336.71" y1="356.47" x2="357.27" y2="384.19" stroke="hsl(1.1, 83.2%, 62.5%)" stroke-width="7.44" stroke-linecap="round"/>
<line x1="332.89" y1="359.16" x2="351.87" y2="387.56" stroke="hsl(1.1, 83.2%, 62.5%)" stroke-width="7.44" stroke-linecap="round"/>
<line x1="328.94" y1="361.66" x2="346.33" y2="390.66" stroke="hsl(1.1, 83.2%, 62.5%)" stroke-width="7.44" stroke-linecap="round"/>
<line x1="324.88" y1="363.96" x2="340.65" y2="393.47" stroke="hsl(1.1, 83.2%, 62.5%)" stroke-width="7.44" stroke-linecap="round"/>
<line x1="320.70" y1="366.06" x2="334.86" y2="395.99" stroke="hsl(1.1, 83.2%, 62.5%)" stroke-width="7.44" stroke-linecap="round"/>
<line x1="316.43" y1="367.95" x2="328.97" y2="398.22" stroke="hsl(1.1, 83.2%, 62.5%)" stroke-width="7.44" stroke-linecap="round"/>
<line x1="312.07" y1="369.63" x2="324.59" y2="404.63" stroke="hsl(1.1, 83.2%, 62.5%)" stroke-width="7.44" stroke-linecap="round"/>
<line x1="307.64" y1="371.10" x2="319.70" y2="410.88" stroke="hsl(1.1, 83.2%, 62.5%)" stroke-width="7.44" stroke-linecap="round"/>
<line x1="303.13" y1="372.35" x2="314.30" y2="416.95" stroke="hsl(1.1, 83.2%, 62.5%)" stroke-width="7.44" stroke-linecap="round"/>
<line x1="298.57" y1="373.37" x2="308.40" y2="422.79" stroke="hsl(1.1, 83.2%, 62.5%)" stroke-width="7.44" stroke-linecap="round"/>
<line x1="293.97" y1="374.17" x2="302.01" y2="428.37" stroke="hsl(1.1, 83.2%, 62.5%)" stroke-width="7.44" stroke-linecap="round"/>
<line x1="289.33" y1="374.74" x2="294.81" y2="430.35" stroke="hsl(4.7, 80.6%, 63.9%)" stroke-width="7.44" stroke-linecap="round"/>
<line x1="284.67" y1="375.09" x2="287.38" y2="430.32" stroke="hsl(10.1, 78.3%, 65.1%)" stroke-width="7.44" stroke-linecap="round"/>
<line x1="280.00" y1="375.20" x2="280.00" y2="429.92" stroke="hsl(15.5, 78.3%, 65.3%)" stroke-width="7.44" stroke-linecap="round"/>
<line x1="275.33" y1="375.09" x2="272.67" y2="429.17" stroke="hsl(20.9, 80.6%, 64.5%)" stroke-width="7.44" stroke-linecap="round"/>
<line x1="270.67" y1="374.74" x2="265.42" y2="428.06" stroke="hsl(26.2, 85.4%, 62.7%)" stroke-width="7.44" stroke-linecap="round"/>
<line x1="266.03" y1="374.17" x2="258.18" y2="427.10" stroke="hsl(29.8, 89.9%, 61.0%)" stroke-width="7.44" stroke-linecap="round"/>
<line x1="261.43" y1="373.37" x2="250.80" y2="426.78" stroke="hsl(29.8, 89.9%, 61.0%)" stroke-width="7.44" stroke-linecap="round"/>
<line x1="256.87" y1="372.35" x2="243.40" y2="426.10" stroke="hsl(29.8, 89.9%, 61.0%)" stroke-width="7.44" stroke-linecap="round"/>
<line x1="252.36" y1="371.10" x2="236.00" y2="425.04" stroke="hsl(29.8, 89.9%, 61.0%)" stroke-width="7.44" stroke-linecap="round"/>
<line x1="247.93" y1="369.63" x2="228.62" y2="423.60" stroke="hsl(29.8, 89.9%, 61.0%)" stroke-width="7.44" stroke-linecap="round"/>
<line x1="243.57" y1="367.95" x2="221.27" y2="421.79" stroke="hsl(29.8, 89.9%, 61.0%)" stroke-width="7.44" stroke-linecap="round"/>
<line x1="239.30" y1="366.06" x2="211.70" y2="424.41" stroke="hsl(29.8, 89.9%, 61.0%)" stroke-width="7.44" stroke-linecap="round"/>
<line x1="235.12" y1="363.96" x2="201.73" y2="426.43" stroke="hsl(29.8, 89.9%, 61.0%)" stroke-width="7.44" stroke-linecap="round"/>
<line x1="231.06" y1="361.66" x2="191.41" y2="427.80" stroke="hsl(29.8, 89.9%, 61.0%)" stroke-width="7.44" stroke-linecap="round"/>
<line x1="227.11" y1="359.16" x2="180.78" y2="428.50" stroke="hsl(29.8, 89.9%, 61.0%)" stroke-width="7.44" stroke-linecap="round"/>
<line x1="223.29" y1="356.47" x2="169.87" y2="428.49" stroke="hsl(29.8, 89.9%, 61.0%)" stroke-width="7.44" stroke-linecap="round"/>
<line x1="219.61" y1="353.59" x2="168.90" y2="415.37" stroke="hsl(32.8, 86.9%, 62.2%)" stroke-width="7.44" stroke-linecap="round"/>
<line x1="216.07" y1="350.54" x2="174.33" y2="396.59" stroke="hsl(37.3, 84.5%, 63.2%)" stroke-width="7.44" stroke-linecap="round"/>
<line x1="212.68" y1="347.32" x2="181.30" y2="378.70" stroke="hsl(41.8, 84.6%, 63.2%)" stroke-width="7.44" stroke-linecap="round"/>
<line x1="209.46" y1="343.93" x2="189.74" y2="361.81" stroke="hsl(46.3, 87.2%, 62.1%)" stroke-width="7.44" stroke-linecap="round"/>
<line x1="206.41" y1="340.39" x2="193.45" y2="351.03" stroke="hsl(48.9, 89.9%, 61.0%)" stroke-width="7.44" stroke-linecap="round"/>
<line x1="203.53" y1="336.71" x2="188.45" y2="347.90" stroke="hsl(48.9, 89.9%, 61.0%)" stroke-width="7.44" stroke-linecap="round"/>
<line x1="200.84" y1="332.89" x2="183.56" y2="344.44" stroke="hsl(48.9, 89.9%, 61.0%)" stroke-width="7.44" stroke-linecap="round"/>
<line x1="198.34" y1="328.94" x2="179.22" y2="340.41" stroke="hsl(48.9, 89.9%, 61.0%)" stroke-width="7.44" stroke-linecap="round"/>
<line x1="196.04" y1="324.88" x2="176.84" y2="335.14" stroke="hsl(48.9, 89.9%, 61.0%)" stroke-width="7.44" stroke-linecap="round"/>
<line x1="193.94" y1="320.70" x2="174.74" y2="329.78" stroke="hsl(48.9, 89.9%, 61.0%)" stroke-width="7.44" stroke-linecap="round"/>
<line x1="192.05" y1="316.43" x2="172.92" y2="324.36" stroke="hsl(48.9, 89.9%, 61.0%)" stroke-width="7.44" stroke-linecap="round"/>
<line x1="190.37" y1="312.07" x2="157.58" y2="323.80" stroke="hsl(48.9, 89.9%, 61.0%)" stroke-width="7.44" stroke-linecap="round"/>
<line x1="188.90" y1="307.64" x2="142.07" y2="321.84" stroke="hsl(48.9, 89.9%, 61.0%)" stroke-width="7.44" stroke-linecap="round"/>
<line x1="187.65" y1="303.13" x2="126.49" y2="318.45" stroke="hsl(48.9, 89.9%, 61.0%)" stroke-width="7.44" stroke-linecap="round"/>
<line x1="186.63" y1="298.57" x2="122.11" y2="311.41" stroke="hsl(48.9, 89.9%, 61.0%)" stroke-width="7.44" stroke-linecap="round"/>
<line x1="185.83" y1="293.97" x2="120.89" y2="303.60" stroke="hsl(48.9, 89.9%, 61.0%)" stroke-width="7.44" stroke-linecap="round"/>
<line x1="185.26" y1="289.33" x2="120.05" y2="295.75" stroke="hsl(48.9, 89.9%, 61.0%)" stroke-width="7.44" stroke-linecap="round"/>
<line x1="184.91" y1="284.67" x2="120.96" y2="287.81" stroke="hsl(61.2, 70.4%, 64.0%)" stroke-width="7.44" stroke-linecap="round"/>
<line x1="184.80" y1="280.00" x2="123.17" y2="280.00" stroke="hsl(81.6, 51.2%, 64.6%)" stroke-width="7.44" stroke-linecap="round"/>
<line x1="184.91" y1="275.33" x2="125.77" y2="272.42" stroke="hsl(102.0, 43.0%, 59.7%)" stroke-width="7.44" stroke-linecap="round"/>
<line x1="185.26" y1="270.67" x2="128.72" y2="265.10" stroke="hsl(122.4, 39.4%, 49.2%)" stroke-width="7.44" stroke-linecap="round"/>
<line x1="185.83" y1="266.03" x2="123.04" y2="256.72" stroke="hsl(122.4, 39.4%, 49.2%)" stroke-width="7.44" stroke-linecap="round"/>
<line x1="186.63" y1="261.43" x2="117.83" y2="247.74" stroke="hsl(122.4, 39.4%, 49.2%)" stroke-width="7.44" stroke-linecap="round"/>
<line x1="187.65" y1="256.87" x2="113.14" y2="238.20" stroke="hsl(122.4, 39.4%, 49.2%)" stroke-width="7.44" stroke-linecap="round"/>
<line x1="188.90" y1="252.36" x2="109.01" y2="228.13" stroke="hsl(122.4, 39.4%, 49.2%)" stroke-width="7.44" stroke-linecap="round"/>
<line x1="190.37" y1="247.93" x2="108.24" y2="218.54" stroke="hsl(122.4, 39.4%, 49.2%)" stroke-width="7.44" stroke-linecap="round"/>
<line x1="192.05" y1="243.57" x2="108.01" y2="208.76" stroke="hsl(122.4, 39.4%, 49.2%)" stroke-width="7.44" stroke-linecap="round"/>
<line x1="193.94" y1="239.30" x2="108.33" y2="198.81" stroke="hsl(122.4, 39.4%, 49.2%)" stroke-width="7.44" stroke-linecap="round"/>
<line x1="196.04" y1="235.12" x2="109.23" y2="188.72" stroke="hsl(122.4, 39.4%, 49.2%)" stroke-width="7.44" stroke-linecap="round"/>
<line x1="198.34" y1="231.06" x2="113.06" y2="179.94" stroke="hsl(122.4, 39.4%, 49.2%)" stroke-width="7.44" stroke-linecap="round"/>
<line x1="200.84" y1="227.11" x2="117.35" y2="171.32" stroke="hsl(122.4, 39.4%, 49.2%)" stroke-width="7.44" stroke-linecap="round"/>
<line x1="203.53" y1="223.29" x2="122.08" y2="162.88" stroke="hsl(122.4, 39.4%, 49.2%)" stroke-width="7.44" stroke-linecap="round"/>
<line x1="206.41" y1="219.61" x2="127.25" y2="154.64" stroke="hsl(122.4, 39.4%, 49.2%)" stroke-width="7.44" stroke-linecap="round"/>
<line x1="209.46" y1="216.07" x2="132.64" y2="146.44" stroke="hsl(143.3, 38.9%, 58.2%)" stroke-width="7.44" stroke-linecap="round"/>
<line x1="212.68" y1="212.68" x2="138.48" y2="138.48" stroke="hsl(164.1, 45.2%, 60.6%)" stroke-width="7.44" stroke-linecap="round"/>
<line x1="216.07" y1="209.46" x2="144.74" y2="130.76" stroke="hsl(185.0, 62.8%, 56.6%)" stroke-width="7.44" stroke-linecap="round"/>
<line x1="219.61" y1="206.41" x2="152.22" y2="124.30" stroke="hsl(187.9, 66.5%, 55.5%)" stroke-width="7.44" stroke-linecap="round"/>
<line x1="223.29" y1="203.53" x2="160.13" y2="118.38" stroke="hsl(187.9, 66.5%, 55.5%)" stroke-width="7.44" stroke-linecap="round"/>
<line x1="227.11" y1="200.84" x2="169.05" y2="113.95" stroke="hsl(187.9, 66.5%, 55.5%)" stroke-width="7.44" stroke-linecap="round"/>
<line x1="231.06" y1="198.34" x2="178.61" y2="110.84" stroke="hsl(187.9, 66.5%, 55.5%)" stroke-width="7.44" stroke-linecap="round"/>
<line x1="235.12" y1="196.04" x2="188.47" y2="108.76" stroke="hsl(187.9, 66.5%, 55.5%)" stroke-width="7.44" stroke-linecap="round"/>
<line x1="239.30" y1="193.94" x2="198.89" y2="108.51" stroke="hsl(187.9, 66.5%, 55.5%)" stroke-width="7.44" stroke-linecap="round"/>
<line x1="243.57" y1="192.05" x2="209.11" y2="108.85" stroke="hsl(187.9, 66.5%, 55.5%)" stroke-width="7.44" stroke-linecap="round"/>
<line x1="247.93" y1="190.37" x2="218.73" y2="108.78" stroke="hsl(187.9, 66.5%, 55.5%)" stroke-width="7.44" stroke-linecap="round"/>
<line x1="252.36" y1="188.90" x2="228.19" y2="109.22" stroke="hsl(187.9, 66.5%, 55.5%)" stroke-width="7.44" stroke-linecap="round"/>
<line x1="256.87" y1="187.65" x2="238.26" y2="113.38" stroke="hsl(187.9, 66.5%, 55.5%)" stroke-width="7.44" stroke-linecap="round"/>
<line x1="261.43" y1="186.63" x2="248.05" y2="119.39" stroke="hsl(187.9, 66.5%, 55.5%)" stroke-width="7.44" stroke-linecap="round"/>
<line x1="266.03" y1="185.83" x2="255.89" y2="117.47" stroke="hsl(187.9, 66.5%, 55.5%)" stroke-width="7.44" stroke-linecap="round"/>
<line x1="270.67" y1="185.26" x2="262.72" y2="104.58" stroke="hsl(187.9, 66.5%, 55.5%)" stroke-width="7.44" stroke-linecap="round"/>
<line x1="275.33" y1="184.91" x2="270.86" y2="93.97" stroke="hsl(189.3, 66.3%, 56.4%)" stroke-width="7.44" stroke-linecap="round"/>
<text x="280" y="526" text-anchor="middle" font-family="sans-serif" font-size="22" font-weight="bold" fill="#222">③ 32学部 案B</text>
<text x="280" y="548" text-anchor="middle" font-family="sans-serif" font-size="15" fill="#888">カテゴリ均等・8×45°細分</text>
</svg>