<svg xmlns="http://www.w3.org/2000/svg" width="560" height="560" viewBox="0 0 560 560">
<rect width="560" height="560" fill="white"/>
<line x1="280.00" y1="184.80" x2="280.00" y2="85.48" stroke="hsl(205.5, 69.8%, 63.5%)" stroke-width="7.93" stroke-linecap="round"/>
<line x1="284.98" y1="184.93" x2="290.13" y2="86.69" stroke="hsl(207.8, 71.4%, 63.9%)" stroke-width="7.93" stroke-linecap="round"/>
<line x1="289.95" y1="185.32" x2="300.13" y2="88.43" stroke="hsl(210.2, 73.4%, 64.2%)" stroke-width="7.93" stroke-linecap="round"/>
<line x1="294.89" y1="185.97" x2="309.99" y2="90.68" stroke="hsl(212.5, 75.8%, 64.3%)" stroke-width="7.93" stroke-linecap="round"/>
<line x1="299.79" y1="186.88" x2="319.66" y2="93.43" stroke="hsl(214.8, 78.5%, 64.3%)" stroke-width="7.93" stroke-linecap="round"/>
<line x1="304.64" y1="188.04" x2="329.12" y2="96.67" stroke="hsl(217.2, 81.7%, 64.1%)" stroke-width="7.93" stroke-linecap="round"/>
<line x1="309.42" y1="189.46" x2="338.36" y2="100.40" stroke="hsl(219.5, 85.3%, 63.7%)" stroke-width="7.93" stroke-linecap="round"/>
<line x1="314.12" y1="191.12" x2="347.34" y2="104.58" stroke="hsl(221.8, 89.3%, 63.2%)" stroke-width="7.93" stroke-linecap="round"/>
<line x1="318.72" y1="193.03" x2="355.97" y2="109.36" stroke="hsl(224.0, 90.3%, 63.5%)" stroke-width="7.93" stroke-linecap="round"/>
<line x1="323.22" y1="195.18" x2="364.21" y2="114.72" stroke="hsl(225.9, 88.0%, 64.5%)" stroke-width="7.93" stroke-linecap="round"/>
<line x1="327.60" y1="197.55" x2="372.10" y2="120.47" stroke="hsl(227.9, 86.1%, 65.4%)" stroke-width="7.93" stroke-linecap="round"/>
<line x1="331.85" y1="200.16" x2="379.63" y2="126.59" stroke="hsl(229.8, 84.5%, 66.2%)" stroke-width="7.93" stroke-linecap="round"/>
<line x1="335.96" y1="202.98" x2="386.76" y2="133.06" stroke="hsl(231.8, 83.2%, 66.9%)" stroke-width="7.93" stroke-linecap="round"/>
<line x1="339.91" y1="206.02" x2="393.49" y2="139.85" stroke="hsl(233.7, 82.2%, 67.4%)" stroke-width="7.93" stroke-linecap="round"/>
<line x1="343.70" y1="209.25" x2="399.81" y2="146.94" stroke="hsl(235.6, 81.6%, 67.8%)" stroke-width="7.93" stroke-linecap="round"/>
<line x1="347.32" y1="212.68" x2="405.70" y2="154.30" stroke="hsl(237.6, 81.2%, 68.1%)" stroke-width="7.93" stroke-linecap="round"/>
<line x1="350.75" y1="216.30" x2="411.15" y2="161.91" stroke="hsl(239.5, 81.2%, 68.2%)" stroke-width="7.93" stroke-linecap="round"/>
<line x1="353.98" y1="220.09" x2="416.15" y2="169.75" stroke="hsl(241.5, 81.5%, 68.2%)" stroke-width="7.93" stroke-linecap="round"/>
<line x1="357.02" y1="224.04" x2="420.69" y2="177.78" stroke="hsl(243.4, 82.1%, 68.1%)" stroke-width="7.93" stroke-linecap="round"/>
<line x1="359.84" y1="228.15" x2="424.76" y2="185.99" stroke="hsl(245.4, 83.0%, 67.9%)" stroke-width="7.93" stroke-linecap="round"/>
<line x1="362.45" y1="232.40" x2="428.37" y2="194.34" stroke="hsl(247.3, 84.2%, 67.5%)" stroke-width="7.93" stroke-linecap="round"/>
<line x1="364.82" y1="236.78" x2="431.50" y2="202.81" stroke="hsl(249.2, 85.6%, 67.0%)" stroke-width="7.93" stroke-linecap="round"/>
<line x1="366.97" y1="241.28" x2="434.16" y2="211.36" stroke="hsl(251.2, 87.4%, 66.4%)" stroke-width="7.93" stroke-linecap="round"/>
<line x1="368.88" y1="245.88" x2="436.33" y2="219.99" stroke="hsl(254.7, 84.9%, 67.1%)" stroke-width="7.93" stroke-linecap="round"/>
<line x1="370.54" y1="250.58" x2="438.03" y2="228.65" stroke="hsl(259.9, 78.5%, 69.0%)" stroke-width="7.93" stroke-linecap="round"/>
<line x1="371.96" y1="255.36" x2="439.24" y2="237.33" stroke="hsl(265.0, 73.0%, 70.6%)" stroke-width="7.93" stroke-linecap="round"/>
<line x1="373.12" y1="260.21" x2="439.99" y2="245.99" stroke="hsl(270.1, 68.4%, 71.8%)" stroke-width="7.93" stroke-linecap="round"/>
<line x1="374.03" y1="265.11" x2="440.27" y2="254.62" stroke="hsl(275.2, 64.7%, 72.6%)" stroke-width="7.93" stroke-linecap="round"/>
<line x1="374.68" y1="270.05" x2="440.09" y2="263.17" stroke="hsl(280.4, 61.8%, 73.2%)" stroke-width="7.93" stroke-linecap="round"/>
<line x1="375.07" y1="275.02" x2="439.46" y2="271.64" stroke="hsl(285.5, 59.7%, 73.4%)" stroke-width="7.93" stroke-linecap="round"/>
<line x1="375.20" y1="280.00" x2="438.38" y2="280.00" stroke="hsl(290.6, 58.3%, 73.2%)" stroke-width="7.93" stroke-linecap="round"/>
<line x1="375.07" y1="284.98" x2="436.87" y2="288.22" stroke="hsl(295.8, 57.6%, 72.8%)" stroke-width="7.93" stroke-linecap="round"/>
<line x1="374.68" y1="289.95" x2="434.94" y2="296.28" stroke="hsl(300.9, 57.7%, 72.0%)" stroke-width="7.93" stroke-linecap="round"/>
<line x1="374.03" y1="294.89" x2="432.59" y2="304.17" stroke="hsl(306.0, 58.4%, 70.8%)" stroke-width="7.93" stroke-linecap="round"/>
<line x1="373.12" y1="299.79" x2="429.85" y2="311.85" stroke="hsl(311.2, 59.6%, 69.4%)" stroke-width="7.93" stroke-linecap="round"/>
<line x1="371.96" y1="304.64" x2="426.73" y2="319.32" stroke="hsl(316.3, 61.5%, 67.5%)" stroke-width="7.93" stroke-linecap="round"/>
<line x1="370.54" y1="309.42" x2="423.23" y2="326.54" stroke="hsl(321.4, 63.9%, 65.4%)" stroke-width="7.93" stroke-linecap="round"/>
<line x1="368.88" y1="314.12" x2="419.39" y2="333.51" stroke="hsl(326.5, 66.8%, 62.9%)" stroke-width="7.93" stroke-linecap="round"/>
<line x1="366.97" y1="318.72" x2="414.83" y2="340.03" stroke="hsl(330.2, 67.9%, 62.1%)" stroke-width="7.93" stroke-linecap="round"/>
<line x1="364.82" y1="323.22" x2="409.59" y2="346.03" stroke="hsl(332.3, 67.2%, 63.1%)" stroke-width="7.93" stroke-linecap="round"/>
<line x1="362.45" y1="327.60" x2="404.10" y2="351.65" stroke="hsl(334.4, 66.6%, 63.9%)" stroke-width="7.93" stroke-linecap="round"/>
<line x1="359.84" y1="331.85" x2="398.38" y2="356.88" stroke="hsl(336.6, 66.4%, 64.6%)" stroke-width="7.93" stroke-linecap="round"/>
<line x1="357.02" y1="335.96" x2="392.46" y2="361.70" stroke="hsl(338.7, 66.3%, 65.2%)" stroke-width="7.93" stroke-linecap="round"/>
<line x1="353.98" y1="339.91" x2="386.36" y2="366.13" stroke="hsl(340.8, 66.5%, 65.6%)" stroke-width="7.93" stroke-linecap="round"/>
<line x1="350.75" y1="343.70" x2="380.11" y2="370.14" stroke="hsl(343.0, 67.0%, 65.8%)" stroke-width="7.93" stroke-linecap="round"/>
<line x1="347.32" y1="347.32" x2="373.74" y2="373.74" stroke="hsl(345.1, 67.7%, 66.0%)" stroke-width="7.93" stroke-linecap="round"/>
<line x1="343.70" y1="350.75" x2="367.27" y2="376.92" stroke="hsl(347.3, 68.7%, 66.0%)" stroke-width="7.93" stroke-linecap="round"/>
<line x1="339.91" y1="353.98" x2="360.72" y2="379.69" stroke="hsl(349.4, 70.1%, 65.8%)" stroke-width="7.93" stroke-linecap="round"/>
<line x1="335.96" y1="357.02" x2="354.13" y2="382.04" stroke="hsl(351.5, 71.7%, 65.5%)" stroke-width="7.93" stroke-linecap="round"/>
<line x1="331.85" y1="359.84" x2="347.52" y2="383.98" stroke="hsl(353.7, 73.7%, 65.1%)" stroke-width="7.93" stroke-linecap="round"/>
<line x1="327.60" y1="362.45" x2="340.92" y2="385.51" stroke="hsl(355.8, 76.0%, 64.6%)" stroke-width="7.93" stroke-linecap="round"/>
<line x1="323.22" y1="364.82" x2="334.34" y2="386.64" stroke="hsl(357.9, 78.6%, 63.9%)" stroke-width="7.93" stroke-linecap="round"/>
<line x1="318.72" y1="366.97" x2="327.81" y2="387.38" stroke="hsl(0.1, 81.6%, 63.0%)" stroke-width="7.93" stroke-linecap="round"/>
<line x1="314.12" y1="368.88" x2="322.27" y2="390.13" stroke="hsl(2.1, 82.4%, 62.9%)" stroke-width="7.93" stroke-linecap="round"/>
<line x1="309.42" y1="370.54" x2="317.38" y2="395.04" stroke="hsl(4.0, 81.0%, 63.7%)" stroke-width="7.93" stroke-linecap="round"/>
<line x1="304.64" y1="371.96" x2="312.08" y2="399.73" stroke="hsl(5.9, 79.9%, 64.2%)" stroke-width="7.93" stroke-linecap="round"/>
<line x1="299.79" y1="373.12" x2="306.40" y2="404.18" stroke="hsl(7.8, 79.0%, 64.7%)" stroke-width="7.93" stroke-linecap="round"/>
<line x1="294.89" y1="374.03" x2="300.33" y2="408.35" stroke="hsl(9.7, 78.4%, 65.0%)" stroke-width="7.93" stroke-linecap="round"/>
<line x1="289.95" y1="374.68" x2="293.90" y2="412.22" stroke="hsl(11.7, 78.1%, 65.2%)" stroke-width="7.93" stroke-linecap="round"/>
<line x1="284.98" y1="375.07" x2="287.11" y2="415.76" stroke="hsl(13.6, 78.1%, 65.3%)" stroke-width="7.93" stroke-linecap="round"/>
<line x1="280.00" y1="375.20" x2="280.00" y2="418.94" stroke="hsl(15.5, 78.3%, 65.3%)" stroke-width="7.93" stroke-linecap="round"/>
<line x1="275.02" y1="375.07" x2="272.57" y2="421.74" stroke="hsl(17.4, 78.9%, 65.1%)" stroke-width="7.93" stroke-linecap="round"/>
<line x1="270.05" y1="374.68" x2="264.85" y2="424.14" stroke="hsl(19.3, 79.7%, 64.8%)" stroke-width="7.93" stroke-linecap="round"/>
<line x1="265.11" y1="374.03" x2="256.86" y2="426.11" stroke="hsl(21.2, 80.9%, 64.4%)" stroke-width="7.93" stroke-linecap="round"/>
<line x1="260.21" y1="373.12" x2="248.62" y2="427.63" stroke="hsl(23.1, 82.3%, 63.9%)" stroke-width="7.93" stroke-linecap="round"/>
<line x1="255.36" y1="371.96" x2="240.16" y2="428.68" stroke="hsl(25.0, 84.1%, 63.2%)" stroke-width="7.93" stroke-linecap="round"/>
<line x1="250.58" y1="370.54" x2="231.51" y2="429.24" stroke="hsl(27.0, 86.2%, 62.4%)" stroke-width="7.93" stroke-linecap="round"/>
<line x1="245.88" y1="368.88" x2="222.69" y2="429.29" stroke="hsl(28.9, 88.6%, 61.5%)" stroke-width="7.93" stroke-linecap="round"/>
<line x1="241.28" y1="366.97" x2="215.03" y2="425.93" stroke="hsl(30.5, 89.2%, 61.3%)" stroke-width="7.93" stroke-linecap="round"/>
<line x1="236.78" y1="364.82" x2="209.00" y2="419.34" stroke="hsl(31.7, 87.9%, 61.8%)" stroke-width="7.93" stroke-linecap="round"/>
<line x1="232.40" y1="362.45" x2="203.48" y2="412.53" stroke="hsl(33.0, 86.8%, 62.3%)" stroke-width="7.93" stroke-linecap="round"/>
<line x1="228.15" y1="359.84" x2="198.48" y2="405.54" stroke="hsl(34.3, 85.9%, 62.7%)" stroke-width="7.93" stroke-linecap="round"/>
<line x1="224.04" y1="357.02" x2="193.99" y2="398.39" stroke="hsl(35.6, 85.1%, 62.9%)" stroke-width="7.93" stroke-linecap="round"/>
<line x1="220.09" y1="353.98" x2="190.02" y2="391.12" stroke="hsl(36.8, 84.6%, 63.1%)" stroke-width="7.93" stroke-linecap="round"/>
<line x1="216.30" y1="350.75" x2="186.57" y2="383.77" stroke="hsl(38.1, 84.3%, 63.3%)" stroke-width="7.93" stroke-linecap="round"/>
<line x1="212.68" y1="347.32" x2="183.63" y2="376.37" stroke="hsl(39.4, 84.2%, 63.3%)" stroke-width="7.93" stroke-linecap="round"/>
<line x1="209.25" y1="343.70" x2="181.21" y2="368.95" stroke="hsl(40.7, 84.3%, 63.3%)" stroke-width="7.93" stroke-linecap="round"/>
<line x1="206.02" y1="339.91" x2="179.29" y2="361.55" stroke="hsl(41.9, 84.6%, 63.1%)" stroke-width="7.93" stroke-linecap="round"/>
<line x1="202.98" y1="335.96" x2="177.87" y2="354.20" stroke="hsl(43.2, 85.1%, 62.9%)" stroke-width="7.93" stroke-linecap="round"/>
<line x1="200.16" y1="331.85" x2="176.94" y2="346.93" stroke="hsl(44.5, 85.9%, 62.7%)" stroke-width="7.93" stroke-linecap="round"/>
<line x1="197.55" y1="327.60" x2="176.48" y2="339.77" stroke="hsl(45.8, 86.8%, 62.3%)" stroke-width="7.93" stroke-linecap="round"/>
<line x1="195.18" y1="323.22" x2="176.48" y2="332.75" stroke="hsl(47.0, 87.9%, 61.8%)" stroke-width="7.93" stroke-linecap="round"/>
<line x1="193.03" y1="318.72" x2="176.92" y2="325.89" stroke="hsl(48.3, 89.2%, 61.3%)" stroke-width="7.93" stroke-linecap="round"/>
<line x1="191.12" y1="314.12" x2="173.73" y2="320.79" stroke="hsl(51.4, 85.5%, 61.7%)" stroke-width="7.93" stroke-linecap="round"/>
<line x1="189.46" y1="309.42" x2="166.67" y2="316.82" stroke="hsl(56.3, 77.4%, 63.0%)" stroke-width="7.93" stroke-linecap="round"/>
<line x1="188.04" y1="304.64" x2="159.75" y2="312.22" stroke="hsl(61.2, 70.4%, 64.0%)" stroke-width="7.93" stroke-linecap="round"/>
<line x1="186.88" y1="299.79" x2="153.02" y2="306.99" stroke="hsl(66.1, 64.5%, 64.7%)" stroke-width="7.93" stroke-linecap="round"/>
<line x1="185.97" y1="294.89" x2="146.51" y2="301.14" stroke="hsl(71.0, 59.4%, 65.0%)" stroke-width="7.93" stroke-linecap="round"/>
<line x1="185.32" y1="289.95" x2="140.29" y2="294.68" stroke="hsl(75.9, 55.2%, 65.0%)" stroke-width="7.93" stroke-linecap="round"/>
<line x1="184.93" y1="284.98" x2="134.38" y2="287.63" stroke="hsl(80.8, 51.7%, 64.7%)" stroke-width="7.93" stroke-linecap="round"/>
<line x1="184.80" y1="280.00" x2="128.85" y2="280.00" stroke="hsl(85.7, 48.8%, 64.1%)" stroke-width="7.93" stroke-linecap="round"/>
<line x1="184.93" y1="275.02" x2="123.74" y2="271.81" stroke="hsl(90.6, 46.6%, 63.1%)" stroke-width="7.93" stroke-linecap="round"/>
<line x1="185.32" y1="270.05" x2="119.08" y2="263.09" stroke="hsl(95.5, 44.8%, 61.9%)" stroke-width="7.93" stroke-linecap="round"/>
<line x1="185.97" y1="265.11" x2="114.92" y2="253.85" stroke="hsl(100.4, 43.4%, 60.3%)" stroke-width="7.93" stroke-linecap="round"/>
<line x1="186.88" y1="260.21" x2="111.30" y2="244.14" stroke="hsl(105.3, 42.2%, 58.4%)" stroke-width="7.93" stroke-linecap="round"/>
<line x1="188.04" y1="255.36" x2="108.25" y2="233.98" stroke="hsl(110.2, 41.3%, 56.2%)" stroke-width="7.93" stroke-linecap="round"/>
<line x1="189.46" y1="250.58" x2="105.83" y2="223.41" stroke="hsl(115.1, 40.6%, 53.6%)" stroke-width="7.93" stroke-linecap="round"/>
<line x1="191.12" y1="245.88" x2="104.05" y2="212.46" stroke="hsl(120.0, 39.8%, 50.8%)" stroke-width="7.93" stroke-linecap="round"/>
<line x1="193.03" y1="241.28" x2="105.07" y2="202.12" stroke="hsl(124.6, 39.2%, 50.5%)" stroke-width="7.93" stroke-linecap="round"/>
<line x1="195.18" y1="236.78" x2="108.77" y2="192.75" stroke="hsl(129.0, 38.8%, 52.7%)" stroke-width="7.93" stroke-linecap="round"/>
<line x1="197.55" y1="232.40" x2="112.96" y2="183.56" stroke="hsl(133.3, 38.6%, 54.7%)" stroke-width="7.93" stroke-linecap="round"/>
<line x1="200.16" y1="228.15" x2="117.65" y2="174.57" stroke="hsl(137.7, 38.6%, 56.4%)" stroke-width="7.93" stroke-linecap="round"/>
<line x1="202.98" y1="224.04" x2="122.83" y2="165.81" stroke="hsl(142.1, 38.8%, 57.8%)" stroke-width="7.93" stroke-linecap="round"/>
<line x1="206.02" y1="220.09" x2="128.48" y2="157.30" stroke="hsl(146.4, 39.4%, 59.0%)" stroke-width="7.93" stroke-linecap="round"/>
<line x1="209.25" y1="216.30" x2="134.59" y2="149.07" stroke="hsl(150.8, 40.2%, 59.8%)" stroke-width="7.93" stroke-linecap="round"/>
<line x1="212.68" y1="212.68" x2="141.15" y2="141.15" stroke="hsl(155.2, 41.4%, 60.4%)" stroke-width="7.93" stroke-linecap="round"/>
<line x1="216.30" y1="209.25" x2="148.14" y2="133.55" stroke="hsl(159.6, 43.0%, 60.6%)" stroke-width="7.93" stroke-linecap="round"/>
<line x1="220.09" y1="206.02" x2="155.54" y2="126.31" stroke="hsl(163.9, 45.1%, 60.6%)" stroke-width="7.93" stroke-linecap="round"/>
<line x1="224.04" y1="202.98" x2="163.35" y2="119.44" stroke="hsl(168.3, 47.7%, 60.3%)" stroke-width="7.93" stroke-linecap="round"/>
<line x1="228.15" y1="200.16" x2="171.53" y2="112.97" stroke="hsl(172.7, 50.8%, 59.8%)" stroke-width="7.93" stroke-linecap="round"/>
<line x1="232.40" y1="197.55" x2="180.07" y2="106.92" stroke="hsl(177.0, 54.5%, 58.9%)" stroke-width="7.93" stroke-linecap="round"/>
<line x1="236.78" y1="195.18" x2="188.95" y2="101.31" stroke="hsl(181.4, 58.8%, 57.7%)" stroke-width="7.93" stroke-linecap="round"/>
<line x1="241.28" y1="193.03" x2="198.14" y2="96.15" stroke="hsl(185.8, 63.8%, 56.3%)" stroke-width="7.93" stroke-linecap="round"/>
<line x1="245.88" y1="191.12" x2="207.92" y2="92.23" stroke="hsl(189.1, 66.3%, 56.3%)" stroke-width="7.93" stroke-linecap="round"/>
<line x1="250.58" y1="189.46" x2="218.14" y2="89.61" stroke="hsl(191.5, 66.1%, 57.8%)" stroke-width="7.93" stroke-linecap="round"/>
<line x1="255.36" y1="188.04" x2="228.43" y2="87.55" stroke="hsl(193.8, 66.1%, 59.1%)" stroke-width="7.93" stroke-linecap="round"/>
<line x1="260.21" y1="186.88" x2="238.77" y2="86.04" stroke="hsl(196.1, 66.3%, 60.3%)" stroke-width="7.93" stroke-linecap="round"/>
<line x1="265.11" y1="185.97" x2="249.13" y2="85.08" stroke="hsl(198.5, 66.8%, 61.3%)" stroke-width="7.93" stroke-linecap="round"/>
<line x1="270.05" y1="185.32" x2="259.47" y2="84.67" stroke="hsl(200.8, 67.5%, 62.2%)" stroke-width="7.93" stroke-linecap="round"/>
<line x1="275.02" y1="184.93" x2="269.77" y2="84.81" stroke="hsl(203.1, 68.5%, 62.9%)" stroke-width="7.93" stroke-linecap="round"/>
<text x="280" y="526" text-anchor="middle" font-family="sans-serif" font-size="22" font-weight="bold" fill="#222">① 現行 8カテゴリ</text>
<text x="280" y="548" text-anchor="middle" font-family="sans-serif" font-size="15" fill="#888">8山谷・カテゴリ集約（本番）</text>
</svg>