<svg xmlns="http://www.w3.org/2000/svg" width="560" height="560" viewBox="0 0 560 560">
<rect width="560" height="560" fill="white"/>
<line x1="280.00" y1="184.80" x2="280.00" y2="97.89" stroke="hsl(237.6, 81.2%, 68.1%)" stroke-width="6.61" stroke-linecap="round"/>
<line x1="284.15" y1="184.89" x2="287.80" y2="101.30" stroke="hsl(224.2, 90.0%, 63.6%)" stroke-width="6.61" stroke-linecap="round"/>
<line x1="288.30" y1="185.16" x2="295.56" y2="102.10" stroke="hsl(223.0, 91.5%, 62.9%)" stroke-width="6.61" stroke-linecap="round"/>
<line x1="292.43" y1="185.61" x2="303.31" y2="102.94" stroke="hsl(223.0, 91.5%, 62.9%)" stroke-width="6.61" stroke-linecap="round"/>
<line x1="296.53" y1="186.25" x2="311.02" y2="104.06" stroke="hsl(223.0, 91.5%, 62.9%)" stroke-width="6.61" stroke-linecap="round"/>
<line x1="300.61" y1="187.06" x2="318.68" y2="105.52" stroke="hsl(223.0, 91.5%, 62.9%)" stroke-width="6.61" stroke-linecap="round"/>
<line x1="304.64" y1="188.04" x2="326.26" y2="107.37" stroke="hsl(223.0, 91.5%, 62.9%)" stroke-width="6.61" stroke-linecap="round"/>
<line x1="308.63" y1="189.21" x2="333.71" y2="109.66" stroke="hsl(223.0, 91.5%, 62.9%)" stroke-width="6.61" stroke-linecap="round"/>
<line x1="312.56" y1="190.54" x2="340.63" y2="113.41" stroke="hsl(223.0, 91.5%, 62.9%)" stroke-width="6.61" stroke-linecap="round"/>
<line x1="316.43" y1="192.05" x2="347.34" y2="117.43" stroke="hsl(223.0, 91.5%, 62.9%)" stroke-width="6.61" stroke-linecap="round"/>
<line x1="320.23" y1="193.72" x2="354.32" y2="120.63" stroke="hsl(223.0, 91.5%, 62.9%)" stroke-width="6.61" stroke-linecap="round"/>
<line x1="323.96" y1="195.56" x2="361.24" y2="123.93" stroke="hsl(223.0, 91.5%, 62.9%)" stroke-width="6.61" stroke-linecap="round"/>
<line x1="327.60" y1="197.55" x2="368.53" y2="126.66" stroke="hsl(223.0, 91.5%, 62.9%)" stroke-width="6.61" stroke-linecap="round"/>
<line x1="331.15" y1="199.71" x2="375.73" y2="129.73" stroke="hsl(223.0, 91.5%, 62.9%)" stroke-width="6.61" stroke-linecap="round"/>
<line x1="334.60" y1="202.02" x2="382.25" y2="133.97" stroke="hsl(223.0, 91.5%, 62.9%)" stroke-width="6.61" stroke-linecap="round"/>
<line x1="337.95" y1="204.47" x2="388.71" y2="138.32" stroke="hsl(221.6, 88.9%, 63.3%)" stroke-width="6.61" stroke-linecap="round"/>
<line x1="341.19" y1="207.07" x2="397.01" y2="140.55" stroke="hsl(205.5, 69.8%, 63.5%)" stroke-width="6.61" stroke-linecap="round"/>
<line x1="344.32" y1="209.81" x2="405.32" y2="143.24" stroke="hsl(189.4, 66.3%, 56.5%)" stroke-width="6.61" stroke-linecap="round"/>
<line x1="347.32" y1="212.68" x2="411.38" y2="148.62" stroke="hsl(187.9, 66.5%, 55.5%)" stroke-width="6.61" stroke-linecap="round"/>
<line x1="350.19" y1="215.68" x2="417.25" y2="154.23" stroke="hsl(187.9, 66.5%, 55.5%)" stroke-width="6.61" stroke-linecap="round"/>
<line x1="352.93" y1="218.81" x2="425.68" y2="157.76" stroke="hsl(187.9, 66.5%, 55.5%)" stroke-width="6.61" stroke-linecap="round"/>
<line x1="355.53" y1="222.05" x2="434.05" y2="161.79" stroke="hsl(187.9, 66.5%, 55.5%)" stroke-width="6.61" stroke-linecap="round"/>
<line x1="357.98" y1="225.40" x2="439.35" y2="168.42" stroke="hsl(187.9, 66.5%, 55.5%)" stroke-width="6.61" stroke-linecap="round"/>
<line x1="360.29" y1="228.85" x2="444.27" y2="175.35" stroke="hsl(187.9, 66.5%, 55.5%)" stroke-width="6.61" stroke-linecap="round"/>
<line x1="362.45" y1="232.40" x2="451.02" y2="181.26" stroke="hsl(187.9, 66.5%, 55.5%)" stroke-width="6.61" stroke-linecap="round"/>
<line x1="364.44" y1="236.04" x2="457.56" y2="187.57" stroke="hsl(187.9, 66.5%, 55.5%)" stroke-width="6.61" stroke-linecap="round"/>
<line x1="366.28" y1="239.77" x2="461.64" y2="195.30" stroke="hsl(187.9, 66.5%, 55.5%)" stroke-width="6.61" stroke-linecap="round"/>
<line x1="367.95" y1="243.57" x2="464.56" y2="203.55" stroke="hsl(187.9, 66.5%, 55.5%)" stroke-width="6.61" stroke-linecap="round"/>
<line x1="369.46" y1="247.44" x2="460.85" y2="214.18" stroke="hsl(187.9, 66.5%, 55.5%)" stroke-width="6.61" stroke-linecap="round"/>
<line x1="370.79" y1="251.37" x2="456.58" y2="224.32" stroke="hsl(187.9, 66.5%, 55.5%)" stroke-width="6.61" stroke-linecap="round"/>
<line x1="371.96" y1="255.36" x2="458.22" y2="232.25" stroke="hsl(187.9, 66.5%, 55.5%)" stroke-width="6.61" stroke-linecap="round"/>
<line x1="372.94" y1="259.39" x2="460.47" y2="239.99" stroke="hsl(185.3, 63.2%, 56.5%)" stroke-width="6.61" stroke-linecap="round"/>
<line x1="373.75" y1="263.47" x2="465.88" y2="247.23" stroke="hsl(155.2, 41.4%, 60.4%)" stroke-width="6.61" stroke-linecap="round"/>
<line x1="374.39" y1="267.57" x2="470.99" y2="254.86" stroke="hsl(125.1, 39.2%, 50.7%)" stroke-width="6.61" stroke-linecap="round"/>
<line x1="374.84" y1="271.70" x2="472.25" y2="263.18" stroke="hsl(122.4, 39.4%, 49.2%)" stroke-width="6.61" stroke-linecap="round"/>
<line x1="375.11" y1="275.85" x2="472.96" y2="271.58" stroke="hsl(122.4, 39.4%, 49.2%)" stroke-width="6.61" stroke-linecap="round"/>
<line x1="375.20" y1="280.00" x2="474.98" y2="280.00" stroke="hsl(122.4, 39.4%, 49.2%)" stroke-width="6.61" stroke-linecap="round"/>
<line x1="375.11" y1="284.15" x2="476.64" y2="288.59" stroke="hsl(122.4, 39.4%, 49.2%)" stroke-width="6.61" stroke-linecap="round"/>
<line x1="374.84" y1="288.30" x2="476.24" y2="297.17" stroke="hsl(122.4, 39.4%, 49.2%)" stroke-width="6.61" stroke-linecap="round"/>
<line x1="374.39" y1="292.43" x2="475.46" y2="305.73" stroke="hsl(122.4, 39.4%, 49.2%)" stroke-width="6.61" stroke-linecap="round"/>
<line x1="373.75" y1="296.53" x2="476.01" y2="314.56" stroke="hsl(122.4, 39.4%, 49.2%)" stroke-width="6.61" stroke-linecap="round"/>
<line x1="372.94" y1="300.61" x2="476.15" y2="323.48" stroke="hsl(122.4, 39.4%, 49.2%)" stroke-width="6.61" stroke-linecap="round"/>
<line x1="371.96" y1="304.64" x2="474.22" y2="332.04" stroke="hsl(122.4, 39.4%, 49.2%)" stroke-width="6.61" stroke-linecap="round"/>
<line x1="370.79" y1="308.63" x2="471.79" y2="340.47" stroke="hsl(122.4, 39.4%, 49.2%)" stroke-width="6.61" stroke-linecap="round"/>
<line x1="369.46" y1="312.56" x2="469.19" y2="348.86" stroke="hsl(122.4, 39.4%, 49.2%)" stroke-width="6.61" stroke-linecap="round"/>
<line x1="367.95" y1="316.43" x2="466.23" y2="357.14" stroke="hsl(122.4, 39.4%, 49.2%)" stroke-width="6.61" stroke-linecap="round"/>
<line x1="366.28" y1="320.23" x2="462.71" y2="365.20" stroke="hsl(122.4, 39.4%, 49.2%)" stroke-width="6.61" stroke-linecap="round"/>
<line x1="364.44" y1="323.96" x2="457.03" y2="372.16" stroke="hsl(120.5, 39.9%, 50.1%)" stroke-width="6.61" stroke-linecap="round"/>
<line x1="362.45" y1="327.60" x2="433.01" y2="368.34" stroke="hsl(99.0, 48.0%, 54.6%)" stroke-width="6.61" stroke-linecap="round"/>
<line x1="360.29" y1="331.15" x2="409.70" y2="362.63" stroke="hsl(77.5, 71.0%, 49.5%)" stroke-width="6.61" stroke-linecap="round"/>
<line x1="357.98" y1="334.60" x2="404.32" y2="367.05" stroke="hsl(75.7, 74.2%, 48.6%)" stroke-width="6.61" stroke-linecap="round"/>
<line x1="355.53" y1="337.95" x2="401.58" y2="373.29" stroke="hsl(75.7, 74.2%, 48.6%)" stroke-width="6.61" stroke-linecap="round"/>
<line x1="352.93" y1="341.19" x2="410.30" y2="389.33" stroke="hsl(75.7, 74.2%, 48.6%)" stroke-width="6.61" stroke-linecap="round"/>
<line x1="350.19" y1="344.32" x2="417.83" y2="406.29" stroke="hsl(75.7, 74.2%, 48.6%)" stroke-width="6.61" stroke-linecap="round"/>
<line x1="347.32" y1="347.32" x2="413.24" y2="413.24" stroke="hsl(75.7, 74.2%, 48.6%)" stroke-width="6.61" stroke-linecap="round"/>
<line x1="344.32" y1="350.19" x2="406.48" y2="418.03" stroke="hsl(75.7, 74.2%, 48.6%)" stroke-width="6.61" stroke-linecap="round"/>
<line x1="341.19" y1="352.93" x2="391.55" y2="412.94" stroke="hsl(75.7, 74.2%, 48.6%)" stroke-width="6.61" stroke-linecap="round"/>
<line x1="337.95" y1="355.53" x2="377.32" y2="406.83" stroke="hsl(75.7, 74.2%, 48.6%)" stroke-width="6.61" stroke-linecap="round"/>
<line x1="334.60" y1="357.98" x2="371.01" y2="409.97" stroke="hsl(75.7, 74.2%, 48.6%)" stroke-width="6.61" stroke-linecap="round"/>
<line x1="331.15" y1="360.29" x2="365.29" y2="413.88" stroke="hsl(75.7, 74.2%, 48.6%)" stroke-width="6.61" stroke-linecap="round"/>
<line x1="327.60" y1="362.45" x2="359.76" y2="418.15" stroke="hsl(75.7, 74.2%, 48.6%)" stroke-width="6.61" stroke-linecap="round"/>
<line x1="323.96" y1="364.44" x2="354.03" y2="422.20" stroke="hsl(75.7, 74.2%, 48.6%)" stroke-width="6.61" stroke-linecap="round"/>
<line x1="320.23" y1="366.28" x2="347.78" y2="425.36" stroke="hsl(75.7, 74.2%, 48.6%)" stroke-width="6.61" stroke-linecap="round"/>
<line x1="316.43" y1="367.95" x2="341.63" y2="428.79" stroke="hsl(74.6, 73.8%, 49.6%)" stroke-width="6.61" stroke-linecap="round"/>
<line x1="312.56" y1="369.46" x2="337.66" y2="438.43" stroke="hsl(62.3, 74.8%, 58.1%)" stroke-width="6.61" stroke-linecap="round"/>
<line x1="308.63" y1="370.79" x2="332.97" y2="447.99" stroke="hsl(50.0, 88.1%, 61.0%)" stroke-width="6.61" stroke-linecap="round"/>
<line x1="304.64" y1="371.96" x2="325.76" y2="450.79" stroke="hsl(48.9, 89.9%, 61.0%)" stroke-width="6.61" stroke-linecap="round"/>
<line x1="300.61" y1="372.94" x2="317.75" y2="450.27" stroke="hsl(48.9, 89.9%, 61.0%)" stroke-width="6.61" stroke-linecap="round"/>
<line x1="296.53" y1="373.75" x2="305.55" y2="424.89" stroke="hsl(48.9, 89.9%, 61.0%)" stroke-width="6.61" stroke-linecap="round"/>
<line x1="292.43" y1="374.39" x2="295.64" y2="398.81" stroke="hsl(48.9, 89.9%, 61.0%)" stroke-width="6.61" stroke-linecap="round"/>
<line x1="288.30" y1="374.84" x2="290.23" y2="396.99" stroke="hsl(48.9, 89.9%, 61.0%)" stroke-width="6.61" stroke-linecap="round"/>
<line x1="284.15" y1="375.11" x2="285.13" y2="397.38" stroke="hsl(48.9, 89.9%, 61.0%)" stroke-width="6.61" stroke-linecap="round"/>
<line x1="280.00" y1="375.20" x2="280.00" y2="398.19" stroke="hsl(48.9, 89.9%, 61.0%)" stroke-width="6.61" stroke-linecap="round"/>
<line x1="275.85" y1="375.11" x2="274.81" y2="398.77" stroke="hsl(48.9, 89.9%, 61.0%)" stroke-width="6.61" stroke-linecap="round"/>
<line x1="271.70" y1="374.84" x2="269.63" y2="398.49" stroke="hsl(48.9, 89.9%, 61.0%)" stroke-width="6.61" stroke-linecap="round"/>
<line x1="267.57" y1="374.39" x2="264.49" y2="397.80" stroke="hsl(48.9, 89.9%, 61.0%)" stroke-width="6.61" stroke-linecap="round"/>
<line x1="263.47" y1="373.75" x2="259.61" y2="395.61" stroke="hsl(48.9, 89.9%, 61.0%)" stroke-width="6.61" stroke-linecap="round"/>
<line x1="259.39" y1="372.94" x2="254.90" y2="393.22" stroke="hsl(48.9, 89.9%, 61.0%)" stroke-width="6.61" stroke-linecap="round"/>
<line x1="255.36" y1="371.96" x2="250.02" y2="391.90" stroke="hsl(48.9, 89.9%, 61.0%)" stroke-width="6.61" stroke-linecap="round"/>
<line x1="251.37" y1="370.79" x2="244.62" y2="392.20" stroke="hsl(48.2, 89.1%, 61.3%)" stroke-width="6.61" stroke-linecap="round"/>
<line x1="247.44" y1="369.46" x2="232.75" y2="409.81" stroke="hsl(39.4, 84.2%, 63.3%)" stroke-width="6.61" stroke-linecap="round"/>
<line x1="243.57" y1="367.95" x2="219.29" y2="426.56" stroke="hsl(30.6, 89.1%, 61.3%)" stroke-width="6.61" stroke-linecap="round"/>
<line x1="239.77" y1="366.28" x2="212.19" y2="425.41" stroke="hsl(29.8, 89.9%, 61.0%)" stroke-width="6.61" stroke-linecap="round"/>
<line x1="236.04" y1="364.44" x2="206.84" y2="420.54" stroke="hsl(29.8, 89.9%, 61.0%)" stroke-width="6.61" stroke-linecap="round"/>
<line x1="232.40" y1="362.45" x2="212.10" y2="397.61" stroke="hsl(29.8, 89.9%, 61.0%)" stroke-width="6.61" stroke-linecap="round"/>
<line x1="228.85" y1="360.29" x2="219.20" y2="375.44" stroke="hsl(29.8, 89.9%, 61.0%)" stroke-width="6.61" stroke-linecap="round"/>
<line x1="225.40" y1="357.98" x2="216.24" y2="371.06" stroke="hsl(29.8, 89.9%, 61.0%)" stroke-width="6.61" stroke-linecap="round"/>
<line x1="222.05" y1="355.53" x2="210.48" y2="370.59" stroke="hsl(29.8, 89.9%, 61.0%)" stroke-width="6.61" stroke-linecap="round"/>
<line x1="218.81" y1="352.93" x2="184.50" y2="393.81" stroke="hsl(29.8, 89.9%, 61.0%)" stroke-width="6.61" stroke-linecap="round"/>
<line x1="215.68" y1="350.19" x2="156.40" y2="414.89" stroke="hsl(29.8, 89.9%, 61.0%)" stroke-width="6.61" stroke-linecap="round"/>
<line x1="212.68" y1="347.32" x2="148.49" y2="411.51" stroke="hsl(29.8, 89.9%, 61.0%)" stroke-width="6.61" stroke-linecap="round"/>
<line x1="209.81" y1="344.32" x2="143.86" y2="404.75" stroke="hsl(29.8, 89.9%, 61.0%)" stroke-width="6.61" stroke-linecap="round"/>
<line x1="207.07" y1="341.19" x2="150.18" y2="388.93" stroke="hsl(29.8, 89.9%, 61.0%)" stroke-width="6.61" stroke-linecap="round"/>
<line x1="204.47" y1="337.95" x2="157.60" y2="373.92" stroke="hsl(29.8, 89.9%, 61.0%)" stroke-width="6.61" stroke-linecap="round"/>
<line x1="202.02" y1="334.60" x2="154.72" y2="367.72" stroke="hsl(29.8, 89.9%, 61.0%)" stroke-width="6.61" stroke-linecap="round"/>
<line x1="199.71" y1="331.15" x2="151.18" y2="362.07" stroke="hsl(28.7, 88.3%, 61.6%)" stroke-width="6.61" stroke-linecap="round"/>
<line x1="197.55" y1="327.60" x2="149.68" y2="355.24" stroke="hsl(15.5, 78.3%, 65.3%)" stroke-width="6.61" stroke-linecap="round"/>
<line x1="195.56" y1="323.96" x2="148.53" y2="348.44" stroke="hsl(2.3, 82.3%, 63.0%)" stroke-width="6.61" stroke-linecap="round"/>
<line x1="193.72" y1="320.23" x2="145.85" y2="342.56" stroke="hsl(1.1, 83.2%, 62.5%)" stroke-width="6.61" stroke-linecap="round"/>
<line x1="192.05" y1="316.43" x2="144.00" y2="336.33" stroke="hsl(1.1, 83.2%, 62.5%)" stroke-width="6.61" stroke-linecap="round"/>
<line x1="190.54" y1="312.56" x2="150.35" y2="327.19" stroke="hsl(1.1, 83.2%, 62.5%)" stroke-width="6.61" stroke-linecap="round"/>
<line x1="189.21" y1="308.63" x2="157.22" y2="318.71" stroke="hsl(1.1, 83.2%, 62.5%)" stroke-width="6.61" stroke-linecap="round"/>
<line x1="188.04" y1="304.64" x2="156.44" y2="313.11" stroke="hsl(1.1, 83.2%, 62.5%)" stroke-width="6.61" stroke-linecap="round"/>
<line x1="187.06" y1="300.61" x2="155.04" y2="307.70" stroke="hsl(1.1, 83.2%, 62.5%)" stroke-width="6.61" stroke-linecap="round"/>
<line x1="186.25" y1="296.53" x2="153.13" y2="302.37" stroke="hsl(1.1, 83.2%, 62.5%)" stroke-width="6.61" stroke-linecap="round"/>
<line x1="185.61" y1="292.43" x2="151.45" y2="296.92" stroke="hsl(1.1, 83.2%, 62.5%)" stroke-width="6.61" stroke-linecap="round"/>
<line x1="185.16" y1="288.30" x2="150.76" y2="291.31" stroke="hsl(1.1, 83.2%, 62.5%)" stroke-width="6.61" stroke-linecap="round"/>
<line x1="184.89" y1="284.15" x2="149.52" y2="285.70" stroke="hsl(1.1, 83.2%, 62.5%)" stroke-width="6.61" stroke-linecap="round"/>
<line x1="184.80" y1="280.00" x2="139.55" y2="280.00" stroke="hsl(1.1, 83.2%, 62.5%)" stroke-width="6.61" stroke-linecap="round"/>
<line x1="184.89" y1="275.85" x2="129.84" y2="273.44" stroke="hsl(1.1, 83.2%, 62.5%)" stroke-width="6.61" stroke-linecap="round"/>
<line x1="185.16" y1="271.70" x2="129.40" y2="266.82" stroke="hsl(1.1, 83.2%, 62.5%)" stroke-width="6.61" stroke-linecap="round"/>
<line x1="185.61" y1="267.57" x2="130.55" y2="260.32" stroke="hsl(359.8, 81.3%, 63.1%)" stroke-width="6.61" stroke-linecap="round"/>
<line x1="186.25" y1="263.47" x2="136.45" y2="254.69" stroke="hsl(345.1, 67.7%, 66.0%)" stroke-width="6.61" stroke-linecap="round"/>
<line x1="187.06" y1="259.39" x2="142.55" y2="249.53" stroke="hsl(330.4, 67.8%, 62.2%)" stroke-width="6.61" stroke-linecap="round"/>
<line x1="188.04" y1="255.36" x2="144.44" y2="243.68" stroke="hsl(329.1, 68.4%, 61.6%)" stroke-width="6.61" stroke-linecap="round"/>
<line x1="189.21" y1="251.37" x2="145.82" y2="237.69" stroke="hsl(329.1, 68.4%, 61.6%)" stroke-width="6.61" stroke-linecap="round"/>
<line x1="190.54" y1="247.44" x2="144.08" y2="230.53" stroke="hsl(329.1, 68.4%, 61.6%)" stroke-width="6.61" stroke-linecap="round"/>
<line x1="192.05" y1="243.57" x2="142.72" y2="223.14" stroke="hsl(329.1, 68.4%, 61.6%)" stroke-width="6.61" stroke-linecap="round"/>
<line x1="193.72" y1="239.77" x2="145.01" y2="217.05" stroke="hsl(329.1, 68.4%, 61.6%)" stroke-width="6.61" stroke-linecap="round"/>
<line x1="195.56" y1="236.04" x2="146.90" y2="210.71" stroke="hsl(329.1, 68.4%, 61.6%)" stroke-width="6.61" stroke-linecap="round"/>
<line x1="197.55" y1="232.40" x2="139.10" y2="198.65" stroke="hsl(329.1, 68.4%, 61.6%)" stroke-width="6.61" stroke-linecap="round"/>
<line x1="199.71" y1="228.85" x2="132.11" y2="185.79" stroke="hsl(329.1, 68.4%, 61.6%)" stroke-width="6.61" stroke-linecap="round"/>
<line x1="202.02" y1="225.40" x2="135.45" y2="178.78" stroke="hsl(329.1, 68.4%, 61.6%)" stroke-width="6.61" stroke-linecap="round"/>
<line x1="204.47" y1="222.05" x2="140.71" y2="173.12" stroke="hsl(329.1, 68.4%, 61.6%)" stroke-width="6.61" stroke-linecap="round"/>
<line x1="207.07" y1="218.81" x2="153.28" y2="173.67" stroke="hsl(329.1, 68.4%, 61.6%)" stroke-width="6.61" stroke-linecap="round"/>
<line x1="209.81" y1="215.68" x2="165.52" y2="175.10" stroke="hsl(329.1, 68.4%, 61.6%)" stroke-width="6.61" stroke-linecap="round"/>
<line x1="212.68" y1="212.68" x2="170.83" y2="170.83" stroke="hsl(329.1, 68.4%, 61.6%)" stroke-width="6.61" stroke-linecap="round"/>
<line x1="215.68" y1="209.81" x2="175.00" y2="165.41" stroke="hsl(326.0, 66.4%, 63.2%)" stroke-width="6.61" stroke-linecap="round"/>
<line x1="218.81" y1="207.07" x2="172.50" y2="151.88" stroke="hsl(290.6, 58.3%, 73.2%)" stroke-width="6.61" stroke-linecap="round"/>
<line x1="222.05" y1="204.47" x2="170.99" y2="137.94" stroke="hsl(255.3, 84.1%, 67.4%)" stroke-width="6.61" stroke-linecap="round"/>
<line x1="225.40" y1="202.02" x2="176.70" y2="132.47" stroke="hsl(252.2, 88.4%, 66.1%)" stroke-width="6.61" stroke-linecap="round"/>
<line x1="228.85" y1="199.71" x2="183.68" y2="128.81" stroke="hsl(252.2, 88.4%, 66.1%)" stroke-width="6.61" stroke-linecap="round"/>
<line x1="232.40" y1="197.55" x2="195.13" y2="133.00" stroke="hsl(252.2, 88.4%, 66.1%)" stroke-width="6.61" stroke-linecap="round"/>
<line x1="236.04" y1="195.56" x2="206.02" y2="137.89" stroke="hsl(252.2, 88.4%, 66.1%)" stroke-width="6.61" stroke-linecap="round"/>
<line x1="239.77" y1="193.72" x2="212.65" y2="135.56" stroke="hsl(252.2, 88.4%, 66.1%)" stroke-width="6.61" stroke-linecap="round"/>
<line x1="243.57" y1="192.05" x2="219.01" y2="132.76" stroke="hsl(252.2, 88.4%, 66.1%)" stroke-width="6.61" stroke-linecap="round"/>
<line x1="247.44" y1="190.54" x2="225.48" y2="130.20" stroke="hsl(252.2, 88.4%, 66.1%)" stroke-width="6.61" stroke-linecap="round"/>
<line x1="251.37" y1="189.21" x2="232.05" y2="127.93" stroke="hsl(252.2, 88.4%, 66.1%)" stroke-width="6.61" stroke-linecap="round"/>
<line x1="255.36" y1="188.04" x2="238.73" y2="125.98" stroke="hsl(252.2, 88.4%, 66.1%)" stroke-width="6.61" stroke-linecap="round"/>
<line x1="259.39" y1="187.06" x2="245.26" y2="123.29" stroke="hsl(252.2, 88.4%, 66.1%)" stroke-width="6.61" stroke-linecap="round"/>
<line x1="263.47" y1="186.25" x2="250.04" y2="110.08" stroke="hsl(252.2, 88.4%, 66.1%)" stroke-width="6.61" stroke-linecap="round"/>
<line x1="267.57" y1="185.61" x2="255.91" y2="97.00" stroke="hsl(252.2, 88.4%, 66.1%)" stroke-width="6.61" stroke-linecap="round"/>
<line x1="271.70" y1="185.16" x2="263.82" y2="95.07" stroke="hsl(252.2, 88.4%, 66.1%)" stroke-width="6.61" stroke-linecap="round"/>
<line x1="275.85" y1="184.89" x2="271.92" y2="94.83" stroke="hsl(251.0, 87.2%, 66.5%)" stroke-width="6.61" stroke-linecap="round"/>
<text x="280" y="526" text-anchor="middle" font-family="sans-serif" font-size="22" font-weight="bold" fill="#222">⑨ 台地 soft=0.33</text>
<text x="280" y="548" text-anchor="middle" font-family="sans-serif" font-size="15" fill="#888">しっかり丸み</text>
</svg>