<svg xmlns="http://www.w3.org/2000/svg" width="560" height="560" viewBox="0 0 560 560">
<rect width="560" height="560" fill="white"/>
<line x1="280.00" y1="184.80" x2="280.00" y2="114.65" stroke="hsl(205.5, 69.8%, 63.5%)" stroke-width="7.44" stroke-linecap="round"/>
<line x1="284.67" y1="184.91" x2="288.45" y2="107.92" stroke="hsl(214.2, 77.8%, 64.3%)" stroke-width="7.44" stroke-linecap="round"/>
<line x1="289.33" y1="185.26" x2="297.57" y2="101.63" stroke="hsl(223.0, 91.5%, 62.9%)" stroke-width="7.44" stroke-linecap="round"/>
<line x1="293.97" y1="185.83" x2="306.57" y2="100.90" stroke="hsl(223.0, 91.5%, 62.9%)" stroke-width="7.44" stroke-linecap="round"/>
<line x1="298.57" y1="186.63" x2="315.68" y2="100.63" stroke="hsl(223.0, 91.5%, 62.9%)" stroke-width="7.44" stroke-linecap="round"/>
<line x1="303.13" y1="187.65" x2="324.88" y2="100.83" stroke="hsl(223.0, 91.5%, 62.9%)" stroke-width="7.44" stroke-linecap="round"/>
<line x1="307.64" y1="188.90" x2="334.15" y2="101.50" stroke="hsl(223.0, 91.5%, 62.9%)" stroke-width="7.44" stroke-linecap="round"/>
<line x1="312.07" y1="190.37" x2="342.23" y2="106.08" stroke="hsl(223.0, 91.5%, 62.9%)" stroke-width="7.44" stroke-linecap="round"/>
<line x1="316.43" y1="192.05" x2="349.99" y2="111.02" stroke="hsl(223.0, 91.5%, 62.9%)" stroke-width="7.44" stroke-linecap="round"/>
<line x1="320.70" y1="193.94" x2="357.42" y2="116.30" stroke="hsl(223.0, 91.5%, 62.9%)" stroke-width="7.44" stroke-linecap="round"/>
<line x1="324.88" y1="196.04" x2="364.51" y2="121.90" stroke="hsl(223.0, 91.5%, 62.9%)" stroke-width="7.44" stroke-linecap="round"/>
<line x1="328.94" y1="198.34" x2="372.09" y2="126.36" stroke="hsl(223.0, 91.5%, 62.9%)" stroke-width="7.44" stroke-linecap="round"/>
<line x1="332.89" y1="200.84" x2="379.44" y2="131.18" stroke="hsl(223.0, 91.5%, 62.9%)" stroke-width="7.44" stroke-linecap="round"/>
<line x1="336.71" y1="203.53" x2="386.53" y2="136.36" stroke="hsl(223.0, 91.5%, 62.9%)" stroke-width="7.44" stroke-linecap="round"/>
<line x1="340.39" y1="206.41" x2="393.36" y2="141.87" stroke="hsl(223.0, 91.5%, 62.9%)" stroke-width="7.44" stroke-linecap="round"/>
<line x1="343.93" y1="209.46" x2="403.18" y2="144.10" stroke="hsl(230.3, 84.1%, 66.4%)" stroke-width="7.44" stroke-linecap="round"/>
<line x1="347.32" y1="212.68" x2="413.04" y2="146.96" stroke="hsl(237.6, 81.2%, 68.1%)" stroke-width="7.44" stroke-linecap="round"/>
<line x1="350.54" y1="216.07" x2="422.91" y2="150.47" stroke="hsl(244.9, 82.7%, 68.0%)" stroke-width="7.44" stroke-linecap="round"/>
<line x1="353.59" y1="219.61" x2="432.75" y2="154.64" stroke="hsl(252.2, 88.4%, 66.1%)" stroke-width="7.44" stroke-linecap="round"/>
<line x1="356.47" y1="223.29" x2="437.92" y2="162.88" stroke="hsl(252.2, 88.4%, 66.1%)" stroke-width="7.44" stroke-linecap="round"/>
<line x1="359.16" y1="227.11" x2="442.65" y2="171.32" stroke="hsl(252.2, 88.4%, 66.1%)" stroke-width="7.44" stroke-linecap="round"/>
<line x1="361.66" y1="231.06" x2="446.94" y2="179.94" stroke="hsl(252.2, 88.4%, 66.1%)" stroke-width="7.44" stroke-linecap="round"/>
<line x1="363.96" y1="235.12" x2="450.77" y2="188.72" stroke="hsl(252.2, 88.4%, 66.1%)" stroke-width="7.44" stroke-linecap="round"/>
<line x1="366.06" y1="239.30" x2="456.85" y2="196.36" stroke="hsl(252.2, 88.4%, 66.1%)" stroke-width="7.44" stroke-linecap="round"/>
<line x1="367.95" y1="243.57" x2="462.58" y2="204.37" stroke="hsl(252.2, 88.4%, 66.1%)" stroke-width="7.44" stroke-linecap="round"/>
<line x1="369.63" y1="247.93" x2="467.94" y2="212.75" stroke="hsl(252.2, 88.4%, 66.1%)" stroke-width="7.44" stroke-linecap="round"/>
<line x1="371.10" y1="252.36" x2="472.92" y2="221.48" stroke="hsl(252.2, 88.4%, 66.1%)" stroke-width="7.44" stroke-linecap="round"/>
<line x1="372.35" y1="256.87" x2="463.53" y2="234.03" stroke="hsl(252.2, 88.4%, 66.1%)" stroke-width="7.44" stroke-linecap="round"/>
<line x1="373.37" y1="261.43" x2="453.41" y2="245.51" stroke="hsl(252.2, 88.4%, 66.1%)" stroke-width="7.44" stroke-linecap="round"/>
<line x1="374.17" y1="266.03" x2="442.63" y2="255.88" stroke="hsl(252.2, 88.4%, 66.1%)" stroke-width="7.44" stroke-linecap="round"/>
<line x1="374.74" y1="270.67" x2="431.28" y2="265.10" stroke="hsl(252.2, 88.4%, 66.1%)" stroke-width="7.44" stroke-linecap="round"/>
<line x1="375.09" y1="275.33" x2="442.67" y2="272.01" stroke="hsl(271.4, 67.4%, 72.0%)" stroke-width="7.44" stroke-linecap="round"/>
<line x1="375.20" y1="280.00" x2="453.73" y2="280.00" stroke="hsl(290.6, 58.3%, 73.2%)" stroke-width="7.44" stroke-linecap="round"/>
<line x1="375.09" y1="284.67" x2="464.36" y2="289.06" stroke="hsl(309.9, 59.3%, 69.7%)" stroke-width="7.44" stroke-linecap="round"/>
<line x1="374.74" y1="289.33" x2="474.50" y2="299.16" stroke="hsl(329.1, 68.4%, 61.6%)" stroke-width="7.44" stroke-linecap="round"/>
<line x1="374.17" y1="293.97" x2="474.74" y2="308.89" stroke="hsl(329.1, 68.4%, 61.6%)" stroke-width="7.44" stroke-linecap="round"/>
<line x1="373.37" y1="298.57" x2="474.48" y2="318.68" stroke="hsl(329.1, 68.4%, 61.6%)" stroke-width="7.44" stroke-linecap="round"/>
<line x1="372.35" y1="303.13" x2="473.73" y2="328.53" stroke="hsl(329.1, 68.4%, 61.6%)" stroke-width="7.44" stroke-linecap="round"/>
<line x1="371.10" y1="307.64" x2="472.47" y2="338.39" stroke="hsl(329.1, 68.4%, 61.6%)" stroke-width="7.44" stroke-linecap="round"/>
<line x1="369.63" y1="312.07" x2="465.64" y2="346.42" stroke="hsl(329.1, 68.4%, 61.6%)" stroke-width="7.44" stroke-linecap="round"/>
<line x1="367.95" y1="316.43" x2="458.48" y2="353.93" stroke="hsl(329.1, 68.4%, 61.6%)" stroke-width="7.44" stroke-linecap="round"/>
<line x1="366.06" y1="320.70" x2="451.05" y2="360.90" stroke="hsl(329.1, 68.4%, 61.6%)" stroke-width="7.44" stroke-linecap="round"/>
<line x1="363.96" y1="324.88" x2="443.37" y2="367.32" stroke="hsl(329.1, 68.4%, 61.6%)" stroke-width="7.44" stroke-linecap="round"/>
<line x1="361.66" y1="328.94" x2="437.23" y2="374.24" stroke="hsl(329.1, 68.4%, 61.6%)" stroke-width="7.44" stroke-linecap="round"/>
<line x1="359.16" y1="332.89" x2="430.80" y2="380.76" stroke="hsl(329.1, 68.4%, 61.6%)" stroke-width="7.44" stroke-linecap="round"/>
<line x1="356.47" y1="336.71" x2="424.12" y2="386.89" stroke="hsl(329.1, 68.4%, 61.6%)" stroke-width="7.44" stroke-linecap="round"/>
<line x1="353.59" y1="340.39" x2="417.21" y2="392.60" stroke="hsl(329.1, 68.4%, 61.6%)" stroke-width="7.44" stroke-linecap="round"/>
<line x1="350.54" y1="343.93" x2="408.47" y2="396.44" stroke="hsl(337.1, 66.3%, 64.7%)" stroke-width="7.44" stroke-linecap="round"/>
<line x1="347.32" y1="347.32" x2="399.70" y2="399.70" stroke="hsl(345.1, 67.7%, 66.0%)" stroke-width="7.44" stroke-linecap="round"/>
<line x1="343.93" y1="350.54" x2="390.93" y2="402.39" stroke="hsl(353.1, 73.2%, 65.2%)" stroke-width="7.44" stroke-linecap="round"/>
<line x1="340.39" y1="353.59" x2="382.19" y2="404.52" stroke="hsl(1.1, 83.2%, 62.5%)" stroke-width="7.44" stroke-linecap="round"/>
<line x1="336.71" y1="356.47" x2="368.52" y2="399.36" stroke="hsl(1.1, 83.2%, 62.5%)" stroke-width="7.44" stroke-linecap="round"/>
<line x1="332.89" y1="359.16" x2="355.62" y2="393.18" stroke="hsl(1.1, 83.2%, 62.5%)" stroke-width="7.44" stroke-linecap="round"/>
<line x1="328.94" y1="361.66" x2="343.56" y2="386.05" stroke="hsl(1.1, 83.2%, 62.5%)" stroke-width="7.44" stroke-linecap="round"/>
<line x1="324.88" y1="363.96" x2="332.40" y2="378.03" stroke="hsl(1.1, 83.2%, 62.5%)" stroke-width="7.44" stroke-linecap="round"/>
<line x1="320.70" y1="366.06" x2="328.22" y2="381.94" stroke="hsl(1.1, 83.2%, 62.5%)" stroke-width="7.44" stroke-linecap="round"/>
<line x1="316.43" y1="367.95" x2="323.77" y2="385.68" stroke="hsl(1.1, 83.2%, 62.5%)" stroke-width="7.44" stroke-linecap="round"/>
<line x1="312.07" y1="369.63" x2="319.08" y2="389.21" stroke="hsl(1.1, 83.2%, 62.5%)" stroke-width="7.44" stroke-linecap="round"/>
<line x1="307.64" y1="371.10" x2="314.14" y2="392.54" stroke="hsl(1.1, 83.2%, 62.5%)" stroke-width="7.44" stroke-linecap="round"/>
<line x1="303.13" y1="372.35" x2="308.47" y2="393.67" stroke="hsl(1.1, 83.2%, 62.5%)" stroke-width="7.44" stroke-linecap="round"/>
<line x1="298.57" y1="373.37" x2="302.78" y2="394.51" stroke="hsl(1.1, 83.2%, 62.5%)" stroke-width="7.44" stroke-linecap="round"/>
<line x1="293.97" y1="374.17" x2="297.07" y2="395.07" stroke="hsl(1.1, 83.2%, 62.5%)" stroke-width="7.44" stroke-linecap="round"/>
<line x1="289.33" y1="374.74" x2="291.36" y2="395.35" stroke="hsl(1.1, 83.2%, 62.5%)" stroke-width="7.44" stroke-linecap="round"/>
<line x1="284.67" y1="375.09" x2="286.24" y2="406.95" stroke="hsl(8.3, 78.8%, 64.8%)" stroke-width="7.44" stroke-linecap="round"/>
<line x1="280.00" y1="375.20" x2="280.00" y2="418.29" stroke="hsl(15.5, 78.3%, 65.3%)" stroke-width="7.44" stroke-linecap="round"/>
<line x1="275.33" y1="375.09" x2="272.67" y2="429.31" stroke="hsl(22.7, 81.9%, 64.0%)" stroke-width="7.44" stroke-linecap="round"/>
<line x1="270.67" y1="374.74" x2="264.25" y2="439.90" stroke="hsl(29.8, 89.9%, 61.0%)" stroke-width="7.44" stroke-linecap="round"/>
<line x1="266.03" y1="374.17" x2="255.46" y2="445.44" stroke="hsl(29.8, 89.9%, 61.0%)" stroke-width="7.44" stroke-linecap="round"/>
<line x1="261.43" y1="373.37" x2="246.09" y2="450.48" stroke="hsl(29.8, 89.9%, 61.0%)" stroke-width="7.44" stroke-linecap="round"/>
<line x1="256.87" y1="372.35" x2="236.17" y2="454.99" stroke="hsl(29.8, 89.9%, 61.0%)" stroke-width="7.44" stroke-linecap="round"/>
<line x1="252.36" y1="371.10" x2="225.73" y2="458.92" stroke="hsl(29.8, 89.9%, 61.0%)" stroke-width="7.44" stroke-linecap="round"/>
<line x1="247.93" y1="369.63" x2="219.83" y2="448.15" stroke="hsl(29.8, 89.9%, 61.0%)" stroke-width="7.44" stroke-linecap="round"/>
<line x1="243.57" y1="367.95" x2="214.86" y2="437.26" stroke="hsl(29.8, 89.9%, 61.0%)" stroke-width="7.44" stroke-linecap="round"/>
<line x1="239.30" y1="366.06" x2="210.80" y2="426.31" stroke="hsl(29.8, 89.9%, 61.0%)" stroke-width="7.44" stroke-linecap="round"/>
<line x1="235.12" y1="363.96" x2="207.66" y2="415.35" stroke="hsl(29.8, 89.9%, 61.0%)" stroke-width="7.44" stroke-linecap="round"/>
<line x1="231.06" y1="361.66" x2="201.75" y2="410.55" stroke="hsl(29.8, 89.9%, 61.0%)" stroke-width="7.44" stroke-linecap="round"/>
<line x1="227.11" y1="359.16" x2="196.15" y2="405.49" stroke="hsl(29.8, 89.9%, 61.0%)" stroke-width="7.44" stroke-linecap="round"/>
<line x1="223.29" y1="356.47" x2="190.85" y2="400.21" stroke="hsl(29.8, 89.9%, 61.0%)" stroke-width="7.44" stroke-linecap="round"/>
<line x1="219.61" y1="353.59" x2="185.86" y2="394.71" stroke="hsl(29.8, 89.9%, 61.0%)" stroke-width="7.44" stroke-linecap="round"/>
<line x1="216.07" y1="350.54" x2="175.65" y2="395.14" stroke="hsl(34.6, 85.7%, 62.7%)" stroke-width="7.44" stroke-linecap="round"/>
<line x1="212.68" y1="347.32" x2="165.17" y2="394.83" stroke="hsl(39.4, 84.2%, 63.3%)" stroke-width="7.44" stroke-linecap="round"/>
<line x1="209.46" y1="343.93" x2="154.49" y2="393.76" stroke="hsl(44.2, 85.7%, 62.7%)" stroke-width="7.44" stroke-linecap="round"/>
<line x1="206.41" y1="340.39" x2="143.65" y2="391.90" stroke="hsl(48.9, 89.9%, 61.0%)" stroke-width="7.44" stroke-linecap="round"/>
<line x1="203.53" y1="336.71" x2="137.44" y2="385.73" stroke="hsl(48.9, 89.9%, 61.0%)" stroke-width="7.44" stroke-linecap="round"/>
<line x1="200.84" y1="332.89" x2="131.50" y2="379.22" stroke="hsl(48.9, 89.9%, 61.0%)" stroke-width="7.44" stroke-linecap="round"/>
<line x1="198.34" y1="328.94" x2="125.87" y2="372.38" stroke="hsl(48.9, 89.9%, 61.0%)" stroke-width="7.44" stroke-linecap="round"/>
<line x1="196.04" y1="324.88" x2="120.55" y2="365.23" stroke="hsl(48.9, 89.9%, 61.0%)" stroke-width="7.44" stroke-linecap="round"/>
<line x1="193.94" y1="320.70" x2="121.29" y2="355.06" stroke="hsl(48.9, 89.9%, 61.0%)" stroke-width="7.44" stroke-linecap="round"/>
<line x1="192.05" y1="316.43" x2="122.63" y2="345.18" stroke="hsl(48.9, 89.9%, 61.0%)" stroke-width="7.44" stroke-linecap="round"/>
<line x1="190.37" y1="312.07" x2="124.55" y2="335.62" stroke="hsl(48.9, 89.9%, 61.0%)" stroke-width="7.44" stroke-linecap="round"/>
<line x1="188.90" y1="307.64" x2="127.01" y2="326.41" stroke="hsl(48.9, 89.9%, 61.0%)" stroke-width="7.44" stroke-linecap="round"/>
<line x1="187.65" y1="303.13" x2="124.88" y2="318.85" stroke="hsl(48.9, 89.9%, 61.0%)" stroke-width="7.44" stroke-linecap="round"/>
<line x1="186.63" y1="298.57" x2="123.13" y2="311.20" stroke="hsl(48.9, 89.9%, 61.0%)" stroke-width="7.44" stroke-linecap="round"/>
<line x1="185.83" y1="293.97" x2="121.76" y2="303.47" stroke="hsl(48.9, 89.9%, 61.0%)" stroke-width="7.44" stroke-linecap="round"/>
<line x1="185.26" y1="289.33" x2="120.77" y2="295.68" stroke="hsl(48.9, 89.9%, 61.0%)" stroke-width="7.44" stroke-linecap="round"/>
<line x1="184.91" y1="284.67" x2="122.87" y2="287.72" stroke="hsl(67.3, 63.1%, 64.8%)" stroke-width="7.44" stroke-linecap="round"/>
<line x1="184.80" y1="280.00" x2="125.36" y2="280.00" stroke="hsl(85.7, 48.8%, 64.1%)" stroke-width="7.44" stroke-linecap="round"/>
<line x1="184.91" y1="275.33" x2="128.23" y2="272.54" stroke="hsl(104.1, 42.5%, 58.9%)" stroke-width="7.44" stroke-linecap="round"/>
<line x1="185.26" y1="270.67" x2="131.44" y2="265.37" stroke="hsl(122.4, 39.4%, 49.2%)" stroke-width="7.44" stroke-linecap="round"/>
<line x1="185.83" y1="266.03" x2="125.46" y2="257.08" stroke="hsl(122.4, 39.4%, 49.2%)" stroke-width="7.44" stroke-linecap="round"/>
<line x1="186.63" y1="261.43" x2="119.96" y2="248.17" stroke="hsl(122.4, 39.4%, 49.2%)" stroke-width="7.44" stroke-linecap="round"/>
<line x1="187.65" y1="256.87" x2="114.97" y2="238.66" stroke="hsl(122.4, 39.4%, 49.2%)" stroke-width="7.44" stroke-linecap="round"/>
<line x1="188.90" y1="252.36" x2="110.55" y2="228.60" stroke="hsl(122.4, 39.4%, 49.2%)" stroke-width="7.44" stroke-linecap="round"/>
<line x1="190.37" y1="247.93" x2="118.52" y2="222.22" stroke="hsl(122.4, 39.4%, 49.2%)" stroke-width="7.44" stroke-linecap="round"/>
<line x1="192.05" y1="243.57" x2="126.70" y2="216.50" stroke="hsl(122.4, 39.4%, 49.2%)" stroke-width="7.44" stroke-linecap="round"/>
<line x1="193.94" y1="239.30" x2="135.04" y2="211.44" stroke="hsl(122.4, 39.4%, 49.2%)" stroke-width="7.44" stroke-linecap="round"/>
<line x1="196.04" y1="235.12" x2="143.50" y2="207.04" stroke="hsl(122.4, 39.4%, 49.2%)" stroke-width="7.44" stroke-linecap="round"/>
<line x1="198.34" y1="231.06" x2="150.30" y2="202.26" stroke="hsl(122.4, 39.4%, 49.2%)" stroke-width="7.44" stroke-linecap="round"/>
<line x1="200.84" y1="227.11" x2="157.23" y2="197.97" stroke="hsl(122.4, 39.4%, 49.2%)" stroke-width="7.44" stroke-linecap="round"/>
<line x1="203.53" y1="223.29" x2="164.26" y2="194.16" stroke="hsl(122.4, 39.4%, 49.2%)" stroke-width="7.44" stroke-linecap="round"/>
<line x1="206.41" y1="219.61" x2="171.36" y2="190.84" stroke="hsl(122.4, 39.4%, 49.2%)" stroke-width="7.44" stroke-linecap="round"/>
<line x1="209.46" y1="216.07" x2="177.85" y2="187.42" stroke="hsl(138.8, 38.6%, 56.8%)" stroke-width="7.44" stroke-linecap="round"/>
<line x1="212.68" y1="212.68" x2="184.41" y2="184.41" stroke="hsl(155.2, 41.4%, 60.4%)" stroke-width="7.44" stroke-linecap="round"/>
<line x1="216.07" y1="209.46" x2="191.01" y2="181.82" stroke="hsl(171.6, 50.0%, 59.9%)" stroke-width="7.44" stroke-linecap="round"/>
<line x1="219.61" y1="206.41" x2="197.63" y2="179.64" stroke="hsl(187.9, 66.5%, 55.5%)" stroke-width="7.44" stroke-linecap="round"/>
<line x1="223.29" y1="203.53" x2="202.94" y2="176.09" stroke="hsl(187.9, 66.5%, 55.5%)" stroke-width="7.44" stroke-linecap="round"/>
<line x1="227.11" y1="200.84" x2="208.39" y2="172.83" stroke="hsl(187.9, 66.5%, 55.5%)" stroke-width="7.44" stroke-linecap="round"/>
<line x1="231.06" y1="198.34" x2="213.97" y2="169.84" stroke="hsl(187.9, 66.5%, 55.5%)" stroke-width="7.44" stroke-linecap="round"/>
<line x1="235.12" y1="196.04" x2="219.68" y2="167.15" stroke="hsl(187.9, 66.5%, 55.5%)" stroke-width="7.44" stroke-linecap="round"/>
<line x1="239.30" y1="193.94" x2="221.95" y2="157.27" stroke="hsl(187.9, 66.5%, 55.5%)" stroke-width="7.44" stroke-linecap="round"/>
<line x1="243.57" y1="192.05" x2="225.06" y2="147.36" stroke="hsl(187.9, 66.5%, 55.5%)" stroke-width="7.44" stroke-linecap="round"/>
<line x1="247.93" y1="190.37" x2="229.00" y2="137.47" stroke="hsl(187.9, 66.5%, 55.5%)" stroke-width="7.44" stroke-linecap="round"/>
<line x1="252.36" y1="188.90" x2="233.79" y2="127.67" stroke="hsl(187.9, 66.5%, 55.5%)" stroke-width="7.44" stroke-linecap="round"/>
<line x1="256.87" y1="187.65" x2="241.79" y2="127.46" stroke="hsl(187.9, 66.5%, 55.5%)" stroke-width="7.44" stroke-linecap="round"/>
<line x1="261.43" y1="186.63" x2="249.70" y2="127.66" stroke="hsl(187.9, 66.5%, 55.5%)" stroke-width="7.44" stroke-linecap="round"/>
<line x1="266.03" y1="185.83" x2="257.49" y2="128.27" stroke="hsl(187.9, 66.5%, 55.5%)" stroke-width="7.44" stroke-linecap="round"/>
<line x1="270.67" y1="185.26" x2="265.15" y2="129.27" stroke="hsl(187.9, 66.5%, 55.5%)" stroke-width="7.44" stroke-linecap="round"/>
<line x1="275.33" y1="184.91" x2="272.23" y2="121.79" stroke="hsl(196.7, 66.4%, 60.6%)" stroke-width="7.44" stroke-linecap="round"/>
<text x="280" y="526" text-anchor="middle" font-family="sans-serif" font-size="22" font-weight="bold" fill="#222">④ 8×4 再編 (32学部)</text>
<text x="280" y="548" text-anchor="middle" font-family="sans-serif" font-size="15" fill="#888">8群×4・案A=案B</text>
</svg>